<?xml version="1.0" encoding="UTF-8"?>
<svg id="Layer_1" data-name="Layer 1" xmlns="http://www.w3.org/2000/svg" viewBox="0 0 1550.1 414.86">
  <defs>
    <style>
      .cls-1 {
        fill: #fff;
      }
    </style>
  </defs>
  <g>
    <path class="cls-1" d="M873.95,413.36c-3.98,.67-7.79,.35-11.58,.31-1.26-.01-2.2-.65-2.88-1.69-.63-.97-1.25-1.95-1.86-2.95-6.48-10.62-12.95-21.25-19.43-31.87-.85-1.4-1.77-2.75-2.61-4.07-1.66,.43-1.21,1.62-1.21,2.48-.04,9.29-.03,18.58-.04,27.87,0,1.99,.05,3.98-.04,5.97-.05,1.13-.3,2.25-.43,3.1-1.43,1.52-3,1.15-4.45,1.21-1.49,.07-2.99,.06-4.48,0-1.46-.05-2.92-.21-4.13-.3-1.58-2.07-1.23-4.13-1.24-6.08-.04-9.12-.02-18.25-.02-27.37s-.02-18.58,.02-27.87c0-1.95-.28-4,1.08-5.84,3.94-.81,7.92-.48,11.86-.25,.84,.05,1.79,.81,2.4,1.5,.86,.98,1.47,2.2,2.16,3.33,6.47,10.63,12.93,21.26,19.41,31.88,.83,1.36,1.44,2.93,2.86,3.88,1.33-.97,.86-2.23,.87-3.3,.04-10.12,.02-20.24,.03-30.36,0-1.49,0-2.99,.12-4.47,.14-1.69,.84-2.45,2.49-2.52,3.63-.16,7.27-.38,11.17,.27,.31,1.08,.73,2.12,.89,3.21,.16,1.14,.09,2.32,.09,3.48,0,17.92,.01,35.84-.01,53.75,0,2.12,.32,4.32-1.05,6.7Z"/>
    <path class="cls-1" d="M289.38,389.64c-.07,2.56-.16,4.53-.18,6.51-.04,4.81,.02,9.63-.1,14.44-.06,2.33-.76,3.03-3.01,3.08-3.46,.08-6.95,.38-10.69-.33-.31-1.05-.74-2.09-.9-3.18-.17-1.14-.09-2.32-.09-3.48,0-17.92-.01-35.85,.01-53.77,0-2.12-.32-4.32,.94-6.54,1.04-.17,2.15-.5,3.26-.51,7.63-.04,15.27-.19,22.9,.06,3.27,.1,6.62,.72,9.76,1.69,7.98,2.46,13.45,8.33,13.65,18.65,.14,7.42-2.45,13.65-9.03,17.76-.69,.43-1.35,.93-2.29,1.58,.5,1.26,.87,2.49,1.46,3.61,3.31,6.32,6.69,12.61,9.99,18.93,.75,1.43,1.87,2.76,1.61,4.93-.64,.19-1.38,.58-2.12,.6-3.15,.08-6.31-.02-9.46,.09-2.32,.08-3.64-1.03-4.64-3.01-2.82-5.64-5.74-11.23-8.64-16.83-2.52-4.87-2.53-4.89-8.02-4.75-1.29,.03-2.57,.27-4.42,.48Zm.39-13.13c4.07,1.38,12.27,1.3,15.52-.45,1.4-.75,2.79-1.92,3.62-3.25,3.93-6.28-.04-14.18-7.37-14.76-2.97-.23-5.97-.12-8.95-.06-.94,.02-1.87,.36-2.69,.53-.91,4.28-.94,13.74-.12,17.99Z"/>
    <path class="cls-1" d="M85.71,389.72c-1.12,1.71-.78,3.41-.8,5.03-.05,4.81,.03,9.63-.05,14.44-.06,4.1-.47,4.49-4.65,4.54-2.97,.03-5.95,.24-9.15-.35-.31-1.15-.72-2.21-.87-3.31-.16-1.14-.08-2.32-.08-3.48,0-17.92-.01-35.85,.01-53.77,0-2.12-.32-4.32,1.06-6.62,1.32-.11,2.77-.34,4.22-.35,6.97-.04,13.94-.02,20.91,0,3.68,0,7.28,.58,10.76,1.75,8.3,2.79,13.57,8.95,13.54,19.26-.02,7.25-2.71,13.26-9.11,17.22-.56,.35-1.08,.76-1.61,1.16-.13,.1-.2,.26-.51,.69,.41,1.01,.81,2.24,1.41,3.37,3.31,6.32,6.69,12.61,10,18.93,.74,1.42,1.83,2.77,1.61,4.87-.76,.2-1.5,.56-2.26,.57-3.15,.07-6.31,0-9.46,.07-2.06,.05-3.41-.79-4.35-2.65-2.84-5.63-5.76-11.22-8.66-16.82-.61-1.18-1.17-2.4-1.93-3.47-.45-.63-1.21-1.34-1.9-1.42-2.77-.32-5.58-.69-8.15,.33Zm-.19-12.64c4.98,.47,9.76,.85,14.43-.58,3.51-1.07,5.49-3.59,5.8-7.29,.1-1.15,.09-2.33-.04-3.47-.43-3.78-2.7-6.69-6.4-7.34-4.54-.79-9.16-.82-13.62,.02-1,4-1.11,13.11-.18,18.66Z"/>
    <path class="cls-1" d="M609.93,385.95c1.07,2.13,1.85,3.76,2.7,5.36,3.18,6.01,6.39,12,9.57,18.02,.6,1.14,1.47,2.24,.88,3.92-.73,.15-1.51,.44-2.28,.46-2.98,.06-5.97-.07-8.96,.06-2.52,.11-3.94-1.08-5.01-3.23-2.58-5.2-5.27-10.34-7.96-15.49-.99-1.89-2.07-3.73-3.02-5.43-2.97-.71-5.62-.52-8.26-.31-1.09,.09-1.83,.8-1.95,1.92-.12,1.15-.14,2.32-.14,3.48-.02,4.48,.02,8.96-.03,13.44-.02,1.62,.32,3.33-.92,5.07-4.04,.94-8.25,.7-12.7,.13-.28-1.05-.69-1.96-.73-2.89-.11-2.48-.07-4.97-.07-7.46,0-16.75-.01-33.51,.01-50.26,0-1.97-.32-3.98,.68-6.19,.92-.2,2.01-.64,3.1-.65,7.96-.05,15.92-.11,23.88,.02,3.83,.06,7.58,.86,11.12,2.42,7.23,3.19,11.09,8.77,11.39,16.64,.1,2.62-.16,5.31-.67,7.88-.84,4.22-3.24,7.57-6.7,10.15-1.17,.88-2.34,1.76-3.93,2.95Zm-23.94-27.63c-.9,4.85-.35,9.32-.48,13.75-.03,1.16,0,2.33,.18,3.47,.18,1.1,1.05,1.7,2.13,1.74,3.97,.14,7.96,.49,11.88-.48,4.78-1.18,7.42-4.93,7.09-9.96-.32-4.87-3.18-8.2-7.97-8.69-4.1-.42-8.25-.47-12.82,.17Z"/>
    <path class="cls-1" d="M736.37,372.47c1.31-1.85,.95-3.56,.96-5.18,.05-5.64-.02-11.28,.04-16.93,.05-4.14,.38-4.49,4.63-4.5,2.95,0,5.95-.44,8.62,.4,1.43,1.43,1.13,3,1.14,4.45,.04,6.31,.02,12.61,.02,18.92,0,12.61,.01,25.22-.02,37.84,0,1.79,.34,3.65-.61,5.32-3.64,1.29-8.98,1.33-13.07,.11-1.03-1.46-.7-3.16-.72-4.78-.04-5.81,0-11.62-.04-17.42-.01-1.63,.33-3.33-.81-5.21-3.79-1.07-7.93-.39-12-.45-4.13-.07-8.28-.35-12.22,.24-1.43,1.09-1.22,2.49-1.23,3.78-.03,6.14,0,12.28-.04,18.42-.01,1.79,.33,3.66-.62,5.35-1.42,1.23-3.14,.88-4.76,.91-2.15,.04-4.32,.02-6.47-.11-1.7-.11-2.32-.79-2.47-2.52-.11-1.15-.1-2.32-.1-3.48,0-18.59,0-37.17,0-55.76,0-1.64,.13-3.28,.2-5.02,.97-.36,1.7-.86,2.46-.89,3.61-.12,7.25-.49,10.57,.28,1.51,1.44,1.18,3.02,1.19,4.46,.05,5.48,0,10.95,.04,16.43,.01,1.62,.17,3.25,.27,4.94,2.94,1.41,5.8,.75,8.55,.86,2.82,.11,5.64,.07,8.46,.01,2.77-.06,5.6,.38,8.02-.46Z"/>
    <path class="cls-1" d="M1148.51,346.06c.2,2.25,.47,3.87,.47,5.5,.03,12.45,.03,24.9,0,37.35,0,1.82-.16,3.65-.39,5.46-1.24,9.75-6.7,16.06-15.98,18.96-6.32,1.97-12.8,2.05-19.15,.14-9.28-2.78-14.99-8.86-16.32-18.66-.27-1.97-.44-3.97-.45-5.95-.04-12.28-.03-24.57-.01-36.85,0-1.8-.22-3.66,.9-5.52,1.87-1.07,4.07-.64,6.17-.65,8.1-.05,7.73-.4,7.73,7.45,0,11.95,0,23.9,.01,35.85,0,1.66-.03,3.34,.2,4.97,.72,4.97,3.97,8.05,8.93,8.52,1.48,.14,2.99,.14,4.47,0,4.5-.4,7.39-2.71,8.5-7.12,.52-2.06,.6-4.26,.6-6.4,.05-12.12,.04-24.23,.03-36.35,0-7-.16-6.99,6.76-6.93,2.3,.02,4.6,.14,7.52,.24Z"/>
    <path class="cls-1" d="M200.58,392.35c.46,1.57,.81,2.84,1.19,4.09,.84,2.73,2.66,4.61,5.3,5.54,3.84,1.34,7.78,1.65,11.73,.45,2.77-.84,4.67-2.64,5.07-5.54,.39-2.82-.54-5.32-2.99-6.92-1.65-1.08-3.47-1.96-5.31-2.69-2.92-1.17-5.93-2.13-8.89-3.2-3.6-1.31-7.06-2.91-10.16-5.18-3.43-2.51-6.07-5.62-7.26-9.81-1.85-6.5-.36-12.2,4.4-16.89,1.73-1.71,3.89-3.18,6.11-4.17,8.24-3.67,16.72-3.99,25.2-.86,6.82,2.52,11.38,7.27,13.14,14.46,.35,1.45,.68,2.93-.5,4.71-3.96,.75-8.2,.55-12.7,.08-.5-1.23-.88-2.49-1.51-3.6-.72-1.28-1.46-2.66-2.54-3.59-3.55-3.07-11.26-3.09-14.97-.21-3.33,2.58-3.47,7.21-.11,9.82,1.55,1.2,3.38,2.1,5.2,2.85,2.6,1.07,5.31,1.87,7.98,2.79,4.25,1.46,8.33,3.3,11.96,6,4.35,3.23,6.96,7.53,7.54,12.93,.93,8.79-3.1,15.71-11.36,18.91-9.77,3.79-19.51,3.37-28.94-1.27-6.17-3.04-10.08-7.97-11.36-14.83-.09-.49-.17-.98-.2-1.48-.11-1.64,.57-2.65,2.16-2.74,3.79-.21,7.59-.5,11.8,.36Z"/>
    <path class="cls-1" d="M451.75,346.37c3.93-.62,33.07-.97,41.15-.51,.96,.05,1.91,.33,3.02,.53,1.06,3.22,.67,6.35,.46,9.45-.08,1.11-.89,1.79-1.98,1.9-1.32,.13-2.65,.17-3.98,.17-6.31,.02-12.62,0-18.93,.02-1.64,0-3.27,.13-5.06,.21-.3,.98-.73,1.74-.74,2.5-.03,3.78-.5,7.59,.33,11.1,1.46,1.41,3.02,1.15,4.48,1.16,5.15,.05,10.29,0,15.44,.04,1.8,.02,3.68-.28,5.44,1.04,.73,3.14,.7,6.38,.03,9.51-1.57,1.33-3.29,1.09-4.92,1.1-4.81,.04-9.63,0-14.45,.03-1.8,.01-3.61,.15-5.3,.23-1.8,2.7-1.04,5.43-1.12,8.01-.08,2.63,.11,5.26,.17,7.57,1.84,1.78,3.76,1.36,5.53,1.37,6.48,.05,12.95,0,19.43,.04,1.79,.01,3.68-.32,5.4,1.1,.73,3.14,.62,6.41,.06,9.56-1.61,1.65-3.53,1.19-5.3,1.2-9.96,.05-19.93,.02-29.89,.02-1.99,0-3.99,.02-5.98-.03-.98-.03-1.96-.2-3.22-.33-.33-1.09-.76-2.13-.92-3.22-.17-1.14-.09-2.32-.09-3.48,0-17.93-.01-35.87,.01-53.8,0-2.12-.3-4.32,.92-6.51Z"/>
    <path class="cls-1" d="M337.43,413.4c-1.57-2.13-1.2-4.19-1.21-6.14-.04-11.62-.02-23.25-.02-34.87,0-6.97-.04-13.95,.02-20.92,.04-5.39,.27-5.61,5.64-5.63,11.46-.03,22.91-.02,34.37,0,1.63,0,3.33-.3,5.14,.91,1.03,2.97,.74,6.25,.21,9.49-.1,.58-1.07,1.31-1.74,1.46-1.28,.27-2.64,.22-3.96,.22-6.31,.02-12.62,0-18.93,.02-1.64,0-3.28,.11-4.82,.16-1.73,2.32-1.05,4.73-1.12,6.97-.07,2.29,.14,4.58,.21,6.49,1.58,1.58,3.14,1.34,4.6,1.36,5.15,.04,10.29,0,15.44,.03,1.81,.01,3.66-.19,5.41,.88,1,3.24,.52,6.49,.34,9.44-1.71,1.58-3.44,1.32-5.06,1.34-4.81,.05-9.63,0-14.45,.03-1.81,.01-3.62,.14-5.32,.21-1.89,2.65-1.09,5.38-1.17,7.95-.09,2.63,.1,5.27,.16,7.62,1.79,1.79,3.71,1.38,5.48,1.39,6.48,.05,12.95,0,19.43,.04,1.79,.01,3.68-.32,5.41,1.04,.88,2.8,.51,5.77,.31,8.73-.07,1.1-.85,1.8-1.95,1.94-.98,.13-1.99,.16-2.98,.16-11.79,.01-23.58,.02-35.37-.01-1.45,0-2.9-.23-4.08-.33Z"/>
    <path class="cls-1" d="M936.85,366.23c-4.54,.8-8.78,.75-13.21,.08-.49-1.31-.94-2.52-1.41-3.74-.96-2.5-2.76-4.14-5.28-4.9-3.6-1.09-7.23-1.17-10.69,.44-5.03,2.34-5.64,8.08-1.05,11.12,2.32,1.53,5.04,2.49,7.65,3.54,3.38,1.36,6.93,2.34,10.23,3.87,2.69,1.24,5.33,2.77,7.63,4.63,6.41,5.17,7.77,12.09,5.99,19.77-.85,3.68-3.17,6.52-6.22,8.76-3.58,2.63-7.66,3.9-11.99,4.52-7.79,1.11-15.25,.12-22.2-3.67-6.05-3.31-9.79-8.34-10.7-15.29-.32-2.49,.34-3.41,2.94-3.45,3.6-.04,7.27-.65,10.94,.68,.33,1.14,.65,2.23,.96,3.33,.94,3.32,3.13,5.44,6.37,6.4,3.4,1.01,6.87,1.15,10.33,.24,2.97-.78,5.1-2.52,5.57-5.67,.46-3.08-.72-5.65-3.41-7.19-2.29-1.31-4.76-2.33-7.22-3.31-3.23-1.3-6.56-2.36-9.79-3.66-3.09-1.24-5.97-2.91-8.51-5.1-9.55-8.26-8.34-22.4,2.72-28.51,9.62-5.31,19.7-5.47,29.69-.92,5.23,2.38,8.69,6.55,10.42,12.08,.55,1.76,.8,3.53,.21,5.94Z"/>
    <path class="cls-1" d="M426.32,365.86c-.28-.82-.55-1.76-.94-2.66-.39-.91-.8-1.83-1.36-2.64-3.43-4.97-14.21-4.58-17.49-.48-2.15,2.68-2.03,6.17,.65,8.43,1.25,1.05,2.73,1.92,4.23,2.56,2.43,1.05,4.96,1.89,7.47,2.74,4.42,1.49,8.76,3.13,12.64,5.78,4.58,3.12,7.71,7.19,8.63,12.83,1.37,8.42-2.17,15.58-9.88,19.3-6.01,2.9-12.41,3.54-18.96,2.74-4.31-.53-8.46-1.7-12.26-3.9-4.77-2.77-8.29-6.61-9.85-12.01-.55-1.9-1.06-3.85-.16-5.77,3.76-1.25,8.8-1.32,13.36-.18,.41,1.31,.83,2.72,1.29,4.13,.9,2.72,2.82,4.56,5.47,5.38,3.69,1.14,7.49,1.53,11.28,.37,2.74-.83,4.7-2.47,5.12-5.47,.42-3.06-.43-5.72-3.2-7.26-2.45-1.37-5.08-2.44-7.68-3.49-3.53-1.44-7.22-2.53-10.65-4.16-2.67-1.27-5.25-2.9-7.52-4.78-8.98-7.43-7.9-21.94,2.44-27.96,5.96-3.47,12.39-4.64,19.16-4.15,4.34,.32,8.54,1.34,12.31,3.63,5.58,3.38,9.09,8.17,9.75,14.79,.2,2.02-.44,2.78-2.37,3.02-3.29,.41-8.52,.07-11.48-.79Z"/>
    <path class="cls-1" d="M24.85,346.26c3.45-.79,7.1-.38,10.72-.34,1.28,.02,2.19,.69,2.68,1.88,.57,1.38,1.15,2.75,1.67,4.15,6.92,18.48,13.83,36.96,20.72,55.45,.62,1.67,1.56,3.3,1.26,5.47-.55,.24-1.11,.68-1.69,.69-3.48,.09-6.96,.1-10.44,.11-1.5,0-2.49-.78-2.98-2.18-.71-2.03-1.39-4.08-2.13-6.11-.62-1.7-1.31-3.37-1.9-4.88-4.45-.77-18.89-.78-23.16-.06-1.75,2.25-2.21,5.09-3.12,7.73-1.97,5.72-1.75,5.55-7.65,5.55-2.79,0-5.58-.1-8.07-.14-1.38-1.65-.55-2.87-.11-4.06,3.68-9.95,7.38-19.9,11.08-29.85,3.46-9.33,6.89-18.67,10.4-27.98,.69-1.84,1.08-3.85,2.72-5.45Zm6,19.88c-2,3.81-2.84,7.38-3.94,10.83-1.08,3.38-2.94,6.61-2.72,10.54,2.49,.58,4.82,.45,7.11,.35,2.22-.09,4.59,.63,6.64-.71-.6-4.29-4.7-16.61-7.09-21.02Z"/>
    <path class="cls-1" d="M563.07,412.92c-.67,.29-1.1,.63-1.55,.64-3.48,.08-6.96,.1-10.44,.14-1.72,.02-2.8-.82-3.35-2.42-.59-1.73-1.18-3.45-1.79-5.17-.67-1.86-1.36-3.71-1.98-5.4-3.72-.93-16.85-1.13-23.16-.4-2.96,3.78-2.69,9.11-5.58,12.91-4.87,.8-10.3,.73-13.91-.18-.71-1.92,.4-3.54,1.01-5.19,3.14-8.57,6.34-17.11,9.53-25.66,3.82-10.26,7.64-20.52,11.45-30.78,.41-1.09,.82-2.17,1.24-3.26,.61-1.58,1.79-2.3,3.47-2.29,2.65,.02,5.31,.03,7.96,0,1.93-.02,3.07,.92,3.7,2.69,.72,2.03,1.52,4.03,2.28,6.05,6.52,17.4,13.04,34.79,19.53,52.2,.73,1.97,1.8,3.9,1.61,6.12Zm-37.8-25.8c3.95,1.11,9.79,1.07,13.43-.09-.05-3.44-4.44-17-6.73-20.76-2.19,4.03-6.47,17.33-6.7,20.86Z"/>
    <path class="cls-1" d="M1262.15,373.84c.75,3.44,.79,6.54,.07,9.51-1.25,1.43-2.82,1.25-4.28,1.26-5.14,.04-10.29,0-15.43,.04-1.81,.01-3.61,.15-5.34,.23-1.67,2.72-.93,5.43-1.01,8.01-.09,2.63,.08,5.26,.13,7.61,1.82,1.75,3.73,1.32,5.5,1.33,6.47,.06,12.94,0,19.42,.04,1.8,.01,3.68-.28,5.45,1.03,.7,3.28,.78,6.66-.12,10.16-.75,.22-1.37,.57-1.99,.57-13.44,.03-26.88,.03-40.32,0-.62,0-1.23-.35-2.16-.64-.13-1.47-.38-2.92-.38-4.37-.03-19.25-.02-38.51,0-57.76,0-1.31,.19-2.62,.28-3.74,1.68-1.71,3.61-1.25,5.37-1.26,9.46-.05,18.92-.03,28.38-.03,2.32,0,4.65-.04,6.97,.03,1.14,.03,2.27,.26,3.56,.41,1.39,3.62,.95,7.15,.43,10.54-1.58,1.44-3.32,1.1-4.93,1.11-6.47,.04-12.94,0-19.42,.03-1.79,0-3.58,.14-5.54,.23-1.18,4.7-.52,9.12-.54,13.22,1.31,1.71,2.89,1.52,4.34,1.53,5.31,.04,10.62,.01,15.93,.04,1.8,0,3.64-.18,5.63,.88Z"/>
    <path class="cls-1" d="M685.85,369.16c-4.75,.76-8.99,.73-13.39,.09-.56-1.74-1.07-3.29-1.55-4.85-1.12-3.67-3.56-6.02-7.3-6.69-2.25-.4-4.64-.59-6.89-.31-3.86,.49-6.87,2.65-8.39,6.27-1.01,2.42-1.93,5.04-2.07,7.62-.31,5.79-.28,11.62-.02,17.41,.11,2.42,.93,4.9,1.87,7.17,.67,1.62,1.88,3.15,3.19,4.35,3.83,3.49,12.84,2.99,16.4,.05,1.45-1.2,2.44-2.7,3.04-4.47,.48-1.41,.92-2.83,1.35-4.16,3.47-1.26,8.48-1.38,13.24-.34,1.09,1.3,.71,2.81,.38,4.23-1.79,7.8-6.23,13.53-13.65,16.64-7.29,3.06-14.82,3.49-22.41,1.12-7.28-2.27-12.1-7.28-15.35-14.01-4.44-9.2-4.61-28.7-.03-38.45,5.23-11.13,14.86-16.06,26.53-15.71,1.98,.06,3.97,.36,5.92,.75,9.88,1.97,17.28,9.47,19.08,19.35,.2,1.09,.03,2.25,.03,3.92Z"/>
    <path class="cls-1" d="M1178.42,413.34c-1.19-2.4-.94-4.59-.94-6.71-.02-13.94,0-27.87-.03-41.81,0-1.97-.18-3.93-.29-6.12-1.36-.29-2.45-.69-3.54-.72-3.48-.09-6.97-.02-10.45-.06-1.63-.02-3.26-.15-4.88-.23-1.71-3.45-1.07-6.75-.74-9.99,.06-.6,.96-1.41,1.62-1.6,1.08-.32,2.29-.27,3.45-.27,14.93-.01,29.86-.02,44.79,0,1.47,0,2.93,.19,4.43,.3,1.45,3.79,1.14,7.33,.34,11.15-1.2,.22-2.29,.57-3.39,.59-3.65,.08-7.3,.01-10.95,.06-1.62,.02-3.24,.18-4.87,.28-1.02,2.18-.74,4.19-.74,6.14-.02,14.1-.01,28.2-.02,42.3,0,1.49,0,2.99-.12,4.47-.14,1.66-.83,2.41-2.52,2.48-3.63,.15-7.27,.39-11.15-.28Z"/>
    <path class="cls-1" d="M159.58,413.25c-3.85,.83-7.5,.49-11.12,.39-1.71-.05-2.43-.78-2.59-2.42-.14-1.48-.14-2.98-.15-4.47,0-14.11,0-28.21-.02-42.32,0-1.95,.25-3.96-.56-5.7-1.72-1.08-3.42-.75-5.04-.78-3.82-.06-7.63,.02-11.45-.1-2.28-.07-2.91-.73-2.98-3.08-.07-2.63,.06-5.26,.1-7.51,1.52-1.64,3.09-1.41,4.55-1.42,5.31-.04,10.62-.02,15.93-.02,9.46,0,18.92-.02,28.38,.02,1.79,0,3.65-.3,5.29,.61,1.23,3.65,1.27,6.51,.13,10.86-2.93,1.11-6.1,.46-9.19,.61-3.12,.15-6.27-.29-9.17,.35-1.49,1.6-1.16,3.33-1.17,4.94-.04,5.64-.02,11.29-.02,16.93,0,8.96,.01,17.92-.01,26.89,0,1.96,.21,3.98-.9,6.22Z"/>
    <path class="cls-1" d="M979.61,358.34c-1.2,2.37-.87,4.4-.88,6.36-.03,13.94,0,27.88-.03,41.82,0,2.13,.26,4.31-.81,6.59-.89,.19-1.82,.55-2.75,.57-2.82,.06-5.64,.07-8.46-.04-1.72-.07-2.44-.78-2.6-2.42-.15-1.48-.15-2.98-.15-4.47,0-14.11,0-28.21-.02-42.32,0-1.95,.25-3.96-.55-5.71-1.72-1.09-3.41-.75-5.04-.78-3.82-.07-7.63,.02-11.45-.1-2.29-.07-2.92-.72-2.98-3.07-.08-2.63,.06-5.27,.1-7.51,1.51-1.65,3.08-1.41,4.54-1.43,5.31-.04,10.62-.02,15.93-.02,9.46,0,18.92-.02,28.38,.02,1.79,0,3.65-.3,5.65,.8,.95,3.39,.84,6.9,.02,10.56-3.16,1.23-6.33,.57-9.43,.72-3.12,.15-6.27-.29-9.48,.42Z"/>
    <path class="cls-1" d="M1068.9,358.12c-1.3,2.28-.95,4.14-.95,5.93-.03,14.26-.01,28.52-.03,42.78,0,1.97-.12,3.93-.18,6.02-1.23,.34-2.15,.81-3.08,.81-3.44,0-6.92,.55-10.35-.46-1.16-1.96-.81-3.98-.81-5.92-.03-13.76-.02-27.53-.02-41.29,0-1.66,.02-3.32-.05-4.97-.03-.79-.25-1.58-.42-2.57-6.31-1.3-12.67,.28-18.99-1.05-1.03-3.7-.94-7.21-.06-11.03,1.36-.19,2.64-.51,3.91-.52,15.42-.04,30.84-.03,46.26,0,1.14,0,2.27,.24,3.56,.38,1.51,3.59,.96,7.13,.46,10.94-1.17,.26-2.25,.67-3.35,.7-3.65,.09-7.29,.03-10.94,.06-1.64,.01-3.28,.12-4.98,.18Z"/>
    <path class="cls-1" d="M1009.91,346.18c4.11-.55,8.21-.51,12.54,0,.34,.92,.82,1.79,.97,2.7,.19,1.13,.13,2.31,.13,3.47,0,18.24,.01,36.48,0,54.73,0,1.96,.28,3.99-.92,6.05-2.55,1.13-5.4,.56-8.15,.59-5.48,.05-5.67-.16-5.68-5.5-.03-18.91-.02-37.81,0-56.72,0-1.63-.28-3.33,1.11-5.32Z"/>
    <path class="cls-1" d="M791.8,413.1c-.22-.94-.5-1.57-.5-2.21-.02-20.74-.02-41.49,0-62.23,0-.63,.28-1.27,.48-2.09,.94-.24,1.87-.65,2.81-.67,2.82-.07,5.64-.07,8.46,.05,1.71,.07,2.34,.79,2.51,2.48,.1,.99,.1,1.99,.1,2.98,0,18.92,.02,37.84,0,56.76,0,5.45-.12,5.55-5.6,5.56-2.62,0-5.29,.37-8.25-.62Z"/>
  </g>
  <g>
    <rect class="cls-1" x="875.2" width="10.4" height="258.1"/>
    <g>
      <path class="cls-1" d="M34.9,199.2c0,1.9-.8,3.5-2.5,4.9s-4.2,2.2-7.4,2.2c-3.5,0-6.1-.7-7.8-2.1-1.7-1.3-2.5-2.9-2.5-4.8V47.1H0V195.2c0,2.3,.4,4.5,1.3,6.6,.9,2.1,2.4,4,4.4,5.5,2,1.5,4.6,2.7,7.8,3.6,3.1,.9,7,1.3,11.5,1.3s8.6-.4,11.7-1.2c3.2-.8,5.7-2,7.6-3.5s3.3-3.4,4.1-5.4h0c.8-2,1.2-4.2,1.2-6.5V47.1h-14.7s0,152.1,0,152.1Z"/>
      <path class="cls-1" d="M106.3,199.4c0,1.9-.7,3.4-2.3,4.7-1.6,1.3-4.2,2-7.8,2.2-3.1,0-5.7-.7-7.6-2.2-1.8-1.4-2.7-3-2.7-4.9V61.3c0-1.2,.1-2.4,.4-3.6,.2-1.1,.7-2.1,1.4-3,.7-.9,1.8-1.6,3.1-2.1,1.4-.5,3.3-.8,5.6-.8,2.5,0,4.5,.3,5.9,1,1.4,.6,2.4,1.4,3,2.2s1,1.8,1.2,2.9c.2,1.2,.3,2.4,.3,3.5v36.7h14.7v-31.5c0-2.5-.2-4.9-.6-7.3-.4-2.5-1.5-4.8-3.3-6.8-1.7-2-4.3-3.6-7.6-4.8-3.3-1.2-7.8-1.8-13.4-1.8s-10.4,.6-13.8,1.7-6,2.7-7.7,4.7-2.8,4.3-3.2,6.9c-.5,2.5-.7,5-.7,7.4V195.5c0,4.7,2,8.8,5.9,11.9,3.9,3.2,10.3,4.8,19.7,4.9,4.5,0,8.4-.4,11.5-1.3,3.2-.9,5.8-2.1,7.8-3.6s3.5-3.4,4.4-5.5h0c.9-2.1,1.3-4.3,1.3-6.6v-38h-15.5v42.1h0Z"/>
      <path class="cls-1" d="M231,150.8c-.4-1.4-.9-2.9-1.4-4.3s-1.2-3-1.9-4.8c-1.4-3.5-3.1-6.8-5.1-9.8-1.9-3-3.6-5.6-5-7.7l-12.1-18.5c-1.9-2.9-3.4-5.5-4.6-7.7-1.1-2.2-2.1-4.9-2.8-8-1-3.6-1.5-6.8-1.6-9.4-.1-2.7-.1-5.8-.1-9.6v-9.6c0-1.1,.1-2.3,.3-3.5,.2-1.1,.6-2.1,1.2-2.9,.7-.8,1.7-1.6,3.1-2.2s3.4-1,6-1c2.3,0,4.2,.3,5.5,.8s2.3,1.2,2.9,2.1c.7,.9,1.1,1.9,1.4,3,.2,1.2,.4,2.4,.4,3.6v36.3h14.7v-31c0-2.5-.2-4.9-.6-7.4-.4-2.6-1.5-4.9-3.3-6.9s-4.4-3.6-7.7-4.8-8-1.8-13.7-1.8-10.2,.6-13.4,1.7c-3.3,1.1-5.9,2.7-7.6,4.7-1.8,2-2.9,4.3-3.3,6.8-.4,2.4-.6,4.8-.6,7.3v7.8c0,3.4,.1,6.4,.2,8.9s.6,5.6,1.5,9.1,1.8,6.5,2.8,8.9c1,2.5,2.6,5.4,4.7,8.6l12.5,19.3c1.3,1.9,2.4,3.6,3.4,5.1,1,1.4,1.9,2.9,2.8,4.3s1.6,2.9,2.3,4.5,1.3,3.3,2,5.1c.8,2.5,1.5,4.8,2.1,6.7,.6,1.8,.9,4,.9,6.6v35.3c0,1.1-.1,2.3-.3,3.5-.2,1.1-.6,2.1-1.2,3s-1.6,1.6-2.9,2.3c-1.3,.6-3.2,1-5.6,1s-4.3-.3-5.6-.9c-1.3-.6-2.4-1.3-3.2-2.2s-1.3-1.9-1.5-3c-.2-1.2-.4-2.4-.4-3.6v-40l-14.7,.2v34.6c0,2.5,.2,4.9,.7,7.3,.5,2.5,1.6,4.8,3.3,6.9,1.7,2.1,4.3,3.7,7.8,4.9,3.4,1.2,8.1,1.8,13.9,1.8s10.2-.6,13.5-1.8,5.9-2.8,7.6-4.8,2.8-4.2,3.2-6.7c.4-2.3,.6-4.8,.6-7.2v-30.8c0-2-.1-3.9-.3-5.6-.1-1.5-.4-3-.8-4.5h0Z"/>
      <path class="cls-1" d="M298.9,52.3c-1.6-1.9-4.1-3.5-7.5-4.7-3.3-1.2-7.8-1.8-13.5-1.8s-10.5,.6-13.9,1.7c-3.5,1.1-6.1,2.7-7.8,4.7s-2.8,4.3-3.3,6.9c-.5,2.5-.7,5-.7,7.5V211.2h14.7v-83.1h20.8v83.1h14.7V66.3c0-2.5-.2-4.9-.6-7.3-.2-2.6-1.3-4.8-2.9-6.7h0Zm-11.1,67.3h-20.8V61.4c0-1.2,.1-2.4,.4-3.6,.2-1.1,.7-2.1,1.4-3s1.8-1.6,3.1-2.1c1.4-.5,3.3-.8,5.6-.8,2.5,0,4.5,.3,5.9,1,1.4,.6,2.4,1.4,3,2.2s1,1.8,1.2,2.9c.2,1.2,.3,2.4,.3,3.5v58.1h-.1Z"/>
      <polygon class="cls-1" points="359.9 137.8 338 46.8 324.8 46.8 324.8 211.1 339.5 211.1 339.5 99.6 359.7 179.3 359.7 211.1 374.7 211.1 374.7 46.8 359.9 46.8 359.9 137.8"/>
      <polygon class="cls-1" points="385.3 54.8 403.7 54.8 403.7 211.1 418.4 211.1 418.4 54.8 437.5 54.8 437.5 47 385.3 47 385.3 54.8"/>
      <path class="cls-1" d="M496.1,52.3c-1.6-1.9-4.1-3.5-7.5-4.7-3.3-1.2-7.8-1.8-13.5-1.8s-10.5,.6-13.9,1.7c-3.5,1.1-6.1,2.7-7.8,4.7s-2.8,4.3-3.3,6.9c-.5,2.5-.7,5-.7,7.5V211.2h14.7v-83.1h20.8v83.1h14.7V66.3c0-2.5-.2-4.9-.6-7.3-.2-2.6-1.2-4.8-2.9-6.7h0Zm-11,67.3h-20.8V61.4c0-1.2,.1-2.4,.4-3.6,.2-1.1,.7-2.1,1.4-3s1.8-1.6,3.1-2.1c1.4-.5,3.3-.8,5.6-.8,2.5,0,4.5,.3,5.9,1,1.4,.6,2.4,1.4,3,2.2s1,1.8,1.2,2.9c.2,1.2,.3,2.4,.3,3.5v58.1h-.1Z"/>
      <path class="cls-1" d="M592.3,199.4c0,1.9-.7,3.4-2.3,4.7s-4.2,2-7.8,2.2c-3.1,0-5.7-.7-7.6-2.2-1.8-1.4-2.7-3-2.7-4.9V61.3c0-1.2,.1-2.4,.4-3.6,.2-1.1,.7-2.1,1.4-3s1.8-1.6,3.1-2.1c1.4-.5,3.3-.8,5.6-.8,2.5,0,4.5,.3,5.9,1,1.4,.6,2.4,1.4,3,2.2s1,1.8,1.2,2.9c.2,1.2,.3,2.4,.3,3.5v36.7h14.7v-31.5c0-2.5-.2-4.9-.6-7.3-.4-2.5-1.5-4.8-3.3-6.8-1.7-2-4.3-3.6-7.6-4.8s-7.8-1.8-13.4-1.8-10.4,.6-13.8,1.7c-3.4,1.1-6,2.7-7.7,4.7s-2.8,4.3-3.3,6.9c-.4,2.5-.7,5-.7,7.4V195.5c0,4.7,2,8.8,5.9,11.9,3.9,3.2,10.3,4.8,19.7,4.9,4.5,0,8.4-.4,11.5-1.3,3.2-.9,5.8-2.1,7.8-3.6s3.5-3.4,4.4-5.5h0c.9-2.1,1.3-4.3,1.3-6.6v-38h-15.5v42.1h.1Z"/>
      <path class="cls-1" d="M676.4,135.9c-.5-2.4-1.9-4.9-4.1-7.6-.7-.8-1.6-1.6-2.7-2.3-1-.7-2.1-1.2-3.1-1.7-.5-.2-.9-.4-1.4-.6,.7-.3,1.4-.7,2.2-1.1,1.2-.6,2.3-1.2,3.4-2,1.2-.7,2.1-1.5,2.7-2.3,1.5-1.5,2.5-2.9,2.9-4.2,.4-1.2,.6-2.7,.6-4.3v-41.8c0-3.2-.2-6.2-.6-8.9-.4-2.9-2.4-5.5-6-7.7-2-1.2-4.2-2.1-6.6-2.6-2.3-.5-4.5-.9-6.7-1.1-2.1-.2-4-.3-5.5-.3h-24.6V211.2h15V127.5h4.7c2.2,0,4.2,.2,5.9,.6s3.5,1,5.4,2c1.8,1,2.9,2.5,3.4,4.5,.5,2.1,.8,4.4,.8,6.5v70.1h15.1l-.2-67.5c.1-2.8-.1-5.5-.6-7.8h0Zm-14.1-29.1c0,2.1-.2,4.2-.7,6.3-.5,2-1.1,3.4-1.8,4.1-1.2,1.1-3,2-5.3,2.8-2.4,.8-4.9,1.2-7.4,1.2h-5.2V53.6h6.9c3.6,0,6.7,.5,9.5,1.5,1.7,.5,2.8,1.4,3.3,2.7,.5,1.5,.8,3.4,.8,5.7v43.3s-.1,0-.1,0Z"/>
      <path class="cls-1" d="M732.1,199.2c0,1.9-.8,3.5-2.5,4.9s-4.2,2.2-7.4,2.2c-3.5,0-6.1-.7-7.8-2.1-1.7-1.3-2.5-2.9-2.5-4.8V47.1h-14.7V195.2c0,2.3,.4,4.5,1.3,6.6,.9,2.1,2.4,4,4.4,5.5s4.6,2.7,7.8,3.6c3.1,.9,7,1.3,11.5,1.3s8.6-.4,11.7-1.2c3.2-.8,5.7-2,7.6-3.5,1.9-1.5,3.3-3.4,4.1-5.4s1.2-4.2,1.2-6.5V47.1h-14.7V199.2h0Z"/>
      <polygon class="cls-1" points="780.2 202.7 810.4 46.4 764.7 46.4 764.7 54.8 792.2 54.8 762.2 211.1 811.9 211.1 811.9 202.7 780.2 202.7"/>
    </g>
    <g>
      <path class="cls-1" d="M954.4,172.3l154.3,78.9c7.5-2.6,14.8-6,21.7-10.2l-181.2-92.7c.9,8.2,2.7,16.2,5.2,24h0Z"/>
      <path class="cls-1" d="M1105.8,13.4l-156,99.2c-1.2,7.8-1.8,15.6-1.6,23.5l178.6-113.5c-6.7-3.9-13.8-6.9-21-9.2Z"/>
      <path class="cls-1" d="M1135.4,237.9c6.1-4.1,12-8.8,17.4-14.1l-23.5-199.9c-6.5-3.8-13.3-6.9-20.2-9.4l26.3,223.4h0Z"/>
      <path class="cls-1" d="M1011.9,242.9l170-62.6c2.9-7.4,5.1-14.9,6.7-22.6l-195.7,72c5.9,5.1,12.3,9.5,19,13.2h0Z"/>
      <path class="cls-1" d="M967.9,201.1c3.9,6.1,8.3,11.9,13.3,17.4L1068.3,7.7c-7.2,.1-14.3,.8-21.4,2.2l-79,191.2h0Z"/>
      <path class="cls-1" d="M958,83.4l215.1-15.8c-3.7-6.3-8.1-12.4-13-18.1l-191.8,14.1c-4,6.4-7.4,13-10.3,19.8Z"/>
      <path class="cls-1" d="M1104.9,252.5l81.8-152.5c-2.1-8.1-5.1-16.1-8.8-23.7l-97.1,181.1c8.1-.8,16.2-2.4,24.1-4.9h0Z"/>
    </g>
    <g>
      <path class="cls-1" d="M1329.9,170h-40.4l-7.7,23h-24.5l41.6-111.8h21.4l41.9,111.8h-24.5l-7.8-23Zm-34.2-18.6h28l-14.1-41.9-13.9,41.9Z"/>
      <path class="cls-1" d="M1416.3,130.8c-3-.4-5.7-.6-8-.6-8.4,0-13.9,2.8-16.5,8.5v54.4h-22.2V110h21l.6,9.9c4.5-7.6,10.6-11.4,18.5-11.4,2.5,0,4.8,.3,6.9,1l-.3,21.3Z"/>
      <path class="cls-1" d="M1458.4,89.5v20.4h14.2v16.3h-14.2v41.5c0,3.1,.6,5.3,1.8,6.6,1.2,1.3,3.4,2,6.8,2,2.5,0,4.6-.2,6.5-.5v16.8c-4.4,1.3-8.8,2-13.4,2-15.6,0-23.5-7.9-23.8-23.6v-44.8h-12.1v-16.3h12.1v-20.4s22.1,0,22.1,0Z"/>
      <path class="cls-1" d="M1528.4,170.1c0-2.7-1.3-4.9-4-6.4-2.7-1.6-7-3-12.9-4.2-19.8-4.1-29.6-12.5-29.6-25.2,0-7.4,3.1-13.5,9.2-18.5,6.1-4.9,14.1-7.4,24-7.4,10.5,0,19,2.5,25.3,7.5s9.5,11.4,9.5,19.4h-22.2c0-3.2-1-5.8-3.1-7.9-2-2.1-5.2-3.1-9.6-3.1-3.7,0-6.6,.8-8.7,2.5-2,1.7-3.1,3.8-3.1,6.5,0,2.5,1.2,4.4,3.5,6,2.3,1.5,6.3,2.8,11.8,3.9s10.2,2.3,14,3.7c11.7,4.3,17.6,11.8,17.6,22.4,0,7.6-3.3,13.7-9.8,18.4s-14.9,7-25.2,7c-7,0-13.1-1.2-18.5-3.7s-9.6-5.9-12.7-10.2-4.6-9-4.6-14h21c.2,3.9,1.7,7,4.4,9.1,2.7,2.1,6.3,3.1,10.9,3.1,4.3,0,7.5-.8,9.6-2.4,2.1-1.8,3.2-3.9,3.2-6.5h0Z"/>
    </g>
  </g>
</svg>