<?xml version="1.0" encoding="UTF-8"?>
<svg id="Layer_1" data-name="Layer 1" xmlns="http://www.w3.org/2000/svg" viewBox="0 0 1550.1 258.1">
  <defs>
    <style>
      .cls-1 {
        fill: #fff;
      }
    </style>
  </defs>
  <rect class="cls-1" x="875.2" width="10.4" height="258.1"/>
  <g>
    <path class="cls-1" d="M34.9,199.2c0,1.9-.8,3.5-2.5,4.9s-4.2,2.2-7.4,2.2c-3.5,0-6.1-.7-7.8-2.1-1.7-1.3-2.5-2.9-2.5-4.8V47.1H0V195.2c0,2.3,.4,4.5,1.3,6.6s2.4,4,4.4,5.5,4.6,2.7,7.8,3.6c3.1,.9,7,1.3,11.5,1.3s8.6-.4,11.7-1.2c3.2-.8,5.7-2,7.6-3.5s3.3-3.4,4.1-5.4h0c.8-2,1.2-4.2,1.2-6.5V47.1h-14.7V199.2Z"/>
    <path class="cls-1" d="M106.3,199.4c0,1.9-.7,3.4-2.3,4.7-1.6,1.3-4.2,2-7.8,2.2-3.1,0-5.7-.7-7.6-2.2-1.8-1.4-2.7-3-2.7-4.9V61.3c0-1.2,.1-2.4,.4-3.6,.2-1.1,.7-2.1,1.4-3,.7-.9,1.8-1.6,3.1-2.1,1.4-.5,3.3-.8,5.6-.8,2.5,0,4.5,.3,5.9,1,1.4,.6,2.4,1.4,3,2.2,.6,.8,1,1.8,1.2,2.9,.2,1.2,.3,2.4,.3,3.5v36.7h14.7v-31.5c0-2.5-.2-4.9-.6-7.3-.4-2.5-1.5-4.8-3.3-6.8-1.7-2-4.3-3.6-7.6-4.8-3.3-1.2-7.8-1.8-13.4-1.8s-10.4,.6-13.8,1.7-6,2.7-7.7,4.7-2.8,4.3-3.2,6.9c-.5,2.5-.7,5-.7,7.4V195.5c0,4.7,2,8.8,5.9,11.9,3.9,3.2,10.3,4.8,19.7,4.9,4.5,0,8.4-.4,11.5-1.3,3.2-.9,5.8-2.1,7.8-3.6s3.5-3.4,4.4-5.5h0c.9-2.1,1.3-4.3,1.3-6.6v-38h-15.5v42.1h0Z"/>
    <path class="cls-1" d="M231,150.8c-.4-1.4-.9-2.9-1.4-4.3s-1.2-3-1.9-4.8c-1.4-3.5-3.1-6.8-5.1-9.8-1.9-3-3.6-5.6-5-7.7l-12.1-18.5c-1.9-2.9-3.4-5.5-4.6-7.7-1.1-2.2-2.1-4.9-2.8-8-1-3.6-1.5-6.8-1.6-9.4-.1-2.7-.1-5.8-.1-9.6v-9.6c0-1.1,.1-2.3,.3-3.5,.2-1.1,.6-2.1,1.2-2.9,.7-.8,1.7-1.6,3.1-2.2s3.4-1,6-1c2.3,0,4.2,.3,5.5,.8s2.3,1.2,2.9,2.1c.7,.9,1.1,1.9,1.4,3,.2,1.2,.4,2.4,.4,3.6v36.3h14.7v-31c0-2.5-.2-4.9-.6-7.4-.4-2.6-1.5-4.9-3.3-6.9s-4.4-3.6-7.7-4.8c-3.3-1.2-8-1.8-13.7-1.8s-10.2,.6-13.4,1.7c-3.3,1.1-5.9,2.7-7.6,4.7-1.8,2-2.9,4.3-3.3,6.8-.4,2.4-.6,4.8-.6,7.3v7.8c0,3.4,.1,6.4,.2,8.9s.6,5.6,1.5,9.1,1.8,6.5,2.8,8.9c1,2.5,2.6,5.4,4.7,8.6l12.5,19.3c1.3,1.9,2.4,3.6,3.4,5.1,1,1.4,1.9,2.9,2.8,4.3s1.6,2.9,2.3,4.5c.7,1.6,1.3,3.3,2,5.1,.8,2.5,1.5,4.8,2.1,6.7,.6,1.8,.9,4,.9,6.6v35.3c0,1.1-.1,2.3-.3,3.5-.2,1.1-.6,2.1-1.2,3s-1.6,1.6-2.9,2.3c-1.3,.6-3.2,1-5.6,1s-4.3-.3-5.6-.9c-1.3-.6-2.4-1.3-3.2-2.2-.8-.9-1.3-1.9-1.5-3-.2-1.2-.4-2.4-.4-3.6v-40l-14.7,.2v34.6c0,2.5,.2,4.9,.7,7.3,.5,2.5,1.6,4.8,3.3,6.9,1.7,2.1,4.3,3.7,7.8,4.9,3.4,1.2,8.1,1.8,13.9,1.8s10.2-.6,13.5-1.8c3.3-1.2,5.9-2.8,7.6-4.8s2.8-4.2,3.2-6.7c.4-2.3,.6-4.8,.6-7.2v-30.8c0-2-.1-3.9-.3-5.6-.1-1.5-.4-3-.8-4.5Z"/>
    <path class="cls-1" d="M298.9,52.3c-1.6-1.9-4.1-3.5-7.5-4.7-3.3-1.2-7.8-1.8-13.5-1.8s-10.5,.6-13.9,1.7c-3.5,1.1-6.1,2.7-7.8,4.7s-2.8,4.3-3.3,6.9c-.5,2.5-.7,5-.7,7.5V211.2h14.7v-83.1h20.8v83.1h14.7V66.3c0-2.5-.2-4.9-.6-7.3-.2-2.6-1.3-4.8-2.9-6.7Zm-11.1,67.3h-20.8V61.4c0-1.2,.1-2.4,.4-3.6,.2-1.1,.7-2.1,1.4-3s1.8-1.6,3.1-2.1c1.4-.5,3.3-.8,5.6-.8,2.5,0,4.5,.3,5.9,1,1.4,.6,2.4,1.4,3,2.2,.6,.8,1,1.8,1.2,2.9,.2,1.2,.3,2.4,.3,3.5v58.1h-.1Z"/>
    <polygon class="cls-1" points="359.9 137.8 338 46.8 324.8 46.8 324.8 211.1 339.5 211.1 339.5 99.6 359.7 179.3 359.7 211.1 374.7 211.1 374.7 46.8 359.9 46.8 359.9 137.8"/>
    <polygon class="cls-1" points="385.3 54.8 403.7 54.8 403.7 211.1 418.4 211.1 418.4 54.8 437.5 54.8 437.5 47 385.3 47 385.3 54.8"/>
    <path class="cls-1" d="M496.1,52.3c-1.6-1.9-4.1-3.5-7.5-4.7-3.3-1.2-7.8-1.8-13.5-1.8s-10.5,.6-13.9,1.7c-3.5,1.1-6.1,2.7-7.8,4.7s-2.8,4.3-3.3,6.9c-.5,2.5-.7,5-.7,7.5V211.2h14.7v-83.1h20.8v83.1h14.7V66.3c0-2.5-.2-4.9-.6-7.3-.2-2.6-1.2-4.8-2.9-6.7Zm-11,67.3h-20.8V61.4c0-1.2,.1-2.4,.4-3.6,.2-1.1,.7-2.1,1.4-3s1.8-1.6,3.1-2.1c1.4-.5,3.3-.8,5.6-.8,2.5,0,4.5,.3,5.9,1,1.4,.6,2.4,1.4,3,2.2,.6,.8,1,1.8,1.2,2.9,.2,1.2,.3,2.4,.3,3.5v58.1h-.1Z"/>
    <path class="cls-1" d="M592.3,199.4c0,1.9-.7,3.4-2.3,4.7-1.6,1.3-4.2,2-7.8,2.2-3.1,0-5.7-.7-7.6-2.2-1.8-1.4-2.7-3-2.7-4.9V61.3c0-1.2,.1-2.4,.4-3.6,.2-1.1,.7-2.1,1.4-3s1.8-1.6,3.1-2.1c1.4-.5,3.3-.8,5.6-.8,2.5,0,4.5,.3,5.9,1,1.4,.6,2.4,1.4,3,2.2,.6,.8,1,1.8,1.2,2.9,.2,1.2,.3,2.4,.3,3.5v36.7h14.7v-31.5c0-2.5-.2-4.9-.6-7.3-.4-2.5-1.5-4.8-3.3-6.8-1.7-2-4.3-3.6-7.6-4.8-3.3-1.2-7.8-1.8-13.4-1.8s-10.4,.6-13.8,1.7c-3.4,1.1-6,2.7-7.7,4.7s-2.8,4.3-3.3,6.9c-.4,2.5-.7,5-.7,7.4V195.5c0,4.7,2,8.8,5.9,11.9,3.9,3.2,10.3,4.8,19.7,4.9,4.5,0,8.4-.4,11.5-1.3,3.2-.9,5.8-2.1,7.8-3.6s3.5-3.4,4.4-5.5h0c.9-2.1,1.3-4.3,1.3-6.6v-38h-15.5v42.1h.1Z"/>
    <path class="cls-1" d="M676.4,135.9c-.5-2.4-1.9-4.9-4.1-7.6-.7-.8-1.6-1.6-2.7-2.3-1-.7-2.1-1.2-3.1-1.7-.5-.2-.9-.4-1.4-.6,.7-.3,1.4-.7,2.2-1.1,1.2-.6,2.3-1.2,3.4-2,1.2-.7,2.1-1.5,2.7-2.3,1.5-1.5,2.5-2.9,2.9-4.2,.4-1.2,.6-2.7,.6-4.3v-41.8c0-3.2-.2-6.2-.6-8.9-.4-2.9-2.4-5.5-6-7.7-2-1.2-4.2-2.1-6.6-2.6-2.3-.5-4.5-.9-6.7-1.1-2.1-.2-4-.3-5.5-.3h-24.6V211.2h15V127.5h4.7c2.2,0,4.2,.2,5.9,.6s3.5,1,5.4,2c1.8,1,2.9,2.5,3.4,4.5,.5,2.1,.8,4.4,.8,6.5v70.1h15.1l-.2-67.5c.1-2.8-.1-5.5-.6-7.8Zm-14.1-29.1c0,2.1-.2,4.2-.7,6.3-.5,2-1.1,3.4-1.8,4.1-1.2,1.1-3,2-5.3,2.8-2.4,.8-4.9,1.2-7.4,1.2h-5.2V53.6h6.9c3.6,0,6.7,.5,9.5,1.5,1.7,.5,2.8,1.4,3.3,2.7,.5,1.5,.8,3.4,.8,5.7v43.3h-.1Z"/>
    <path class="cls-1" d="M732.1,199.2c0,1.9-.8,3.5-2.5,4.9s-4.2,2.2-7.4,2.2c-3.5,0-6.1-.7-7.8-2.1-1.7-1.3-2.5-2.9-2.5-4.8V47.1h-14.7V195.2c0,2.3,.4,4.5,1.3,6.6,.9,2.1,2.4,4,4.4,5.5s4.6,2.7,7.8,3.6c3.1,.9,7,1.3,11.5,1.3s8.6-.4,11.7-1.2c3.2-.8,5.7-2,7.6-3.5,1.9-1.5,3.3-3.4,4.1-5.4s1.2-4.2,1.2-6.5V47.1h-14.7V199.2h0Z"/>
    <polygon class="cls-1" points="780.2 202.7 810.4 46.4 764.7 46.4 764.7 54.8 792.2 54.8 762.2 211.1 811.9 211.1 811.9 202.7 780.2 202.7"/>
  </g>
  <g>
    <path class="cls-1" d="M954.4,172.3l154.3,78.9c7.5-2.6,14.8-6,21.7-10.2l-181.2-92.7c.9,8.2,2.7,16.2,5.2,24Z"/>
    <path class="cls-1" d="M1105.8,13.4l-156,99.2c-1.2,7.8-1.8,15.6-1.6,23.5l178.6-113.5c-6.7-3.9-13.8-6.9-21-9.2Z"/>
    <path class="cls-1" d="M1135.4,237.9c6.1-4.1,12-8.8,17.4-14.1l-23.5-199.9c-6.5-3.8-13.3-6.9-20.2-9.4l26.3,223.4Z"/>
    <path class="cls-1" d="M1011.9,242.9l170-62.6c2.9-7.4,5.1-14.9,6.7-22.6l-195.7,72c5.9,5.1,12.3,9.5,19,13.2Z"/>
    <path class="cls-1" d="M967.9,201.1c3.9,6.1,8.3,11.9,13.3,17.4L1068.3,7.7c-7.2,.1-14.3,.8-21.4,2.2l-79,191.2Z"/>
    <path class="cls-1" d="M958,83.4l215.1-15.8c-3.7-6.3-8.1-12.4-13-18.1l-191.8,14.1c-4,6.4-7.4,13-10.3,19.8Z"/>
    <path class="cls-1" d="M1104.9,252.5l81.8-152.5c-2.1-8.1-5.1-16.1-8.8-23.7l-97.1,181.1c8.1-.8,16.2-2.4,24.1-4.9Z"/>
  </g>
  <g>
    <path class="cls-1" d="M1329.9,170h-40.4l-7.7,23h-24.5l41.6-111.8h21.4l41.9,111.8h-24.5l-7.8-23Zm-34.2-18.6h28l-14.1-41.9-13.9,41.9Z"/>
    <path class="cls-1" d="M1416.3,130.8c-3-.4-5.7-.6-8-.6-8.4,0-13.9,2.8-16.5,8.5v54.4h-22.2V110h21l.6,9.9c4.5-7.6,10.6-11.4,18.5-11.4,2.5,0,4.8,.3,6.9,1l-.3,21.3Z"/>
    <path class="cls-1" d="M1458.4,89.5v20.4h14.2v16.3h-14.2v41.5c0,3.1,.6,5.3,1.8,6.6,1.2,1.3,3.4,2,6.8,2,2.5,0,4.6-.2,6.5-.5v16.8c-4.4,1.3-8.8,2-13.4,2-15.6,0-23.5-7.9-23.8-23.6v-44.8h-12.1v-16.3h12.1v-20.4h22.1Z"/>
    <path class="cls-1" d="M1528.4,170.1c0-2.7-1.3-4.9-4-6.4-2.7-1.6-7-3-12.9-4.2-19.8-4.1-29.6-12.5-29.6-25.2,0-7.4,3.1-13.5,9.2-18.5,6.1-4.9,14.1-7.4,24-7.4,10.5,0,19,2.5,25.3,7.5s9.5,11.4,9.5,19.4h-22.2c0-3.2-1-5.8-3.1-7.9-2-2.1-5.2-3.1-9.6-3.1-3.7,0-6.6,.8-8.7,2.5-2,1.7-3.1,3.8-3.1,6.5,0,2.5,1.2,4.4,3.5,6,2.3,1.5,6.3,2.8,11.8,3.9s10.2,2.3,14,3.7c11.7,4.3,17.6,11.8,17.6,22.4,0,7.6-3.3,13.7-9.8,18.4-6.5,4.7-14.9,7-25.2,7-7,0-13.1-1.2-18.5-3.7s-9.6-5.9-12.7-10.2c-3.1-4.3-4.6-9-4.6-14h21c.2,3.9,1.7,7,4.4,9.1,2.7,2.1,6.3,3.1,10.9,3.1,4.3,0,7.5-.8,9.6-2.4,2.1-1.8,3.2-3.9,3.2-6.5Z"/>
  </g>
</svg>