<?xml version="1.0" encoding="UTF-8"?>
<svg id="Layer_2" data-name="Layer 2" xmlns="http://www.w3.org/2000/svg" viewBox="0 0 2500 596.39">
  <defs>
    <style>
      .cls-1 {
        fill: #fff;
        fill-rule: evenodd;
      }
    </style>
  </defs>
  <g id="Layer_1-2" data-name="Layer 1">
    <g>
      <path class="cls-1" d="M2271.57,0c-102.13,0-159.83,19.72-192.96,65.93-34.61,48.27-41.57,124.45-41.57,231.76,0,210.64,32.59,298.7,234.53,298.7,24.26,0,107.16-.46,155.56-6.37,18.83-3.12,27.27-17.54,27.27-30.45v-23.27c0-18.1-13.68-31.77-31.83-31.77h-151c-113.93,0-134.48-26.86-137.4-179.54v-49.43c.97-156.25,21.51-183.72,137.41-183.72,106.86,0,127.36,24.38,130.91,161.94h-169.81v92.87h223.34c43.99,0,43.99-30.77,43.99-40.87v-29.65C2496.81,61.94,2445.57,0,2271.57,0m-294.08,8.19l-2.43-.64C1954.26,3.18,1897.42,0,1869.24,0c-99.73,0-152.43,41.75-152.43,120.75v439.82c0,18.1,12.66,30.75,30.82,30.75h35.47c18.15,0,30.83-12.64,30.83-30.75V128.83c0-19.5,4.93-36.98,64.44-36.98l88.11-.07c8.63,1.03,16.86-1.36,23.2-6.73,6.92-5.83,10.73-14.35,10.73-23.95v-22.25c0-14.6-8.36-25.78-22.91-30.66m-425.91-1.1h-35.47c-18.15,0-30.83,12.64-30.83,30.75V504.55h-147.53c-91.26,0-128.28-5.8-128.28-151.25V37.84c0-18.1-12.68-30.75-30.83-30.75h-34.47c-18.15,0-31.83,13.22-31.83,30.75V353.3c0,206.71,74.97,243.09,232.5,243.09,56.67,0,134.28,0,208.29-10.42l1.71-.34c18.28-4.57,27.56-15.03,27.56-31.11V37.84c0-18.1-12.68-30.75-30.82-30.75"/>
      <path class="cls-1" d="M1002.92,21.54c-4.55-9.68-14.32-15.46-26.12-15.46h-45.6c-13.25,0-23.15,5.33-28.36,14.94l-67.58,98.74,59.16,80.91,103.3-148.17c11.34-13.77,7.41-26.24,5.2-30.96"/>
      <path class="cls-1" d="M646.62,19.89l-.06-.09c-10.3-13.73-24.01-13.73-28.52-13.73h-44.6c-11.43,0-20.78,5.25-25.67,14.39-5.03,9.36-3.96,20.61,2.99,31.03l165.22,229.05-189.99,265c-6.64,9.97-7.57,21.05-2.56,30.4,4.92,9.14,14.28,14.38,25.69,14.38h45.59c11.73,0,22.04-6.09,27.19-15.67l212.66-293.04L646.62,19.89Z"/>
      <path class="cls-1" d="M1025.6,547.86l-132.56-181.92-58.31,80.38,104.83,139.91,2.73,1.19c4.16,1.87,8.66,2.85,13.22,2.89h44.59c10.77,0,19.91-4.78,25.09-13.14,5.3-8.57,5.45-19.24,.41-29.31"/>
      <path class="cls-1" d="M350.64,342.61v154.49c-45.14,6.93-113.96,8.46-137.41,8.46-103.74,0-115.11-28.35-115.11-88.55,0-56.33,21.08-74.41,86.74-74.41h165.78ZM208.17,0c-32.06,0-75.77,.83-130.16,7.38l-2.46,.54c-15.85,4.51-23.87,14.91-23.87,30.93v22.24c0,18.97,11.81,30.75,30.82,30.75h125.67c101.19,0,142.47,27.41,142.47,94.62v65.31H184.86C55.29,251.77,0,301.19,0,417.01c0,129.09,57.23,179.39,204.12,179.39,59.5,0,169.02-4.63,209.5-16.97,34.13-9.48,34.13-35.55,34.13-44.12V180.41C447.76,59.02,369.39,0,208.18,0h0Z"/>
    </g>
  </g>
</svg>