<?xml version="1.0" encoding="UTF-8"?>
<svg id="Layer_2" data-name="Layer 2" xmlns="http://www.w3.org/2000/svg" viewBox="0 0 473 165.5">
  <defs>
    <style>
      .cls-1 {
        fill: #fff;
      }
    </style>
  </defs>
  <g id="Layer_1-2" data-name="Layer 1">
    <path class="cls-1" d="M0,0H473V165.5H0V0ZM3.11,162.34H469.81V3.12H3.11V162.34Z"/>
    <path class="cls-1" d="M166.32,94.26h10.31c-2.81,.52-3.55,2.79-4.3,5.03-3.51,10.5-6.99,21.01-10.51,31.5-.33,.98-.83,1.9-1.69,2.9-4.54-9.89-7.58-20.26-11.57-30.62-3.97,10.42-7.82,20.55-11.68,30.68-.3-.02-.6-.05-.91-.07-.39-.83-.88-1.64-1.14-2.51-3.19-10.49-6.33-21-9.53-31.49-.76-2.48-1.5-5.07-4.88-5.29h11.88c-2.6,.24-2.82,1.7-2.2,3.93,2.43,8.82,4.74,17.67,7.61,26.52,3.82-10.2,7.64-20.39,11.46-30.59,.29-.01,.59-.03,.88-.04,3.61,10.21,7.23,20.41,11.04,31.19,1.34-4.31,2.55-8.1,3.71-11.9,1.47-4.82,2.95-9.64,4.32-14.49,.82-2.9,.38-3.61-2.81-4.77Z"/>
    <path class="cls-1" d="M364.39,32.06c9.76,10.52,19.53,21.04,29.46,31.74,0-5.37,.03-10.46-.01-15.56-.03-3.32-.2-6.63-.24-9.95-.05-4.1-.29-4.42-4.3-5.25h10.71c-2.9,.27-3.03,2.22-3.03,4.56,.03,10.54-.07,21.08-.15,31.61,0,.81-.13,1.62-.28,3.34-11.01-10.16-20.34-20.94-30.19-31.51,0,3.28-.05,6.3,.01,9.31,.11,5.47,.12,10.95,.51,16.41,.28,3.85,.53,3.84,4.34,4.57h-11.34c3.46,0,3.29-2.43,3.3-4.8,.03-8.71,.1-17.42,.15-26.13,.01-2.63,0-5.27,0-7.9,.35-.15,.7-.3,1.05-.44Z"/>
    <path class="cls-1" d="M348.13,51.42c-.01,12.35-8.62,20.86-21.07,20.85-11.1-.02-19.32-8.55-19.3-20.05,.02-11.45,8.72-20.02,20.31-20.01,12.17,0,20.07,7.57,20.06,19.21Zm-35.49,.56c.46,4.67,1.78,8.88,4.68,12.5,6.6,8.23,19.47,7.28,23.66-1.95,3.18-7,3.03-14.25-.87-21.01-3.32-5.76-8.62-8.09-15.2-7.12-5.64,.83-9.36,4.16-10.96,9.55-.77,2.58-.89,5.34-1.31,8.02Z"/>
    <path class="cls-1" d="M247.24,112.72c0,12.36-8.61,20.88-21.06,20.86-11.11-.01-19.33-8.53-19.32-20.03,.01-11.45,8.71-20.04,20.29-20.03,12.18,0,20.09,7.56,20.08,19.19Zm-17.6-17.25c-8.7,.09-13.48,2.28-15.75,7.75-3.27,7.86-2.67,15.66,2.61,22.55,3.63,4.72,8.81,6.49,14.66,5.25,5.57-1.18,9.07-4.92,10.06-10.44,.65-3.61,.82-7.42,.44-11.06-.84-8.04-7.45-14.03-12.01-14.05Z"/>
    <path class="cls-1" d="M111.41,33.34c5.86,0,11.65-.55,17.28,.14,6.46,.79,9.49,6.46,7.15,12.57-1.1,2.86-3.11,5.37-5.07,8.65,3.9,4.44,8.01,9.42,12.5,14.03,1.39,1.43,3.83,1.83,5.54,2.6-3.8,1.47-9.72,.19-12.48-3.14-2.69-3.26-5.35-6.57-7.71-10.08-1.47-2.18-3.09-3.24-5.7-2.8-.89,.15-1.82,.02-2.82,.02,0,4.49-.14,8.92,.05,13.33,.1,2.4,2.26,2.21,4,2.68h-11.94c2.81-.37,2.82-2.54,2.85-4.63,.12-9.53,.25-19.07,.28-28.6,0-2.51-.53-4.88-3.94-4.75Zm8.37,1.74c0,5.64-.02,11.02,.03,16.41,0,.47,.32,1.12,.7,1.36,2.67,1.67,8.7,.44,10.07-2.22,2.15-4.19,2.12-8.54-.44-12.52-2.38-3.71-6.2-3.54-10.36-3.03Z"/>
    <path class="cls-1" d="M209.76,54.71c3.7,4.28,7.6,9.12,11.92,13.57,1.53,1.58,4.07,2.19,5.85,3.09-2.54,1.55-9.47,.19-12.17-3.05-2.75-3.32-5.46-6.7-7.85-10.28-1.42-2.12-2.98-3.1-5.48-2.75-.97,.14-1.97,.02-3.07,.02,0,4.46-.13,8.82,.05,13.16,.1,2.44,2.22,2.44,4.05,2.88h-11.95c2.66-.27,2.83-2.24,2.85-4.24,.13-9.7,.27-19.4,.3-29.1,0-2.51-.58-4.85-3.7-4.67,5.61,0,11.44-.54,17.12,.14,6.33,.76,9.38,6.39,7.15,12.39-1.07,2.87-3.06,5.4-5.06,8.83Zm-11.06-19.62c0,5.66,0,11.19,.02,16.73,0,.34,.26,.78,.54,.99,3.14,2.26,9.58,.14,10.95-3.58,3.18-8.64-1.95-15.21-11.52-14.13Z"/>
    <path class="cls-1" d="M72.49,32.92c4.48,0,8.98-.15,13.45,.05,3.36,.15,6.43,1.38,7.88,4.73,1.36,3.13,.7,6.16-1.28,8.89-.73,1-1.55,1.93-2.43,3.01,1.03,.58,2.09,1.12,3.09,1.75,4.15,2.62,5.98,6.44,5.11,11.22-.83,4.61-3.98,7.32-8.37,8.58-1.34,.39-2.78,.55-4.17,.58-4.2,.07-8.4,.03-12.8-.22,4.61-1.06,3.23-4.88,3.33-7.44,.34-8.53,.18-17.08,.11-25.63-.03-3.9-.57-4.46-3.91-5.53Zm8.41,18.58c0,5.18-.03,10.22,.04,15.25,0,.64,.43,1.48,.94,1.89,3.54,2.92,10.18,.92,11.6-3.42,2.51-7.66-3.8-14.69-12.58-13.72Zm.03-16.42v14.25c3.04-.26,6.32,1.36,8.38-2.21,1.69-2.92,1.33-7.47-.86-10.31-1.61-2.09-4.22-2.7-7.52-1.73Z"/>
    <path class="cls-1" d="M99.9,93.41c1.83,4.68,3.66,9.35,5.48,14.03,2.54,6.55,5.06,13.11,7.62,19.65,1.73,4.42,1.83,4.47,6.13,5.63h-9.71c-.25-1.36-.31-2.54-.68-3.6-1.12-3.19-2.42-6.33-3.54-9.52-.45-1.29-1.13-1.84-2.53-1.78-2.66,.11-5.33-.02-7.99,.14-.71,.04-1.76,.67-1.99,1.27-1.21,3.16-2.3,6.38-3.25,9.63-.75,2.59-.44,2.93,2.23,3.79h-10.77c3.61-.04,4.61-2.67,5.6-5.39,3.8-10.39,7.63-20.77,11.46-31.15,.33-.9,.78-1.77,1.17-2.65,.26-.02,.52-.04,.78-.07Zm-1.32,7.86c-1.69,5.22-3.15,9.73-4.63,14.29h9.67c-1.67-4.73-3.25-9.22-5.04-14.29Z"/>
    <path class="cls-1" d="M389.14,94.45c-.27,3.16-.49,5.65-.7,8.14-.68-5.31-4.77-6.12-8.9-6.6-2.62-.31-5.34-.39-7.94-.06-11.2,1.42-13.58,11.22-12.23,19.27,1.94,11.54,11.93,17.87,23.4,15.38,3.04-.66,3.96-1.57,5.91-5.87,1.08,4.71-.9,7.71-5.61,8.46-5.41,.86-10.8,.72-15.98-1.13-9.85-3.52-13.65-12.2-12.74-20.77,1.1-10.37,7.93-17.05,17.79-17.47,5.51-.24,11.05,.4,17.01,.66Z"/>
    <path class="cls-1" d="M155.98,70.99c2.25-.03,2.96-1.38,2.98-3.26,.13-9.96,.3-19.91,.31-29.87,0-2.4-.7-4.68-3.86-5.03h20.98c-.2,1.78-.43,3.72-.65,5.67-.84-3.16-3.27-3.23-5.83-3.15-1.91,.06-3.81,.01-5.91,.01v14.05h11.57c-.17,1.72-.38,3.81-.63,6.26-2.53-5.63-7.25-2.66-11.1-3.83,0,5.1-.04,9.82,.02,14.53,.02,1.74,1.12,2.79,2.83,2.88,2.07,.11,4.17,.16,6.24-.03,2.39-.22,4.22-1.32,4.14-4.46,.26,.17,.52,.34,.77,.52-.33,1.79-.59,3.6-1.05,5.36-.12,.46-.9,1.05-1.38,1.06-6.43,.07-12.86,.05-19.29,.05-.05-.25-.1-.5-.15-.75Z"/>
    <path class="cls-1" d="M256.24,65.28c-.26,1.62-.4,3.27-.83,4.84-.17,.63-.99,1.54-1.52,1.55-6.44,.11-12.88,.07-19.5-.22,2.93-.61,3.07-2.74,3.09-4.9,.1-9.3,.22-18.59,.24-27.89,0-3.94-.47-4.47-3.88-5.81h20.96c-.19,1.69-.4,3.64-.62,5.58-.88-3.55-3.71-3.06-6.29-3.08-1.8-.01-3.61,0-5.54,0v14.05h11.63c-.17,1.67-.38,3.76-.61,6.14-2.53-5.45-7.21-2.55-11.1-3.72,0,5.16-.13,9.95,.11,14.72,.05,.94,1.47,2.41,2.44,2.57,2.26,.36,4.64,.17,6.95,.02,2.37-.15,3.55-1.73,3.84-4.13,.21,.09,.41,.18,.62,.28Z"/>
    <path class="cls-1" d="M424.08,126.55c-.28,1.69-.42,3.42-.92,5.04-.19,.63-1.21,1.41-1.86,1.43-6.29,.11-12.59,.06-19.09-.18,4.41-1.26,3.16-4.96,3.25-7.6,.29-8.55,.18-17.11,.08-25.67-.04-3.64-.57-4.12-3.85-5.32,3.39,0,6.78,0,10.17,0s6.96,0,10.74,0c-.17,1.62-.39,3.61-.6,5.6-.77-2.99-2.97-3.27-5.45-3.18-2.06,.07-4.12,.01-6.34,.01v14.05h11.6c-.17,1.69-.39,3.82-.64,6.22-2.48-5.57-7.21-2.51-10.99-3.94,0,5.41-.12,10.35,.12,15.28,.04,.8,1.55,2.04,2.52,2.19,2.11,.33,4.32,.23,6.47,.05,2.35-.2,3.98-1.43,4.07-4.21,.24,.08,.48,.16,.72,.24Z"/>
    <path class="cls-1" d="M280.68,35.4c-3.48,0-6.65-.21-9.77,.09-1.44,.14-2.78,1.3-4.15,1.99,.14-1.21,.37-3.06,.57-4.78h31.87c-.18,1.86-.38,3.83-.57,5.8-.74-2.78-3.06-2.91-5.16-3.05-2.64-.18-5.29-.04-7.85-.04-.18,.27-.34,.41-.34,.54,.06,10.2,0,20.41,.25,30.61,.1,4.01,.39,4.01,4.31,4.78h-12.25c3.46-.34,2.97-3.3,3.01-5.31,.19-10.11,.09-20.22,.09-30.63Z"/>
    <path class="cls-1" d="M260.5,132.71c2.28-.39,2.82-1.77,2.83-3.87,.07-9.79,.33-19.58,.35-29.36,0-3.7-.58-4.17-3.83-5.23h22c-.21,1.64-.45,3.58-.69,5.51-.74-3.34-3.28-3.14-5.8-3.08-2.3,.06-4.61,.01-7.03,.01v14.05h12.14c-.17,1.67-.38,3.76-.62,6.14-2.71-5.6-7.48-2.64-11.2-3.57,0,5.74-.07,11.17,.03,16.59,.05,2.66,2.42,2.09,4.03,2.82h-12.21Z"/>
    <path class="cls-1" d="M316.13,99.84c-.74-2.81-2.58-3.26-4.9-3.18-2.57,.09-5.14,.02-7.88,.02v14.04h12.06c-.16,1.68-.36,3.8-.61,6.4-1.47-3.65-5.07-4.61-11.48-3.45,0,4.93-.05,9.88,.02,14.83,.04,2.72,1.39,4.18,4.31,4.13h-12.13c2.68-.32,2.81-2.33,2.83-4.38,.11-9.62,.28-19.25,.29-28.87,0-2.46-.46-4.95-3.86-5.26h22.01c-.2,1.73-.43,3.72-.66,5.71Z"/>
    <path class="cls-1" d="M49.56,132.24c2.2,.15,2.93-1,2.95-2.87,.13-10.11,.32-20.23,.38-30.34,.01-2.39-.75-4.49-3.81-4.64h11.82c-3.18,.17-3.48,2.4-3.48,4.88,.01,8.13-.19,16.28,.07,24.4,.21,6.72,.44,7.06,6.91,6.97,.58,0,1.16-.02,1.75,0,3.01,.09,5.74-.25,6.21-4.24l.6,.35c-.3,1.75-.51,3.52-.95,5.22-.12,.46-.96,1.03-1.48,1.04-6.92,.07-13.85,.05-20.78,.05-.07-.28-.13-.55-.2-.83Z"/>
    <path class="cls-1" d="M329.77,94.31h11.32c-2.39,.49-2.92,2.23-2.92,4.25-.02,9.45-.01,18.91,0,28.36,0,.08,0,.17,0,.25,.33,4.34,.45,4.48,4.42,5.54h-12.09c4.31-1.04,2.93-4.81,3.03-7.37,.34-8.53,.18-17.08,.11-25.62-.04-3.85-.57-4.42-3.86-5.42Z"/>
  </g>
</svg>