<?xml version="1.0" encoding="UTF-8"?>
<svg id="Layer_1" data-name="Layer 1" xmlns="http://www.w3.org/2000/svg" viewBox="0 0 924.93 84.02">
  <defs>
    <style>
      .cls-1 {
        fill: #fff;
      }
    </style>
  </defs>
  <path class="cls-1" d="M352.52,10.01v14.83c-1.99,0-3.91,0-5.84,0-16.14,0-32.28,.07-48.42-.05-3.52-.03-5.81,.57-5.82,4.69,0,4.22,2.33,5.31,6.06,5.29,13.15-.06,26.29-.07,39.44,0,9.88,.04,17.4,8.55,17.46,19.61,.06,10.91-7.5,19.81-17.31,19.88-18.64,.14-37.27,.04-55.91,.02-.63,0-1.26-.15-2.1-.26v-14.54c1.76,0,3.52,0,5.27,0,16.14,0,32.28-.03,48.42,.02,3.3,0,6.02-.34,6.14-4.56,.1-3.63-1.1-5.47-5.15-5.42-12.48,.15-24.96,.07-37.44,.05-9.4-.01-15.63-3.97-18.79-11.88-3.23-8.08-1.49-17.72,4.87-23.2,2.48-2.13,6.03-3.09,9.16-4.41,.85-.36,1.97-.06,2.97-.06,18.8,0,37.6,0,56.98,0Z"/>
  <path class="cls-1" d="M372.04,59.47c11.97,0,23.74,0,35.52,0,6.32,0,12.65-.09,18.97,.03,3.79,.08,5.5-1.47,5.45-5.27-.05-3.68-1.88-4.75-5.37-4.72-12.48,.13-24.97,.07-37.45,.04-9.53-.02-16.31-4.68-19.03-13-2.83-8.68-.07-18.56,7.02-23.53,2.19-1.53,5.11-2.84,7.71-2.87,19.3-.23,38.61-.12,57.92-.1,.46,0,.92,.21,1.61,.38v14.41c-1.75,0-3.5,0-5.26,0-16.14,0-32.29,.05-48.43-.04-3.54-.02-6.27,.17-6.2,4.78,.07,4.62,2.71,5.25,6.55,5.21,12.98-.12,25.96-.09,38.95-.03,9.56,.04,16.9,7.93,17.46,18.62,.55,10.48-6.57,20.51-15.81,20.75-18.13,.46-36.28,.16-54.42,.17-1.64,0-3.27,0-5.2,0v-14.83Z"/>
  <path class="cls-1" d="M222.42,74.29c-6.66,0-13.32,.06-19.98-.01-11.4-.12-20.2-8.65-20.45-20-.18-8.07-.15-16.15,0-24.23,.21-11.88,8.69-20.02,20.65-20.03,13.65,0,27.3-.02,40.95,0,10.95,.02,19.24,8.22,19.26,18.98,.01,8.57-.55,17.19,.15,25.7,.79,9.68-9.2,19.67-19.6,19.6-6.99-.05-13.98,0-20.98,0Zm1.79-49.45v15.83h23.66c0-3.86-.06-6.99,.02-10.1,.1-3.97-1.9-5.73-5.77-5.73-5.81,0-11.63,0-17.91,0Zm-.15,34.62h9.93q14.36,0,13.82-14.16c-.02-.45-.28-.88-.43-1.36h-23.32v15.52Zm-3.54-18.96v-15.65c-6.15,0-11.93,0-17.71,0-3.66,0-5.5,2.18-5.81,5.44-.31,3.34-.07,6.74-.07,10.22h23.59Zm-.03,18.95v-15.56h-23.58c0,3.17-.02,6.09,0,9.01,.03,4.25,2.52,6.35,6.51,6.5,5.61,.21,11.23,.05,17.06,.05Z"/>
  <path class="cls-1" d="M109.78,38.7c12.5,0,23.76,.02,35.02,0,6.66-.01,9.8-4.08,7.58-10.27-.53-1.48-2.59-3.44-3.98-3.46-15.6-.25-31.2-.16-47.39-.16,0,8.55,0,16.73,0,24.91,0,8.03,0,16.06,0,24.33h-14.61V10.29c1.38-.09,2.82-.26,4.25-.26,19.96-.02,39.93,.09,59.89-.07,5.75-.05,9.89,2.33,13.12,6.69,5.98,8.08,5.97,21.14,.18,29.32-4.56,6.45-11.22,7.69-19.77,7.42,3.54,3.99,6.41,7.23,9.29,10.46,2.84,3.18,5.7,6.34,9.39,10.43-7.27,0-13.49,.08-19.7-.08-.96-.02-2.08-.93-2.8-1.73-9.9-10.89-19.73-21.83-30.49-33.76Z"/>
  <path class="cls-1" d="M71.89,10.01v14.76c-3.23,0-6.33,0-9.42,0-13.14,0-26.28-.02-39.42,.01-6.32,.02-7.87,1.58-7.93,7.93-.05,6.26-.05,12.52,0,18.77,.05,6.11,1.93,7.97,8,7.98,16.1,.02,32.21,0,48.62,0v14.83c-5.27,0-10.38,0-15.49,0-11.81,0-23.62,.05-35.43-.01-11.77-.06-20.53-8.55-20.71-20.15C-.03,45.9-.05,37.66,.12,29.43,.35,18.19,8.93,10.03,20.28,10.02c15.47-.01,30.94,0,46.4,0,1.62,0,3.24,0,5.21,0Z"/>
  <path class="cls-1" d="M837.29,53.7q3.02,.5,4.39,6.25c.68,2.86,1.37,5.72,3.03,8.76,1.19-4.07,2.27-8.17,3.63-12.17,.41-1.21,1.59-2.17,2.42-3.24,.97,1.09,2.38,2.03,2.82,3.3,1.44,4.14,2.51,8.39,3.91,13.24,2.22-5.96,2.33-11.84,5.08-16.71,.65,.21,1.3,.43,1.96,.64-1.77,6.41-3.51,12.83-5.38,19.22-.16,.57-1.49,1.39-1.67,1.26-.84-.6-1.81-1.38-2.1-2.3-1.45-4.69-2.7-9.44-4.44-15.66-1.78,6.16-3.08,10.9-4.55,15.59-.29,.93-1.25,1.65-1.89,2.47-.77-.68-1.98-1.22-2.22-2.05-1.76-6.11-3.32-12.27-5-18.59Z"/>
  <path class="cls-1" d="M907.65,9.68c6.62,3.85,8.06,11.09,14.09,16.45V10.36c.58,.04,1.17,.08,1.75,.13v21.81c-6.53-3.64-7.94-10.91-13.1-15.69-.31,5.27-.61,10.21-.9,15.14-.62-.06-1.23-.13-1.85-.19V9.68Z"/>
  <path class="cls-1" d="M586.66,52.35c5.87,4.24,7.88,10.75,12.89,16.08,.26-5.48,.48-10.27,.7-15.07l1.88,.16v22.07c-6.3-4.64-8.26-11.44-13.52-16.79v15.82c-3.13-2.02-3.93-12.83-1.95-22.27Z"/>
  <path class="cls-1" d="M623.88,10.36c2.86,0,5.81-.08,8.74,.02,3.24,.11,7,.48,7.25,4.36,.17,2.54-1.74,5.2-2.71,7.81-.51-.14-1.01-.28-1.52-.42,1.97,2.91,3.94,5.81,5.91,8.72-.41,.41-.82,.81-1.22,1.22-1.45-1.4-3.15-2.63-4.29-4.24-2.31-3.26-4.28-6.81-9.51-5.19-.36,3.03-.71,6.04-1.07,9.06-.52-.03-1.05-.06-1.57-.09V10.36Zm2.44,9.19c3.01,0,5.56,.37,7.9-.16,1.19-.27,2.82-2.2,2.77-3.31-.05-1.08-1.86-2.72-3.13-2.98-2.34-.48-4.86-.14-7.54-.14v6.58Z"/>
  <path class="cls-1" d="M724.78,10.35c3.26,0,6.23-.11,9.18,.03,3.19,.15,6.52,.34,7.42,4.35,.84,3.75-1.23,5.88-4.48,7.32,2.06,2.99,4.07,5.9,6.07,8.81l-1.22,1.22c-1.45-1.37-3.18-2.54-4.28-4.14-2.31-3.35-4.32-6.87-9.85-5.32-.15,2.85-.31,5.87-.48,9.06-3.03-1.49-3.63-7.5-2.36-21.33Zm3.01,2.62v6.92c2.86-.13,5.41,.12,7.73-.49,1.19-.31,2.74-2.15,2.72-3.28-.02-1.07-1.73-2.77-2.94-3.02-2.34-.48-4.86-.14-7.52-.14Z"/>
  <path class="cls-1" d="M707.98,23.5c1.14,1.67,3.16,4.63,5.73,8.4-7.7-.33-7.02-12.62-16.03-9.04-.16,2.77-.34,5.75-.54,9.09-2.88-2.11-3.62-12.21-1.99-21.63,2.66,0,5.44-.13,8.21,.03,3.27,.19,7.5-.07,7.83,4.21,.2,2.64-1.86,5.45-3.2,8.94Zm-10.3-3.83c2.87,0,5.28,.42,7.42-.15,1.35-.36,2.31-2.19,3.44-3.36-1.2-1.08-2.25-2.78-3.62-3.09-2.28-.52-4.77-.14-7.24-.14v6.74Z"/>
  <path class="cls-1" d="M697.09,66.22c1.15,1.66,3.1,4.48,5.05,7.3-.4,.41-.8,.82-1.19,1.23-1.44-1.34-3.17-2.49-4.26-4.07-2.3-3.35-4.3-6.86-9.85-5.05-.19,2.73-.4,5.68-.63,8.97-2.94-2.22-3.56-9.9-2.09-21.04,4.15,0,8.43-.39,12.56,.2,1.52,.22,3.86,2.84,3.77,4.24-.16,2.48-1.89,4.86-3.37,8.22Zm-10.31-2.89c3.97-.95,7.22-1.6,10.34-2.63,.37-.12,.34-3.28-.01-3.39-3.25-.97-6.6-1.59-10.33-2.39v8.41Z"/>
  <path class="cls-1" d="M906.11,74.61c-7.66-.73-7.11-12.37-15.79-8.92-.31,2.81-.64,5.76-.97,8.72-.56-.04-1.12-.09-1.68-.13v-21.02c2.64,0,5.41-.02,8.17,0,3.39,.03,7.46,0,7.86,4.13,.25,2.57-1.93,5.37-3.32,8.82,1.09,1.6,3.02,4.43,5.73,8.4Zm-15.96-12.21c2.83,0,5.22,.41,7.35-.15,1.39-.36,2.41-2.11,3.6-3.24-1.2-1.13-2.23-2.9-3.62-3.23-2.27-.54-4.77-.15-7.33-.15v6.77Z"/>
  <path class="cls-1" d="M749.48,19.11c4.07,.27,7.62,.51,11.18,.75-.02,.58-.04,1.17-.07,1.75h-11.17v7.1c4.29,.25,8.51,.5,12.73,.75-.03,.54-.06,1.08-.09,1.62h-15.51V10.41c5.04,.21,10.03-1.06,14.77,.8,0,.49-.01,.98-.02,1.46h-11.83v6.43Z"/>
  <path class="cls-1" d="M558.43,12.88h-11.67v6.21c3.8,.25,7.51,.49,11.21,.73-.01,.58-.03,1.16-.04,1.75h-11.21v7.12c4.26,.26,8.49,.52,12.72,.77-.02,.53-.04,1.05-.06,1.58h-15.56V10.47c5-.05,9.97-.66,14.81,.35-.06,.69-.13,1.38-.19,2.07Z"/>
  <path class="cls-1" d="M618.99,31.31h-15.39V10.99h14.92c.01,.54,.02,1.08,.04,1.62-3.89,.19-7.78,.39-12.1,.6-.09,1.81-.17,3.53-.28,5.78,3.98,.3,7.74,.57,11.49,.85,0,.59,0,1.17,.01,1.76-1.78,.1-3.56,.24-5.35,.29-1.8,.05-3.61,.01-5.77,.01v6.81c4.21,.25,8.44,.49,12.66,.74-.08,.62-.15,1.24-.23,1.86Z"/>
  <path class="cls-1" d="M801.19,12.75h-11.99c-.11,2.28-.19,3.99-.3,6.26,4,.29,7.76,.55,11.51,.82,0,.56,0,1.12,0,1.68-3.58,.21-7.16,.42-11.12,.65v6.58c4.23,.22,8.49,.44,12.75,.66-.02,.55-.04,1.09-.07,1.64h-15.56V11h14.87c-.04,.59-.07,1.17-.11,1.76Z"/>
  <path class="cls-1" d="M486.12,0V84.02c-.33,0-.66,0-.99,0V0c.33,0,.66,0,.99,0Z"/>
  <path class="cls-1" d="M565.34,9.78c3.71,5.16,7.41,10.32,12.02,16.73V10.66c.66-.03,1.32-.07,1.99-.1,1.92,6.72,.39,13.73,.08,21.08-6.24-3.19-8.02-10.3-13.81-15.93v15.82c-.54,0-1.09-.02-1.63-.03V10.7c.45-.31,.91-.61,1.36-.92Z"/>
  <path class="cls-1" d="M839.25,23.55c1.05,1.53,3,4.36,4.95,7.2l-.82,1.12c-1.19-.74-2.64-1.27-3.53-2.28-1.52-1.72-2.37-4.16-4.12-5.5-1.5-1.16-3.86-1.42-5.87-1.54-.33-.02-.93,2.72-1.22,4.22-.31,1.59-.4,3.22-.59,4.83-.5-.02-1-.05-1.51-.07V10.33c2.49,0,5.24-.11,7.99,.03,3.31,.16,7.51-.01,7.88,4.21,.23,2.64-1.85,5.49-3.18,9Zm-10.28-3.84c2.61,0,5.02,.47,7.11-.16,1.5-.45,2.55-2.35,3.81-3.6-1.29-1.01-2.46-2.58-3.91-2.91-2.15-.5-4.5-.13-7.01-.13v6.8Z"/>
  <path class="cls-1" d="M680.54,31.91c-6.13-.05-10.19-4.48-10.12-11.01,.07-6.49,4.32-10.93,10.36-10.84,6.05,.09,10.19,4.62,10.15,11.1-.05,6.53-4.18,10.81-10.39,10.75Zm-.02-19.22c-4.6,.1-7.28,3.46-7.1,8.89,.17,4.91,3.33,8.24,7.61,8,4.18-.23,6.99-3.81,6.89-8.75-.11-5.05-3-8.23-7.4-8.13Z"/>
  <path class="cls-1" d="M797.91,63.96c-.07,6.47-4.32,10.85-10.46,10.77-6.07-.08-10.21-4.61-10.11-11.09,.1-6.45,4.45-10.99,10.41-10.85,6,.13,10.23,4.78,10.16,11.17Zm-17.57-.27c-.09,5.13,2.94,8.66,7.36,8.61,4.25-.05,7.13-3.37,7.21-8.32,.08-4.95-2.69-8.36-6.92-8.55-4.6-.2-7.56,2.99-7.65,8.26Z"/>
  <path class="cls-1" d="M541.41,63.83c0,6.42-4.25,10.92-10.34,10.91-6.03,0-10.36-4.6-10.32-10.96,.05-6.41,4.4-11.03,10.34-10.99,5.97,.04,10.3,4.68,10.31,11.04Zm-2.99,.07c.04-4.88-2.82-8.33-7.03-8.47-4.57-.16-7.54,3.09-7.62,8.34-.08,5.07,3.06,8.63,7.5,8.52,4.22-.1,7.11-3.49,7.15-8.39Z"/>
  <path class="cls-1" d="M882.88,18.81c.16-3.02,.3-5.66,.46-8.81,3.6,3.01,3.61,19.14,.08,22.04-.2-3.43-.37-6.41-.57-9.83h-10.44c-.27,3.09-.56,6.32-.85,9.54l-1.85-.16V10.65c.46-.13,.93-.26,1.39-.39,.49,2.76,.99,5.51,1.53,8.55h10.24Z"/>
  <path class="cls-1" d="M780.5,16.41c-2.12-1.22-4.14-3.07-6.4-3.44-1.59-.26-3.51,1.51-5.29,2.38,1.34,1.18,2.53,2.66,4.07,3.45,1.88,.97,4.19,1.12,6.09,2.07,2.91,1.45,4.04,3.96,2.58,7.02-2.15,4.5-6.3,4.44-10.33,3.78-3.52-.58-5.8-2.65-4.83-7.15,.72,.8,1.3,1.95,2.2,2.34,2.29,.98,4.7,2.03,7.13,2.21,1.09,.08,2.34-1.83,3.51-2.84-1-1.14-1.79-2.69-3.05-3.31-2.05-1.01-4.68-1.01-6.55-2.21-1.58-1.01-3.47-3.2-3.35-4.73,.14-1.83,1.9-4.24,3.62-5.1,5.41-2.69,11.17,.54,10.61,5.54Z"/>
  <path class="cls-1" d="M637.35,63.6c.08-6.49,4.37-10.96,10.36-10.8,6.05,.16,10.04,4.64,9.98,11.21-.06,6.58-4.16,10.82-10.37,10.72-6.09-.1-10.05-4.52-9.97-11.13Zm17.34,.32c.03-5.15-2.64-8.4-6.98-8.48-4.69-.09-7.4,3.06-7.36,8.57,.03,5.06,2.87,8.32,7.21,8.29,4.35-.03,7.1-3.26,7.13-8.38Z"/>
  <path class="cls-1" d="M758.57,67.23c.63,.78,1.09,1.95,1.91,2.28,2.43,1.01,4.97,2.07,7.54,2.31,.95,.09,2.66-1.89,2.99-3.17,.19-.76-1.48-2.44-2.65-2.97-2.24-1.01-5-1.08-7.02-2.35-1.55-.98-3.19-3.24-3.13-4.88,.06-1.66,1.8-3.92,3.42-4.75,4.92-2.53,10.09-.05,11.72,5.97-1.37-.69-2.19-1.07-2.98-1.5-1.63-.89-3.24-2.49-4.87-2.51-1.58-.01-3.17,1.6-4.75,2.5,1.21,1.11,2.25,2.55,3.66,3.26,1.9,.95,4.59,.79,6.01,2.09,1.67,1.54,3.56,4.35,3.23,6.24-.81,4.61-4.94,5.25-9,4.89-4.12-.37-7.16-2.03-6.06-7.41Z"/>
  <path class="cls-1" d="M618.1,68.29c2.75,1.32,5.39,3.1,8.3,3.74,1.27,.28,3.07-1.78,4.63-2.78-1.21-1.3-2.2-2.97-3.67-3.79-1.83-1.02-4.16-1.14-6.11-2-3.22-1.43-5.02-4.47-2.61-7.06,1.88-2.02,5.59-3.07,8.56-3.22,3.21-.16,5.74,1.94,5.98,6.92-1.51-1.09-2.19-1.74-2.99-2.14-1.81-.89-3.66-2.24-5.52-2.29-1.32-.04-2.69,1.75-4.04,2.72,1.12,1.02,2.09,2.34,3.4,2.97,1.76,.85,4.02,.8,5.63,1.81,1.66,1.04,3.77,2.82,3.91,4.43,.16,1.87-1.27,5.23-2.63,5.58-3.29,.85-7.07,.87-10.4,.12-1.55-.35-2.49-3.29-3.71-5.06,.43,.01,.85,.03,1.28,.04Z"/>
  <path class="cls-1" d="M884.34,74.25c-5.5,.56-3.97-6.63-9.89-6.65-6.01-.02-5.04,6.2-10.27,7.2,2.82-7.26,5.23-13.61,7.79-19.9,.29-.7,1.69-1.67,2.09-1.48,1.04,.47,2.19,1.36,2.63,2.37,2.56,5.88,4.93,11.85,7.64,18.45Zm-6.81-8.94c-1.1-2.95-2.03-5.45-3.41-9.17-1.38,3.78-2.29,6.28-3.35,9.17h6.76Z"/>
  <path class="cls-1" d="M823.67,31.89c-5.59-.43-4.23-7.17-10.26-7.15-5.9,.02-4.83,6.29-10.09,7.32,2.85-7.33,5.13-13.75,7.86-19.98,1.34-3.05,3.33-2.27,4.47,.38,2.64,6.15,5.12,12.37,8.02,19.44Zm-13.73-9.25h6.76c-1.08-2.96-2.01-5.52-3.4-9.35-1.45,4.02-2.36,6.55-3.36,9.35Z"/>
  <path class="cls-1" d="M723.2,60.05c-5.1-3.14-10.43-8.79-14.18-.79-1.37,2.93-.8,8.47,1.23,10.89,4.77,5.68,8.62,.02,12.46-3.44,.12,5.1-2.35,7.6-7.04,7.97-5.9,.47-9.61-2.58-10.55-8.68-1.05-6.84,1.78-11.62,7.65-12.91,5.06-1.11,8.48,.87,10.43,6.95Z"/>
  <path class="cls-1" d="M664.59,52.17c0,5-.04,8.56,0,12.12,.09,5.94,1.62,8.05,5.74,7.93,5.3-.16,5.31-3.93,5.3-7.7-.01-3.73,0-7.46,.66-11.14,2.97,3.32,3.35,16.45,.58,18.47-2.37,1.73-6.02,2.63-8.97,2.38-1.98-.16-5.02-2.75-5.35-4.63-.86-4.94-.53-10.1-.56-15.17,0-.38,.83-.76,2.59-2.26Z"/>
  <path class="cls-1" d="M727.81,73.77v-20.14h15.21c.04,.47,.08,.95,.12,1.42h-12.25v6.91c3.81,.24,7.58,.47,11.35,.7,0,.52,0,1.04,0,1.56-3.75,.24-7.49,.49-11.46,.74v6.67c4.35,.23,8.46,.45,12.57,.67-.01,.49-.03,.98-.04,1.46h-15.51Z"/>
  <path class="cls-1" d="M565.93,53.28c4.67,0,8.97-.02,13.27,.03,.58,0,1.16,.4,1.79,1.82h-12.19v7.23h11.35c.06,.61,.12,1.23,.18,1.84-3.8,.23-7.61,.47-11.59,.71v6.77c4.35,.2,8.51,.39,12.67,.58,0,.47,0,.95,0,1.42h-15.48v-20.4Z"/>
  <path class="cls-1" d="M865.46,24.15c-2.28,6.6-5.71,8.63-11.34,7.61-4.59-.83-7.54-5.01-7.6-10.75-.06-5.68,3.12-9.86,8.21-10.81,4.68-.87,8.09,1.12,9.82,5.73-3.48-.98-7.18-3.22-10.38-2.65-4.75,.85-4.87,5.59-4.43,9.67,.42,3.89,2.63,7.02,6.66,6.4,2.88-.45,5.43-3.02,9.05-5.2Z"/>
  <path class="cls-1" d="M539.93,24.15c-2.69,6.78-6.08,8.69-11.65,7.59-4.64-.92-7.71-5.61-7.44-11.38,.27-5.69,3.67-9.62,8.87-10.24,4.62-.55,7.74,1.5,9.49,7.38-4.59-3.23-8.67-7.91-13.24-2.69-1.44,1.65-1.96,4.53-2,6.87-.09,4.71,2.83,8.43,6.44,7.7,3.05-.61,5.72-3.04,9.53-5.22Z"/>
  <path class="cls-1" d="M924.07,55.56h-11.88v6.4c3.78,.22,7.53,.43,11.29,.64,0,.56,0,1.11,0,1.67-3.6,.2-7.19,.39-11.17,.61v6.77c4.16,.21,8.39,.42,12.61,.63-.02,.51-.04,1.03-.07,1.54h-15.52v-20.01h14.73c0,.58,0,1.16,0,1.74Z"/>
  <path class="cls-1" d="M545.93,53.44c3.46,0,6.9-.17,10.33,.05,3.54,.23,5.32,2.41,5.32,5.89,0,3.42-1.67,5.63-5.19,6.08-2.44,.31-4.92,.38-7.62,.58-.43,2.88-.84,5.63-1.25,8.38-.53-.06-1.05-.12-1.58-.18v-20.79Zm2.61,11c3.89-1.32,6.86-2.17,9.64-3.45,.42-.2,.27-3.28-.2-3.45-2.88-1.05-5.92-1.64-9.44-2.52v9.42Z"/>
  <path class="cls-1" d="M656.33,19.37c3.54,.19,6.59,.35,9.64,.51,.03,.54,.05,1.08,.08,1.62-3,.25-6,.51-9.45,.8-.35,3.07-.71,6.24-1.07,9.4-.52-.02-1.05-.04-1.57-.07V11.18h13.49c-.01,.53-.03,1.07-.04,1.6h-11.07v6.58Z"/>
  <path class="cls-1" d="M590.82,13.31c-3.18-.3-5.23-.49-7.56-.71,2.65-3.05,13.78-3.2,17.44-.08-2.65,.28-4.79,.5-7.98,.84V31.69c-.63-.02-1.27-.03-1.9-.05V13.31Z"/>
  <path class="cls-1" d="M802.77,53.76h13.36c.03,.55,.05,1.09,.08,1.64-3.53,.15-7.06,.31-10.95,.48v6.19c3.16,.21,6.3,.43,9.43,.64,.02,.52,.04,1.04,.06,1.55-3.06,.29-6.11,.59-9.42,.91-.35,3.13-.69,6.17-1.03,9.21-.51-.02-1.03-.04-1.54-.06v-20.55Z"/>
  <path class="cls-1" d="M826.1,74.17v-18.09c-2.77-.33-4.88-.57-7-.82,.04-.46,.09-.93,.13-1.39h16.34c.07,.39,.15,.77,.22,1.16-2.05,.34-4.1,.68-7.32,1.22v18.11c-.79-.06-1.58-.13-2.37-.19Z"/>
  <path class="cls-1" d="M901.91,10.61v22.06c-1.34-1.42-2.5-2.08-2.48-2.71,.17-6.51-1.01-13.14,.63-19.53,.62,.06,1.24,.12,1.85,.18Z"/>
</svg>