<?xml version="1.0" encoding="UTF-8"?>
<svg id="Layer_1" data-name="Layer 1" xmlns="http://www.w3.org/2000/svg" viewBox="0 0 416.94 106.01">
  <defs>
    <style>
      .cls-1 {
        fill: #fff;
      }
    </style>
  </defs>
  <path class="cls-1" d="M51.85,23.75c3.93-.05,7.38,1.19,10.26,3.88,10.77,10.05,21.54,20.1,32.29,30.18,4.6,4.31,4.47,9.86-.13,14.2-10.6,10-21.23,19.97-31.68,30.13-5.12,4.97-12.14,4.77-16.39,1.63-5.37-3.97-5.72-11.34-.87-15.93,3.86-3.64,7.55-7.46,11.24-11.27,2-2.07,1.95-4.11,.04-6.25-1.45-1.63-2.1-3.52-2.16-5.68-.05-1.87-.05-3.77-.37-5.6-.55-3.08-2.26-5.58-4.46-7.76-2.67-2.64-5.32-5.3-7.97-7.96-4.39-4.39-4.46-10.45-.16-15.01,2.81-2.97,6.32-4.37,10.36-4.56Z"/>
  <path class="cls-1" d="M49.46,10.5c.11,2.91-1.25,5.3-3.32,7.41-3.19,3.25-6.36,6.52-9.49,9.82-4.78,5.05-4.7,11.99,.15,16.97,3.15,3.23,6.22,6.54,9.4,9.74,3.24,3.26,4.21,7.07,2.54,11.29-1.71,4.31-5.3,6.23-9.78,6.52-3.37,.22-6.22-1.03-8.66-3.36-8.81-8.4-17.65-16.79-26.5-25.15C-.23,39.94-1.18,35.28,1.55,31.19c1-1.5,2.41-2.76,3.73-4.02C13.71,19.12,22.15,11.08,30.64,3.08c4.91-4.62,13.05-3.94,16.97,1.35,1.31,1.76,1.89,3.76,1.85,6.07Z"/>
  <path class="cls-1" d="M187.21,55.14c4.41,.95,6.64,3.73,7.57,7.62,.61,2.59,.96,5.24,1.45,7.99h-10.53c-.34-2.17-.54-4.31-1.03-6.39-.57-2.44-1.61-4.68-4.37-5.34-1.1-.26-2.28-.19-3.58-.27v12.02h-10.14V37.47c.09-.05,.16-.11,.22-.11,6.63,.13,13.25,.25,19.88,.41,.74,.02,1.49,.27,2.22,.49,4.05,1.18,6.04,3.53,6.25,7.34,.22,4.02-1.64,7.03-5.36,8.61-.73,.31-1.49,.54-2.58,.93Zm-10.44-1.24c2.1-.47,4.1-.67,5.91-1.38,2.02-.79,2.82-2.87,2.52-5.32-.21-1.76-1.3-3-3.26-3.33-1.67-.28-3.39-.28-5.18-.41v10.45Z"/>
  <path class="cls-1" d="M203.87,37.38h10.35v1.31c0,6.15,0,12.3,0,18.45,0,.32,0,.64,0,.96,.09,5.46,3.66,6.64,8.22,5.4,1.67-.45,2.28-1.91,2.54-3.47,.12-.7,.14-1.43,.14-2.15,.01-6.35,0-12.7,0-19.04v-1.45h8.08c.05,.16,.14,.31,.14,.45-.02,7.15,.02,14.29-.1,21.44-.06,3.39-.95,6.56-3.55,8.99-2.24,2.1-5.01,2.88-7.97,3.16-3.62,.34-7.2,.16-10.63-1.11-4.06-1.5-6.19-4.6-6.92-8.75-.2-1.13-.3-2.3-.3-3.45-.03-6.51-.01-13.02-.01-19.52,0-.36,0-.71,0-1.2Z"/>
  <path class="cls-1" d="M157.2,49.94h-8.87c-.08-.24-.19-.52-.29-.81-.96-3.03-3.24-4.69-6.36-4.61-3.12,.08-5.14,1.61-5.93,4.75-.81,3.22-.79,6.5,0,9.72,.77,3.11,2.79,4.63,5.84,4.66,3.32,.03,5.41-1.49,6.31-4.59,.14-.5,.24-1.01,.38-1.59h9.07c-.23,3.61-1.19,6.88-3.68,9.59-1.81,1.97-4.08,3.17-6.65,3.81-3.63,.91-7.27,.99-10.9,.02-5.26-1.41-8.81-4.73-10.57-9.84-1.48-4.3-1.53-8.72-.22-13.07,2.13-7.04,8.04-11.27,15.71-11.35,4.18-.04,8.11,.78,11.35,3.65,2.86,2.53,4.2,5.84,4.79,9.68Z"/>
  <path class="cls-1" d="M269.98,70.77h-27.96c0-1.76-.04-3.47,.03-5.17,.02-.42,.38-.86,.65-1.23,4.55-6.27,9.12-12.52,13.68-18.78,.23-.32,.44-.65,.78-1.16h-13.82v-7h26.56c0,1.75,.04,3.49-.03,5.22-.01,.38-.37,.77-.63,1.12-4.67,6.28-9.35,12.55-14.02,18.83-.25,.34-.48,.69-.83,1.22h15.59v6.97Z"/>
  <path class="cls-1" d="M388.09,40.05v30.74h-2.05v-31.82c1.09,0,2.19-.04,3.29,.03,.25,.02,.59,.35,.7,.62,3.55,8.67,7.09,17.34,10.57,26.03,.43,1.08,.48,2.31,.67,3.28,3.14-9.91,7.81-19.36,11.59-29.15,.24-.62,.55-.87,1.23-.83,.91,.06,1.83,.01,2.85,.01v31.79h-2.05v-30.76c-.7,1.89-1.32,3.77-2.08,5.59-3.36,8.1-6.78,16.17-10.15,24.27-.27,.65-.53,1.01-1.34,1.02-.82,0-1.07-.38-1.33-1.03-3.56-8.79-7.15-17.57-10.72-26.36-.46-1.13-.8-2.31-1.19-3.44Z"/>
  <path class="cls-1" d="M310.9,54.1c.62-2.42,1.01-4.92,1.92-7.23,1.68-4.25,4.96-6.89,9.41-7.93,4.56-1.06,8.98-.72,13.02,1.89,3.1,2.01,4.92,4.97,5.84,8.48,1.06,4.03,1.04,8.08-.25,12.04-1.65,5.05-5.04,8.38-10.3,9.51-5.2,1.13-10.14,.55-14.29-3.11-3.45-3.04-4.71-7.11-4.99-11.55-.04-.68-.06-1.35-.09-2.03-.09-.03-.18-.06-.27-.09Zm28.51,1.39c-.19-1.94-.21-3.3-.48-4.62-.95-4.76-3.39-8.4-8.27-9.73-4.9-1.33-9.52-.73-13.31,3.04-1.51,1.5-2.4,3.37-2.93,5.41-.91,3.51-.93,7.03,0,10.53,1.79,6.74,7.22,9.94,14.43,8.92,4.78-.68,8.03-3.43,9.52-8.01,.63-1.94,.77-4.04,1.04-5.54Z"/>
  <path class="cls-1" d="M375.61,70.73c-.14,.05-.21,.09-.29,.09q-2.16,.13-2.91-1.92c-.99-2.73-1.99-5.46-2.94-8.21-.22-.63-.52-.86-1.19-.85-3.92,.03-7.83,.04-11.75,0-.73,0-1.04,.26-1.27,.92-1.01,2.9-2.13,5.76-3.06,8.68-.37,1.17-.93,1.64-2.11,1.41-.23-.04-.47-.03-.83-.04,.11-.38,.19-.71,.31-1.03,3.63-9.91,7.31-19.81,10.86-29.75,.48-1.33,1.27-1.1,2.19-1.19,1.02-.1,1.52,.21,1.89,1.24,3.53,9.86,7.13,19.7,10.7,29.54,.13,.37,.25,.74,.38,1.11Zm-13.19-30.06c-1.96,5.55-4.05,11.49-6.09,17.26h12.23c-2.06-5.79-4.17-11.7-6.14-17.26Z"/>
  <path class="cls-1" d="M286.63,40.97v12h13.36v2.06c-4.43-.07-8.82,.11-13.26-.11v15.86h-2.35v-31.72h19.98v1.91h-17.73Z"/>
</svg>