<?xml version="1.0" encoding="UTF-8"?>
<svg id="Layer_2" data-name="Layer 2" xmlns="http://www.w3.org/2000/svg" viewBox="0 0 247.6 38.38">
  <defs>
    <style>
      .cls-1 {
        fill: #fff;
      }
    </style>
  </defs>
  <g id="Layer_1-2" data-name="Layer 1">
    <path class="cls-1" d="M23.82,12.95c.6-1.07,1.1-2.14,1.75-3.12C30.51,2.34,39.64-.77,47.94,2.35c4.77,1.79,8.11,5.28,10.61,9.64,2.49,4.34,2.43,8.88,1.29,13.54-.79,3.21-2.01,6.23-4.15,8.82-1.87,2.26-4.21,3.65-7.19,3.69-9.32,.15-18.65,.32-27.97,.35-3.18,0-6.42-.04-9.52-.64C4.87,36.55,.34,30.96,.02,24.72c-.33-6.42,3.6-12.25,9.65-14.3,4.74-1.61,9.13-.87,13.22,1.93,.29,.2,.6,.38,.94,.6Z"/>
    <path class="cls-1" d="M219.61,19.44c0-4.73,0-9.47,0-14.2,0-1.52,.09-1.65,1.57-1.66,4.83-.04,9.65-.08,14.48-.04,1.22,0,2.45,.27,3.66,.5,3.93,.73,6.27,3.2,7.22,6.94,1.49,5.86,1.49,11.73-.45,17.51-1.45,4.3-4.68,6.57-9.12,6.89-4.26,.3-8.55,.27-12.82,.36-.8,.02-1.6-.06-2.39-.08-1.96-.05-2.13-.23-2.13-2.23,0-3.29,0-6.58,0-9.86,0-1.37,0-2.75,0-4.12Zm4.8,.03c0,3.43,0,6.87,0,10.3,0,.8,.08,1.61,1.16,1.59,3.55-.06,7.1-.04,10.64-.26,2.76-.17,4.34-1.98,5.13-4.49,1.43-4.49,1.44-9.05,.4-13.59-.77-3.37-2.51-4.91-5.96-5.16-3.21-.23-6.45-.18-9.68-.19-1.52,0-1.68,.21-1.69,1.71-.01,3.36,0,6.72,0,10.08Z"/>
    <path class="cls-1" d="M195.87,21.24c-2.18,0-4.36,.02-6.54,0-1.17-.01-1.42-.42-1-1.5,.76-1.97,1.65-2.59,3.76-2.6,3.16-.03,6.32,0,9.48-.08,2.23-.06,3.24-.99,3.54-3.15,.14-.99,.12-2.03,0-3.02-.21-1.72-1.42-2.92-3.35-2.97-3.51-.1-7.03,0-10.54,.08-.94,.02-1.87,.23-2.81,.33-1.1,.12-1.44-.29-1-1.3,.63-1.44,1.59-2.68,3.2-3.01,1.8-.37,3.65-.7,5.48-.74,2.64-.06,5.3,.02,7.93,.3,3.56,.38,5.49,2.41,5.92,5.88,.34,2.79,0,5.49-1.31,8-.48,.92-.33,1.57,.24,2.37,2.51,3.51,2.62,7.36,1.19,11.25-.87,2.36-2.77,3.8-5.24,4.29-5,1-10.02,.97-15.04,.08-1.86-.33-2.89-1.54-3.57-3.14-.46-1.08-.12-1.42,1.07-1.34,3.83,.28,7.66,.59,11.5,.72,1.43,.05,2.87-.31,4.3-.58,1.34-.25,2.15-1.14,2.54-2.41,.52-1.67,.58-3.35,.02-5.01-.54-1.63-1.4-2.31-3.11-2.36-2.21-.06-4.43-.01-6.64-.01,0-.02,0-.05,0-.07Z"/>
    <path class="cls-1" d="M125.56,17.73c0-5.46,.02-10.91-.02-16.37,0-1.05,.31-1.45,1.36-1.34,.72,.07,1.46,.07,2.18,0,.97-.09,1.28,.32,1.26,1.24-.03,2.71-.01,5.42-.01,8.13,0,1.82,.08,1.86,1.84,1.6,3.24-.47,6.49-.79,9.76-.36,4.08,.53,5.85,2.45,6.08,6.57,.05,.9,.08,1.81,.08,2.71,0,4.77-.02,9.54,.02,14.31,0,1.05-.25,1.58-1.4,1.43-.5-.06-1.02-.01-1.52-.01-1.71,0-1.91-.19-1.91-1.95,0-4.12,.02-8.24-.02-12.36,0-1.22-.08-2.46-.27-3.66-.3-1.83-1.06-2.72-2.91-2.83-2.7-.16-5.43-.07-8.13,.08-1.42,.08-1.62,.45-1.62,1.91-.01,5.57-.01,11.13,0,16.7,0,2.49,0,2.1-2.1,2.11-2.66,.01-2.66,0-2.66-2.62,0-5.1,0-10.19,0-15.29Z"/>
    <path class="cls-1" d="M83.69,24.57c-2.5,0-5.01-.01-7.51,0-1.28,.01-1.43,.19-1.4,1.47,.09,3.64,1.76,5.55,5.46,5.62,3.43,.07,6.87-.27,10.29-.5,1.1-.07,1.44,.19,1.05,1.26-.57,1.58-1.51,2.74-3.33,3.03-3.76,.61-7.5,.7-11.25,.01-3.82-.69-5.97-3.02-6.68-6.76-.74-3.92-.77-7.83,.35-11.69,1.07-3.67,3.52-5.76,7.31-6.37,3-.49,5.98-.51,8.96,.18,2.62,.61,4.43,2.14,4.91,4.77,.47,2.54,.6,5.14,.83,7.72,.08,.92-.49,1.25-1.38,1.24-2.54-.02-5.08,0-7.62,0h0Zm-2.44-3.62v.02c1.34,0,2.69,0,4.03,0,2.68,0,2.9-.26,2.43-2.97-.42-2.44-1.39-3.54-3.62-3.8-1.29-.15-2.61-.19-3.9-.07-3.46,.32-5.05,2-5.38,5.39-.09,.95,.18,1.44,1.21,1.42,1.74-.03,3.48,0,5.23,0Z"/>
    <path class="cls-1" d="M155.46,23.42c.16-1.48,.21-3.04,.5-4.56,1.01-5.24,3.41-7.54,8.73-8.33,3.03-.45,6.08-.37,9.08,.37,2.55,.62,4.38,2.08,5.22,4.58,1.61,4.85,1.58,9.72,.04,14.58-1.06,3.35-3.52,5.12-6.88,5.72-2.84,.51-5.69,.6-8.55,.1-4.57-.8-7.07-3.29-7.71-7.86-.21-1.5-.29-3.02-.43-4.61Zm20.17-.67c-.24-1.45-.41-3.14-.81-4.78-.47-1.91-1.76-3.23-3.76-3.43-1.86-.19-3.76-.23-5.62-.04-2.56,.25-4.09,1.86-4.67,4.33-.75,3.15-.72,6.29,.07,9.43,.54,2.15,1.96,3.38,4.1,3.62,1.61,.18,3.26,.24,4.87,.08,3.38-.35,4.61-1.53,5.27-4.88,.26-1.34,.35-2.71,.56-4.33Z"/>
    <path class="cls-1" d="M110.69,36.07c-1.63-.2-3.49-.3-5.29-.66-3.08-.62-5.1-2.56-5.94-5.55-1.18-4.19-1.18-8.44,.04-12.62,1.1-3.77,3.64-6.06,7.63-6.62,3.15-.45,6.29-.47,9.43,.06,1.61,.27,2.46,1.28,2.83,2.77,.24,1-.12,1.41-1.16,1.38-2.86-.09-5.73-.32-8.58-.22-3.82,.13-5.57,1.7-6,5.5-.26,2.27-.2,4.62,.05,6.9,.32,2.88,1.69,4.08,4.57,4.52,3.11,.47,6.22,.31,9.32-.13,.57-.08,1.17,.06,1.75,.09-.11,.58-.14,1.19-.35,1.74-.5,1.31-1.44,2.15-2.89,2.3-1.73,.18-3.46,.35-5.42,.54Z"/>
  </g>
</svg>