<?xml version="1.0" encoding="UTF-8"?>
<svg id="Layer_1" data-name="Layer 1" xmlns="http://www.w3.org/2000/svg" viewBox="0 0 357.12 45.41">
  <defs>
    <style>
      .cls-1 {
        fill: #fff;
      }
    </style>
  </defs>
  <path class="cls-1" d="M4.8,45.41c-.75-.25-1.53-.44-2.25-.75C.94,43.97,0,42.75,0,40.97,0,27.68,0,14.39,0,1.11c0-.19,.04-.38,.06-.63H4.08c0,.55,0,1.02,0,1.5,0,13.05,0,26.1,0,39.14,0,1.87,.77,2.61,2.71,2.62,1.91,0,2.77-.8,2.77-2.61,0-13.05,0-26.1,0-39.14,0-.47,0-.95,0-1.49h4.08V1.98c0,12.69,0,25.38,0,38.07,0,3.24-.95,4.43-4.1,5.16-.15,.03-.28,.13-.41,.2H4.8Z"/>
  <path class="cls-1" d="M195.23,45.41c-.44-.16-.87-.32-1.31-.47-2.34-.79-3.28-2.06-3.29-4.52-.01-6.96,0-13.92,0-20.89,0-5.89,0-11.78,0-17.66V.48h4.08c0,.54,0,1.01,0,1.48,0,12.93,0,25.86,0,38.79,0,2.33,.91,3.17,3.2,2.98,1.6-.14,2.31-.96,2.31-2.72,0-13.01,0-26.02,0-39.03V.49h4.08c0,.54,0,1.01,0,1.48,0,12.69,0,25.38,0,38.07,0,3.23-.96,4.44-4.1,5.17-.15,.03-.28,.13-.41,.2h-4.56Z"/>
  <path class="cls-1" d="M54.2,45.41s-.04-.08-.07-.09c-3.81-1.19-4.47-2.04-4.52-6.04-.04-2.94,0-5.88,0-8.93h4.06c.02,.4,.05,.82,.05,1.23,0,3.18,0,6.37,0,9.55,0,1.86,.87,2.61,2.91,2.6,1.89-.01,2.59-.7,2.6-2.6,0-2.75-.07-5.49,.02-8.24,.1-3.19-.94-6-2.66-8.62-1.55-2.36-3.12-4.71-4.66-7.08-1.53-2.37-2.23-4.99-2.29-7.79-.03-1.47-.02-2.94,0-4.42,.03-2.55,1.05-3.93,3.55-4.55,2.28-.57,4.6-.56,6.87,.08,2.17,.61,3.19,1.79,3.26,4.01,.1,3.17,.03,6.35,.03,9.62h-3.93c-.02-.39-.06-.8-.06-1.22,0-2.75,.02-5.49,0-8.24-.02-2.59-2.23-3.86-4.53-2.55-.48,.27-1.02,.97-1.01,1.46,.02,2.73-.03,5.5,.41,8.18,.27,1.65,1.26,3.23,2.13,4.73,1.95,3.37,4.19,6.58,5.98,10.02,.8,1.55,1.03,3.5,1.13,5.29,.16,2.97,.1,5.97-.06,8.94-.14,2.64-1.21,3.72-3.76,4.39-.22,.06-.43,.16-.65,.24h-4.8Z"/>
  <path class="cls-1" d="M24.22,45.41c-4.6-1.67-4.8-1.95-4.8-6.99,0-10.78,0-21.56,0-32.34,0-.52,0-1.04,.05-1.55,.26-2.4,1.36-3.83,3.74-4.14,2.03-.27,4.15-.27,6.18-.02,2.39,.29,3.68,1.77,3.76,4.09,.11,3.25,.03,6.5,.03,9.81h-4.04c0-.72,0-1.39,0-2.05,0-2.66,.02-5.33,0-7.99-.02-1.76-.77-2.45-2.61-2.5-1.97-.06-2.85,.66-2.98,2.43-.03,.4-.03,.79-.03,1.19,0,11.81,0,23.63,0,35.44,0,1.03,0,2.02,1.1,2.56,1.19,.6,2.47,.64,3.54-.08,.51-.34,.87-1.24,.89-1.89,.09-3.18,.04-6.36,.04-9.54,0-.43,0-.86,0-1.37h4.28v2.55c0,2.39,0,4.77,0,7.16,0,2.84-.98,4.14-3.71,4.93-.29,.08-.57,.21-.85,.32h-4.56Z"/>
  <path class="cls-1" d="M157.09,45.41c-.67-.22-1.36-.4-2-.68-1.79-.76-2.76-2.09-2.76-4.07,0-11.74,0-23.47,0-35.21,0-3.26,1.3-4.83,4.53-5.19,1.72-.19,3.51-.16,5.24,.06,2.46,.31,3.84,1.72,3.96,4.18,.16,3.21,.04,6.43,.04,9.73h-3.95c-.02-.39-.06-.81-.06-1.22,0-2.82,0-5.65,0-8.47,0-1.01-.04-2.07-1.19-2.51-1.24-.48-2.64-.63-3.63,.29-.56,.52-.81,1.62-.82,2.46-.07,5.21-.04,10.42-.04,15.64,0,6.84,.01,13.69-.01,20.53,0,1.07,.15,2.01,1.25,2.47,1.25,.52,2.55,.56,3.63-.3,.41-.32,.61-1.1,.62-1.68,.06-3.22,.03-6.45,.03-9.67,0-.43,0-.85,0-1.34h4.32v3.07c0,2.19,0,4.38,0,6.57,0,3.01-1.02,4.31-3.96,5.09-.22,.06-.42,.17-.63,.25h-4.56Z"/>
  <path class="cls-1" d="M327.14,45.41c-2.7-.85-4.72-2.46-5.09-5.36-.22-1.73-.16-3.6,.28-5.27,.83-3.13,3.5-4.74,6.63-4.41,2.67,.28,4.54,2.46,4.83,5.67,.05,.59,0,1.18,0,1.9h-10.12c-.43,2.12,.65,4.43,2.47,5.45,1.97,1.11,4.16,.67,6.36-1.33,.29,.2,.6,.41,.96,.66-.85,1.67-2.42,2.14-3.94,2.69h-2.4Zm4.99-8.87c-.04-3.03-1.76-4.89-4.34-4.78-2.3,.1-4.24,2.34-4.1,4.78h8.44Z"/>
  <path class="cls-1" d="M302.2,45.41c-2.8-.95-3.56-3.08-3.49-5.79,.07-2.97,.02-5.95,.02-8.97h1.6c0,.41,0,.83,0,1.25,0,2.66-.05,5.33,.01,7.99,.08,3.44,2.33,4.91,5.47,3.64,1.46-.59,2.26-1.74,2.26-3.31,.01-2.74,0-5.49,0-8.23,0-.43,0-.86,0-1.34h1.6v14.42h-1.41c-.09-.44-.17-.85-.25-1.21-1.1,.53-2.14,1.03-3.18,1.53h-2.64Z"/>
  <path class="cls-1" d="M264.54,45.41c-.86-.38-1.77-.69-2.56-1.17-1.12-.68-1.69-1.74-1.74-3.16,.55,0,1.04,0,1.54,0,.97,2.66,4.03,3.75,6.54,2.35,1.77-.99,1.84-3.12,.05-4.09-.93-.51-2.01-.72-3.03-1.07-.9-.31-1.86-.51-2.7-.94-2.34-1.22-2.63-3.99-.66-5.74,2.05-1.82,6.31-1.74,8.15,.28,.63,.69,.91,1.68,1.46,2.74-.88,0-1.38,0-1.89,0-.85-2.6-3.69-3.75-6.02-2.3-.61,.38-1.09,1.25-1.25,1.97-.2,.89,.46,1.58,1.3,1.92,.85,.34,1.74,.56,2.61,.85,.94,.31,1.92,.56,2.82,.97,1.37,.63,2.15,1.68,2.15,3.28,0,1.63-.78,2.71-2.18,3.41-.55,.28-1.15,.48-1.72,.72h-2.88Z"/>
  <path class="cls-1" d="M357.12,17.23c-1.32,2.59-3.96,3.61-7.35,2.84-2.22-.51-3.6-2-3.66-4.02,.85-.24,1.48-.32,1.85,.82,.47,1.43,1.81,1.84,3.16,1.97,1.51,.14,2.99-.05,3.98-1.39,.73-.99,.43-2.45-.74-3.09-.96-.52-2.06-.8-3.11-1.16-.94-.33-1.94-.52-2.81-.97-2.42-1.24-2.62-4.25-.46-5.9,2.98-2.27,7.3-1.18,9.14,2.31v.95h-1.6c-.83-2.51-2.99-3.55-5.44-2.7-1.05,.36-1.82,.98-1.86,2.2-.04,1.19,.69,1.83,1.7,2.17,1.13,.38,2.29,.66,3.44,.99,1.62,.47,3.02,1.22,3.77,2.83v2.15Z"/>
  <path class="cls-1" d="M293.08,45.41c-1.82-.61-2.28-2.04-2.28-3.75,0-2.74,0-5.49,0-8.23,0-.43,0-.86,0-1.37-.94-.04-1.76-.08-2.64-.12v-1.31h2.59v-3.62h1.7v3.56h2.97v1.33h-2.94v4.89c0,1.35,0,2.7,0,4.05,0,2.8,.31,3.1,3.4,3.03-.25,.59-.44,1.06-.64,1.53h-2.16Z"/>
  <path class="cls-1" d="M316.83,45.41c-1.69-.77-2.12-2.22-2.12-3.89,0-2.7,0-5.41,0-8.11,0-.43,0-.85,0-1.39h-2.55c-.04-.48-.06-.86-.1-1.38h2.63v-3.63h1.69v3.57h2.98v1.28c-.93,.04-1.86,.08-2.96,.13,0,.83,0,1.61,0,2.39,0,2.15,0,4.29,0,6.44,0,2.75,.4,3.15,3.4,3.06-.21,.58-.39,1.06-.56,1.54-.8,0-1.6,0-2.4,0Z"/>
  <path class="cls-1" d="M277.97,45.41c-1.65-.7-2.19-2.02-2.17-3.72,.03-3.18,0-6.35,0-9.66h-2.6c-.03-.51-.05-.89-.09-1.39h2.67v-3.67h1.62v3.59h2.99v1.34h-2.95c0,1.08,0,2.06,0,3.04,0,2.03-.02,4.06,0,6.09,.03,2.58,.5,3,3.42,2.81-.3,.63-.52,1.1-.75,1.57-.72,0-1.44,0-2.16,0Z"/>
  <path class="cls-1" d="M98.33,.31h4.03V45.06h-3.89c-.04-.16-.14-.34-.12-.52,.76-6.85-1.3-13.29-2.97-19.78-.69-2.69-1.38-5.39-2.07-8.08-.07-.26-.17-.51-.42-.74v29.09h-4.03V.36h3.61c1.88,7.73,3.76,15.5,5.65,23.27,.07,0,.14,0,.21-.01V.31Z"/>
  <path class="cls-1" d="M82.7,45.07h-3.99V22.57h-5.68v22.49h-4.02c-.02-.44-.06-.87-.06-1.29,0-12.57,0-25.14,0-37.71,0-.59,.06-1.19,.1-1.78,.15-1.87,1.15-3.14,2.92-3.68,2.5-.76,5.04-.78,7.56-.08,1.96,.54,3.02,1.83,3.16,3.86,.02,.32,.04,.64,.04,.95,0,12.97,0,25.94,0,38.91,0,.24-.02,.47-.04,.85Zm-4.05-24.97c0-5.53,.02-10.96-.01-16.39,0-.98-.61-1.58-1.58-1.84-2.54-.7-4.01,.33-4.02,2.9-.02,4.8,0,9.61,0,14.41,0,.3,.07,.6,.12,.92h5.5Z"/>
  <path class="cls-1" d="M132.65,22.49c-1.83,0-3.47,0-5.1,0-.15,0-.3,.06-.58,.11v22.46h-4.06v-1.33c0-12.65,0-25.3,0-37.95,0-3.71,1.19-5.19,4.9-5.57,1.83-.19,3.75-.02,5.57,.3,1.97,.34,3.1,1.7,3.25,3.75,.03,.44,.07,.87,.07,1.31,0,12.85,0,25.7,0,38.55,0,.28-.03,.55-.04,.91h-4.01V22.49Zm-.04-2.42c0-5.47,0-10.84,0-16.2,0-.85-.39-1.52-1.23-1.88-2.43-1.03-4.37,.18-4.38,2.77,0,4.69,0,9.39,0,14.08,0,.39,.04,.77,.06,1.22h5.55Z"/>
  <path class="cls-1" d="M175.55,22.47v22.64h-3.98V.32c3.44,.22,6.91,.25,10.31,.72,2.38,.33,3.23,1.68,3.26,4.12,.05,4.1,0,8.19,.06,12.29,.02,2.03-1.39,2.89-3,3.8,.47,.32,1.01,.51,1.25,.89,.63,1.02,1.58,2.11,1.6,3.19,.15,6.55,.07,13.11,.07,19.74h-4.09c0-.41,0-.82,0-1.24,0-5.57,0-11.14,0-16.7,0-4.03-1.26-5.14-5.49-4.67Zm.06-1.81c1.04-.11,2-.12,2.91-.32,1.84-.4,2.49-1.09,2.52-2.93,.07-4.37,.03-8.73,.03-13.1,0-.96-.46-1.63-1.42-1.77-1.32-.2-2.65-.3-4.04-.45V20.66Z"/>
  <path class="cls-1" d="M216.6,2.58h-7.4V.32h12.44c-2.74,14.12-5.47,28.2-8.22,42.41h8.55v2.3h-13.55c2.72-14.11,5.43-28.17,8.18-42.45Z"/>
  <path class="cls-1" d="M114.47,2.54V45.03h-4.09V2.58h-4.96V.41h14.17V2.54h-5.12Z"/>
  <path class="cls-1" d="M322.3,19.91h-1.52c0-.45,0-.87,0-1.29,0-2.74,.04-5.49-.02-8.23-.05-2.4-.93-3.48-2.75-3.67-2.39-.25-4.34,.99-4.84,3.12-.12,.5-.13,1.02-.13,1.54-.01,2.82,0,5.63,0,8.53h-1.68v-5.9c0-1.15,0-2.31,0-3.46-.01-2.7-1.03-3.84-3.42-3.85-2.38,0-4.23,1.75-4.24,4.07-.02,2.58,0,5.17,0,7.75,0,.43,0,.86,0,1.38h-1.62V5.59h1.51c.04,.57,.08,1.14,.13,1.91,1.32-1.5,2.8-2.3,4.74-2.26,1.92,.04,3.41,.66,4.26,2.62,1.42-1.94,3.2-2.74,5.45-2.62,2.27,.13,3.98,1.3,4.1,3.54,.2,3.67,.06,7.36,.06,11.12Z"/>
  <path class="cls-1" d="M251.39,12.19h-5.19c-.03-.49-.06-.87-.1-1.35h7.02c0,2.22,.08,4.47-.06,6.71-.03,.5-.82,1.05-1.37,1.4-5.54,3.52-12.23,.68-13.1-5.76-.34-2.54-.13-5.26,.39-7.79,.58-2.81,2.64-4.63,5.58-5.04,2.8-.39,5.49-.04,7.29,2.49,.62,.87,.93,1.96,1.45,3.12h-1.84c-1.5-3.94-4.97-5.43-8.27-3.58-1.7,.95-2.66,2.5-2.83,4.34-.2,2.24-.32,4.55,0,6.76,.69,4.85,6.15,7.07,10.23,4.29,.37-.25,.72-.78,.75-1.2,.09-1.38,.04-2.78,.04-4.37Z"/>
  <path class="cls-1" d="M267.19,16.93c.34,.26,.64,.5,.94,.72-2.12,3.33-7.37,3.53-9.97,.45-2.38-2.81-2.25-8.27,.25-10.95,1.69-1.82,3.79-2.32,6.12-1.68,2.36,.65,3.43,2.47,3.83,4.72,.15,.84,.11,1.71,.17,2.7h-10.27c-.27,2.27,.91,4.56,2.75,5.49,1.98,1,4.1,.53,6.19-1.46Zm-.47-5.54c.09-2.81-1.6-4.76-4-4.76-2.4,0-4.4,2.15-4.36,4.76h8.36Z"/>
  <path class="cls-1" d="M298.91,12.8c-.13,.86-.19,1.78-.41,2.66-.81,3.17-3.45,5.05-6.65,4.84-3.09-.21-5.57-2.51-5.9-5.74-.16-1.51-.11-3.12,.24-4.6,.74-3.14,3.22-4.79,6.59-4.69,2.81,.08,5.13,2.07,5.78,5,.18,.81,.24,1.65,.36,2.54Zm-1.61-.13c-.22-.97-.33-2.01-.7-2.95-.69-1.74-1.93-2.89-3.93-3.02-2.14-.15-3.62,.82-4.5,2.69-.96,2.04-.97,4.17-.23,6.27,.72,2.06,2.42,3.23,4.43,3.22,1.98-.01,3.65-1.24,4.34-3.33,.3-.89,.39-1.85,.59-2.87Z"/>
  <path class="cls-1" d="M273.12,19.91h-1.51V5.56h1.53v1.89c.12,.09,.24,.18,.36,.27,.14-.27,.23-.58,.43-.79,1.63-1.71,3.64-2.03,5.82-1.45,1.68,.45,2.58,1.76,2.65,3.33,.14,3.67,.05,7.36,.05,11.1h-1.55c0-.55,0-1.05,0-1.55,0-2.74,.03-5.48-.01-8.22-.05-3-2.61-4.46-5.26-3-1.53,.84-2.43,2.1-2.41,3.94,.03,2.82,0,5.64,0,8.46,0,.08-.03,.15-.08,.36Z"/>
  <path class="cls-1" d="M245.97,30.66h1.46c.04,.61,.09,1.23,.13,1.84l.31,.31c.13-.27,.19-.6,.39-.8,1.56-1.62,3.48-2,5.6-1.49,1.96,.47,2.85,1.97,2.92,3.77,.14,3.56,.04,7.13,.04,10.77h-1.59c0-.53,0-1.04,0-1.54,0-2.78,.04-5.57-.04-8.34-.09-2.91-2.49-4.3-5.11-2.98-1.64,.82-2.59,2.14-2.57,4.08,.04,2.9,0,5.79,0,8.77h-1.55v-14.39Z"/>
  <path class="cls-1" d="M342.08,15.54h1.5c-.25,2.99-3.02,5.09-6.12,4.72-2.81-.33-4.58-1.83-5.31-4.58-.55-2.08-.55-4.18,.09-6.23,1.38-4.36,5.62-4.88,8.39-3.68,1.94,.84,2.86,2.42,3,4.58h-1.45c-.25-.64-.42-1.35-.79-1.93-1.55-2.42-5.4-2.44-6.87,.07-1.59,2.72-1.53,5.65-.09,8.43,.84,1.62,2.44,2.13,4.2,1.9,1.9-.25,3.12-1.32,3.46-3.28Z"/>
  <path class="cls-1" d="M230.47,.14V45.04c-.09,.07-.18,.15-.26,.22-.21-.23-.48-.43-.62-.7-.1-.19-.02-.47-.02-.71,0-14.15,0-28.31,.02-42.46,0-.5-.42-1.42,.89-1.26Z"/>
  <path class="cls-1" d="M240.92,45.06h-1.52V25.64h1.52v19.42Z"/>
  <path class="cls-1" d="M285.51,45.09h-1.49v-14.42h1.49v14.42Z"/>
  <path class="cls-1" d="M326.75,5.57h1.49v14.32h-1.49V5.57Z"/>
  <path class="cls-1" d="M285.03,25.16c.3,.42,.87,.88,.81,1.25-.06,.41-.66,.93-1.1,1.01-.28,.05-.95-.58-.98-.95-.04-.41,.45-.86,.7-1.3,.19,0,.38,0,.56-.01Z"/>
  <path class="cls-1" d="M328.78,1.59c-.44,.28-.91,.82-1.3,.76-.41-.06-.94-.65-1.02-1.09-.05-.26,.62-.92,.99-.95,.42-.03,.88,.46,1.32,.72,0,.18,0,.37,0,.55Z"/>
</svg>