<?xml version="1.0" encoding="UTF-8"?>
<svg id="Layer_2" data-name="Layer 2" xmlns="http://www.w3.org/2000/svg" viewBox="0 0 385.11 60.39">
  <defs>
    <style>
      .cls-1 {
        fill: #fff;
      }
    </style>
  </defs>
  <g id="Layer_1-2" data-name="Layer 1">
    <path class="cls-1" d="M35.67,57.42c-.9,0-1.81,0-2.71,0-4.59-.01-9.18,.04-13.77-.05-3.92-.08-7.54-1.29-10.7-3.61-4.51-3.31-7.33-7.74-8.21-13.3-.92-5.81,.5-11.05,4.12-15.65,1.02-1.3,2.34-2.37,3.56-3.5,.39-.36,.67-.7,.84-1.24C11.58,11.21,17.28,5.02,25.96,1.73,30.84-.13,35.9-.45,41.05,.58c5.19,1.04,9.68,3.42,13.55,6.96,3.68,3.35,6.19,7.47,7.65,12.23,.17,.56,.44,.98,.91,1.33,4.48,3.34,7.19,7.81,7.99,13.31,.78,5.38-.42,10.37-3.65,14.8-3,4.09-6.99,6.71-11.94,7.82-1.21,.27-2.48,.44-3.72,.45-5.22,.05-10.44,.03-15.65,.03-.17,0-.35,0-.52,0,0-.03,0-.06,0-.08Zm-8.61-23.61c-.17-.27-.34-.57-.54-.85-1.92-2.67-4.53-3.9-7.78-3.35-3.08,.52-5.17,2.39-6.07,5.37-.93,3.06-.13,5.78,2.21,7.98,1.51,1.43,3.36,2.03,5.43,2.03,5.46,.02,10.92,.06,16.38,.08,4.52,.01,9.05,0,13.57,0,.56,0,1.11-.01,1.67-.06,4.02-.37,8-4.35,6.6-9.7-.86-3.28-3.17-5.13-6.5-5.69-.3-.05-.6-.1-.99-.17,.26-4.05-.58-7.75-3.03-10.96-2.45-3.22-5.75-5.11-9.68-5.84-5.87-1.1-11.66,1.59-14.01,4.89,4.76,1.16,8.72,3.52,11.67,7.36-3,3-5.92,5.91-8.92,8.9Z"/>
    <path class="cls-1" d="M125.65,32.4c-2.12,0-4.26,0-6.41,0-2.11,0-4.23,0-6.44,0-.15-1.9-.11-3.68-.03-5.61,6.16,0,12.23,0,18.28,0,.1,.23,.18,.36,.19,.49,.46,4.08,.22,8.06-1.76,11.77-2.61,4.89-6.65,7.97-12.03,9.19-5.07,1.16-9.98,.59-14.55-1.96-5.05-2.82-8.65-6.95-10.01-12.63-1.69-7.03-.18-13.37,4.89-18.71,2.62-2.76,5.69-4.8,9.38-5.77,6.87-1.79,13.08-.47,18.55,4.11,.21,.18,.45,.34,.63,.47-.41,.8-2.95,3.42-3.86,4.03-.24-.19-.51-.39-.77-.61-5.48-4.54-13.76-4.18-18.87,.77-3.27,3.17-4.8,7-4.61,11.53,.26,6.22,4.83,11.79,10.9,13.23,4.77,1.13,9.12,.18,12.93-2.92,2.18-1.78,3.24-4.2,3.67-6.93,.01-.09-.04-.2-.09-.45Z"/>
    <path class="cls-1" d="M191.23,52.82c.23-.16,.41-.32,.62-.41,1.18-.51,2.37-1,3.56-1.49,.65-.27,.67-.26,1.04,.4,.96,1.68,2.22,3.05,4.14,3.61,3.99,1.16,8.34-.62,8.91-6.05,.1-.95,.01-1.92,.01-3.07-.37,.25-.58,.34-.74,.5-1.86,1.81-4.11,2.46-6.67,2.38-6.99-.21-13-6.97-11.92-14.59,.7-4.95,3.36-8.48,7.93-10.45,3.21-1.38,6.45-1.27,9.5,.62,.61,.38,1.15,.88,1.85,1.42,.05-.68,.1-1.28,.15-1.95h5.33v1.17c0,7.02,.01,14.05-.01,21.07,0,1.49,.02,3.01-.26,4.46-1.15,6.09-5.52,9.77-11.64,9.92-5.36,.13-9.11-2.44-11.6-7.06-.08-.15-.13-.31-.22-.51Zm18.67-16.78c0-1.98-.3-3.22-1.1-4.61-2-3.49-6.44-4.48-9.74-2.19-4.39,3.06-4.45,9.9-.11,13.09,3.15,2.32,7.44,1.56,9.6-1.69,.95-1.43,1.43-3,1.34-4.6Z"/>
    <path class="cls-1" d="M384.96,47.88h-4.22v-3.21c-.31,.25-.46,.33-.55,.44-2.39,2.94-5.55,3.99-9.2,3.5-4.69-.64-7.7-3.57-9.17-7.84-1.89-5.5-.93-10.59,3.34-14.77,3.44-3.37,9.13-3.84,13.09-1.12,.84,.58,1.54,1.37,2.35,2.11,.35-.6,.01-1.24,.04-1.85,.03-.69-.03-1.39-.04-2.08,0-.66,0-1.32,0-1.98v-6.15c0-.65,0-1.31,0-2.04h4.31c.23,.79,.28,33.77,.05,35Zm-19.43-12c-.13,1.9,.34,3.65,1.35,5.26,2.87,4.56,9.41,4.74,12.34,.23,2.14-3.3,2.22-6.89,.34-10.3-2.88-5.24-9.93-5.18-12.93,0-.85,1.48-1.22,3.09-1.11,4.8Z"/>
    <path class="cls-1" d="M251.26,32.52c-2.95,1.21-5.8,2.38-8.65,3.55-2.85,1.18-5.7,2.36-8.61,3.56,.1,.69,.48,1.17,.88,1.63,2.71,3.12,7.69,3.13,10.64,0,.35-.37,.68-.77,1.07-1.21,1.42,.96,2.78,1.88,4.24,2.87-.3,.41-.53,.75-.79,1.07-4.06,5.01-11.32,6.28-16.74,2.86-3.72-2.35-5.7-5.8-5.99-10.19-.27-4.14,.96-7.75,4-10.66,4.57-4.37,12.43-4.41,16.78,.73,1.42,1.67,2.39,3.56,3.16,5.78Zm-6.82-1.95c-.82-1.6-2.04-2.31-3.52-2.6-4.03-.77-7.22,2.37-7.88,5.36-.13,.61-.31,1.26,0,1.99,3.81-1.59,7.54-3.14,11.41-4.75Z"/>
    <path class="cls-1" d="M187.74,35.85c.16,6.95-5.43,12.89-13.02,12.87-7.38-.02-13.1-5.79-12.96-13.17,.13-7.1,5.8-12.77,13-12.73,7.35,.04,13.19,5.79,12.98,13.03Zm-20.44-.13c.18,.95,.26,1.93,.57,2.84,1.77,5.21,8.24,6.76,11.99,2.89,2.56-2.64,2.99-7.03,1-10.13-2.16-3.35-6.47-4.43-9.79-2.37-2.46,1.53-3.65,3.83-3.77,6.76Z"/>
    <path class="cls-1" d="M133.46,35.77c-.21-7.22,5.73-12.98,13.06-12.93,6.98,.05,12.95,5.4,12.92,13.01-.03,7.23-5.68,12.9-13.05,12.88-7.55-.02-13.16-6-12.93-12.95Zm20.31-.36c-.07-.44-.15-1.31-.38-2.13-1.48-5.27-7.99-7.09-11.93-3.36-2.91,2.75-3.25,7.69-.76,10.84,2.32,2.93,6.13,3.77,9.23,1.93,2.56-1.52,3.78-3.87,3.85-7.28Z"/>
    <path class="cls-1" d="M293.75,17.63c-.96,1.06-1.87,2.05-2.81,3.09-.25-.19-.46-.31-.62-.48-2.58-2.77-5.76-3.98-9.53-3.89-3.89,.09-7.19,1.47-9.82,4.33-1.99,2.16-3.15,4.73-3.44,7.66-.3,3.06-.08,6.06,1.43,8.82,2.5,4.59,6.38,7.03,11.63,7.2,4.27,.13,7.89-1.36,10.82-4.47,.14-.15,.22-.35,.41-.65,1.22,1.08,2.16,2.11,3.24,3.16-.27,.32-.47,.59-.7,.83-3.54,3.68-7.94,5.42-12.98,5.51-4.82,.09-9.1-1.41-12.68-4.69-3.08-2.82-5.01-6.28-5.63-10.43-.67-4.5-.15-8.83,2.25-12.77,3.11-5.1,7.66-8.03,13.62-8.72,3.32-.39,6.52,.01,9.57,1.44,1.88,.88,3.52,2.09,4.93,3.62,.16,.17,.28,.38,.32,.44Z"/>
    <path class="cls-1" d="M307.39,35.3c-.06-2.54,.82-5.44,2.93-7.83,3.45-3.91,7.83-5.22,12.83-3.85,5.48,1.49,8.9,6.2,8.99,11.92,.05,2.98-.66,5.71-2.39,8.15-1.82,2.57-4.33,4.11-7.36,4.74-4.15,.86-7.9-.11-11.04-2.96-2.78-2.52-3.97-5.79-3.96-10.17Zm20.23,.71c.02-2.28-.58-4.14-1.88-5.83-2.61-3.4-7.69-3.87-10.94-1.09-3.48,2.97-3.74,8.86-1.27,12.26,2.73,3.75,7.76,4.41,11.24,1.35,1.99-1.76,2.83-4.06,2.85-6.69Z"/>
    <path class="cls-1" d="M357.04,47.9c-1.42,.1-2.79,.07-4.28,.02v-3.22c-.35,.34-.52,.47-.65,.64-1.79,2.22-4.12,3.33-6.94,3.49-2.2,.12-4.2-.41-5.95-1.78-1.85-1.45-2.76-3.45-3.21-5.68-.17-.84-.2-1.73-.2-2.59-.02-4.48,0-8.97,0-13.45v-1.36c1.53-.1,2.92-.09,4.43,0,.03,.48,.09,.88,.09,1.28,0,4.14-.03,8.27,.03,12.41,.02,1.17,.17,2.37,.48,3.49,.47,1.69,1.65,2.76,3.37,3.23,4.35,1.18,7.26-1.39,8.17-5.13,.19-.8,.25-1.65,.25-2.48,.03-3.82,.01-7.65,.01-11.47v-1.34c1.55-.07,2.95-.08,4.42,0v23.95Z"/>
    <path class="cls-1" d="M224.51,47.87c-1.87,.15-3.69,.11-5.58,.03V9.99c1.85-.17,3.69-.1,5.58-.04V47.87Z"/>
    <path class="cls-1" d="M303.48,47.86h-4.39V13c.79-.27,3.37-.29,4.39-.03V47.86Z"/>
  </g>
</svg>