<?xml version="1.0" encoding="UTF-8"?>
<svg id="Layer_1" data-name="Layer 1" xmlns="http://www.w3.org/2000/svg" viewBox="0 0 587.21 99.82">
  <defs>
    <style>
      .cls-1 {
        fill: #fff;
      }
    </style>
  </defs>
  <path class="cls-1" d="M126.03,80.11h-3.7c-2.07-10.82-4.1-21.41-6.13-31.99-.47,.05-.95,.11-1.42,.16v31.54c-2.98,.57-5.44,1.52-5.43-2.7,.04-17.22,.01-34.45,.01-51.69,3.53-1.5,4.89-.37,5.61,3.05,1.48,7.04,3.39,14,6.02,20.88V25.05h5.04v55.06Z"/>
  <path class="cls-1" d="M168.5,80.02h-5.19v-27.22h-6.62v27.15c-1.84,.12-3.23,.22-5.4,.37,0-2.8,0-5.22,0-7.64,0-12.92,.13-25.84-.04-38.75-.12-9.25,4.05-10.42,13.36-8.72,1.52,.28,3.69,2.97,3.72,4.58,.27,16.68,.17,33.36,.17,50.23Zm-5.28-31.07c0-6.73,.15-12.96-.15-19.17-.05-1.03-2.03-2.74-3.12-2.74-1.08,0-3.06,1.71-3.11,2.75-.29,6.34-.15,12.71-.15,19.17h6.52Z"/>
  <path class="cls-1" d="M228.66,80.06h-5.8c0-7.44-.11-14.84,.04-22.23,.08-4.09-1.56-5.87-6.22-5.23v27.35c-1.92,.13-3.32,.22-5.11,.34V25.65c.43-.25,.71-.55,.98-.55,5.18,.1,12.49-2.18,14.61,3.08,2.85,7.07,2.92,15.4-.99,22.85,4.62,9.18,1.32,19.13,2.48,29.03Zm-11.88-30.69c4.41,.78,6.25-1.11,6.31-5.02,.06-3.95,.03-7.9,.09-11.85,.07-4.41-2.08-5.78-6.41-4.73v21.6Z"/>
  <path class="cls-1" d="M331.69,67.29h-7.68V32.1h7.35v13.25h14.03v-13.23h7.69v35.07h-7.36v-15.24h-14.03v15.34Z"/>
  <path class="cls-1" d="M234.85,25.26h5.33c0,10.03,0,19.77,0,29.52,0,5.96-.06,11.93,.03,17.89,.04,2.32-.78,5.54,3.09,5.55,3.64,0,3.36-2.93,3.36-5.44,0-14.41,0-28.82,0-43.24,0-1.3,0-2.61,0-4.27,1.71-.1,3.09-.17,4.77-.27,.15,1.59,.37,2.87,.37,4.14,.02,14.58,.05,29.16,0,43.73-.02,5.94-1.96,7.61-8.38,7.6-6.41,0-8.54-1.79-8.56-7.52-.05-15.72-.02-31.44-.02-47.71Z"/>
  <path class="cls-1" d="M428.67,67.33h-7.24c0-4.95-.01-9.71,0-14.46,.01-2.82-.35-5.68-3.83-5.89-3.83-.23-4.53,2.86-4.64,5.77-.18,4.75-.05,9.51-.05,14.52h-7.47c0-4.91-.02-9.81,0-14.71,.02-2.93-.65-5.54-4.13-5.6-3.52-.06-4.87,2.3-4.86,5.58,0,4.78,0,9.55,0,14.66h-7.21v-24.63c2.09,.31,4.37,.71,6.66,.98,.79,.09,1.75,.13,2.4-.22,5.2-2.81,9.8-2.14,13.4,1.88,2.61-1.24,4.85-2.9,7.31-3.35,5.1-.95,9.19,2.26,9.55,7.62,.39,5.75,.09,11.55,.09,17.85Z"/>
  <path class="cls-1" d="M84.93,80.33c0-16.94-.11-33.13,.06-49.31,.05-4.85,2.29-6.33,8.1-6.39,4.14-.04,8.69,0,8.77,5.56,.24,16.5,.08,33.01,.08,49.81h-5.07v-27.25h-6.75v27.21c-1.82,.13-3.2,.23-5.21,.37Zm11.93-31.51c0-6.34,.15-12.57-.13-18.78-.05-1.11-2.03-3.12-2.83-2.99-1.39,.23-3.57,1.75-3.63,2.84-.35,6.19-.17,12.42-.17,18.93h6.76Z"/>
  <path class="cls-1" d="M.01,25.2H5c0,1.78,0,3.54,0,5.3,0,14.08,0,28.16,0,42.24,0,2.49-.31,5.45,3.33,5.48,3.58,.03,3.47-2.87,3.48-5.4,.01-13.92,0-27.83,0-41.75,0-1.8,0-3.6,0-5.77,1.73-.13,3.12-.23,4.35-.32,.34,.59,.65,.87,.65,1.15,.06,15.9,.19,31.8,.1,47.7-.03,5.11-2.47,6.73-8.89,6.65-5.63-.07-7.97-1.83-7.99-6.48C-.03,57.94,.01,41.88,.01,25.2Z"/>
  <path class="cls-1" d="M78.41,41.97h-4.61c-.26-.56-.62-.99-.63-1.42-.07-3.31,.26-6.68-.26-9.91-.23-1.41-2.16-2.56-3.31-3.82-1.05,1.22-2.82,2.34-3.02,3.68-.9,6.14,.51,11.86,4.57,16.72,6.09,7.29,8.09,15.65,7.33,25-.54,6.66-2,8.3-8.93,8.26-6.44-.04-8.35-1.89-8.44-8.22-.04-3.28,0-6.56,0-10.12,1.82-.2,3.23-.35,4.67-.5,.26,.69,.55,1.12,.56,1.56,.07,3.81-.23,7.66,.29,11.4,.19,1.36,2.28,2.45,3.51,3.67,.93-1.29,2.55-2.51,2.67-3.87,.83-9.08,.02-17.75-6.46-25.13-4.48-5.1-5.76-11.37-5.27-18.1,.35-4.83,3.06-6.5,7.56-6.58,6.78-.11,8.83,1.06,9.51,6,.18,1.31,.24,2.64,.26,3.96,.04,2.29,.01,4.58,.01,7.43Z"/>
  <path class="cls-1" d="M298.88,.3V98.95c-.41,.29-.81,.58-1.22,.87-.85-.99-1.81-1.92-2.5-3.01-.3-.48-.07-1.29-.07-1.95,0-30.13-.01-60.25,.02-90.38,0-2.23-.89-5.48,3.76-4.18Z"/>
  <path class="cls-1" d="M204.74,41.86h-5.01c0-3.91,.32-7.56-.16-11.11-.19-1.43-2.15-2.63-3.3-3.94-1.12,1.32-3.18,2.62-3.2,3.96-.23,14.4-.25,28.81,0,43.2,.03,1.45,2.21,2.87,3.4,4.31,1.03-1.42,2.78-2.75,2.95-4.26,.42-3.88,.14-7.84,.14-12h5.27c0,4.49,.23,8.77-.06,13.01-.29,4.19-3.13,5.67-9.48,5.45-3.98-.14-7.49-1.05-7.51-5.95-.07-14.57-.08-29.14,0-43.71,.03-5.03,3.44-6.19,7.77-6.23,6.36-.05,8.78,1.29,9.12,5.84,.27,3.61,.05,7.26,.05,11.42Z"/>
  <path class="cls-1" d="M40.95,41.86h-5.01c0-3.84,.32-7.48-.15-11.03-.19-1.45-2.1-2.68-3.23-4.01-1.18,1.28-3.38,2.55-3.4,3.85-.25,14.56-.26,29.13-.03,43.69,.02,1.33,2.2,2.62,3.37,3.92,1.09-1.36,2.96-2.63,3.13-4.1,.44-3.89,.15-7.87,.15-12.14,1.84-.09,3.23-.16,4.61-.23,.3,.72,.63,1.16,.64,1.61,.07,2.98,.11,5.96,.08,8.93-.05,6.45-1.97,8.19-8.93,8.12-6.53-.07-8.2-1.74-8.21-8.27,0-13.08-.01-26.15,0-39.23,0-6.77,1.69-8.38,8.61-8.37,6.77,.01,8.34,1.62,8.36,8.61,0,2.78,0,5.56,0,8.64Z"/>
  <path class="cls-1" d="M561.83,56.67h-18.79c2.14,2.92,3.17,5.78,4.9,6.29,1.72,.51,4.1-1.49,6.27-2.13,2.09-.62,4.28-.91,6.61-1.39-.78,6.76-5.33,9.78-12.68,9.05-7.31-.72-11.24-5.77-10.87-13.97,.36-7.94,5.38-12.93,12.92-12.82,7.49,.1,11.6,5.11,11.64,14.97Zm-7.74-5.01c-.22-3.73-1.99-5.23-5.16-4.89-2.72,.29-3.51,1.71-3.1,4.89h8.25Z"/>
  <path class="cls-1" d="M456.37,67.78c-4.81-1.13-9.21-.68-13.8,.53-4.57,1.2-8.16-1.75-9-5.78-.86-4.13,1.45-8.47,5.74-9.79,3.12-.96,6.46-1.2,10.67-1.93-1.09-1.63-1.71-3.44-2.95-4.16-1-.58-2.88-.13-4.17,.37-2.59,.99-5.04,2.33-8.45,3.96,1.43-7.44,5.26-9.81,12.58-9.26,5.96,.44,9.21,3.39,9.36,8.84,.15,5.44,.03,10.9,.03,17.22Zm-7-12.05c-4.02-.08-7.78-.3-8.47,4.29-.15,1.02,2.4,3.51,3.65,3.47,4.48-.12,4.73-3.7,4.82-7.77Z"/>
  <path class="cls-1" d="M358.52,42.92h7.43c0,4.96-.05,9.7,.02,14.44,.04,2.92,.28,5.99,4.27,5.91,3.74-.07,4.43-2.83,4.43-5.91,0-4.74,0-9.49,0-14.45h7.6v25.1c-2.49-.59-4.66-1.24-6.87-1.57-.87-.13-1.92,.34-2.78,.76-7.31,3.61-13.91-.3-14.08-8.47-.11-5.1-.02-10.21-.02-15.8Z"/>
  <path class="cls-1" d="M256.76,24.98h16.41c-3.31,17.3-6.58,34.38-9.95,52.01,3.68,.22,6.88,.42,10.14,.62-1,3.03-6.96,3.75-16.53,2.15,3.29-17.16,6.57-34.32,9.83-51.35-2.87-1.86-6.97,1.14-9.9-3.43Z"/>
  <path class="cls-1" d="M485.76,67.41h-7.41c0-5.03-.05-9.94,.02-14.84,.04-3.02-.73-5.44-4.28-5.36-3.27,.07-4.64,2.28-4.69,5.31-.07,4.78-.02,9.57-.02,14.69h-7.17v-24.85c2.33,.54,4.5,1.16,6.71,1.49,.9,.14,1.99-.13,2.82-.56,7.84-3.98,13.69-.76,13.99,7.91,.18,5.26,.03,10.52,.03,16.2Z"/>
  <path class="cls-1" d="M586.46,50.14c-3.44-1.32-5.62-2.38-7.92-2.98-1.65-.43-3.46-.41-5.17-.28-.44,.03-1.23,1.75-1.11,1.86,1.14,1.02,2.35,2.11,3.74,2.69,1.98,.82,4.21,1.04,6.18,1.86,5.85,2.41,6.76,8.69,1.94,12.67-6.46,5.34-17.35,2.67-19.31-6.18,3,1.01,5.28,1.84,7.6,2.55,1.66,.51,3.38,1.25,5.03,1.16,.94-.05,2.14-1.42,2.54-2.45,.19-.5-1.05-2.01-1.92-2.36-2.3-.92-4.78-1.38-7.14-2.17-3.22-1.08-5.63-2.98-5.64-6.71,0-3.87,2.31-6.01,5.75-7.22,7.11-2.5,13.18-.16,15.44,7.56Z"/>
  <path class="cls-1" d="M141.22,80.05h-5.21V28.44c-2.54-.66-4.49-1.18-6.44-1.69,.16-.66,.33-1.32,.49-1.98,5.83,.45,11.77-.94,17.51,.81,.03,.56,.05,1.13,.08,1.69-1.98,.25-3.96,.5-6.43,.81v51.97Z"/>
  <path class="cls-1" d="M520.26,63.57c1.4,4.44-1.4,4.71-4.19,4.92-5.38,.4-8.42-1.51-8.66-5.86-.26-4.76-.06-9.55-.06-14.67-1.69-.2-3.09-.37-4.75-.57v-4.53c1.53-.14,2.95-.27,4.49-.41,.17-1.69,.31-3.14,.47-4.8,2.16-.75,4.28-1.48,6.77-2.34,.27,2.69,.49,4.78,.72,7.08,1.75,.18,3.34,.34,5.33,.54,.08,1.42,.16,2.79,.26,4.42-1.95,.19-3.56,.35-5.14,.51-2.52,10.03-1.23,14.42,4.76,15.71Z"/>
  <path class="cls-1" d="M499,67.38h-6.71v-24.42h6.71v24.42Z"/>
  <path class="cls-1" d="M532.96,67.37h-6.73v-24.42h6.73v24.42Z"/>
  <path class="cls-1" d="M525.48,37.72v-5.7h7.52v5.7h-7.52Z"/>
  <path class="cls-1" d="M491.74,31.98h7.35v5.78h-7.35v-5.78Z"/>
</svg>