<?xml version="1.0" encoding="UTF-8"?>
<svg id="Layer_1" data-name="Layer 1" xmlns="http://www.w3.org/2000/svg" viewBox="0 0 1020.29 603.23">
  <defs>
    <style>
      .cls-1 {
        fill: #fff;
      }
    </style>
  </defs>
  <path class="cls-1" d="M0,47.46C2.22,34.67,4.37,22.22,6.55,9.64c3.07,.31,6.02,.83,8.97,.87,11.08,.13,22.16,.11,33.24,.12,17.75,.01,35.5-.27,53.24,.11,10.37,.22,20.41-1.09,30.3-3.91,7.11-2.02,14.18-4.2,21.28-6.31,.54-.16,1.08-.28,2.03-.52-.41,3.03-.9,5.78-1.12,8.54-.39,4.98-.78,9.96-.88,14.95-.31,16.15-.49,32.31-.71,48.47,0,.3,.08,.61,.18,1.34,1.71-1.91,3.12-3.58,4.64-5.17,7.52-7.83,16.23-13.71,27.3-14.74,4.48-.42,9.25-.21,13.58,.9,9.14,2.33,13.74,9.18,15.43,18.09,.62,3.25,.9,6.61,.92,9.93,.09,16.16,.09,32.33,0,48.5-.02,3.81-.49,7.62-.79,11.82,5.3,.69,10.7,1.39,16.54,2.15-.25,2.04-.49,4.05-.78,6.45-17.21,.42-34.36,.85-51.65,1.27v-7.12c7.88-2.01,9.31-6.75,9.35-12.89,.09-15,.08-30-.02-45-.02-2.88-.42-5.83-1.11-8.63-1.1-4.5-3.72-6.64-8.31-6.97-8.65-.62-16.45,1.94-23.46,6.9-.73,.51-1.11,1.96-1.11,2.98-.07,16.5,0,33-.08,49.5-.02,3.81-.42,7.62-.66,11.59,4.14,.61,8.39,1.24,12.93,1.91-.27,2.16-.53,4.19-.81,6.45-16.88,.42-33.64,.84-50.55,1.27v-7.08c9.99-3.09,12.04-5.89,12.04-16.37,0-26.91,.03-53.83-.04-80.74,0-3.48-.3-7-.85-10.43-1.61-10.01-7.13-15.14-17.31-15.73-7.06-.41-14.15-.29-21.23-.32-2.29,0-3.9,1.95-3.9,4.5,0,16.58,0,33.16,0,49.75-.02,19.58-.03,39.16-.11,58.74,0,2.32-.41,4.63-.68,7.38,6.82,.64,13.64,1.28,20.84,1.95-.24,2.31-.48,4.57-.74,7.08-20.59,.42-41.04,.85-61.7,1.27v-7.75c1.78-.53,3.72-.96,5.54-1.69,5.09-2.04,8.06-5.71,8.36-11.33,.05-.91,.14-1.83,.14-2.74,0-34.75,0-69.49,0-104.24v-2.33c-.29-.26-.41-.47-.53-.47-7.82,.06-15.66-.15-23.46,.31-5.77,.34-10.57,3.35-13.65,8.24-2.99,4.77-5.46,9.88-7.94,14.94-.73,1.5-1.42,2.19-3.12,2.05-1.89-.15-3.81-.04-6.14-.04Z"/>
  <path class="cls-1" d="M144.47,308.16c5.47,.6,11.23,1.23,17.23,1.89-.28,2.4-.53,4.59-.81,7.06-19.55,.43-38.98,.85-58.56,1.28v-7.79c1.3-.34,2.66-.64,4-1.04,6.78-2.03,10.01-6.36,10.01-13.39,0-13.66,0-27.33,0-40.99,0-.99,0-1.97,0-3.23-1-.06-1.8-.15-2.59-.15-20.66,0-41.33,0-61.99,0-3.28,0-4.74,1.52-4.74,4.89,0,13,.06,26-.04,38.99-.03,4.05-.49,8.1-.77,12.44,5.75,.63,11.51,1.26,17.58,1.93-.25,2.3-.49,4.5-.76,7.06-19.45,.43-38.88,.86-58.67,1.29,0-2.34-.1-4.57,.07-6.78,.04-.52,.94-1.16,1.57-1.41,1.54-.61,3.22-.86,4.72-1.53,5.06-2.26,7.75-6.29,7.76-11.79,.06-33.91,.05-67.82,0-101.74,0-6.17-1.68-8.23-7.54-10.2-.79-.26-1.57-.55-2.37-.77q-5.4-1.48-4.37-7.78H54c-3.86,6.26-5.87,12.8-6.62,19.72-.22,1.98-.35,3.98-.35,5.98-.03,11.66-.02,23.33-.02,34.99v2.83c1.04,.05,1.85,.11,2.66,.11,20.58,0,41.16,0,61.74,0,3.48,0,4.92-1.45,4.92-4.96,0-13,.01-26,0-38.99,0-7.34-1.65-9.5-8.76-11.55-1.91-.55-3.84-1.03-5.78-1.55v-6.58h49.23c-1.7,5.17-3.69,10.25-5.01,15.51-.88,3.51-1.12,7.25-1.13,10.89-.09,25.83-.02,51.66-.06,77.49-.02,9.15-.23,18.29-.35,27.88Z"/>
  <path class="cls-1" d="M341.66,318.13v-6.93c7.02-1.54,8.97-6.73,8.99-13.06,.05-15.41,0-30.83-.1-46.24-.02-2.22-.44-4.48-.96-6.65-1.21-4.98-4.14-7.44-9.19-7.59-7.93-.23-15.12,2.1-21.45,6.86-.79,.59-1.29,2.07-1.29,3.14-.08,16.25-.02,32.5-.08,48.75-.02,3.97-.39,7.94-.61,12.13,4.19,.49,8.55,.99,13.14,1.53-.35,2.35-.68,4.54-1.05,7.05-16.79,.43-33.56,.85-50.52,1.29v-7.15c.31-.09,.68-.22,1.07-.32,7.51-1.79,10.81-5.4,10.86-13.06,.12-18.49-.05-36.99-.12-55.49,0-.99-.12-1.99-.25-2.98-.57-4.36-2.36-5.91-6.75-5.94-2.33-.01-4.66-.03-7-.05-.15,0-.3-.11-.59-.24v-6.06c14.35-3.54,28.65-7.06,42.91-10.58-.87,7.28-1.78,14.86-2.69,22.43,.17,.04,.33,.07,.5,.11,2.41-2.61,4.69-5.34,7.24-7.8,8.51-8.2,18.45-12.91,30.56-12.31,11.71,.59,19.57,6.89,22.38,18.14,.1,.39,.25,.76-.02,.58,3.14-2.8,6.25-5.63,9.42-8.4,7.9-6.89,16.96-10.59,27.59-10.37,13.31,.28,22.18,7.94,23.93,21.11,.33,2.47,.49,4.98,.5,7.46,.04,16.08,.06,32.16,0,48.25-.02,4.15-.36,8.3-.58,12.8,5.19,.68,10.67,1.39,16.44,2.15-.26,2.11-.5,4.13-.78,6.43-17.06,.43-34,.85-51.13,1.28v-7.25c6.79-1.29,8.84-6.45,8.9-12.51,.14-15.66,0-31.32-.15-46.99-.02-2.29-.52-4.64-1.15-6.86-1.38-4.8-4.11-6.96-9.03-7.12-6.02-.2-11.76,1.07-17.03,4.07-3.85,2.19-5.79,5.41-5.75,10.02,.12,14.58,.09,29.16,.02,43.75-.02,4.24-.36,8.47-.57,13.03,4.12,.49,8.46,1,13.04,1.55-.27,2.03-.39,3.94-.86,5.75-.14,.56-1.22,1.23-1.88,1.25-12.15,.41-24.3,.74-36.45,1.04-3.06,.08-6.12,.01-9.44,.01Z"/>
  <path class="cls-1" d="M654.26,308.52c5.43,.71,10.93,1.42,16.69,2.17-.28,2.15-.54,4.18-.83,6.43-17.15,.43-34.18,.85-51.42,1.28v-6.87c1.85-.99,3.93-1.74,5.55-3.05,3.12-2.52,3.68-6.33,3.68-9.99,0-16.33-.19-32.65-.31-48.98,0-.17-.02-.33-.03-.5-.78-8.63-4.74-12.04-13.33-11.33-6.58,.54-12.67,2.59-18.25,6.18-1.57,1-2.23,2.09-2.22,4.02,.08,15.17,.1,30.33,.02,45.5-.03,4.97-.37,9.95-.59,15.21,4.06,.67,8.3,1.38,12.8,2.12-.22,1.85-.31,3.66-.73,5.39-.11,.47-1.2,.98-1.86,1-12.9,.39-25.8,.72-38.7,1.03-3.24,.08-6.48,.01-9.94,.01v-6.95c.71-.18,1.5-.38,2.3-.58,5.91-1.49,9.4-5.5,9.44-11.61,.1-19,.03-38,0-57,0-1.32-.23-2.66-.51-3.96-.7-3.15-2.4-4.52-5.63-4.57-2.74-.04-5.47,0-8.38,0v-6.36c14.33-3.54,28.62-7.07,42.83-10.58-.87,7.2-1.76,14.67-2.66,22.14,.25,.12,.5,.24,.75,.36,.71-.82,1.41-1.64,2.13-2.45,7.96-8.97,17.32-15.67,29.51-17.26,8.86-1.15,17.41-.35,23.98,6.8,4.84,5.26,6.42,11.86,6.48,18.7,.18,18.5,.09,37,.02,55.5,0,2.65-.5,5.29-.79,8.21Z"/>
  <path class="cls-1" d="M168.28,474.43c5.51,.72,11.02,1.44,16.71,2.18-.3,2.23-.58,4.26-.87,6.41-17.19,.42-34.23,.84-51.45,1.27,0-2.5,0-4.79,0-7.08,7.52-3.1,9.32-5.82,9.32-14.2,.01-14.08,.08-28.17-.05-42.25-.03-3.38-.46-6.83-1.25-10.11-1.14-4.72-3.93-6.84-8.77-7.05-8.36-.37-15.95,2.07-22.74,6.89-.79,.56-1.28,2.08-1.28,3.15-.08,16.33-.01,32.66-.09,49-.02,3.88-.44,7.77-.68,11.83,4.24,.7,8.49,1.4,12.95,2.14-.28,2.16-.55,4.18-.85,6.42-16.9,.43-33.66,.85-50.54,1.27v-7.14c.74-.19,1.51-.41,2.29-.59,5.96-1.4,9.54-5.62,9.57-11.78,.07-18.83,.03-37.66,.01-56.5,0-.91-.12-1.83-.27-2.73-.83-5.01-2.26-6.24-7.26-6.26-2.31,0-4.62,0-7.2,0,0-2.11-.1-3.93,.06-5.72,.05-.51,.8-1.28,1.33-1.37,13.89-2.33,27.52-5.71,40.89-10.15,.21-.07,.48,.03,.76,.05-.9,7.54-1.79,15.05-2.68,22.56,.22,.06,.45,.11,.67,.17,1.9-2.03,3.73-4.15,5.73-6.08,7.94-7.68,17.07-12.96,28.35-13.79,17.22-1.28,27.83,8.09,28.06,25.39,.26,18.75,.09,37.5,.02,56.24,0,2.56-.49,5.11-.77,7.84Z"/>
  <path class="cls-1" d="M220.23,233.46v-7.19c13.39-2.69,26.78-5.38,40.37-8.11-.38,3.27-.83,6.45-1.1,9.65-.26,3.15-.47,6.32-.48,9.48-.04,19.83-.02,39.67-.02,59.5,0,.33,0,.67,0,1,.1,8.24,2.62,10.76,10.79,10.76,1.82,0,3.64,0,5.83,0-.23,2.36-.43,4.53-.65,6.76-14.39,1.41-28.6,2.81-42.74,4.2,.41-6.55,.81-13.03,1.22-19.51-.2-.04-.4-.07-.61-.11-2.39,2.59-4.66,5.31-7.2,7.74-7.8,7.48-16.68,12.7-27.9,12.66-4.89-.02-9.64-.83-13.96-3.24-8.65-4.83-11.92-12.89-12.11-22.14-.35-16.74-.11-33.5-.22-50.24-.02-2.47-.37-4.98-.89-7.4-.53-2.48-2.32-3.76-4.9-3.79-2.16-.02-4.31,0-6.81,0,0-2.16-.14-4.15,.09-6.1,.06-.53,1.15-1.22,1.86-1.36,10.93-2.21,21.88-4.32,32.81-6.5,2.18-.43,4.31-1.05,6.77-1.66-.05,.85-.07,1.38-.12,1.91-.53,5.71-1.45,11.42-1.52,17.14-.21,16-.11,32-.03,48,.01,2.64,.36,5.33,.88,7.92,1.54,7.62,6.35,10.89,13.98,9.56,6.59-1.14,12.12-4.5,17.16-8.71,.57-.48,.9-1.57,.9-2.38,.05-16.08,.04-32.17,.03-48.25,0-.58-.04-1.17-.08-1.75-.36-6.28-2-7.83-8.28-7.83-.98,0-1.96,0-3.07,0Z"/>
  <path class="cls-1" d="M460.06,392.37c13.76-2.76,27.49-5.51,41.18-8.26-.47,5.22-1.24,10.39-1.34,15.58-.24,13.16-.21,26.32-.21,39.48,0,5.41,.22,10.82,.34,16.22,0,.25,.03,.5,.06,.75,1.19,10.37,7.25,14.39,17.28,11.49,5.29-1.53,9.89-4.33,14.09-7.8,.65-.53,1.15-1.65,1.15-2.51,.06-16.33,.05-32.66,.04-48.99,0-.75-.05-1.5-.13-2.24-.56-5.25-2.28-6.79-7.56-6.8-1.23,0-2.46,0-3.79,0v-7.1c13.4-2.7,26.79-5.4,40.43-8.14-.39,3.4-.86,6.73-1.13,10.09-.26,3.15-.45,6.31-.45,9.47-.04,19.66-.04,39.32,0,58.98,0,1.98,.2,4,.6,5.94,.67,3.26,2.68,5.35,6.12,5.62,3.21,.25,6.43,.32,9.89,.47-.22,2.26-.43,4.38-.64,6.57-14.34,1.41-28.56,2.81-42.75,4.21,.41-6.48,.82-12.97,1.23-19.47l-.66-.22c-.45,.5-.93,.98-1.35,1.51-6.89,8.41-14.85,15.49-25.72,17.96-9.81,2.23-19.32,1.41-27-6.13-5.18-5.08-7-11.7-7.09-18.68-.21-16.66-.08-33.32-.18-49.98-.01-2.39-.39-4.8-.86-7.15-.5-2.52-2.3-3.8-4.83-3.9-2.16-.08-4.32-.02-6.71-.02v-6.96Z"/>
  <path class="cls-1" d="M769.82,221.46h28.03v12.88c-.91,.04-1.79,.11-2.68,.11-7.08,0-14.17,0-21.25,.01-2.67,0-4.33,1.64-4.33,4.27-.01,15.58-.04,31.17,.03,46.75,.01,2.57,.26,5.17,.78,7.69,1.5,7.33,5.98,10.59,13.41,10.1,5.39-.36,10.48-1.76,15.34-4.08,.52-.25,1.05-.45,1.51-.65,.17,.1,.27,.13,.31,.19,3.98,6.35,4.56,4.56-.59,10-11.29,11.94-30.85,15.17-44.64,7.67-8.32-4.52-12.99-11.69-13.09-21-.21-19.74,.19-39.48,.33-59.22,0-.25-.03-.5-.06-1.02h-13.41c0-2.97-.09-5.69,.08-8.39,.03-.49,1.05-1.03,1.7-1.37,4.03-2.11,8.46-3.67,12.06-6.35,11.78-8.77,12.17-25.39,7.75-34.65-3.07-6.44-9.63-9.86-17.28-9.6-8.24,.28-14.66,3.78-19.72,10.16-2.17,2.74-4.37,5.48-6.79,7.98-3.12,3.23-7.09,4.3-11.46,3.42-7.77-1.55-11.38-10.41-6.74-17.26,1.75-2.59,4.31-5.09,7.09-6.44,16.38-7.96,33.51-10.06,50.85-3.87,13.73,4.9,21.17,15.62,22.87,29.86,.78,6.54-.02,13.26-.13,19.9-.01,.66-.16,1.32-.2,1.99-.01,.23,.1,.46,.22,.93Z"/>
  <path class="cls-1" d="M507.65,260.64c-.05-7.94,.5-15.78-1.31-23.47-1.32-5.62-4.54-8.79-9.04-8.98-4.53-.19-7.89,2.3-10.79,5.43-4.18,4.52-7.09,9.85-9.41,15.5-.59,1.43-1.27,2.09-2.88,1.96-2.56-.2-5.86,.76-7.49-.51-1.62-1.26-1.58-4.67-2.23-7.14-.8-3.06-1.49-6.15-2.38-9.17-.48-1.62-.11-2.53,1.34-3.44,10.31-6.53,21.55-10.34,33.63-11.75,6.89-.8,13.8-1.06,20.64,.36,9.83,2.03,14.77,7.14,16.28,17.03,.59,3.85,.93,7.78,.96,11.68,.1,16.24,.04,32.49,.04,48.73,0,.67-.01,1.33,0,2,.18,7.75,2.73,10.31,10.42,10.44,1.98,.03,3.97,0,6.26,0-.2,2.39-.38,4.51-.57,6.81-14.33,1.4-28.54,2.8-42.93,4.21v-15.1c-2.55,2.24-5.39,4.87-8.37,7.33-8.3,6.85-17.7,9.87-28.37,7.33-17.54-4.17-23.83-25.42-11.85-39.64,5.37-6.37,12.39-10.22,19.99-13.19,8.19-3.21,16.76-4.83,25.44-5.97,.81-.11,1.62-.26,2.63-.43Zm-.07,10.06c-4.54,.11-11.85,2-15.71,4.02-7.65,3.99-11.24,10.74-10.28,19.32,.66,5.83,4.11,9.52,9.51,9.68,6.13,.17,11.2-2.64,15.86-6.32,.33-.26,.59-.84,.59-1.27,.03-8.47,.03-16.94,.03-25.42Z"/>
  <path class="cls-1" d="M310.6,126.78c.64,1.55,1.01,2.85,1.68,3.97,1.03,1.72,.54,3.03-.52,4.51-7.36,10.21-17.1,16.84-29.6,18.57-15.07,2.08-28.86-1.2-40.22-11.85-8.14-7.63-12.63-17.3-14.13-28.25-2.18-15.99,1.14-30.77,11.52-43.33,11.88-14.37,27.36-19.89,45.71-16.35,14.92,2.88,25.18,13.91,27.54,28.94,.3,1.89,.3,3.83,.68,5.69,.36,1.75-.48,2.28-1.91,2.81-9.78,3.62-20.11,4.43-30.28,6.04-8.13,1.29-16.29,2.44-24.43,3.69-3.05,.47-4.11,1.95-3.56,4.98,1.45,8.11,4.3,15.6,10.52,21.3,7.93,7.28,17.56,8.59,27.76,7.26,6.98-.91,13.27-3.67,19.25-7.99Zm-23.85-39.53c-.42-6.79-1.63-12.94-5.36-18.3-4.48-6.43-12.8-7.68-18.79-2.66-7.75,6.5-9.41,15.59-10.36,25.37,11.7-1.5,22.96-2.94,34.5-4.41Z"/>
  <path class="cls-1" d="M724.99,458.58c.78,1.9,1.61,3.55,2.11,5.29,.21,.71-.05,1.79-.5,2.43-8.21,11.87-19.38,18.79-33.89,19.73-13.13,.85-25.15-2.27-35.2-11.17-9.71-8.61-14.72-19.71-15.64-32.46-1.46-20.22,4.97-37.3,21.81-49.45,14.06-10.14,34.32-10.98,47.89-2.31,11.09,7.09,15.4,17.9,16.01,30.52,.03,.65-1.08,1.69-1.87,2.01-7.88,3.18-16.26,4.08-24.56,5.34-10.2,1.54-20.41,3.05-30.61,4.59-2.28,.34-3.55,2.15-3.17,4.4,1.13,6.74,3.26,13.1,7.57,18.51,7.43,9.32,17.53,11.83,28.83,10.83,7.71-.68,14.68-3.48,21.23-8.24Zm-23.81-39.54c-.4-6.18-1.53-11.77-4.45-16.85-1.83-3.2-4.33-5.73-8.04-6.65-6.27-1.56-11.08,.94-14.89,5.72-3.5,4.39-5.25,9.59-6.24,15.05-.42,2.3-.65,4.64-.99,7.18,11.81-1.52,23.09-2.96,34.6-4.44Z"/>
  <path class="cls-1" d="M942,292.7c.79,1.91,1.69,3.63,2.17,5.45,.2,.76-.27,1.9-.78,2.62-9.67,13.63-22.89,20.14-39.58,19.47-10.8-.43-20.6-3.7-28.85-10.89-9.93-8.65-15.07-19.83-16.06-32.76-1.51-19.73,4.61-36.57,20.73-48.73,12.07-9.11,25.86-11.28,40.28-7.01,14.11,4.18,21.76,14.37,24.16,28.64,1.2,7.14,1.17,7.56-5.76,9.17-8.73,2.02-17.62,3.39-26.47,4.86-8.04,1.34-16.13,2.42-24.19,3.65-2.5,.38-3.69,2.12-3.26,4.57,1.45,8.11,4.21,15.64,10.34,21.43,7.68,7.25,17.12,8.77,27.19,7.63,7.33-.83,13.94-3.65,20.09-8.1Zm-58.35-35.11c11.75-1.51,23.08-2.97,34.53-4.44-.37-5.89-1.37-11.25-4.04-16.16-5.22-9.59-16.1-10.57-22.97-2.04-5.23,6.49-6.8,14.23-7.52,22.65Z"/>
  <path class="cls-1" d="M3.93,348.9v-6.36c1.05,0,2,.01,2.96,0,13.98-.19,27.97-.33,41.95-.59,5.17-.09,5.11-.24,2.89,4.43-3.27,6.88-4.73,14.17-4.73,21.77,0,30.57,.03,61.14-.03,91.71,0,4.64-.45,9.27-.71,14.16,5.7,.63,11.53,1.28,17.53,1.95-.28,2.42-.52,4.55-.81,7.05-19.42,.43-38.84,.85-58.64,1.29,0-2.38-.1-4.6,.08-6.8,.04-.51,.96-1.13,1.59-1.38,1.69-.67,3.53-1,5.17-1.78,4.83-2.3,7.28-6.3,7.29-11.57,.06-33.82,.05-67.63,.01-101.45,0-6.45-1.84-8.79-7.98-10.66-2.14-.65-4.33-1.16-6.57-1.76Z"/>
  <path class="cls-1" d="M609.15,387.31h29.02v13.15c-.99,0-1.88,0-2.77,0-7.08,0-14.17,0-21.25,0-2.49,0-4.14,1.51-4.14,3.86,0,16.58,.01,33.16,.11,49.74,.01,1.97,.38,3.98,.85,5.91,1.49,6.14,5.03,8.93,11.38,9.13,5.79,.18,11.19-1.4,16.43-3.67,.75-.33,1.49-.69,2.45-1.13,1.13,1.82,2.22,3.57,3.41,5.49-4.38,4.8-9.55,8.45-15.31,11.36-7.78,3.93-16,5.52-24.67,4.86-12.17-.92-20.45-9.29-21.56-21.91-.27-3.06-.41-6.15-.41-9.23-.04-17.82-.02-35.63-.02-53.76h-12.82c0-2.95-.09-5.61,.07-8.25,.03-.51,.94-1.15,1.57-1.42,3.58-1.53,7.31-2.76,10.75-4.54,1.36-.7,2.55-2.4,3.1-3.9,2.39-6.56,4.54-13.2,6.7-19.84,.42-1.3,.97-1.83,2.44-1.76,5.07,.27,10.15,.4,15.22,.53,1.59,.04,1.77,.55,1.59,2.15-.84,7.57-1.43,15.17-2.15,23.22Z"/>
  <path class="cls-1" d="M300.88,387.3h28.13v13.16c-.92,0-1.8,0-2.67,0-7,0-14,0-20.99,0-2.99,0-4.49,1.42-4.49,4.32-.01,15.91-.07,31.82,.05,47.73,.02,2.88,.48,5.83,1.23,8.61,1.37,5.02,4.78,7.54,10,7.92,6.32,.46,12.19-1.26,17.88-3.79,.6-.27,1.2-.54,2.07-.93,1.14,1.84,2.25,3.64,3.45,5.59-8.05,8.11-17.3,13.79-28.53,15.53-4.46,.69-9.19,.8-13.64,.14-11-1.62-17.69-8.82-19.21-19.92-.35-2.55-.52-5.14-.53-7.71-.02-16.08,0-32.15,.08-48.23,.01-2.8,.29-5.6,.46-8.63h-13.46c0-2.92-.09-5.64,.08-8.35,.03-.49,1.03-1.05,1.69-1.34,3.72-1.62,7.54-3.03,11.16-4.83,1.09-.54,2-1.98,2.43-3.21,2.28-6.42,4.38-12.9,6.56-19.36,.29-.85,.62-1.69,.75-2.04,5.98,0,11.63,.04,17.28-.02,1.85-.02,1.57,.91,1.47,2.23-.57,7.37-1.02,14.75-1.5,22.13-.01,.23,.12,.47,.26,1Z"/>
  <path class="cls-1" d="M426.42,387.27h28.11v13.19c-.98,0-1.87,0-2.76,0-7.08,0-14.16-.01-21.24,0-2.42,0-4,1.59-4,4-.01,16-.06,31.99,.05,47.99,.02,2.88,.46,5.83,1.19,8.62,1.31,4.95,4.84,7.59,9.98,7.97,6.24,.47,12.03-1.21,17.66-3.66,.61-.26,1.2-.57,1.81-.84,.14-.06,.32,0,.67,0,1.04,1.69,2.12,3.44,3.29,5.34-8.01,8.18-17.37,13.74-28.67,15.64-6.99,1.17-13.97,1.17-20.55-2.01-8.13-3.93-11.52-11.04-12.3-19.52-.5-5.46-.49-10.98-.45-16.47,.11-15.15,.36-30.31,.55-45.46,0-.24-.07-.48-.14-.94h-13.25c0-2.93-.08-5.65,.08-8.35,.03-.49,1.01-1.07,1.66-1.34,3.51-1.49,7.17-2.68,10.52-4.44,1.43-.75,2.68-2.5,3.26-4.07,2.38-6.47,4.5-13.04,6.62-19.6,.45-1.41,.99-1.99,2.59-1.9,5.07,.29,10.15,.4,15.22,.54,1.44,.04,1.66,.5,1.52,2-.68,7.2-1.13,14.41-1.64,21.63-.03,.47,.12,.96,.23,1.69Z"/>
  <path class="cls-1" d="M197.92,453.62c.75,3.05,1.21,5.86,2.13,8.51,3.54,10.27,13.07,16.16,23.81,14.89,9.47-1.12,13.98-10.86,8.25-18.61-2.2-2.98-5.44-5.36-8.61-7.4-4.32-2.78-9.07-4.89-13.55-7.45-2.95-1.69-5.87-3.5-8.59-5.54-9.77-7.34-13.29-17.27-11.14-29.08,2.09-11.46,9.59-18.28,20.32-21.87,9.09-3.04,18.39-2.59,27.68-1.29,5.5,.77,10.95,1.87,16.73,2.88-1.66,8.21-3.26,16.08-4.87,24.03h-7.12c-.47-2.28-.8-4.49-1.39-6.62-2.47-8.97-10.29-13.75-19.37-11.92-8.4,1.7-11.94,11.59-6.34,18.67,2.16,2.72,5.19,4.94,8.2,6.76,4.62,2.79,9.75,4.74,14.33,7.58,4.49,2.78,9,5.79,12.73,9.48,10.34,10.22,10.81,36.68-10.68,45.8-8.68,3.68-17.77,4.46-26.94,3.35-5.48-.67-10.85-2.34-16.24-3.68-1.26-.31-2.45-1.04-3.59-1.71-5.47-3.2-7.14-6.72-5.91-12.92,.78-3.91,1.92-7.75,2.77-11.64,.36-1.66,1.08-2.41,2.86-2.21,1.48,.17,2.99,.03,4.52,.03Z"/>
  <path class="cls-1" d="M1017.22,222.72c-.98,4.93-1.87,9.48-2.79,14.03-.56,2.77-1.25,5.52-1.71,8.31-.23,1.43-.76,2.02-2.25,1.93-1.73-.11-3.48-.03-5.15-.03-.61-2.72-.99-5.29-1.78-7.72-2.65-8.24-10.06-12.61-18.55-11.11-7.78,1.38-11.7,9.11-8.35,16.45,1.63,3.56,4.41,6.07,7.71,7.94,4.7,2.66,9.68,4.84,14.3,7.63,4.75,2.87,9.64,5.73,13.7,9.44,12.02,11,11.48,37.86-9.39,46.8-9.15,3.92-18.7,4.5-28.42,3.41-5.97-.67-11.83-1.86-17.27-4.62-6.57-3.33-8.43-6.68-7.17-13.84,.7-4,1.94-7.91,2.82-11.88,.3-1.34,.94-1.76,2.24-1.7,1.73,.08,3.47,.02,4.6,.02,1.51,4.38,2.45,8.57,4.33,12.29,4.19,8.27,14.28,12.75,23.27,10.84,8.96-1.91,12.52-11.81,6.59-19.08-2.11-2.58-4.94-4.73-7.79-6.52-4.29-2.69-9.03-4.67-13.32-7.36-4.56-2.86-9.22-5.76-13.13-9.41-12.43-11.63-11.52-38.87,11.93-47.04,9.16-3.19,18.5-3.03,27.89-1.77,5.83,.79,11.62,1.94,17.66,2.96Z"/>
  <path class="cls-1" d="M728.3,317.12c-18.27,.43-36.06,.85-54.03,1.27v-7.17c.56-.16,1.24-.37,1.93-.55,6.59-1.66,9.86-5.71,9.87-12.54,.04-18.33,.03-36.65-.02-54.98,0-1.89-.28-3.83-.75-5.67-.72-2.83-2.32-3.96-5.25-4.02-2.74-.05-5.49-.01-8.48-.01v-6.39c14.4-3.53,28.81-7.06,43.46-10.65-.16,1.26-.4,2.69-.51,4.13-.42,5.64-1.1,11.28-1.14,16.92-.14,18.83-.01,37.65-.08,56.48-.02,4.81-.39,9.62-.62,14.81,5.26,.62,10.66,1.25,16.44,1.93-.28,2.14-.54,4.21-.83,6.43Z"/>
  <path class="cls-1" d="M845.62,308.78c5.47,.63,10.82,1.25,16.45,1.9-.22,1.88-.3,3.69-.71,5.43-.11,.46-1.21,.97-1.87,.98-13.81,.39-27.62,.72-41.43,1.03-3.55,.08-7.11,.01-10.83,.01v-6.81c.09-.06,.2-.2,.34-.23,8.67-2.1,11.5-5.68,11.5-14.53,0-17.24,.02-34.48-.02-51.72,0-2.15-.17-4.33-.53-6.45-.58-3.4-2.42-4.87-5.83-4.91-2.66-.03-5.32,0-8.17,0v-6.38c14.46-3.54,28.8-7.05,43.42-10.63,0,.29,.04,.89,0,1.48-.53,6.21-1.47,12.41-1.53,18.63-.2,19.4-.03,38.81-.11,58.21-.02,4.56-.43,9.11-.69,14Z"/>
  <path class="cls-1" d="M337.44,484.29v-7.11c.46-.15,.84-.3,1.24-.4,7.45-1.82,10.6-4.93,10.68-12.61,.2-19.23,.02-38.46-.25-57.69-.08-5.73-2.05-7.17-7.84-7.18-2.15,0-4.3,0-6.56,0v-6.3c14.55-3.56,28.96-7.08,43.64-10.67-.27,2.2-.67,4.53-.83,6.88-.37,5.31-.85,10.62-.89,15.94-.11,17.99,0,35.98-.07,53.96-.02,5.06-.33,10.11-.52,15.55,5.16,.61,10.65,1.26,16.41,1.94-.28,2.16-.55,4.18-.84,6.42-18.03,.43-35.97,.85-54.17,1.28Z"/>
  <path class="cls-1" d="M800.51,597.03c2.59,.29,5.47,.62,8.63,.98-.08,1.11-.15,2.15-.25,3.64h-29.38v-3.28c.69-.23,1.45-.48,2.21-.75,3.21-1.16,4.6-2.95,4.6-6.33,.03-16.33,.04-32.65,0-48.98,0-3.71-.9-4.74-4.53-5.84-1.1-.34-2.21-.65-3.35-.98v-2.99c.72-.07,1.36-.19,1.99-.19,10.16,.04,20.32,.04,30.48,.19,5.39,.08,10.6,1.16,15.24,4.1,7.17,4.55,9.18,12.87,5,20.28-2.18,3.87-5.39,6.77-9.04,9.14-1.71,1.11-2.04,2.17-.9,3.85,5.01,7.46,9.95,14.98,14.99,22.42,1.99,2.94,4.2,5.7,8.45,5.54-.18,1.42-.33,2.55-.51,3.94-6.52,0-12.91,.03-19.29-.06-.51,0-1.15-.76-1.5-1.32-5.55-8.97-11.07-17.96-16.58-26.96-1.23-2.01-3.2-1.18-4.74-.94-.64,.1-1.42,1.87-1.44,2.9-.13,7.13-.07,14.27-.07,21.63Zm0-30.24c2.34,0,4.33-.05,6.32,.01,3.78,.11,6.54-1.61,8.51-4.71,2.28-3.61,2.77-7.61,2.38-11.76-.82-8.63-6.59-13.34-15.15-12.28-.75,.09-1.96,1.25-1.97,1.92-.13,8.81-.09,17.62-.09,26.83Z"/>
  <path class="cls-1" d="M386.4,531.99c5.22,0,10.37-.02,15.52,.03,.49,0,1.11,.32,1.44,.69,5.83,6.39,11.54,12.88,17.44,19.19,8.69,9.3,17.5,18.48,26.7,28.18v-2.87c0-11.08,0-22.16,0-33.23,0-5.62-1.12-6.93-6.72-7.89-.48-.08-.96-.14-1.56-.23v-3.58c1.66,0,3.3,0,4.94,0,4.83,0,9.66-.04,14.49,.05,.63,.01,1.25,.72,1.88,1.11-.32,.49-.52,1.21-.96,1.44-4.51,2.28-6.02,6.08-6,10.89,.05,17.91,.02,35.82,.02,53.72v2.68c-2.77,.71-4.68,.13-6.57-1.93-15.15-16.48-30.43-32.86-45.67-49.26-.1-.11-.26-.17-.74-.47v46.78c2.7,.23,5.71,.48,8.85,.74-.15,1.23-.27,2.2-.45,3.61h-21.74v-3.28c1.25-.42,2.53-.75,3.73-1.27,2.37-1.02,3.59-2.88,3.59-5.48,0-15.33,.02-30.65-.02-45.98,0-4.43-1.92-7.63-6.24-9.24-2.29-.86-2.26-.95-1.93-4.41Z"/>
  <path class="cls-1" d="M861.68,535.47v-3.16h24.5c-4.39,6.87-3.23,14.56-3.31,22.07-.08,7.58-.05,15.16-.01,22.74,.06,11.71,7.74,19.74,18.92,19.84,10.86,.1,18.82-7.76,19.02-19.2,.2-11.66,.08-23.33,.03-34.99-.02-4.28-1.16-5.54-5.37-6.49-.72-.16-1.44-.29-2.29-.46v-3.53c3.44,0,6.83,0,10.21,0,3.17,0,6.34-.09,9.49,.06,.83,.04,1.63,.83,2.36,1.62-6.29,3.03-8.03,7.98-7.92,14.18,.17,9.74,.06,19.49,.04,29.24-.02,12.37-6.85,21.33-18.8,24.44-7.76,2.02-15.53,1.75-23.13-.84-10.79-3.68-16.69-12-16.73-23.45-.04-11.33,0-22.66,0-33.99,0-5.78-.25-6.1-5.93-7.67-.32-.09-.62-.24-1.07-.41Z"/>
  <path class="cls-1" d="M1009.54,601.89h-52.71c-.94-2.04-.88-3.82,1.05-5.45,1.05-.89,1.82-2.17,2.56-3.36,11.29-18.24,22.56-36.5,34.06-55.11h-5.23c-3.42,0-6.84,.18-10.24-.04-7.56-.49-12.43,3.04-14.98,9.88-1.04,2.78-2.69,3.15-5.31,2.36,.81-5.52,1.56-11.03,2.51-16.5,.1-.56,1.37-1.3,2.11-1.31,6.33-.1,12.66-.06,18.99-.06,9.65,0,19.3,0,29.04,0,.79,2.04,.23,3.71-1.1,5.72-5.26,7.99-10.21,16.18-15.23,24.32-6.89,11.18-13.74,22.38-20.65,33.65,.04,.02,.22,.24,.41,.24,6.91,0,13.82,.02,20.73-.08,3.97-.06,6.99-2.04,9.19-5.23,1.37-1.98,2.8-4.01,3.64-6.23,1.03-2.72,2.71-3.2,5.51-2.45-1.41,6.43-2.83,12.87-4.33,19.65Z"/>
  <path class="cls-1" d="M6.42,532.26H30.64c-.18,.51-.41,1.02-.55,1.54-.85,3.27-2.32,6.54-2.4,9.83-.29,11.65-.28,23.32-.05,34.98,.16,8.44,5.16,14.92,12.68,17.34,12.58,4.05,24.73-4.18,25.12-17.44,.35-11.98,.14-23.99,.08-35.98-.02-4.05-1.16-5.25-5.1-6.17-.81-.19-1.63-.32-2.64-.52v-3.54c6.83,0,13.64-.02,20.46,.05,.45,0,1.08,.66,1.26,1.15,.12,.33-.3,1.13-.68,1.32-5.51,2.82-6.9,7.56-6.79,13.35,.19,9.58,.05,19.16,.05,28.74,0,13.71-7.96,23.26-21.53,25.54-8.74,1.46-17.31,.77-25.21-3.64-7.89-4.4-11.75-11.34-11.82-20.31-.09-11.66-.02-23.33-.02-34.99,0-5.46-.46-6.06-5.59-7.53q-1.9-.54-1.5-3.73Z"/>
  <path class="cls-1" d="M239.11,580.97c.36,2.2,.52,4.28,1.05,6.27,2.31,8.77,12.43,13.22,20.55,9.12,4.8-2.42,6.55-7.89,3.55-12.75-1.52-2.46-3.82-4.63-6.18-6.35-3.42-2.49-7.28-4.34-10.82-6.67-2.77-1.82-5.6-3.68-7.94-6-10.72-10.64-6.32-27.69,8.13-32.05,6.54-1.97,13.16-1.6,19.8-.82,3.05,.36,6.08,.87,9.43,1.36-1.1,5.58-2.04,11.04-3.38,16.4-.18,.71-2.4,.91-3.89,1.42-.31-2.27-.45-3.99-.8-5.67-.86-4.14-3.07-7.23-7.37-8.23-4.72-1.1-9.34-.93-13.07,2.7-2.75,2.68-3.25,7.54-.73,11.07,1.74,2.44,4.1,4.6,6.6,6.28,4.41,2.96,9.22,5.32,13.7,8.18,4.91,3.14,8.65,7.33,9.84,13.27,2.33,11.6-3.65,20.88-15.22,23.58-7.73,1.81-15.4,1.37-22.82-1.45-5.7-2.17-9.16-5.61-6.54-13.02,.41-1.17,.72-2.39,1.1-3.57q1.12-3.46,5.02-3.05Z"/>
  <path class="cls-1" d="M572.95,596.99c3.01,.42,5.71,.8,8.39,1.18,.44,3.33,.22,3.62-2.8,3.62-5.08,0-10.17,0-15.25,0-.81,0-1.62-.07-2.52-.11v-3.5c4.83-.36,6.54-3.9,8.11-7.88,7.13-18.11,14.46-36.14,21.57-54.26,.93-2.36,2.07-3.8,4.65-3.95,.98-.06,1.95-.34,3.13-.55,1.79,4.61,3.56,9.16,5.32,13.72,5.76,14.97,11.51,29.96,17.29,44.92,1.32,3.41,2.45,6.96,6.64,8.17,.5,.14,.53,1.93,.9,3.45h-25.04v-3.56c.55-.12,1.19-.23,1.8-.41,2.4-.71,2.93-1.68,2.09-4.1-1.37-3.93-2.76-7.85-4.28-11.72-.25-.62-1.26-1.33-1.93-1.34-6.5-.1-13-.16-19.49,.04-1.1,.04-2.68,1.19-3.13,2.22-1.95,4.49-3.56,9.12-5.43,14.04Zm18.37-47.95c-3.33,8.69-6.53,17.04-9.77,25.5h18.79c-3.04-8.59-5.96-16.86-9.02-25.5Z"/>
  <path class="cls-1" d="M335.33,531.57c3.08,7.97,6.14,15.86,9.18,23.75,4.45,11.56,8.88,23.12,13.34,34.67,1.35,3.49,2.47,7.13,6.74,8.39,.49,.15,.5,1.94,.84,3.43h-24.95v-3.54c.79-.22,1.58-.42,2.36-.67,1.54-.49,2.22-1.62,1.72-3.09-1.47-4.33-3.03-8.63-4.68-12.89-.19-.48-1.12-.95-1.71-.95-6.49-.07-12.99-.13-19.48,.05-1.07,.03-2.65,1-3.06,1.94-2.01,4.64-3.71,9.41-5.59,14.32,2.97,.42,5.75,.82,8.5,1.21q.16,3.6-3.21,3.61c-4.91,0-9.83,0-14.74,0-.9,0-1.79,0-2.8,0v-3.61c5.07-.3,6.71-4.11,8.33-8.22,7.03-17.86,14.27-35.64,21.24-53.53,1.08-2.76,2.45-4.31,5.4-4.42,.81-.03,1.61-.28,2.58-.46Zm2.13,43.07c-3.05-8.61-5.99-16.89-9.07-25.59-3.36,8.78-6.53,17.07-9.79,25.59h18.86Z"/>
  <path class="cls-1" d="M165.39,586.79c2.34,1.82,1.77,3.32,.15,5.06-7.81,8.39-17.57,11.53-28.8,11.21-17.17-.49-31.31-12.7-34.02-29.59-3.08-19.15,9.97-37.63,29.15-41.46,8.69-1.74,17.24-.61,25.8,.75,2.7,.43,5.39,.88,8.34,1.36-1.03,5.42-2.03,10.7-3.07,16.15h-3.9c-.1-.14-.27-.27-.28-.4-.97-9.51-7.86-12.66-15.2-13.27-15.61-1.3-25.88,7.93-26.93,24-.59,9.05,1.09,17.48,7.55,24.3,10.14,10.69,27.02,11.89,39.74,2.97,.47-.33,.94-.68,1.47-1.07Z"/>
  <path class="cls-1" d="M751.93,586.83c2.17,1.65,2.01,3.08,.35,4.83-10.89,11.47-24.24,13.86-38.76,9.59-13.89-4.08-22.04-13.98-24.26-28.26-3.14-20.14,11.78-39.08,32.11-41.5,8.75-1.04,17.26,.43,25.81,1.75,1.72,.27,3.43,.55,5.39,.86-1.05,5.47-2.07,10.81-3.1,16.23h-3.85c-.12-.15-.3-.26-.32-.4-1.33-7.95-4.86-11.52-12.9-13.01-15.12-2.8-26.72,5.63-28.84,20.89-1.34,9.64-.06,18.68,6.47,26.3,9.6,11.2,27.04,12.88,39.99,4.04,.61-.42,1.22-.85,1.92-1.33Z"/>
  <path class="cls-1" d="M550.15,532.1c-1.05,6.06-2.09,12.03-3.12,17.96-3.96,1.01-4.14,.88-4.41-3.01-.43-6.26-3.27-8.98-9.54-9.08-2.58-.04-5.17,.1-7.74-.04-2.41-.12-3.2,.87-3.19,3.23,.07,14.83,.03,29.65,.03,44.48,0,3.72,0,7.45,0,11.38,3.07,.32,6.36,.65,9.92,1.02-.15,1.15-.29,2.19-.49,3.64h-30.27v-3.35c.48-.15,1.01-.31,1.54-.47,3.66-1.13,5.22-3.09,5.28-6.91,.07-4.16,.02-8.33,.02-12.49,0-12.49,0-24.99,0-37.48v-2.79c-4.34,0-8.54-.46-12.56,.18-2.17,.35-4.3,2.33-5.99,4.02-1.35,1.36-2.31,3.31-2.93,5.17-.89,2.69-2.42,3.51-5.41,2.58,1.02-5.99,2.06-12.06,3.08-18.04h65.78Z"/>
  <path class="cls-1" d="M830.85,200.62c-9.21,.04-15.74-6.08-15.76-14.76-.02-8.9,6.43-15.19,15.63-15.24,9.16-.05,15.79,6.29,15.79,15.11,0,8.71-6.46,14.85-15.65,14.89Z"/>
  <path class="cls-1" d="M345.51,351.52c0-8.8,6.36-14.92,15.54-14.97,9.18-.06,15.74,6.2,15.8,15.07,.06,8.75-6.57,14.97-15.89,14.92-9.16-.05-15.45-6.16-15.45-15.02Z"/>
</svg>