<?xml version="1.0" encoding="UTF-8"?>
<svg id="Layer_1" data-name="Layer 1" xmlns="http://www.w3.org/2000/svg" viewBox="0 0 758.39 120.19">
  <defs>
    <style>
      .cls-1 {
        fill: #fff;
      }
    </style>
  </defs>
  <path class="cls-1" d="M166.56,30.17c7.7,0,15.1-.08,22.5,.09,1.04,.02,2.35,1.1,3.03,2.05,7.7,10.9,15.31,21.88,22.94,32.83,.63,.9,1.3,1.78,2.54,3.47V30.44h23.36V107.83c-4.35,0-8.86-.49-13.21,.11-6.91,.96-10.93-1.77-14.54-7.6-6.43-10.38-13.78-20.2-20.75-30.25-.61-.89-1.28-1.73-2.54-3.41v40.94h-23.34V30.17Z"/>
  <path class="cls-1" d="M438.62,30.25c15.31,0,30.34-.41,45.34,.13,11.87,.43,20.58,8.09,23.34,18.97,3.05,12-1.05,23.08-11,29.72-.55,.36-1.07,.76-1.85,1.32,4.56,9.04,9.08,17.99,13.83,27.42-8.88,0-17.16,.08-25.43-.11-.9-.02-2.12-1.42-2.59-2.45-2.83-6.22-5.69-12.45-8.12-18.83-1.17-3.06-2.85-4.17-5.95-3.74-1.29,.18-2.63,.03-4.3,.03v24.91h-23.28V30.25Zm23.39,32.6c5.7,0,11.07,.31,16.38-.11,3.52-.28,5.61-3.03,5.76-6.03,.16-3.06-1.73-6.07-5.22-6.39-5.58-.5-11.25-.13-16.92-.13v12.66Z"/>
  <path class="cls-1" d="M730.67,107.82c-8.19,0-15.92,.06-23.63-.1-.81-.02-1.93-1.21-2.33-2.11-1.07-2.44-1.12-6.05-2.9-7.25-1.95-1.32-5.37-.56-8.16-.58-6.05-.05-12.11,.05-18.16-.05-1.94-.03-2.98,.43-3.62,2.48-2.37,7.64-2.46,7.61-10.41,7.61h-17.29c.46-1.48,.76-2.61,1.16-3.69,8.67-23.55,17.38-47.09,25.96-70.68,.91-2.5,2-3.45,4.76-3.37,7.95,.22,15.92,0,23.87,.17,1.08,.02,2.74,1.06,3.1,2.02,9.14,24.45,18.13,48.96,27.15,73.46,.19,.51,.25,1.05,.49,2.08Zm-42.78-55.31c-.27,0-.54-.02-.81-.03-2.72,8.42-5.44,16.84-8.22,25.41h17.26c-2.82-8.69-5.52-17.04-8.23-25.38Z"/>
  <path class="cls-1" d="M248.2,97.12c4.04-5.77,8.02-11.44,12.2-17.4,1.01,.76,1.87,1.39,2.71,2.05,6.18,4.88,13.2,7.53,21.07,7.86,1.34,.06,2.71,.03,4.02-.2,2.45-.44,5.25-.95,5.6-3.93,.38-3.15-2.37-4.12-4.75-4.75-4-1.05-8.13-1.65-12.13-2.71-4.43-1.17-8.94-2.27-13.13-4.07-16.87-7.24-15.37-26.92-6.62-35.67,5.51-5.51,12.27-8.14,19.81-8.97,12.54-1.37,24.35,.82,35.12,7.63,1.3,.82,2.49,1.83,3.92,2.9-4.26,5.66-8.35,11.11-11.96,15.92-6.08-2.25-11.61-4.62-17.35-6.27-2.67-.77-5.81-.49-8.61,0-1.25,.22-2.86,2.03-3.06,3.32-.16,.99,1.4,2.89,2.59,3.33,2.91,1.09,6.06,1.53,9.09,2.32,5.74,1.49,11.61,2.63,17.14,4.68,7.74,2.88,13.16,8.27,13.84,16.99,.77,9.85-2.22,18.22-10.84,23.81-8.31,5.39-17.69,6.09-27.22,5.53-10.74-.63-20.76-3.52-29.31-10.43-.68-.55-1.3-1.2-2.12-1.96Z"/>
  <path class="cls-1" d="M325.29,30.26c15.32,0,30.35-.45,45.35,.14,12.47,.49,21.54,9.04,23.69,20.68,2.28,12.36-2.75,23.81-13.29,28.54-4.07,1.83-8.8,2.62-13.31,2.97-6.22,.49-12.5,.12-19.15,.12v24.89h-23.3V30.26Zm23.44,32.82c5.46,0,10.5,.19,15.52-.06,3.93-.2,6.47-2.96,6.56-6.41,.1-3.4-2.45-6.49-6.24-6.7-5.22-.29-10.46-.07-15.85-.07v13.24Z"/>
  <path class="cls-1" d="M614.58,30.35c0,6.28,.08,12.42-.13,18.56-.02,.63-1.77,1.7-2.75,1.73-5.81,.16-11.63,.08-17.81,.08v56.85h-23.44V50.81h-20.86V30.35h64.98Z"/>
  <path class="cls-1" d="M153.85,107.64h-23.06V30.39h23.06V107.64Z"/>
  <path class="cls-1" d="M402.29,107.58V30.34h23.08V107.58h-23.08Z"/>
  <path class="cls-1" d="M540.42,107.65h-23.04V30.39h23.04V107.65Z"/>
  <path class="cls-1" d="M758.39,107.67h-22.95V30.38h22.95V107.67Z"/>
  <path class="cls-1" d="M.13,42.35C-.48,28.7,4.66,18.31,14.26,10.14,22.71,2.95,32.55-1.19,43.8,.3c6.5,.86,12.67,3.43,17.82,7.83,6.65,5.67,12.48,12.11,13.99,21,.9,5.31,1.04,10.95,.36,16.29-1.32,10.39-6.16,19.61-10.78,28.89-2.1,4.23-3.17,9-4.53,13.58-.33,1.11-.26,2.53,.14,3.62,.73,2.01,.78,3.76-.96,5.16-.51,.41-1.8,.74-1.98,.51-1.31-1.67-3.22-3.39-3.46-5.28-.72-5.83,1.88-11.08,4.2-16.21,4.41-9.78,9.33-19.44,11.25-30.03,2.26-12.49,.33-24.38-10.55-32.55-10.25-7.7-21.23-9.88-33.7-3.52-7.54,3.85-13.52,9.37-17.05,17.12-1.26,2.76-1.97,5.92-2.23,8.96-.86,10.29,.45,20.28,5.89,29.29,2.93,4.85,6.56,9.28,9.45,14.16,3.21,5.41,6.44,11,5.88,17.65-.12,1.44-1.61,2.76-2.47,4.13-1.11-1.3-3.09-2.53-3.19-3.9-.73-10.39-7.16-17.88-12.41-26.09C3.81,62.04-.86,52.65,.13,42.35Z"/>
  <path class="cls-1" d="M25.22,19.5c-.41,1.18-.54,2.57-1.26,3.51-5.52,7.15-6.72,15.31-5.32,23.87,.46,2.8,2.31,5.37,3.45,8.07,1.02,2.43,2.3,4.84,2.73,7.39,.21,1.25-1.25,2.79-1.95,4.19-.38,.06-.76,.11-1.14,.17-.96-1.61-2.03-3.16-2.86-4.83-1.6-3.22-3.17-6.45-4.56-9.76-4.07-9.69-2.11-24.8,5.83-31.4,1.16-.96,2.68-1.5,4.04-2.23,.35,.34,.7,.68,1.05,1.02Z"/>
  <path class="cls-1" d="M60.44,104.95c-1.99,.87-3.54,1.96-5.21,2.21-9.2,1.37-18.44,2.53-27.66,3.76-.55,.07-1.2,.34-1.65,.15-1.24-.53-2.84-1-3.44-2.01-.38-.64,.51-2.41,1.28-3.27,.66-.73,1.94-1.15,2.99-1.25,6.87-.69,13.76-1.21,20.63-1.87,1.75-.17,3.53-.46,5.21-.96,3.26-.97,4.9-.5,7.85,3.25Z"/>
  <path class="cls-1" d="M24.77,114.59c8.51-.84,16.86-1.64,25.2-2.53,1.52-.16,3-.73,4.5-1.13,2.08-.55,5.63,1.1,5.08,2.44-.57,1.39-2.43,2.93-3.91,3.15-9.12,1.41-18.3,2.45-27.45,3.64-2.18,.28-3.51-1.55-3.41-5.57Z"/>
</svg>