<?xml version="1.0" encoding="UTF-8"?>
<svg id="Layer_2" data-name="Layer 2" xmlns="http://www.w3.org/2000/svg" viewBox="0 0 586.32 523.27">
  <defs>
    <style>
      .cls-1 {
        fill: #fff;
      }
    </style>
  </defs>
  <g id="Layer_1-2" data-name="Layer 1">
    <path class="cls-1" d="M160.16,523.14v-192.7c-.3-.1-.6-.2-.9-.3-.8,1.3-1.6,2.6-2.3,4-6.3,12.5-14.7,23.2-26.5,31-7,4.7-14.7,7.6-22.9,9.4-9.2,2-18.5,2-27.7,.7-13.1-1.8-25.1-6.7-35.8-14.6-14.7-10.7-25.3-24.6-32.8-41.2-6.4-14.2-9.7-29.1-10.9-44.6-1.1-14.5,.4-28.7,3.8-42.8,4.7-19.7,13.2-37.6,26.6-52.9,10.7-12.4,23.7-21.6,39.4-26.8,12.2-4,24.8-4.8,37.3-2.9,18.6,2.8,33.2,12.3,43.9,27.8,2.5,3.7,4.6,7.7,6.9,11.5,.3,.6,.8,1,1.8,2.1,.2-1.7,.3-2.8,.3-3.8,0-9.8,.1-19.5,0-29.3,0-2.2,.7-3.1,2.8-3.3,8.2-.9,16.4-2,24.6-3,8.3-1,16.7-2.1,25-3.1,3.4-.4,6.7-.8,10.1-1.2,1.6-.2,2.2,.4,2.1,1.9v1.2c-.1,8.5,1.1,6-6.6,9.2-4.2,1.7-8.5,3.2-12.8,4.6-1.5,.5-2,1.4-2,2.8V501.74q0,4.5,4.5,4.5c9.8,0,19.7,.1,29.5-.1,2.4,0,3.1,.9,2.9,3-.1,1.7-.1,3.5,0,5.2,0,1.4-.5,2-1.9,2.1-12.4,1.2-24.9,2.3-37.3,3.6-10.4,1-20.8,2.2-31.2,3.1-3.3,.3-6.4,0-9.9,0ZM52.46,258.54h-.4c.3,15.8,.5,31.6,.9,47.4,.2,8.9,.4,17.8,2.9,26.4,2,6.9,4.8,13.4,9.6,19,8,9.4,18.7,13,30.6,13.3,11.4,.2,21.6-3.6,30.7-10.3,13.4-9.9,21.5-23.6,26.9-39,3.8-10.9,6-22.2,6.6-33.6,1.1-20.6,.9-41.2-3-61.6-2-10.7-5-21-10.9-30.2-12.7-20.1-30-32.4-54.9-30.4-4.5,.3-9.1,1.3-13.2,3-12,4.8-18.5,14.6-22.2,26.5-2.7,8.8-3.2,18-3.4,27-.5,14.1-.2,28.3-.2,42.5Z"/>
    <path class="cls-1" d="M284.56,194.24c.5-.7,1.1-1.4,1.5-2.2,7.7-15.5,18.3-28.4,34-36.4,6.9-3.5,14.3-5.9,22-6.4,6.3-.4,12.7-.5,19.1-.1,11.9,.8,22.8,4.9,33,11,18.5,11.2,31,27.5,39.5,47.1,3.6,8.2,6.2,16.7,7.8,25.4,2.2,11.9,3.6,24,2.1,36.1-1.1,8.8-2.1,17.7-4.4,26.2-6.9,25.8-19.6,48.3-41.3,64.7-9,6.8-19,11.7-30,14.2-12.9,2.9-25.9,3.1-38.8-.4-20.2-5.4-33.7-18.7-43-36.9-.4-.8-1-1.6-1.6-2.4-.2,.1-.5,.1-.7,.2-.1,.7-.3,1.4-.3,2.1,0,10.1,0,20.2,.1,30.2,0,2-.6,3-2.7,3.2-7.4,.9-14.8,1.9-22.2,2.9-10.1,1.2-20.1,2.4-30.2,3.6-2.4,.3-4.8,.6-7.3,.9-1.6,.2-2.2-.4-2.3-1.9,0-2.1-.1-4.3,.1-6.4,.1-.7,.8-1.7,1.5-2,5-2,10-3.8,15-5.7,1-.4,2.2-.6,3.1-1.2,.7-.5,1.4-1.3,1.7-2.2,.3-.8,.1-1.7,.1-2.6V22.44c0-.5-.1-1,0-1.4,.3-2.3-.8-3-3-3-10.2,.1-20.5,0-30.7,0-3.1,0-3.4-.2-3.3-3.4,0-2-.6-4.6,.4-5.9,.9-1.2,3.7-1.2,5.6-1.4,7.7-.8,15.5-1.6,23.2-2.3,7.8-.8,15.7-1.5,23.5-2.3,8.4-.9,16.9-1.8,25.3-2.7,1.5-.2,2,.4,2.1,1.8V193.44c.5,.6,.8,.7,1.1,.8Zm106.8,71.9h.5c-.4-18-.8-36-1.3-54-.2-8.2-1-16.3-3.9-24.1-2.7-7.2-6.3-13.7-12.3-18.7-6.3-5.3-13.5-7.9-21.6-8.9-10.7-1.3-20.5,1-29.7,6.1-13,7.2-21.8,18.3-28.2,31.5-8.4,17.3-11.4,35.9-11.8,54.9-.2,9.3,.2,18.6,.7,27.8,.7,13.5,2.4,26.8,7,39.6,6.9,19.2,18.9,34,38.3,41.7,10.8,4.3,22,4.6,33.1,1.4,13.7-4,21.5-14.1,25.5-27.4,2.9-9.4,3.4-19.2,3.6-28.9,.2-13.6,.1-27.3,.1-41Z"/>
    <path class="cls-1" d="M458.46,220.94c1.2-.1,2.1-.2,3-.2,7.6-.4,15.3-.4,22.8-1.3,9.3-1,18.3-3.5,26.2-9,8.1-5.7,12.8-13.6,15.8-22.8,4.8-14.9,4.4-30.3,3.3-45.6-.5-7.8-2.7-15.3-7.2-21.9-6.1-8.8-15-12.4-25.2-13.1-10-.7-18.9,2.3-26.4,9.2-4.9,4.6-8.2,10.1-9.3,16.8-.6,3.5-.8,7-1,10.5-.1,1.5-.4,2.7-1.9,3.5-1.8,.9-3.5,2.1-5.2,3.2-1.3,.8-2.2,.5-3-.6-5.3-7.7-10.7-15.4-16-23-.7-1-.8-1.7,.4-2.3,.1,0,.1-.1,.2-.1,2.8-2.8,5.6-3.1,9.1-.7,3.3,2.3,3.6,2,5.7-1.3,8.2-12.6,19.8-20.2,34.5-23.6,10.5-2.4,21.1-2.4,31.6-.6,14.9,2.5,28.3,8.4,39.2,19.1,7.1,7,12.1,15.3,14.9,25,2.5,8.8,2.8,17.7,.8,26.6-2.5,10.9-7.7,20.3-15.3,28.5-8.2,8.9-17.9,15.9-29.1,20.5-6.6,2.7-13.5,4.4-20.3,6.6-.6,.2-1.1,.3-1.7,1,3.1,.5,6.2,1,9.4,1.4,16.1,2.2,31.6,6.3,45.2,15.7,11.4,8,19.5,18.4,24.1,31.7,2.2,6.6,3.6,13.1,3.2,20.1-.3,5.2-.2,10.4-1,15.5-1.5,9.9-5.5,19-11.1,27.3-10.5,15.8-24.8,26.6-42.6,33.1-11.6,4.2-23.5,6.4-35.8,6.1-9.7-.3-19.4-.5-28.9-1.8-15.7-2.1-29.9-8.1-41.8-19-1.9-1.8-3.7-3.6-5.6-5.4-1.3-1.2-1.1-2.3,0-3.6,3.2-3.8,6.3-7.7,9.2-11.6,1.2-1.7,1.8-1.3,2.9,.1,4.1,5.1,7.9,10.4,12.4,15.1,10.6,11.1,23.7,16.9,39.1,17.9,12.5,.8,24.1-1.3,34.6-8.3,8.5-5.6,14.6-13.2,18.2-22.8,5.2-13.8,6.2-28.1,5.2-42.7-.4-5.7-.9-11.5-2-17.1-2.7-14.3-8.4-27-21.1-35.4-6-3.9-12.5-6.3-19.5-7.9-11.8-2.6-23.8-3.4-35.8-3.3-1.5,0-2.4-.4-2.7-1.9-.4-2.6-.9-5-1.5-7.6Z"/>
    <path class="cls-1" d="M367.56,491.34h-4.5v-75.9c3.8-.9,4-.7,4.7,2.8,2.5,13.1,5.1,26.2,7.7,39.4,.1,.4,.3,.7,.7,1v-43.3h4.5v76h-4.5v-3.3c.2-6.6-.2-13.1-1.8-19.7-2.3-9.5-4.1-19.1-6.1-28.6-.1-.3-.2-.7-.8-.9,.1,17.5,.1,34.9,.1,52.5Z"/>
    <path class="cls-1" d="M421.06,491.34h-4.9v-2.8c0-21.1,.1-42.2,0-63.3,0-8.1,2.1-11.7,12.7-10.2,3,.4,4.6,2.1,5.1,5.1,.2,1.1,.3,2.2,.3,3.3v65.4c0,.8-.1,1.5-.1,2.4h-4.4v-38.9h-8.6c-.1,13.1-.1,26-.1,39Zm8.6-42.2v-24.9c0-1.3,0-2.7-.1-4-.3-2.7-1.8-3.9-4.5-3.7-2.6,.1-3.9,1.6-4,4.8v26.4c0,.4,.2,.9,.2,1.4,2.8,0,5.5,0,8.4,0Z"/>
    <path class="cls-1" d="M488.56,415.04c4.2,.2,8.4,.1,12.5,.8,3.9,.6,5.4,2.8,5.4,6.6,.1,7.3,.2,14.6-.1,22-.1,1.6-1.4,3.2-2.3,4.6-.5,.7-1.4,1.1-2.5,1.9,5.1,2.3,5.1,6.6,5,11.1-.1,8.7,0,17.5,0,26.2v3h-4.9v-31.8c0-5.9-2.2-7.8-8.4-7v38.9h-4.6c-.1-25.3-.1-50.5-.1-76.3Zm4.8,2.3v32.5c6,.8,8.3-1.2,8.3-7v-20c0-4.1-1.2-5.3-5.3-5.5h-3Z"/>
    <path class="cls-1" d="M529.46,415.34h4.6c.1,.9,.2,1.7,.2,2.5v65.6c0,3.4-.6,6.5-4.2,7.7-4.1,1.3-8.4,1.7-11.8-1.5-1.2-1.2-2-3.5-2-5.3-.1-22.4-.1-44.9-.1-67.3,0-2.3,1.4-1.8,2.7-1.8,1.5-.1,2.3,.1,2.3,2-.1,10.2,0,20.3,0,30.5v38c0,1.8,.3,3.6,2.2,4,1.5,.3,3.5,.1,4.7-.7,.9-.6,1.3-2.6,1.3-4,.1-22.2,.1-44.4,.1-66.6v-3.1Z"/>
    <path class="cls-1" d="M352.26,491.34h-4.4v-38.9h-8.6v38.8h-4.9v-66.8c0-1.1,0-2.2,.1-3.3,.5-3.7,2.3-5.6,6-6.2,.7-.1,1.4-.2,2.1-.2,6.9-.4,9.7,2,9.7,8.8,.1,22,0,44.1,0,66.1,.1,.5,0,1,0,1.7Zm-4.6-42.2v-27.9c0-3.4-1.4-4.8-4.2-4.8s-4.3,1.5-4.3,4.7c-.1,9,0,17.9,0,26.9,0,.3,.1,.6,.3,1,2.6,.1,5.2,.1,8.2,.1Z"/>
    <path class="cls-1" d="M235.66,415.34h4.7v69.4c0,3.5,1.2,5.1,4,5.3,2.5,.2,4.3-1.3,4.5-3.8,.1-.8,0-1.6,0-2.4v-68.5h4.6c0,.9,.1,1.7,.1,2.5v65.9c0,5.5-2.3,7.9-7.8,8.2h-2.8c-5-.5-7.3-3.1-7.3-8.1v-60.2c0-2.7,0-5.3,0-8.3Z"/>
    <path class="cls-1" d="M319.36,437.84c0-5.8,.1-11.3,0-16.9-.1-3.6-2.5-5.3-5.9-4.2-2.3,.8-2.6,2.6-2.7,4.7-.8,10,1.7,19.1,6.9,27.6,3.2,5.3,6.1,10.9,6.4,17.3,.3,6.3,.2,12.6,0,18.9-.2,4.1-2.1,5.8-6.2,6.5-.8,.1-1.6,.2-2.4,.2-6.9,.1-9.5-2.4-9.5-9.3v-15.5h4.7v4.8c0,4.5-.1,9,0,13.5,.1,3.4,1.9,5,5.1,4.7,1.9-.2,3.4-1.1,3.4-3-.1-8.6,1.7-17.4-1.3-25.8-2-5.7-5.1-11.1-8-16.5-2.6-4.9-3.8-10.1-3.9-15.6,0-2.4-.1-4.9,.1-7.3,.3-4.3,2.3-6.4,6.5-7,.9-.1,1.9-.2,2.8-.2,6.2,.1,8.6,2.3,8.8,8.5,.1,3.9,0,7.9,0,11.8q0,3-3.1,3c-.4,0-.9-.1-1.7-.2Z"/>
    <path class="cls-1" d="M276.86,467.14h4.6c.1,.7,.2,1.4,.2,2v14.9c0,4.9-2.4,7.5-7.2,7.8-1.6,.1-3.3,.1-4.9-.2-4-.7-6-3.2-6-7.2v-61.2c0-5.7,2.2-8,7.9-8.4,1.7-.1,3.5,.1,5.2,.4,2.5,.5,4.6,2.1,4.7,4.7,.2,6,.1,12.1,.1,18.2h-4.4v-4.5c0-4.4,0-8.8-.1-13.2-.1-2.5-1.3-3.7-3.6-3.9-2.5-.2-4.1,.9-4.7,3.3-.2,.8-.2,1.7-.2,2.6v62.6c0,2.4,.7,4.2,3.1,4.9,3,.9,5.5-.8,5.5-3.9,.1-5.4,0-10.7,0-16.1-.2-.9-.2-1.7-.2-2.8Z"/>
    <path class="cls-1" d="M472.76,467.14h4.5c.1,.5,.3,1,.3,1.6,0,5.2,.1,10.4,0,15.6-.1,4.7-2.3,7.2-6.9,7.6-2,.2-4.1,0-6.1-.4-3.1-.7-4.8-2.9-5-6.1-.1-2-.1-3.9-.1-5.9v-55.5c.2-8,7.6-12.1,14.8-8.1,2,1.1,3.1,2.9,3.2,5.2,.1,5.6,0,11.2,0,17h-4.6v-4.2c0-4.5,.1-9-.1-13.5-.1-2.6-1.6-3.9-4.1-3.9s-4,1.3-4.3,3.8c-.1,.5-.1,.9-.1,1.4v63.7c0,2.7,1.1,4.1,3.5,4.6,2.8,.6,5.1-1.1,5.1-4,.1-5.4,0-10.7,0-16.1-.1-.9-.1-1.7-.1-2.8Z"/>
    <path class="cls-1" d="M555.46,417.94h-10.3c-.1-1-.1-1.7-.2-2.6h16.3c-3.7,24.3-7.5,48.4-11.3,73h11.9v3h-17.7c3.8-24.5,7.5-48.8,11.3-73.4Z"/>
    <path class="cls-1" d="M396.06,417.94h-6.7v-2.6h18.5c0,.8,.1,1.5,.1,2.5h-7.1v73.5h-4.8v-73.4Z"/>
  </g>
</svg>