<?xml version="1.0" encoding="UTF-8"?>
<svg id="Layer_1" data-name="Layer 1" xmlns="http://www.w3.org/2000/svg" viewBox="0 0 826.97 321.65">
  <defs>
    <style>
      .cls-1 {
        fill: #fff;
      }
    </style>
  </defs>
  <path class="cls-1" d="M0,5.2c3.72-.82,7.43-2.31,11.16-2.34,24.47-.21,48.94-.33,73.41,0,9.26,.12,18.76,.41,27.71,2.5,59.76,13.96,62.03,81.98,34.54,109.18-6.6,6.53-6.7,11.38-3.75,19.02,5.43,14.06,9.92,28.5,14.73,42.8,2.28,6.79,.14,9.68-7.13,9.71-11.32,.06-22.64-.07-33.96,.06-3.94,.04-6.04-1.39-7.05-5.35-2.72-10.6-5.8-21.11-8.73-31.65-2.42-8.7-4.79-10.53-13.65-10.54-4.99,0-9.99,.05-14.98-.02-5.45-.07-7.26-1.79-7.31-7.11-.08-8.97-.07-17.94,0-26.92,.04-5.39,1.73-7,7.3-7.08,6.32-.08,12.65,.03,18.98-.03,15.26-.15,25.32-9.66,25.94-24.43,.58-13.84-8.98-24.53-23.88-25.23-14.78-.69-29.62-.21-44.43-.23-.81,0-1.61,.19-2.94,.35,0,2.07,0,4.01,0,5.95,0,41.04,0,82.08,0,123.12,0,8.25-.89,9.12-9.2,9.13-9.65,0-19.31,.17-28.96-.11C5.16,185.91,2.59,184.46,0,183.64c0-59.48,0-118.97,0-178.45Z"/>
  <path class="cls-1" d="M702.34,140.71c13.71,0,26.96,1.21,39.9-.26,25.26-2.87,41.91-26.37,38.4-52.26-3.49-25.76-21.19-40.8-48.53-40.96-22.3-.13-44.61-.02-66.91-.03-8.24,0-8.97-.75-8.98-9.19,0-9.3-.02-18.61,0-27.91,.01-5.82,1.57-7.69,7.2-7.66,26.45,.14,52.96-.53,79.35,.86,49.22,2.58,84.24,40.58,84.18,89.97-.04,32.99-12.39,59.79-40.55,78.16-15.42,10.06-32.73,14.5-51.08,14.63-23.63,.16-47.27,.05-70.9,.03-7.16,0-8.2-1.02-8.2-7.95,0-34.39,0-68.78,0-103.17,0-7.29,1.09-8.4,8.35-8.42,9.99-.02,19.97-.05,29.96,.01,6.17,.04,7.58,1.49,7.59,7.74,.03,21.43,.01,42.86,.02,64.29,0,.8,.14,1.61,.19,2.12Z"/>
  <path class="cls-1" d="M188.63,126.38c0-15.77-.27-31.55,.05-47.31,.86-41.22,29.65-72.82,70.58-77.94,22.32-2.79,43.93-.84,63.77,10.49,26.12,14.91,38.64,38.41,39.33,67.78,.78,33.19,.19,66.42,.17,99.63,0,5.76-1.23,7.01-7.06,7.04-10.48,.06-20.96,.06-31.45,0-5.97-.03-7.2-1.33-7.22-7.45-.07-31.88,.12-63.77-.28-95.65-.21-16.39-12.12-31.08-28.1-36.25-16.53-5.35-36.41-.21-46.08,11.86-6.6,8.25-8.17,17.94-8.17,28.08,0,30.22,0,60.45,0,90.67,0,7.97-.79,8.73-8.95,8.74-9.65,0-19.3,.03-28.95,0-6.6-.02-7.92-1.28-7.94-7.89-.06-17.27-.02-34.54-.02-51.81h.31Z"/>
  <path class="cls-1" d="M437.93,47.94c0,2.3,0,4.27,0,6.23,0,41.02,0,82.04,0,123.06,0,8.04-.83,8.86-8.84,8.87-9.82,0-19.63,.03-29.45-.01-6.09-.03-7.54-1.34-7.54-7.23-.04-56.3-.03-112.59,0-168.89,0-5.47,1.76-7.53,7-7.5,30.77,.13,61.63-.98,92.28,1,42.17,2.73,68.38,36.97,62.28,79.73-5.23,36.68-32.06,58.27-71.12,59.02-6.15,.12-12.31,.11-18.47-.02-5.3-.11-6.72-1.63-6.75-6.98-.05-10.3,.07-20.59-.05-30.89-.05-4.67,2.08-6.55,6.65-6.59,8.14-.08,16.36,.28,24.38-.81,13.15-1.79,20.66-12.07,20.09-25.96-.53-12.78-8.91-22.29-21.83-22.85-15.91-.68-31.87-.16-48.63-.16Z"/>
  <path class="cls-1" d="M623.23,94.39c0,27.9,0,55.81,0,83.71,0,6.95-1.04,7.97-8.16,7.99-9.98,.02-19.97,.03-29.95,0-6.35-.02-7.77-1.36-7.77-7.53-.02-56.14-.02-112.28,0-168.42,0-5.69,1.78-7.64,7.33-7.7,10.48-.12,20.97-.11,31.45,0,5.42,.05,7.09,1.86,7.1,7.26,.02,28.24,.01,56.47,.01,84.71Z"/>
  <path class="cls-1" d="M280.48,260.08c10.91,0,21.53-.44,32.09,.16,6.55,.37,11.54,4.18,13.42,10.91,1.82,6.53,.29,12.14-4.56,15.92,2.78,3.86,6.57,7.24,7.96,11.41,3.15,9.43-2.96,19.41-13.38,20.48-11.62,1.19-23.46,.27-35.53,.27v-59.15Zm14.32,47.48c5.2,0,9.98,.21,14.74-.07,3.64-.21,5.69-2.63,5.84-6.22,.16-3.67-2.01-6.28-5.43-6.62-5-.5-10.09-.13-15.15-.13v13.04Zm.09-23.88c4.17,0,8.31,.72,11.98-.27,2.21-.59,4.89-3.71,5.12-5.93,.17-1.64-2.99-4.77-5.14-5.27-3.73-.88-7.82-.24-11.97-.24v11.72Z"/>
  <path class="cls-1" d="M216.36,258.25c18.61,0,32.87,13.64,32.85,31.41-.02,17.8-14.28,31.58-32.73,31.63-18.39,.05-32.83-13.79-32.86-31.5-.03-17.77,14.26-31.54,32.74-31.53Zm18.52,31.83c.11-10.79-7.6-18.75-18.23-18.85-10.57-.1-18.81,7.93-18.88,18.39-.06,10.36,8.26,18.66,18.69,18.65,10.44,0,18.31-7.78,18.42-18.18Z"/>
  <path class="cls-1" d="M389.78,258.25c18.48,0,32.88,13.79,32.87,31.47-.01,17.65-14.49,31.55-32.87,31.55-18.22,0-32.98-14.1-33.03-31.55-.06-17.44,14.66-31.47,33.03-31.47Zm-18.39,31.35c-.02,10.73,7.82,18.66,18.44,18.66,10.44,0,18.72-8.29,18.66-18.67-.07-10.22-8.13-18.25-18.43-18.36-10.71-.12-18.65,7.69-18.67,18.38Z"/>
  <path class="cls-1" d="M117.93,300.38v19.36h-14.14v-60.09c9.9,0,19.54-.43,29.13,.12,9.52,.54,16.26,6.51,18.41,14.93,2.31,9.04-.89,16.26-10.45,23.29,3.99,7,8,14.03,12.57,22.05-5.55,0-10.24,.13-14.92-.11-.96-.05-2.14-1.34-2.71-2.35-2.2-3.89-4.56-7.76-6.16-11.91-2.16-5.6-5.82-7.11-11.73-5.29Zm.09-12.7c4.56,0,8.71,.29,12.8-.08,4.18-.39,6.56-3.26,6.73-7.34,.16-3.94-2.23-6.95-5.95-7.5-4.45-.65-9.07-.15-13.58-.15v15.07Z"/>
  <path class="cls-1" d="M275.56,142.58c-5.65,0-11.3,.01-16.95,0-4.44-.01-6.77-2.11-6.74-6.7,.06-6.8-.14-13.6,.05-20.4,.36-12.63,9.96-21.41,23.28-21.53,13.45-.12,23.22,8.31,23.81,20.92,.33,7.12,.08,14.26,.07,21.39,0,4.35-2.36,6.31-6.57,6.32-5.65,0-11.3,0-16.95,0Z"/>
  <path class="cls-1" d="M628.59,282.97c-3.94-9.54-10.14-13.14-19.31-11.5-8.32,1.48-14.01,8.75-14.13,18.02-.12,9.51,4.99,16.43,13.57,18.39,9.04,2.07,15.47-1.6,20.02-11.54h13.79c-.52,13.84-13.13,24.72-28.61,24.9-18.11,.21-32.11-12.61-33.1-30.31-.88-15.91,11.74-30.77,27.65-32.53,17.84-1.98,31.64,7.75,34.35,24.55h-14.23Z"/>
  <path class="cls-1" d="M673.26,301.33h13.16c3.25,7.4,10.13,10.38,17.9,7.21,1.94-.79,4.28-3.27,4.41-5.12,.13-1.82-1.9-4.75-3.71-5.55-4.52-1.98-9.51-2.84-14.19-4.5-3.4-1.21-6.95-2.52-9.84-4.61-10.31-7.45-8.7-23,3.01-28.06,8.72-3.77,17.88-3.68,26.72-.26,7.37,2.85,10.67,8.55,10.29,16.64h-13.34c-2.87-5.97-8.97-8.43-15.18-5.67-1.54,.69-3.36,2.65-3.47,4.15-.12,1.52,1.34,3.91,2.77,4.64,2.9,1.48,6.24,2.1,9.39,3.08,4.1,1.28,8.35,2.24,12.26,3.95,6.74,2.93,10.14,8.39,10.07,15.75-.08,7.6-3.88,12.95-10.84,15.79-9.14,3.72-18.53,3.83-27.72,.35-7.88-2.99-11.86-9.29-11.7-17.79Z"/>
  <path class="cls-1" d="M481.84,272.24v47.46h-14.04v-47.25h-16.9v-12.57h47.3v12.36h-16.35Z"/>
  <path class="cls-1" d="M547.27,259.85v59.85h-13.6v-59.85h13.6Z"/>
</svg>