<?xml version="1.0" encoding="UTF-8"?>
<svg id="Layer_1" data-name="Layer 1" xmlns="http://www.w3.org/2000/svg" viewBox="0 0 982.24 373.36">
  <defs>
    <style>
      .cls-1 {
        fill: #fff;
      }
    </style>
  </defs>
  <path class="cls-1" d="M226.19,372.05v-70.91c1.85-.13,3.6-.36,5.35-.36,10.32-.04,20.64,.07,30.96-.11,1.74-.03,3.47-1.19,5.2-1.83-.94-1.42-1.58-3.23-2.86-4.22-32.39-25-64.86-49.89-97.24-74.9-2.7-2.08-4.65-2.22-7.41-.08-32.51,25.12-65.1,50.12-97.62,75.22-1.19,.92-1.85,2.51-2.75,3.79,1.54,.7,3.07,1.98,4.63,2.01,10.15,.19,20.31,.1,30.46,.1,1.96,0,3.93,0,6.26,0v71.37c-1.78,.1-3.39,.26-5.01,.26-18.64,.02-37.29,.05-55.93,0-22.33-.06-40.15-17.47-40.17-39.71C-.03,235.61-.02,138.55,.06,41.49,.08,19.41,17.61,1.76,39.63,1.73c82.73-.1,165.47-.1,248.2,0,22.32,.02,39.55,17.17,39.57,39.5,.1,97.23,.11,194.46,0,291.68-.03,22.49-17.52,39.43-40.16,39.47-19.64,.04-39.29,0-58.93-.03-.49,0-.98-.14-2.11-.31Z"/>
  <path class="cls-1" d="M776.21,269.31h-11.72c-.1-1.81-.27-3.42-.27-5.03-.02-25.25-.04-50.5,.05-75.75,0-2.13-1.43-5.75,2.78-5.49,3.5,.22,8.03-2.46,9.98,3.49,4.02,12.28,8.46,24.43,12.74,36.63,.58,1.66,1.25,3.3,2.44,6.4,1.6-4.39,2.74-7.37,3.78-10.38,3.74-10.81,7.65-21.56,11.11-32.46,1.95-6.16,6.64-3.54,10.29-3.65,3.68-.11,2.6,3.22,2.61,5.29,.07,25.25,.05,50.5,.03,75.75,0,1.62-.19,3.23-.31,5.12h-11.26v-50.95c-.4-.11-.8-.21-1.2-.32-.51,1.17-1.11,2.32-1.51,3.52-3.05,9.12-6,18.27-9.11,27.37-.73,2.15-.65,4.93-4.41,4.98-3.69,.05-3.82-2.53-4.57-4.77-3.11-9.27-6.14-18.57-9.22-27.85-.35-1.06-.83-2.09-2.23-3.06v51.15Z"/>
  <path class="cls-1" d="M695.84,126.32c2.66-7.54,4.87-13.74,7.03-19.96,2.51-7.2,5.24-14.34,7.34-21.66,1.18-4.13,3.21-5.73,7.38-5.13,1.78,.26,3.63,.04,5.81,.04v86.26c-2.25,.12-4.52,.13-6.76,.38-3.83,.44-4.81-1.34-4.77-4.92,.16-13.62,.07-27.25,.05-40.87,0-1.71-.17-3.43-.25-5.14-.42-.06-.85-.11-1.27-.17-.91,2.72-1.82,5.45-2.72,8.17-2.66,8.03-5.2,16.1-8.09,24.04-.52,1.44-2.6,3.41-3.73,3.28-1.56-.19-3.66-1.89-4.2-3.41-3.72-10.58-7.09-21.28-11.7-31.9-.09,1.66-.26,3.32-.26,4.97-.02,13.63-.19,27.25,.09,40.87,.09,4.47-1.71,5.26-5.57,5.13-3.75-.12-6.64,.14-6.59-5.29,.25-25.42,.06-50.84,.21-76.27,0-1.71,1.73-4.94,2.24-4.86,3.46,.56,8.19-2.98,10.19,2.89,4.5,13.17,9.14,26.3,13.73,39.45,.32,.92,.8,1.79,1.83,4.09Z"/>
  <path class="cls-1" d="M875.85,336.5v-50.12h11.42v86.02c-3.09,0-6.11,.36-8.96-.16-1.28-.24-2.72-2.07-3.26-3.49-5.33-14.12-10.48-28.3-15.69-42.47-.56-1.52-1.14-3.04-2.8-4.55-.11,1.65-.31,3.29-.31,4.94-.03,12.8-.01,25.59-.02,38.39q0,7.48-7.7,7.36c-1.16-.02-2.31-.14-3.85-.24v-86.23c2.06,0,4.02,.21,5.92-.04,3.94-.54,5.85,.95,7.17,4.82,4.74,13.97,9.89,27.8,14.91,41.68,.54,1.49,1.2,2.93,1.8,4.4,.46-.11,.91-.21,1.37-.32Z"/>
  <path class="cls-1" d="M919,233.62c0-14.94-.04-29.87,.05-44.81,.01-1.85,.42-5.14,1.14-5.29,3.01-.6,6.22-.38,9.33-.12,.46,.04,1.11,1.89,1.11,2.9,.04,27.09,.01,54.18-.02,81.26,0,.46-.26,.92-.42,1.46-.48,.16-.93,.42-1.39,.44q-9.03,.42-12.17-8.09c-4.57-12.45-9.1-24.92-13.68-37.37-.66-1.79-1.45-3.52-3.18-5.08v50.26h-11.67c-.12-1.89-.32-3.66-.32-5.43-.02-24.93-.05-49.86,.05-74.78,0-2.29-1.45-6,2.99-5.97,3.75,.03,8.06-1.89,10.04,4.18,4.57,14.02,9.86,27.82,14.87,41.7,.6,1.66,1.32,3.28,1.99,4.92,.43-.06,.86-.12,1.28-.18Z"/>
  <path class="cls-1" d="M454.04,321.8v50.34h-11.22v-86.16c3,0,6-.36,8.84,.16,1.3,.24,2.81,1.99,3.33,3.39,5.13,13.83,10.07,27.74,15.08,41.62,.67,1.86,1.43,3.68,3.17,5.46v-50.34h11.56v86.12c-2.9,0-5.92,.45-8.7-.19-1.41-.32-2.84-2.43-3.45-4.04-5.19-13.81-10.18-27.7-15.25-41.56-.61-1.68-1.34-3.31-2.02-4.96-.45,.05-.89,.1-1.34,.15Z"/>
  <path class="cls-1" d="M562.05,115.55v50.17h-11.34V80.29c.4-.23,.67-.51,.95-.53q9.86-.64,13.18,8.62c5.09,14.16,10.19,28.32,16.37,42.37v-50.88h11.58c.13,1.55,.37,3.14,.37,4.72,.02,25.42,.04,50.84-.03,76.26,0,2.04,1.13,5.39-2.64,5.2-3.38-.17-7.76,2.32-9.71-3.18-5.04-14.22-10.3-28.36-15.49-42.52-.61-1.67-1.34-3.3-2.01-4.96-.41,.05-.82,.1-1.24,.15Z"/>
  <path class="cls-1" d="M627.41,372.18h-11.83c0-6,0-11.77,0-17.54,0-5.65-.1-11.3,.04-16.95,.07-2.84-.67-4.36-3.88-4.19-3.8,.2-7.61,.05-12.25,.05,0,6.4,0,12.34,0,18.27,0,5.32-.19,10.65,.05,15.95,.17,3.79-1.33,5.09-4.97,4.71-2.11-.22-4.27-.04-6.75-.04v-85.82c11.16-2.18,11.66-1.79,11.66,8.79,0,9.09,0,18.17,0,27.51h15.99v-36.68h11.93v85.95Z"/>
  <path class="cls-1" d="M387.96,183.37c8.46,0,16.47-.56,24.36,.16,8.03,.73,14.45,7.55,14.67,15.9,.46,17.59,.53,35.21-.04,52.79-.32,9.8-7,15.28-18.31,17.01-1.47,.22-2.98,.3-4.47,.31-5.29,.04-10.59,.01-16.21,.01v-86.17Zm11.72,74.29c12.51,1.91,15.93-.87,15.96-12.58,.04-13.13,.06-26.26-.02-39.39-.06-10.34-5.37-14-15.95-10.87v62.85Z"/>
  <path class="cls-1" d="M502.77,286.17c7.92,0,15.59-.59,23.13,.15,9.32,.91,15.82,8.08,16.02,17.52,.35,16.61,.36,33.24,0,49.86-.22,10.2-6.63,17.17-16.99,18.33-7.19,.81-14.55,.16-22.15,.16v-86.01Zm11.34,42.64c0,9.46-.12,18.93,.12,28.38,.04,1.47,1.61,4.08,2.62,4.16,8.17,.59,13.51-1.06,13.57-10.65,.09-14.27,.1-28.55,0-42.82-.05-7.81-3.23-10.76-10.87-11.16-3.97-.21-5.68,.89-5.53,5.22,.29,8.95,.09,17.92,.09,26.89Z"/>
  <path class="cls-1" d="M650.92,123.23c0,7.64,.07,15.28-.02,22.92-.13,12.03-8.15,20.5-19.57,20.8-12.23,.33-21.41-7.57-21.73-19.7-.42-16.1-.42-32.23,0-48.33,.32-12.08,9.36-20.12,21.13-19.85,11.99,.28,20.02,8.48,20.17,20.73,.09,7.8,.02,15.61,.02,23.42Zm-11.68,.14c0-7.47,.08-14.95-.02-22.42-.09-6.56-3-9.82-8.59-9.97-5.71-.15-9.03,2.84-9.13,9.34-.23,15.11-.22,30.23-.01,45.33,.09,6.33,3.67,9.78,8.99,9.65,5.36-.13,8.64-3.75,8.74-10.01,.11-7.31,.03-14.61,.03-21.92Z"/>
  <path class="cls-1" d="M644.34,329.34c0-7.81-.08-15.62,.02-23.43,.14-12,8.58-20.61,20.26-20.83,11.92-.22,20.96,8.32,21.13,20.49,.22,15.78,.21,31.57,0,47.36-.16,11.77-9.23,20.43-20.79,20.38-11.51-.04-20.44-8.88-20.6-20.54-.11-7.81-.02-15.62-.02-23.43Zm11.72-.24s.01,0,.02,0c0,7.81-.21,15.63,.07,23.42,.2,5.58,3.78,8.84,8.81,8.88,4.87,.04,8.69-2.94,8.79-8.26,.31-15.94,.37-31.89-.11-47.82-.08-2.62-2.79-6.21-5.25-7.5-5.91-3.09-11.97,1.17-12.26,8.35-.31,7.63-.07,15.28-.07,22.93Z"/>
  <path class="cls-1" d="M533.97,123.24c0,7.81,.11,15.61-.02,23.42-.2,11.9-8.8,20.28-20.65,20.3-11.81,.02-20.63-8.39-20.75-20.21-.16-15.78-.16-31.56,0-47.34,.13-11.94,8.82-20.32,20.65-20.34,11.89-.02,20.49,8.28,20.73,20.25,.16,7.97,.03,15.94,.03,23.92Zm-11.76-.08s.01,0,.02,0c0-7.64,.19-15.29-.06-22.92-.21-6.18-3.36-9.22-8.81-9.27-5.51-.05-8.91,2.93-9.01,9.04-.24,15.28-.31,30.57,.12,45.83,.08,2.81,2.16,6.54,4.49,8.12,5.76,3.91,12.81-.4,13.17-7.89,.36-7.62,.08-15.28,.08-22.92Z"/>
  <path class="cls-1" d="M692.06,226.35c0,8.63,.41,17.28-.1,25.88-.65,10.75-9.53,18-20.77,17.75-11.18-.25-19.76-8.06-19.92-18.77-.24-16.6-.22-33.2-.02-49.8,.13-10.73,8.36-18.78,18.97-19.18,12.05-.46,20.66,6.54,21.83,17.74,.12,1.16,.28,2.31,.28,3.47,.03,7.64,.01,15.27,.01,22.91-.09,0-.19,0-.28,0Zm-11.68,.12c0-7.64,.05-15.28-.02-22.92-.06-6.25-3.31-9.77-8.8-9.7-5.31,.07-8.64,3.52-8.68,9.41-.08,15.28-.09,30.56,0,45.83,.04,5.92,3.35,9.12,8.88,9.07,5.54-.05,8.52-3.18,8.59-9.28,.08-7.47,.02-14.95,.02-22.42Z"/>
  <path class="cls-1" d="M933.19,335.44h-9.6v-10.2h22.25c-.55,11.52-.21,23.01-1.91,34.19-1.36,8.95-12.45,15.04-21.63,13.78-10.64-1.47-18.14-9.04-18.25-19.08-.19-16.6-.2-33.21,0-49.81,.13-10.55,8.36-18.55,19.14-19.22,10.97-.68,20.05,6.52,21.57,17.11,.05,.33,.15,.66,.13,.99-.15,2.22,.09,6.2-.56,6.35-3.13,.73-6.52,.62-9.77,.31-.57-.05-1.21-2.41-1.33-3.74-.54-5.96-3.68-9.32-8.88-9.23-5.18,.09-8.66,3.69-8.69,9.5-.09,15.28-.1,30.55,.01,45.83,.04,5.73,3.7,9.27,8.92,9.2,5.32-.07,8.46-3.46,8.57-9.44,.09-5.27,.02-10.55,.02-16.52Z"/>
  <path class="cls-1" d="M702.45,286.37q11.8-1.31,11.8,9.36c0,17.43-.02,34.87,.03,52.3,0,2.48,.13,5,.61,7.42,.78,4.04,3.78,5.88,7.59,5.86,4.08-.01,6.98-2.15,7.69-6.38,.33-1.95,.23-3.97,.24-5.96,.01-18.93,0-37.86,0-56.79v-5.82h11.76c.14,1.41,.38,2.7,.38,3.99,.02,20.26,.09,40.51-.02,60.77-.06,10.85-5.26,18.43-14.09,21.16-12.16,3.76-25.32-4.4-25.78-17.5-.78-22.69-.22-45.42-.22-68.42Z"/>
  <path class="cls-1" d="M757.33,349h11.32c.3,1.56,.56,2.84,.8,4.12,1.1,5.98,4.22,8.63,9.81,8.32,5.36-.3,8.1-3.04,8.65-9.01,.25-2.64,.11-5.31,.07-7.97-.09-4.84-2.37-8.06-6.99-9.8-4.19-1.58-8.39-3.21-12.37-5.26-9.96-5.12-13.66-19.52-8.44-32.05,4.17-10.01,14.75-14.65,25.66-11.24,9.97,3.11,14.81,11.48,13.57,23.93h-10.8c-.46-2.24-.84-4.49-1.41-6.7-1.1-4.28-4.09-6.47-8.36-6.43-4.26,.03-7.06,2.24-8.3,6.52-2.6,9.01-.21,14.22,8.4,17.71,1.38,.56,2.75,1.18,4.15,1.7,6.64,2.46,13.6,4.95,15.35,12.78,2.27,10.18,2.88,20.56-3,29.91-4.27,6.8-14.08,9.36-23.34,6.78-8.27-2.3-14.07-9.62-14.76-18.7-.1-1.32-.01-2.65-.01-4.62Z"/>
  <path class="cls-1" d="M430.38,371.8c-.65,.34-.79,.47-.94,.49-10.1,.75-9.96,.72-12.24-9.26-2.54-11.14,.27-9.32-11.92-9.46-7.78-.09-7.76-.01-9.12,7.41-.54,2.93-1.17,5.85-1.78,8.77-.16,.78-.39,1.55-.63,2.46h-11.42c1.16-5.58,2.19-10.83,3.36-16.06,4.93-21.99,9.99-43.96,14.77-65.98,.78-3.6,2.44-4.44,5.78-4.3,3.19,.13,5.32,.09,6.23,4.31,5.58,25.92,11.58,51.75,17.41,77.61,.29,1.28,.33,2.61,.49,4.01Zm-23.18-59.81c-.49-.04-.98-.08-1.47-.12-1.94,10.05-3.88,20.09-5.91,30.57h13.19c-2-10.47-3.9-20.46-5.81-30.45Z"/>
  <path class="cls-1" d="M421,117.28v10.81c-5.52,0-10.94,.24-16.34-.08-4.24-.25-5.54,1.39-5.35,5.44,.26,5.47,.21,10.96,.02,16.44-.12,3.38,.94,4.74,4.52,4.6,6.47-.25,12.96-.07,20.36-.07,0,3.26,.18,6.33-.12,9.36-.09,.86-1.57,2.26-2.43,2.28-11.11,.15-22.22,.1-33.69,.1V79.95h35.41c.3,.28,.51,.38,.53,.51,1.65,10.02,1.32,10.42-8.64,10.42-3.33,0-6.68,.25-9.97-.06-4.42-.42-6.36,.92-6.02,5.7,.39,5.45,.2,10.96,.06,16.43-.08,3.2,1.16,4.47,4.39,4.38,5.6-.16,11.21-.04,17.25-.04Z"/>
  <path class="cls-1" d="M720.98,235.7v33.45h-11.48c-.1-1.66-.28-3.27-.28-4.87-.02-25.24,.12-50.48-.13-75.72-.05-4.78,1.55-6.04,5.96-5.74,5.14,.34,10.32-.02,15.46,.29,9.69,.58,16.21,5.68,17.6,15.15,1.02,6.96,1.09,14.31,.1,21.27-1.34,9.46-7.91,14.63-17.43,15.48-3.11,.28-6.24,.45-9.8,.7Zm-.1-26.89c0,3.98-.19,7.98,.11,11.93,.09,1.2,1.38,3.09,2.41,3.31,9.38,1.96,14.41-2.1,14.72-11.59,.07-1.99,.04-3.98,.01-5.97-.17-10.24-3.65-13.33-13.81-12.7-2.58,.16-3.55,1.06-3.48,3.58,.11,3.81,.03,7.63,.03,11.44Z"/>
  <path class="cls-1" d="M586.88,193.78h-23.8v26.41h20.28c.33,.99,.58,1.44,.62,1.9q.8,9.07-8.36,9.07-13.09,0-13.09,12.99,0,13.53,13.55,13.53c.67,0,1.33,0,2,0,10.09,0,10.8,.96,8.42,11.56h-35.55c-.13-1.53-.35-2.97-.35-4.4-.02-25.58,.08-51.16-.11-76.74-.03-4.27,1.41-5.41,5.44-5.29,8.31,.24,16.64,.06,24.95,.08q6.54,.01,6.37,6.74c-.03,1.15-.2,2.29-.37,4.16Z"/>
  <path class="cls-1" d="M481.68,269.37h-36.01c-.16-1.78-.44-3.52-.44-5.25-.03-25.08,.11-50.17-.13-75.25-.05-4.92,1.55-6.28,6.27-6.08,8.14,.34,16.32,.41,24.45-.02,5.2-.28,6.98,1.54,6.16,6.47-.21,1.28-.16,2.6-.26,4.46h-24.26v26.51c5.53,0,11.13,.25,16.69-.08,4.21-.25,4.57,1.98,4.49,5.17-.08,3.08,.32,6.11-4.4,5.91-5.45-.23-10.92-.05-16.79-.05v26.53c5.77,0,11.54,0,17.3,0q7.28,0,7.19,7.29c-.02,1.3-.15,2.6-.27,4.4Z"/>
  <path class="cls-1" d="M849.89,257.68c6.09,0,11.88,0,17.66,0q7.03,0,6.95,7.08c-.02,1.31-.13,2.62-.25,4.78-4.69,0-9.26,0-13.83,0-6.15,0-12.31-.17-18.45,.07-3.36,.13-4.3-1.17-4.29-4.32,.07-25.9,.1-51.79-.02-77.69-.02-3.79,1.47-4.84,5.02-4.78,8.81,.17,17.63,.28,26.43-.04,4.54-.17,6.04,1.49,5.42,5.75-.23,1.6-.19,3.23-.31,5.37h-24.33v26.3c5.87,0,11.49,.23,17.07-.08,4.02-.22,4.3,1.98,4.13,4.93-.16,2.84,.88,6.29-4.08,6.13-5.61-.19-11.23-.04-17.13-.04v26.54Z"/>
  <path class="cls-1" d="M491.43,182.95c3.69,0,7.02-.4,10.16,.2,1.27,.24,2.79,2.55,3.07,4.12,2.27,12.89,4.27,25.83,6.37,38.76,.86,5.3,1.79,10.59,2.69,15.88l1.29-.03c1.47-8.68,2.95-17.35,4.41-26.03,1.57-9.32,3.36-18.6,4.56-27.96,.52-4.06,2.07-5.5,6-5.05,2.1,.24,4.25,.04,7.29,.04-1.28,6.63-2.37,12.55-3.58,18.45-4.22,20.61-8.5,41.21-12.72,61.83-1.31,6.38-3.3,7.8-9.83,6.25-1.05-.25-2.34-1.77-2.57-2.91-5.73-27.56-11.34-55.14-17.14-83.54Z"/>
  <path class="cls-1" d="M810.02,104.05c-2.55,0-4.86,.03-7.17-.01-1.15-.02-2.29-.16-3.86-.28-.27-2.03-.43-3.98-.79-5.9-.87-4.57-3.86-6.95-8.33-6.9-4.86,.05-7.06,3-7.11,7.27-.19,16.61-.2,33.22-.05,49.83,.04,4.41,2.69,7.06,7.29,7.22,4.39,.15,7.54-2.56,8.26-7,.29-1.78,.47-3.58,.74-5.67h10.9c2.24,11.35-4.98,22.4-15.58,24.19-12.22,2.07-21.77-4.46-23.48-16.43-.63-4.41-.43-8.94-.44-13.42-.05-12.3-.09-24.6,0-36.89,.11-13.44,8.9-21.84,21.72-20.92,12.29,.88,19.86,11.05,17.91,24.91Z"/>
  <path class="cls-1" d="M476.67,142.74c2.83,12.3-5.61,22.06-15.1,23.99-11.4,2.32-21.28-3.84-23.62-14.56-.38-1.76-.41-3.62-.41-5.44-.03-15.78,0-31.57-.03-47.35-.02-8.19,3.04-14.77,10.63-18.22,7.37-3.35,15.02-3.36,21.69,1.86,6.65,5.2,8.3,12.39,6.99,20.75h-10.96c-.14-1.7-.11-3.49-.47-5.19-.9-4.2-2.81-7.4-7.78-7.64-5.05-.24-7.26,2.55-7.97,7.03-.31,1.96-.44,3.96-.45,5.94-.03,13.96-.12,27.91,.06,41.87,.08,6.33,3.02,9.53,7.88,9.52,5.19-.01,8.08-3.33,8.4-9.63,.04-.83,.1-1.65,.18-2.93h10.96Z"/>
  <path class="cls-1" d="M967.74,269.3h-11.73c0-2,0-3.76,0-5.53,0-21.43-.15-42.87,.11-64.3,.06-4.75-1.5-6.19-5.94-5.68-2.45,.28-4.97,.05-8.48,.05,0-2.96-.21-5.69,.12-8.36,.11-.92,1.56-2.38,2.41-2.39,12.58-.15,25.17-.11,38.01-.11v10.86c-3,0-6.1,.23-9.15-.06-4.12-.39-5.46,1.11-5.42,5.29,.18,21.27,.08,42.53,.08,63.8,0,1.97,0,3.94,0,6.43Z"/>
  <path class="cls-1" d="M637.9,269.31h-36.21c-.13-1.59-.35-3.03-.35-4.46-.02-25.56,.11-51.12-.13-76.67-.05-4.75,1.83-5.38,5.82-5.41,4.22-.03,6.15,.69,6.08,5.67-.3,21.24,0,42.49-.23,63.73-.05,4.49,1.44,5.84,5.7,5.58,4.64-.28,9.33,.22,13.95-.14,4.53-.35,6.01,1.41,5.42,5.69-.25,1.78-.04,3.63-.04,6.01Z"/>
  <path class="cls-1" d="M501.41,31.58V2.47c7.01-2.29,8.15-1.55,8.16,5.04,.03,11.29,.12,22.59-.1,33.88-.04,1.89-1.22,5.09-2.39,5.35-2.98,.67-6.35,1.25-8.51-2.79-4.68-8.78-9.87-17.3-14.86-25.91-.49-.84-1.06-1.63-2.45-3.75V46.72h-8.76c0-3.11,0-6.18,0-9.26,0-10.13-.11-20.27,.1-30.39,.04-1.89,1.18-5.18,2.21-5.35,3.16-.52,6.89-1.67,9.18,2.55,4.35,8.02,9,15.88,13.55,23.8,.78,1.36,1.66,2.67,2.49,4l1.38-.47Z"/>
  <path class="cls-1" d="M690.44,24.2c1.33,3.89,2.87,7.23,3.58,10.74,.74,3.67,.69,7.5,.99,11.36-8.07,2.48-9.63,1.4-9.72-7.2-.1-8.77-8.96-14.19-16.78-10.09-.92,.48-1.46,2.42-1.51,3.71-.18,4.47-.07,8.95-.07,13.88h-8.66c0-4.41,0-8.83,0-13.25,0-9.31,.1-18.61-.05-27.91-.05-3,.94-4.19,3.98-4.12,6.49,.15,12.98,.12,19.47,.12,6.25,0,11.02,2.28,13.2,8.5,2.03,5.79,.41,10.21-4.42,14.25Zm-15.42-2.53c1.82,0,3.65,.14,5.46-.03,3.3-.32,5.62-1.82,5.88-5.49,.28-3.79-.99-6.73-5.03-7.22-3.92-.47-7.91-.42-11.87-.32-.83,.02-2.09,1.07-2.36,1.91-2.5,7.52,.17,11.22,7.92,11.15Z"/>
  <path class="cls-1" d="M741.76,79.89c14.26-.68,11.45-1.11,11.53,9.67,.18,22.77,.06,45.54,.05,68.31q0,8.81-8.83,8.31c-.81-.05-1.61-.27-2.75-.46V79.89Z"/>
  <path class="cls-1" d="M815.47,286.24h10.97v85.81h-10.97v-85.81Z"/>
  <path class="cls-1" d="M422.7,13.98c-4.08,.57-7.62,1.26-10.29-3.66-2.21-4.06-11.03-4.13-14.47-.93-3.09,2.88-2.21,6.98,2.17,8.49,4.37,1.5,8.95,2.41,13.42,3.66,8.18,2.29,10.93,5.54,10.78,12.61-.14,6.65-4.24,11.35-11.38,13.15-6.53,1.64-12.89,1.22-18.84-2.01-4.34-2.36-6.84-5.98-6.51-11.41,4.04-.46,7.38-1.58,9.74,3.33,2.26,4.69,13.47,4.99,16.98,1.07,2.63-2.94,1.75-6.87-2.32-8.33-4.34-1.56-8.94-2.41-13.4-3.65-7.78-2.17-11.17-6.2-10.85-12.74,.32-6.59,4.54-11.68,11.71-12.81,4.14-.65,8.63-.58,12.72,.31,6.51,1.41,9.68,5.8,10.55,12.94Z"/>
  <path class="cls-1" d="M703.4,1.71h9.37c0,10.27-.16,20.19,.05,30.11,.16,7.39,7.41,11.29,13.88,7.71,3.99-2.2,4.21-6.19,4.3-9.99,.17-7.64,.35-15.3-.04-22.93-.25-4.81,1.97-5.99,5.87-5.1,1.23,.28,2.96,2.14,2.98,3.3,.18,9.8,.26,19.62-.12,29.41-.28,7.14-4.42,11.53-11.53,13.06-2.57,.56-5.27,.9-7.89,.81-10.53-.36-16.22-5.41-16.76-15.83-.51-9.93-.11-19.9-.11-30.56Z"/>
  <path class="cls-1" d="M468.97,46.48c-8.14,1.53-8.13,1.51-11.04-5.91-.44-1.13-1.36-2.91-2.13-2.95-5.13-.26-10.28-.26-15.41,.02-.77,.04-1.66,1.87-2.13,3.03-2.91,7.15-2.87,7.17-11.35,5.77,3.2-8.93,6.36-17.77,9.51-26.61,1.83-5.15,3.36-10.43,5.64-15.37,.7-1.51,3.36-2.8,5.22-2.94,2.45-.18,5.81-1.62,7.19,2.33,4.86,13.9,9.77,27.78,14.64,41.67,.09,.27-.08,.64-.14,.96Zm-14.58-16.65c-2.02-6.31-3.78-11.79-5.54-17.28-.45,.07-.9,.14-1.35,.2-1.82,5.52-3.65,11.03-5.64,17.07h12.53Z"/>
  <path class="cls-1" d="M588.78,46.58q-8.8,1.03-11.75-6.3c-.19-.46-.35-1.29-.6-1.32-5.09-.6-10.18-1.38-15.28-1.46-1.3-.02-3.22,1.99-3.85,3.49-2.86,6.89-2.73,6.95-11,5.4,.44-1.57,.77-3.14,1.3-4.63,4.24-11.87,8.7-23.66,12.68-35.62,1.31-3.94,3.38-4.97,7.25-4.91,3.61,.05,5.59,.84,6.86,4.64,4.49,13.5,9.44,26.84,14.38,40.7Zm-15.3-16.8c-1.98-6.16-3.74-11.63-5.49-17.1-.45,.02-.91,.03-1.36,.05-1.81,5.5-3.62,11-5.61,17.05h12.46Z"/>
  <path class="cls-1" d="M650.32,15.86c-4.21,.51-7.81,1.05-10.58-4.17-2.81-5.29-11.94-4.89-16.11-.14-4.94,5.63-5.24,19.03-.56,24.81,4.64,5.72,13.88,5.98,16.9-.27,2.66-5.51,6.37-4.42,10.56-4.08-1.11,9.29-8.09,15.72-17.34,16.17-11.13,.54-19.84-5.37-21.61-15.65-.9-5.26-1.01-10.97,0-16.2,2.86-14.84,21.19-21.41,32.97-11.86,3.08,2.5,4.88,6.58,7.27,9.94l-1.51,1.45Z"/>
  <path class="cls-1" d="M770.78,8.63c-5.75,0-11.49,0-17.24,0-2.37,0-4.67,.22-4.76-3.38-.09-3.7,2.03-3.93,4.79-3.92,9.78,.05,19.57,.02,29.44,.02,1.31,4.16,.75,7.26-1.89,10.4-6.3,7.5-12.3,15.25-18.4,22.91-.98,1.24-1.84,2.57-3.37,4.73h23.98v7.39h-34.68c-.91-4.32-.62-7.91,2.45-11.5,6.97-8.18,13.53-16.72,20.25-25.11-.19-.51-.39-1.03-.58-1.54Z"/>
  <path class="cls-1" d="M535.98,46.53q-8.95,1.19-8.96-6.71c0-8.79-.13-17.58,.05-26.37,.07-3.66-1.22-5.21-4.91-4.85-1.81,.17-3.81,.46-5.43-.13-1.43-.52-3.36-2.15-3.39-3.33-.03-1.23,1.92-3.57,3.06-3.6,10.93-.28,21.87-.17,33.18-.17v6.84c-2.18,.13-4.57,.36-6.97,.39-6.61,.08-6.62,.05-6.62,6.43,0,10.42,0,20.84,0,31.49Z"/>
</svg>