<?xml version="1.0" encoding="UTF-8"?>
<svg id="Layer_2" data-name="Layer 2" xmlns="http://www.w3.org/2000/svg" viewBox="0 0 1005.72 103.32">
  <defs>
    <style>
      .cls-1 {
        fill: #fff;
      }
    </style>
  </defs>
  <g id="Layer_1-2" data-name="Layer 1">
    <path class="cls-1" d="M540.97,2.07h14.79c4.9,26.02,9.8,52.09,14.71,78.17,.26,.02,.51,.03,.77,.05,4.81-25.45,9.62-50.91,14.5-76.76,4.55,0,8.71-.3,12.79,.18,1.24,.14,2.94,2.28,3.23,3.73,4.38,22.59,8.57,45.21,12.8,67.83,.32,1.73,.66,3.45,1.97,5.14,2.05-11.16,4.08-22.32,6.17-33.47,2.59-13.82,5.3-27.62,7.82-41.46,.46-2.52,1.27-3.82,4.11-3.65,3.62,.22,7.27,.05,11.55,.05-1.55,6.95-2.96,13.37-4.41,19.78-5.64,25.03-11.36,50.05-16.84,75.11-.77,3.52-1.9,4.94-5.76,4.88-10.79-.17-11.02,.07-13.14-10.47-4.06-20.1-7.82-40.27-11.72-60.4-.15-.76-.44-1.5-.4-1.37-4.6,21.8-9.45,44.21-13.96,66.69-.84,4.2-2.27,5.71-6.71,5.56-10.09-.33-10.13-.07-12.3-9.75-6.49-28.91-12.95-57.83-19.41-86.75-.21-.94-.34-1.9-.54-3.09Z"/>
    <path class="cls-1" d="M984.08,63.43c7.32,12.86,14.19,24.93,21.63,38-5.54,0-10.23,.23-14.88-.16-1.15-.1-2.36-2.09-3.13-3.44-4.99-8.79-10.23-17.47-14.63-26.55-2.71-5.6-6.39-6.89-12.48-5.17v35.12h-14.14V2.92c11.61,0,23.1-.96,34.36,.28,10.69,1.18,17.81,8.56,19.68,19.12,1.24,7,1.29,14.53,.16,21.55-1.46,9.08-7.19,15.83-16.57,19.56Zm-23.49-30.04h-.03c0,2.64-.06,5.28,0,7.92,.31,12.11-2.36,10.29,10.93,10.39,5.48,.04,10.4-1.59,12.98-6.69,3.8-7.49,3.95-15.39,.1-22.87-3.43-6.66-10.07-6.68-16.51-6.58-1.33,.02-2.66,.09-3.98,0-2.53-.16-3.6,.9-3.54,3.47,.11,4.78,.03,9.57,.03,14.36Z"/>
    <path class="cls-1" d="M708.83,101.29h-14.91c-1.57-6.41-3.13-12.79-4.84-19.76-8.08,0-16.2-.12-24.3,.15-1.01,.03-2.48,1.94-2.84,3.23-1.26,4.45-1.93,9.08-3.27,13.5-.39,1.27-2.2,2.84-3.5,2.98-3.75,.4-7.58,.14-12.22,.14,8.42-33.41,16.68-66.21,25.03-99.32h15.82c8.25,32.65,16.55,65.49,25.03,99.07Zm-32.9-79.27c-3.31,15.47-6.55,30.55-9.82,45.84h19.66c-3.31-15.44-6.54-30.44-9.84-45.84Z"/>
    <path class="cls-1" d="M919.03,2.19c.27,.33,.43,.45,.45,.58q1.63,12.63-10.94,12.63c-6.49,0-12.97,.01-19.46-.02-2.17-.01-3.95,.13-3.91,3.07,.09,7.28,0,14.56,.03,21.85,0,1.14,.18,2.28,.32,3.96h31.58c0,3.94,.29,7.39-.18,10.73-.14,1.02-2.35,2.46-3.66,2.5-7.48,.24-14.96,.1-22.45,.13-1.63,0-3.25,.13-5.24,.22v30.23h35.28v13.06h-49.89V2.19h48.07Z"/>
    <path class="cls-1" d="M781.91,1.88c-7.16,15.36-13.78,29.79-20.67,44.1-1.37,2.86-1.33,5.07,0,7.87,6.47,13.62,12.73,27.34,19.04,41.04,.88,1.91,1.67,3.86,2.86,6.62-5.25,0-9.69,.27-14.06-.17-1.24-.13-2.68-2.15-3.33-3.61-4.11-9.23-8.03-18.55-12.03-27.83-.56-1.29-1.23-2.53-2.32-4.75-4.12,9.54-7.84,18.14-11.56,26.74q-4.21,9.75-14.93,9.66c-1.32-.01-2.63-.11-4.83-.21,.86-2.13,1.48-3.88,2.26-5.55,6.52-14.15,13.16-28.24,19.48-42.47,.86-1.93,.85-4.9-.01-6.84-5.82-13-11.99-25.85-18.02-38.76-.76-1.63-1.43-3.29-2.51-5.79,5.12,0,9.67-.21,14.18,.15,1.09,.09,2.38,1.94,2.97,3.26,3.66,8.17,7.13,16.42,10.69,24.63,.63,1.45,1.39,2.85,2.59,5.26,3.97-9.23,7.57-17.51,11.09-25.81,3.18-7.51,3.14-7.52,11.32-7.52,2.3,0,4.6,0,7.78,0Z"/>
    <path class="cls-1" d="M804.1,2.03h13.99V88.01c8.37,0,16.12-.1,23.88,.02,11.01,.18,9.33-2.05,9.51,9.83,.01,.97-.16,1.93-.27,3.29h-47.11V2.03Z"/>
    <path class="cls-1" d="M232,53.93v47.36h-6.16V2.16h6V47.33h38.43V2.18h6.42V101.33h-6.21c0-4.16,0-8.23,0-12.3,0-10.27,.1-20.55-.12-30.82-.03-1.44-1.63-4.07-2.55-4.09-11.77-.28-23.54-.18-35.81-.18Z"/>
    <path class="cls-1" d="M191.99,55.2h-20.55c-.17-1.92-.3-3.48-.47-5.42h27.3c-.64,12.18,1.84,24.47-2,36.36-3.81,11.79-15.16,18.04-28.59,16.53-12.53-1.41-21.9-9.94-22.42-22.73-.76-18.84-.94-37.77,.05-56.58,.82-15.61,12.87-24.06,29.31-22.53,13.47,1.25,22.94,12.49,22.16,26.91-1.65,.11-3.36,.22-5.47,.36-.46-2.38-.81-4.46-1.28-6.51-2.19-9.56-8.94-14.81-19.06-14.87-10.14-.06-16.93,5.07-19,14.77-.75,3.53-.99,7.22-1.02,10.83-.12,13.09-.08,26.18-.03,39.26,.01,2.81,.05,5.66,.55,8.41,1.97,10.73,9.27,16.93,19.6,16.9,11.17-.03,18.47-6.17,20.37-17.21,.36-2.11,.5-4.28,.52-6.43,.07-5.76,.02-11.53,.02-18.06Z"/>
    <path class="cls-1" d="M120.75,2.18V7.75h-38.3V47.84h35.52v6h-35.6v41.72h39.31c.17,2.09,.3,3.64,.45,5.62h-46.3V2.18h44.92Z"/>
    <path class="cls-1" d="M50.27,25.42h-6.08c-.32-1.3-.67-2.56-.94-3.83-1.9-8.78-6.92-13.9-14.58-14.84-8.68-1.06-16,2.13-19.3,8.41-3.75,7.15-2.51,15.55,3.86,21.87,3.26,3.24,7.22,5.79,10.96,8.52,6.42,4.69,13.49,8.67,19.25,14.05,9.93,9.28,10.54,24.64,2.33,34.78-7.69,9.5-23.52,11.88-34.53,4.92C3.47,94.39,.24,86.95,0,77.96c4.12-1.52,5.94-.6,6.77,3.68,1.73,8.96,7.24,14,15.55,15.19,8.85,1.26,16.34-2.02,20.12-8.81,4.07-7.33,3.13-16.55-2.97-23.02-3.15-3.34-6.98-6.09-10.74-8.78-5.39-3.87-11.13-7.27-16.47-11.2-5.19-3.82-9.24-8.7-10.63-15.16C-.44,20.22,1.42,11.53,9.65,5.38,18.26-1.07,27.9-1.61,37.4,3.16c8.86,4.44,12.06,12.52,12.87,22.26Z"/>
    <path class="cls-1" d="M309.04,2.06h44.63V7.83h-38.25V47.52c1.72,.12,3.46,.34,5.2,.35,8.65,.03,17.3-.02,25.95,.01,2.2,0,4.93-.75,4.82,3.09-.11,3.86-2.95,2.87-5.05,2.89-8.32,.08-16.63,.01-24.95,.04-1.95,0-3.9,.17-6.29,.29,0,13.15,.01,25.86,0,38.56,0,3.42,2.48,2.91,4.57,2.92,9.98,.03,19.96,0,29.94,.01,1.63,0,3.26,.14,5.16,.23v5.33h-45.71V2.06Z"/>
    <path class="cls-1" d="M372.93,7.99V2.15h50.75V7.98c-5.57,0-11.02,.28-16.43-.09-4.56-.31-5.97,1.13-5.93,5.77,.21,27.3,.1,54.6,.1,81.9,0,1.79,0,3.58,0,5.67h-6.41c0-2.27,0-4.38,0-6.48,0-26.97-.13-53.94,.11-80.91,.04-4.94-1.54-6.28-6.22-5.94-5.1,.37-10.24,.08-15.96,.08Z"/>
    <path class="cls-1" d="M467.31,101.2h-6.39c0-2.11,0-3.9,0-5.68,0-27.3-.12-54.6,.1-81.9,.04-4.73-1.48-6.01-5.95-5.71-5.25,.34-10.55,.08-16.15,.08-.12-2.19-.21-3.78-.31-5.74h51.08V7.99c-5.66,0-11.27,.27-16.83-.09-4.36-.28-5.7,1.08-5.67,5.51,.19,27.3,.1,54.6,.11,81.9,0,1.94,0,3.88,0,5.89Z"/>
    <path class="cls-1" d="M513.31,2.16h6.04V101.24c-1.93,.09-3.8,.17-6.04,.27V2.16Z"/>
  </g>
</svg>