<?xml version="1.0" encoding="utf-8"?>
<!-- Generator: Adobe Illustrator 26.5.0, SVG Export Plug-In . SVG Version: 6.00 Build 0)  -->
<svg version="1.1" id="Layer_1" xmlns="http://www.w3.org/2000/svg" xmlns:xlink="http://www.w3.org/1999/xlink" x="0px" y="0px"
	 viewBox="0 0 841.9 595.3" style="enable-background:new 0 0 841.9 595.3;" xml:space="preserve">
<style type="text/css">
	.st0{fill:#FFFFFF;}
</style>
<g>
	<path class="st0" d="M133,311.8c-0.1,0-0.2,0-0.2,0c-1.3,0.2-2.2,0.6-2.3,2.3c-0.1,1.3-1.1,2.2-2.3,2.6c-1.8,0.6-3.6,1.1-5.4,1.6
		c-3.3,0.8-6.5,1.8-9.9,2.3c-3.9,0.6-7.8,0.8-11.7-0.3c-3.6-1-7.3-1.2-11-1.3c-1.4,0-2.7-0.1-4.1-0.4c-3-0.7-4.4-2.3-4.7-5.4
		c0-0.5-0.2-0.7-0.6-0.7c-0.2,0-0.5-0.1-0.7-0.2c-0.6-0.2-1.1-0.2-1.6,0.5c-0.9,1.2-2.3,1.3-3.8,0.4c-1.9-1.1-3.9-2.2-5.8-3.5
		c-4-2.7-8-5.4-11.2-9.1c-0.9-1.1-1.6-2.4-2.5-3.5c-0.5-0.8-1-1.6-1.6-2.3c-5-5.9-8.6-12.5-11.4-19.7c-2.1-5.4-3-11-3.3-16.7
		c-0.2-3-0.4-5.9-0.5-8.9c-0.1-4.1,0.3-8.2,2.1-12c0.9-1.8,1.5-3.6,1.9-5.6c0.7-3.7,2-7.2,3.8-10.4c1.9-3.4,4.1-6.7,6.3-10
		c0.9-1.3,2.1-2.2,3.3-3.3c2.7-2.5,5.3-5,8-7.4c2.6-2.4,5.7-4.1,8.8-5.8c4.4-2.4,8.8-4.6,13.5-6.1c1.2-0.4,2.5-0.4,3.8-0.6
		c2.5-0.5,5-1,7.4-1.6c4.8-1.2,9.6-1.2,14.5-0.1c5.7,1.3,11.3,2.6,17,3.9c2.7,0.6,5.2,1.8,7.3,3.5c3.2,2.5,6.8,4.5,10.3,6.5
		c3.4,2,6.6,4.2,8.9,7.4c1,1.3,1.8,2.8,2.5,4.4c0.6,1.2,1.1,2.5,2.2,3.3c2.9,2.3,4.7,5.3,5.9,8.7c2,5.4,4,10.8,5.9,16.3
		c0.5,1.6,0.7,3.3,0.8,4.9c0.1,4.8,0.1,9.7,0,14.5c0,1.5-0.3,3-0.8,4.4c-1.6,4.8-3,9.5-3.8,14.5c-0.6,3.8-2.6,7.1-5.1,10
		c-1.6,1.9-3,3.8-4.2,5.9c-2.1,3.8-4.9,6.9-8.4,9.4c-2.3,1.6-4.6,3.3-6.9,5c-1.5,1.1-2.9,2.2-4.3,3.4c-0.4,0.3-0.7,0.6-1,0.8
		c-2,1.5-3.5,1.2-4.9-0.9C133.2,312,133.1,311.9,133,311.8z M106.2,195.7c0.5,1,1,1.8,1.3,2.6c0.4,1.3,1.2,1.8,2.6,2
		c5.8,0.9,11.4,2.7,16.8,5c2.7,1.1,5.3,2.5,7.5,4.5c1,0.9,2.2,1.4,3.4,2.1c1,0.6,2,1.1,2.9,1.7c1.9,1.3,3.4,3.1,4.8,5
		c2.1,2.9,4,5.9,6.1,8.8c2,2.8,3.5,5.8,4.1,9.1c0.7,3.8,1.4,7.6,1.8,11.4c0.5,4.5,0.3,9.1-0.3,13.6c-0.8,5.7-2.6,11-5.3,16.1
		c-2.2,4.3-4.4,8.5-7.4,12.3c-0.9,1.1-2,2-3,2.8c-0.8,0.7-1.8,1.1-2.6,1.8c-1.5,1.3-2.9,2.7-4.5,4c-1.1,0.9-2.3,1.6-3.8,1.7
		c-0.4,0-0.8,0.1-1.2,0.3c-1,0.3-1.1,0.5-0.5,1.3c0.5,0.7,1,1.3,1.6,2c1.2,1.5,2.1,3.2,2.4,5.2c0.2,1.2,0.7,2.4,1.3,3.4
		c0.8,1.3,1.9,1.4,3.2,0.6c0.2-0.1,0.4-0.3,0.6-0.5c3.6-2.7,7.1-5.4,10.7-8c3.7-2.6,6.9-5.6,9.2-9.6c1.4-2.5,3-4.9,4.9-7
		c2.3-2.6,4-5.6,4.6-9c0.9-5.1,2.3-10.1,3.9-15c0.4-1.1,0.6-2.4,0.7-3.6c0.1-4.9,0.1-9.7,0.1-14.6c0-2.1-0.3-4.2-1.1-6.2
		c-1.8-4.9-3.6-9.8-5.4-14.7c-1.3-3.4-3-6.6-6-8.9c-1.1-0.9-1.8-2.1-2.3-3.4c-0.9-2.3-2.2-4.3-4-6.1c-2.2-2.2-4.7-4-7.4-5.5
		c-3.8-2.1-7.5-4.4-10.9-7c-1.6-1.2-3.4-2.1-5.3-2.5c-6-1.4-12-2.8-18-4.1c-4.4-1-8.7-1.1-13.1-0.1c-2.6,0.6-5.2,1.2-7.8,1.8
		c-1.4,0.3-2.9,0.3-4.3,0.7c-4.9,1.5-9.5,3.8-14,6.3c-2.8,1.5-5.5,3.1-7.9,5.3c-3.3,2.9-6.4,5.9-9.7,8.9c-0.6,0.6-1.3,1.2-1.8,1.9
		c-3.2,4.7-6.4,9.4-8.4,14.8c-0.9,2.4-1.7,4.8-2,7.3c-0.1,0.5-0.2,1.1-0.4,1.5c-2.7,4.7-3.4,9.9-3.1,15.2c0.2,2.9,0.4,5.8,0.6,8.6
		c0.3,5.3,1.3,10.5,3.2,15.5c2.8,7,6.2,13.5,11.1,19.2c0.6,0.7,1.2,1.5,1.6,2.3c1.3,2.6,3.2,4.7,5.3,6.5c4.3,3.7,9.1,6.9,14,9.7
		c1.5,0.9,2.7,0.6,3.4-1c0.5-1.2,1-2.4,1.2-3.7c0.3-1.8,1-3.3,2.3-4.6c0.2-0.2,0.4-0.4,0.5-0.6c0.5-0.7,0.5-1.1-0.2-1.7
		c-0.5-0.4-1.1-0.8-1.7-1.1c-2.2-1-4.1-2.5-5.8-4.1c-0.8-0.8-1.7-1.5-2.7-2.2c-2.5-1.8-4.9-3.9-6.8-6.4c-3.3-4.1-5.9-8.6-8.1-13.2
		c-0.6-1.3-1-2.8-1.2-4.3c-0.2-2.3-0.7-4.4-1.2-6.6c-0.6-2.6-1.2-5.3-1.5-7.9c-0.4-4.7,0.1-9.4,1.1-14.1c0.6-3,1.5-5.9,3.4-8.3
		c1.6-2,2.8-4.1,3.7-6.5c0.7-2,1.6-3.8,3-5.4c5.3-6.1,11.3-11.3,18.8-14.7c6.5-2.9,13-5.5,20.1-6c0.3,0,0.7-0.3,0.8-0.6
		C105,198.2,105.6,197,106.2,195.7z M113.8,215.9c0.8,0.9,1.6,1.8,2.5,2.7c0.2,0.2,0.4,0.4,0.6,0.4c1.2,0,2.3,0,3.7,0
		c-2.1-1.7-3.9-3.2-5.8-4.8c0.2-0.2,0.3-0.4,0.5-0.6c2,1.7,4,3.3,6,4.9c0.2,0.2,0.5,0.4,0.7,0.4c1.3,0,2.7,0,4,0c0-0.1,0-0.1,0-0.2
		c-3.7-2.3-7.4-4.6-11.2-6.9c0.2-0.2,0.3-0.4,0.5-0.6c3.3,2,6.5,3.9,9.6,5.9c1.9,1.2,3.7,1.9,6,1.7c1.4-0.1,2.8,0,4.2,0
		c0.7,0,1.4,0,2.1,0c0-0.1,0-0.1,0-0.2c-7.4-3-14.9-6-22.3-9c0.1-0.8,0.5-0.6,0.9-0.4c5.6,2.3,11.2,4.6,16.9,6.8
		c2.8,1.1,5.4,2.8,8.3,2.9c1.4,1.6,3.4,1.6,4.8,2.6c-0.1,0.5-0.2,0.6-0.7,0.4c-1.2-0.5-2.4-1-3.7-1.5c0,0.4,0,0.6,0,0.9
		c0,1.7,0,3.4,0,5.1c0,0.6,0.2,0.9,0.7,1.3c3.6,2.2,7.2,4.4,10.7,6.5c0.6,0.4,1.3,0.8,1.9,1.2c-0.2,0.2-0.3,0.4-0.4,0.6
		c-2.2-1.3-4.3-2.6-6.5-3.9c-2.1-1.3-4.3-2.6-6.5-4c0,2.2,0,4.2,0,6.2c0,0.6,0.2,0.9,0.6,1.3c4.8,3.9,9.6,7.9,14.3,11.8
		c0.2,0.1,0.3,0.2,0.6,0.4c0-0.2,0-0.3,0-0.4c-0.4-2.7-0.7-5.4-1.1-8c-0.6-3.4-1.4-6.8-3.4-9.7c-2.6-3.9-5.3-7.8-8.1-11.6
		c-1.9-2.6-4.3-4.6-7.3-5.9c-1.1-0.4-2.1-1.1-3-1.9c-2.3-2-4.9-3.4-7.6-4.5c-3.5-1.4-7.1-2.5-10.6-3.6c-2.2-0.7-4.6-1.1-7.1-1.6
		c0.2,0.5,0.4,0.8,0.5,1.1c0.2,0.7,0.6,1,1.4,1c1.3,0.1,2.6,0.4,4,0.6c0.9,0.1,1.7,0.3,2.5,0.4c-1.2,1.3-2.3,2.7-3.7,3.8
		c-1.3,1.1-1.6,2.2-1.2,3.9c0.4,1.7,0.6,3.4,0.9,5.3c-1.8-1-3.6-1.8-5.2-2.7c-1.2-0.7-2.1-0.7-3.3,0c-1.6,1-3.4,1.8-5.1,2.7
		c0-0.3,0-0.5,0.1-0.7c0.3-2,0.7-4.1,1.1-6.1c0.1-0.6,0-0.9-0.4-1.3c-1.4-1.4-2.8-2.7-4.2-4.1c-0.2-0.2-0.5-0.3-0.8-0.4
		c0.1-0.1,0.2-0.2,0.2-0.3c0.1,0,0.2-0.1,0.4-0.1c2.2-0.3,4.4-0.6,6.5-1c0.2,0,0.5-0.2,0.6-0.3c0.3-0.5,0.5-1.1,0.8-1.6
		c-3.7-0.3-17.1,3.6-19.5,5.8c3.7-0.1,7.3-0.2,10.9-0.3c0,0.3,0,0.5,0,0.7c-4,0.1-8.1,0.2-12.1,0.3c-0.3,0-0.7,0-0.9,0.1
		c-4,1.9-7.7,4.4-10.9,7.5c-0.1,0.1-0.2,0.2-0.4,0.5c8.7-2.6,17.2-5.1,25.7-7.6c0.1,0.3,0.1,0.5,0.2,0.7c-0.1,0.1-0.2,0.1-0.2,0.1
		c-8.8,2.6-17.7,5.3-26.5,7.9c-0.2,0.1-0.5,0.2-0.7,0.3c-3.1,3.1-6.1,6.3-7.4,10.7c-0.5,1.7-1.3,3.3-2.6,4.7
		c-1.7,1.9-2.7,4.1-3.4,6.4c-2.2,8.2-2.7,16.4-0.3,24.6c0.5,1.5,0.9,3.2,1,4.8c0.2,2.8,0.8,5.3,2.2,7.7c1.3,2.3,2.7,4.5,4,6.8
		c1.4,2.4,3,4.5,4.9,6.4c1.4,1.3,2.8,2.6,4.4,4c0.4-1,0.7-1.7,1-2.5c0-0.1,0-0.3,0-0.4c-1-1.1-1.1-2.5-1.1-3.8c0-0.6-0.3-1-1-0.9
		c0.3-1.1-0.5-1.1-1.2-1.1c-0.3,0-0.5,0.1-0.8,0c-1-0.1-2.1-0.2-3-0.5c-1.6-0.5-2.3-1.8-2.4-3.4c-0.1-2.1,0.7-3.8,2.2-5.2
		c0.3-0.3,0.7-0.6,0.7-1c0.2-0.9,0.3-1.9,0.3-2.9c0-1.6,0.7-2.5,2.1-3.1c0.4-0.2,0.9-0.4,1.3-0.4c0.5-0.1,0.6-0.3,0.6-0.8
		c0-2,0-3.9,0-5.9c0-0.2-0.1-0.3-0.1-0.6c-3.5,5-6.8,9.9-10.2,14.8c-0.8-0.3-0.5-0.6-0.2-1c3.4-4.9,6.7-9.7,10-14.6
		c0.3-0.4,0.4-1,0.5-1.4c0-3.3,0-6.6,0-9.8c0-0.2,0-0.5,0-0.7c-0.1,0-0.1,0-0.2,0c-4.5,5.1-9,10.1-13.5,15.3
		c-0.2-0.2-0.4-0.3-0.5-0.5c0.4-0.5,0.7-0.8,1-1.2c4.2-4.8,8.4-9.5,12.6-14.3c0.3-0.4,0.5-0.9,0.5-1.4c0.1-2.2,0-4.5,0-6.7
		c0-0.3,0-0.5,0-0.9c-0.3,0.2-0.5,0.4-0.7,0.6c-4.9,4.4-9.8,8.8-14.6,13.3c-0.4,0.3-0.7,0.6-0.9-0.1c0.2-0.2,0.3-0.3,0.5-0.5
		c5.1-4.6,10.1-9.2,15.2-13.8c0.4-0.4,0.6-0.7,0.6-1.3c0-2.2,0-4.3,0-6.5c0-0.3,0-0.5,0-0.9c-3.9,2.6-7.7,5.2-11.5,7.8
		c-0.2-0.3-0.3-0.4-0.4-0.6c0.3-0.2,0.5-0.3,0.7-0.5c3.5-2.4,7.1-4.8,10.6-7.2c0.4-0.3,0.6-0.6,0.6-1.2c0-0.9,0-1.8,0-2.8
		c0-1.6,0-3.2,0-4.9c0.4,0,0.6,0,0.9,0c3.6,0,7.2,0,10.8,0c0.4,0,0.9-0.2,1.3-0.4c3.4-2.3,6.9-4.6,10.3-7c1.2-0.8,2.4-1.6,3.6-2.4
		c0.2,0.2,0.3,0.4,0.4,0.6c-4.5,3-8.9,6-13.3,9c1.6,0.2,3,0.2,4.5,0.1c0.4,0,0.9-0.2,1.2-0.5c2.6-2.3,5.1-4.6,7.6-6.9
		c0.1,0,0.1-0.1,0.2-0.1c0.1,0.2,0.3,0.4,0.4,0.5c-2.6,2.3-5.1,4.6-7.7,7c1.1,0,2,0,2.9,0c0.3,0,0.7-0.2,0.9-0.4
		c1.1-1.2,2.2-2.4,3.2-3.6c0-0.1,0.1-0.1,0.2-0.2c0.2,0.2,0.3,0.3,0.4,0.5c-1.1,1.2-2.1,2.4-3.2,3.6c1.6,0.4,2.9,0.1,3.6-1.5
		c0.1-0.2,0.3-0.4,0.4-0.6c0-0.1,0.1-0.1,0.2-0.1c0.2,0.1,0.3,0.3,0.5,0.4c-0.4,0.6-0.8,1.2-1.3,1.9c1.2,0,2.2,0,3.3,0
		c0.2-0.7,0.4-1.4,0.7-2.2c0.2,0.1,0.4,0.1,0.7,0.2c-0.2,0.6-0.3,1.1-0.5,1.6c-0.3,0.8,0,1.2,0.7,1.4c0.3-1.4,0.6-2.8,0.9-4.2
		c0.6-0.1,0.7,0.1,0.6,0.6c-0.2,1-0.3,2.1-0.6,3.1c-0.5,1.4,0.4,2.1,1.1,3c0.5-0.7,1.1-1.2,1.5-1.9c0.2-0.3,0.3-0.7,0.2-0.9
		c-0.3-1.2-0.6-2.5-1-3.7c0.5-0.3,0.7-0.2,0.8,0.3c0.3,1.1,0.6,2.2,0.9,3.3c0.9-0.2,1.7-0.4,2.6-0.6c-0.3-0.8-0.7-1.7-1-2.6
		c0.4-0.3,0.7-0.3,0.9,0.2c0.3,0.7,0.5,1.4,0.9,2.1c0.1,0.2,0.3,0.4,0.5,0.4c1,0,2,0,3.2,0c-0.9-1-1.6-1.8-2.4-2.7
		C113.5,216.1,113.6,216,113.8,215.9z M99.6,226.9c2.8-0.7,4.7,0.5,6.2,2.7c-0.1-0.6-0.2-1.1-0.5-1.5c-0.3-0.5-0.7-1-1.1-1.4
		c-0.9-1.1-1.9-1.6-3.3-1.6c-1.6,0.1-3.3,0-5,0c0-0.3,0-0.5,0-0.7c1.7,0,3.3,0.1,4.9,0c1.7-0.1,3,0.6,4,1.9c0.3,0.3,0.5,0.7,0.9,1
		c0.4-1.1-0.5-1.6-0.9-2.2c-1.4-2.4-3.6-2.5-6-2.3c0.1-0.3,0.2-0.6,0.4-0.7c2.5-0.3,4.7,0.1,6.1,2.4c0.1,0.2,0.2,0.4,0.2,0.5
		c0.1-0.1,0.2-0.2,0.3-0.2c-0.1-0.6,0-1.3-0.3-1.8c-0.4-0.7-0.9-1.3-1.5-1.9c-0.8-0.9-1.7-1.3-3-1.3c-6.6,0-13.1,0-19.7,0
		c-0.3,0-0.6,0-0.9,0c0,15.6,0,31.1,0,46.6c0.4,0.1,0.9,0.3,1.3,0.3c1.6,0,3.1-0.1,4.7-0.1c0.6,0,0.5,0.3,0.4,0.8
		c-1.2,0-2.5,0-3.9,0c0.4,0.4,0.8,0.6,1.1,0.9c0.5,0.6,1.1,0.7,1.8,0.7c0.8,0,1.7,0,2.5,0c0.2,0.6,0,0.8-0.5,0.8c-0.7,0-1.4,0-2.2,0
		c0.8,1.2,1.7,2,3.1,1.5c0,0.1,0.1,0.2,0.1,0.2c-0.2,0.3-0.4,0.5-0.6,0.8c1.1,0.8,2.3,1.5,3.9,1.4c2.9-0.1,5.8,0,8.7-0.1
		c1.7,0,2.9,0.6,3.9,1.8c0.3,0.4,0.6,0.7,0.9,1.1c0.1-0.4,0.1-0.9-0.1-1.1c-0.6-0.8-1.2-1.7-2-2.4c-0.5-0.4-1.2-0.7-1.9-0.9
		c-0.5-0.1-0.5-0.4-0.4-0.8c2.1-0.1,3.1,1.5,4.3,2.9c0.3-1.1-0.5-1.7-0.9-2.3c-0.9-1.3-2-2.4-3.8-2.2c0-0.3,0-0.5,0-0.7
		c1.1-0.1,2,0.1,2.7,0.8c0.7,0.6,1.5,1.2,2,1.6c0-0.5,0-0.5-1.2-2.1c-1.3-1.8-3-2.1-5.1-1.9c0.1-0.3,0.2-0.6,0.4-0.7
		c1.9-0.2,3.7,0.1,4.9,1.8c0.3,0.4,0.6,0.7,0.9,1.1c0.1,0,0.1-0.1,0.2-0.1c-0.1-0.4-0.1-0.8-0.3-1.1c-1.3-1.8-2.5-3.9-5.2-3.2
		c-0.2-0.6,0-0.8,0.5-0.8c1.6-0.1,2.9,0.5,3.9,1.7c0.3,0.4,0.6,0.8,1,1.2c0.2-1.3-0.8-1.9-1.3-2.7c-1.2-1.8-3-2-5-1.9
		c0.1-0.3,0.3-0.6,0.4-0.6c1.9-0.2,3.7,0.1,4.9,1.8c0.3,0.4,0.6,0.7,0.9,1.1c0.3-1.1-0.5-1.6-1-2.3c-0.9-1.3-2-2.4-3.9-2.4
		c0.2-0.3,0.3-0.5,0.6-0.6c1.3-0.1,2.2,0.6,3,1.4c0.4,0.4,0.8,0.9,1.2,1.4c0.1-0.4,0.1-0.8-0.1-1.1c-0.6-0.8-1.2-1.6-1.9-2.4
		c-0.6-0.7-1.5-1-2.5-1c-0.9,0-1.8,0-2.8,0c-0.1,0-0.3-0.2-0.4-0.3c0.1-0.1,0.3-0.4,0.4-0.4c0.7,0,1.5,0,2.2,0
		c1.9-0.2,3.3,0.7,4.4,2.2c0.2,0.3,0.4,0.5,0.6,0.7c0.1,0,0.1-0.1,0.2-0.1c-0.1-0.4-0.1-0.8-0.3-1.1c-0.4-0.6-0.9-1.2-1.4-1.8
		c-0.8-1-1.9-1.5-3.3-1.5c-2.7,0.1-5.4,0-8.1,0c-0.5,0-0.8-0.1-0.6-0.7c0.3,0,0.6,0,0.8,0c2.6,0,5.2,0.1,7.8,0c1.7-0.1,3,0.6,4,1.9
		c0.3,0.3,0.5,0.7,0.8,1c0.1-0.4,0.2-0.8,0-1.1c-1.3-1.7-2.3-3.8-5-3.5c-0.1,0-0.3-0.2-0.5-0.4c0.2-0.1,0.3-0.3,0.5-0.3
		c1.7-0.2,3,0.4,4.1,1.7c0.3,0.4,0.6,0.7,0.9,1.1c0.1,0,0.1-0.1,0.2-0.1c-0.1-0.4-0.1-0.8-0.3-1.1c-0.4-0.6-0.9-1.2-1.3-1.7
		c-0.8-1-1.9-1.5-3.3-1.5c-6,0.1-12,0-18,0c-0.3,0-0.6,0-1,0c0-0.3,0-0.5,0-0.7c0.3,0,0.6,0,0.9,0c6.1,0,12.1,0,18.2,0
		c1.6,0,2.8,0.6,3.8,1.8c0.3,0.4,0.6,0.7,0.9,1.1c0.1-0.4,0.2-0.8,0-1c-1.4-1.9-2.6-4-5.5-3.4c-0.1,0-0.1,0-0.2,0
		c-0.6,0-0.6,0-0.5-0.6c2.7-0.6,4.7,0.5,6.1,2.9c0.3-1.2-0.5-1.8-1-2.4c-0.9-1.3-1.9-2.4-3.7-2.2c0-0.3,0-0.5,0-0.7
		c2.3-0.3,3.5,1.4,4.8,2.8c0-0.4,0-0.8-0.2-1.1c-0.5-0.8-1.1-1.5-1.7-2.2c-0.7-0.8-1.6-1.2-2.8-1.2c-6.1,0-12.2,0-18.3,0
		c-0.3,0-0.6,0-0.9,0c-0.3-0.8,0.2-0.8,0.7-0.8c6,0,12,0.1,17.9,0c1.9,0,3.3,0.7,4.4,2.1c0.2,0.3,0.4,0.5,0.7,0.9
		c0.1-1.9-2.3-4.3-4.4-4.6c-0.1-0.7-0.1-0.7,0.5-0.6c1.1,0.1,2,0.8,2.7,1.6c0.4,0.4,0.7,0.8,1.2,1.4c0-0.5,0.1-0.9-0.1-1
		c-0.7-0.9-1.4-1.9-2.2-2.7c-0.9-1-2.1-0.8-3.4-1c0.2-0.3,0.4-0.5,0.6-0.6c1.5-0.2,2.8,0.3,3.8,1.5c0.4,0.4,0.8,0.9,1.2,1.4
		c0.3-1.2-0.6-1.7-1-2.4c-1.2-1.9-3-2.4-5.2-2.2c0.1-0.3,0.2-0.6,0.4-0.6c2.1-0.3,3.9,0.2,5.1,2c0.2,0.3,0.4,0.5,0.7,0.9
		c0.1-2-2.4-4.4-4.7-4.7c-0.2-0.5-0.1-0.6,0.5-0.7c1.4,0,2.3,0.7,3.2,1.6c0.4,0.4,0.7,0.8,1,1.2c0.1-0.5,0.1-0.9-0.1-1.2
		c-0.5-0.7-1-1.3-1.5-2c-0.8-0.9-1.8-1.4-3-1.3c-3.1,0.1-6.3,0-9.4,0c-0.4,0-0.9,0.1-0.6-0.7c0.3,0,0.5,0,0.8,0c3.1,0,6.1,0.1,9.2,0
		c1.6,0,2.8,0.6,3.8,1.8c0.3,0.4,0.6,0.7,0.9,1.1c0.1-0.4,0.1-0.8,0-1.1c-0.6-0.8-1.2-1.6-1.9-2.4c-0.6-0.7-1.5-1-2.5-1
		c-1.1,0-2.2,0-3.3,0c-0.5,0-0.7-0.2-0.5-0.7c1.2,0,2.3,0.1,3.5,0c1.6-0.1,2.8,0.6,3.8,1.7c0.3,0.4,0.6,0.8,0.9,1.1
		c0.1-0.4,0.2-0.8,0-1.1c-0.7-0.9-1.3-1.8-2.2-2.6c-0.5-0.5-1.3-0.6-2.1-0.8c-0.4-0.1-0.9,0-1.3,0C99.6,227.5,99.5,227.3,99.6,226.9
		z M131.9,219.8c-0.4,0-0.8,0-1.1,0c-6.5,0-12.9,0-19.4,0c-1.5,0-2.5,0.5-3.4,1.6c-0.3,0.4-0.5,0.8-0.9,1.1
		c-0.7,0.6-0.6,1.4-0.5,2.5c1.5-2.5,3.5-3.3,6.2-2.8c0,0.2,0,0.4,0,0.6c-1.4,0.2-2.9-0.4-4.1,0.8c-0.9,1-2.1,1.9-2.1,3.4
		c1.3-1.4,2.5-2.9,4.7-2.4c-0.1,0.3-0.3,0.5-0.5,0.5c-1.1,0-1.9,0.5-2.5,1.2c-0.5,0.6-1,1.2-1.4,1.8c-0.2,0.3-0.3,0.8-0.4,1.2
		c0.1,0.1,0.2,0.1,0.2,0.2c1.5-2.9,4-3,6.7-2.7c0.1,0.5,0,0.7-0.5,0.7c-0.4,0-0.9,0-1.3,0c-1.8-0.2-3,0.6-4,1.9
		c-0.2,0.3-0.5,0.6-0.7,0.9c-0.2,0.4-0.3,0.8-0.5,1.3c0.1,0,0.1,0.1,0.2,0.1c0.2-0.2,0.4-0.4,0.5-0.6c1.1-1.4,2.4-2.1,4.3-2
		c6,0.1,12,0,17.9,0c0.3,0,0.6,0,0.9,0c0.2,0.8-0.3,0.7-0.7,0.7c-6,0-11.9,0.1-17.9,0c-1.9,0-3.2,0.7-4.3,2.1
		c-0.2,0.3-0.5,0.5-0.6,0.8c-0.2,0.4-0.3,0.8-0.4,1.2c0.8-0.6,1.4-1.3,2.1-1.8c0.8-0.6,1.7-0.8,2.7-0.6c0.2,0.5,0,0.7-0.5,0.7
		c-0.9,0-1.6,0.3-2.2,0.9c-0.7,0.7-1.3,1.5-1.8,2.3c-0.2,0.3-0.1,0.7-0.2,1c0.5-0.4,0.8-0.8,1.2-1.2c0.7-0.7,1.4-1.3,2.5-1.4
		c1.2-0.1,2.4,0,3.5,0c0.5,0,0.5,0.2,0.4,0.7c-0.8,0-1.7,0.1-2.5,0c-1.8-0.2-3,0.6-4,2c-0.2,0.3-0.5,0.6-0.7,1
		c-0.2,0.4-0.3,0.8-0.4,1.2c0.1,0,0.1,0.1,0.2,0.1c0.5-0.5,0.9-1,1.4-1.5c0.8-0.7,1.7-1.2,2.8-1.1c0.5,0,0.7,0.2,0.4,0.7
		c-2.4,0.2-5,2.7-4.5,4.3c0.3-0.4,0.6-0.7,0.9-1c0.8-0.9,1.7-1.6,3-1.6c0.8,0,1.6,0,2.4,0c0.6,0,0.7,0.2,0.5,0.7
		c-1.5,0.3-3.2-0.4-4.5,0.7c-1.1,1-2.3,1.9-2.4,3.6c0.5-0.4,0.8-0.8,1.3-1.3c0.8-0.8,1.7-1.3,2.8-1.3c0.6,0,0.8,0.2,0.5,0.7
		c-2.4,0.2-5,2.7-4.5,4.3c0.2-0.3,0.5-0.5,0.7-0.8c1-1.3,2.4-2,4.1-1.9c0.5,0,0.7,0.2,0.5,0.8c-1.3-0.1-2.5,0-3.5,1
		c-1.4,1.5-2,2.4-1.7,3.3c1.3-1.9,2.8-3.1,5.3-2.6c0.2,0.6-0.1,0.7-0.6,0.7c-1.5-0.2-2.5,0.5-3.4,1.6c-0.4,0.5-0.8,1-1.1,1.5
		c-0.2,0.3-0.2,0.8-0.3,1.1c0.5-0.3,0.7-0.6,1-0.9c1-1.1,2.1-1.8,3.7-1.7c1.9,0.1,3.9,0,5.8,0c0.3,0,0.5,0,0.8,0
		c0.2,0.7-0.1,0.8-0.6,0.8c-1.9,0-3.9,0.1-5.8,0c-1.6-0.1-2.7,0.5-3.6,1.7c-0.3,0.4-0.7,0.8-0.9,1.3c-0.2,0.4-0.3,0.8-0.5,1.4
		c1-0.9,1.7-1.6,2.5-2.3c0.9-0.7,2-0.5,3.1-0.5c0.2,0.7-0.2,0.7-0.7,0.7c-1.4-0.2-2.4,0.4-3.3,1.5c-0.4,0.5-0.8,1-1.2,1.6
		c-0.2,0.3-0.2,0.8-0.3,1.1c0.1,0.1,0.2,0.1,0.2,0.2c1.5-2.9,4-3,6.8-2.5c-0.1,0.2-0.3,0.5-0.5,0.5c-0.5,0.1-1.1,0.1-1.6,0
		c-1.6-0.2-2.7,0.5-3.7,1.7c-0.3,0.4-0.7,0.8-1,1.3c-0.2,0.3-0.2,0.8-0.4,1.3c0.2-0.1,0.3-0.1,0.3-0.1c0.1-0.2,0.3-0.3,0.4-0.5
		c1.1-1.5,2.5-2.1,4.4-2.1c4.8,0.1,9.5,0,14.3,0c0.3,0,0.7-0.1,0.8-0.3c0.3-0.4,0.4-0.8,0.6-1.2c-1.3-0.2-1.3-0.2-1.2-0.9
		c1.4,0.4,2.4-0.2,3.1-1.6c-1.7,0-3.2,0-4.8,0c-0.6,0-0.7-0.2-0.4-0.7c1.9,0,3.8,0,5.7,0c0.9,0,1.4-0.6,2.1-1
		c0.2-0.2,0.2-0.8,0.2-1.2c0-9.1,0-18.2,0-27.2C131.9,220.5,131.9,220.1,131.9,219.8z M108.3,320.2c0,0.1,0,0.1,0,0.2
		c1.9-0.3,3.9-0.4,5.8-0.8c2.6-0.5,5.1-1.2,7.7-1.8c2-0.5,3.9-1,5.8-1.6c1.5-0.5,2.3-1.6,2.4-3.2c0.1-1.3-0.5-2.2-1.3-3
		c-1.5-1.3-2-2.9-2-4.8c0-0.8,0-1.6-0.2-2.4c-0.1-0.9-0.5-1.1-1.4-0.9c-0.6,0.2-1.2,0.5-1.8,0.7c-0.9,0.3-1.9,0.7-2.9,0.6
		c-2.4-0.2-4.6,0.2-6.7,1.3c-1.8,0.9-3.6,1.4-5.6,1.4c-1.1,0-2.2,0.1-3.3,0c-3.3-0.5-6.6-1.1-9.8-1.7c-2.8-0.5-5.6-1.2-8.5-1.7
		c-1.2-0.2-1.5,0.2-0.9,1.3c0.6,1.1,0.3,1.9-0.3,2.8c-0.9,1.5-1.9,3-2.7,4.6c-1.2,2.5,0,5.3,2.6,6.3c1.2,0.5,2.5,0.7,3.8,0.7
		c3.8,0.2,7.7,0.1,11.5,1.1C103.1,320,105.6,320.4,108.3,320.2z M67.4,274.3c0.3,0,0.6,0,0.8,0c2.6,0.3,5.2,0.4,7.8,0.9
		c4.4,0.9,7.8,3.2,9.4,7.5c1.1,2.8,2.7,5.2,4.4,7.7c1.6,2.3,3.5,4.3,6,5.7c6.5,3.6,13.4,4,20.5,1.8c3.1-1,5.4-3,6.6-6.1
		c0.8-2.1,0.6-4-0.6-5.9c-0.9-1.4-2.8-1.5-3.9-0.1c-0.2,0.3-0.4,0.6-0.6,0.9c-0.7,1.3-1.9,2-3.4,2.1c-2.5,0-5,0.2-7.4-0.2
		c-4.1-0.6-7.6-2.4-9.9-6c-1-1.6-2.1-3.2-3.1-4.8c-0.9-1.5-2.1-2.7-3.7-3.6c-2.2-1.2-4-2.7-5.6-4.6c-0.3-0.4-0.7-0.7-1-1
		c-1.3-1.2-2.8-1.7-4.5-1.7c-2.3-0.1-4.5,0.4-6.7,0.8c-1.1,0.2-2.2,0.5-3.3,0.9c-0.7,0.2-1.2,0.7-1.3,1.5
		C67.7,271.5,67.6,272.9,67.4,274.3z M146.4,265.5c0.3,1.6,0.1,3.1-0.6,4.5c-0.7,1.7-1.9,2.7-3.9,2.5c-0.3,0-0.6,0-0.9,0
		c-5.2-0.1-10.4-0.4-15.3-2.3c-2.8-1.1-5.7-1.4-8.6-1.3c-0.7,0-1.5,0.1-2.2,0.3c-0.7,0.2-1.2,0.6-1.3,1.3c-0.3,1.9-0.1,3.8,0.6,5.5
		c0.1,0.1,0.2,0.2,0.4,0.3c1.4,0.5,2.7,1,4.1,1.3c4,1,8,2,12.1,2.8c3.3,0.7,6.6,1,9.9,0.8c3.1-0.2,5.8-1.4,7.5-4.1
		c1.1-1.7,2-3.6,2.9-5.4c0.7-1.2,0.6-2.5,0-3.7c-0.4-0.7-0.8-1.4-1.2-2.1c-0.3-0.6-0.8-0.8-1.5-0.7
		C147.8,265.4,147.1,265.4,146.4,265.5z M132.1,299c0.6-0.4,1.2-0.7,1.7-1.1c1.2-1,2.3-2,3.4-3c1.1-0.9,2-2,3.2-2.6
		c1.6-0.8,2.8-2,3.8-3.3c3.7-4.9,6.5-10.4,9-16c0.1-0.2,0.1-0.5,0-0.7c-0.3-0.5-0.6-0.9-1-1.3c-0.1,0.1-0.1,0.1-0.2,0.2
		c-1.2,2.6-2.3,5.2-4.2,7.4c-0.1,0.1-0.1,0.5,0,0.7c0.3,0.6,0.7,1.2,1,1.8c-0.6,0.3-0.6,0.3-0.9-0.1c-0.3-0.5-0.6-1-0.9-1.6
		c-1.7,1.5-3.6,2.2-5.8,2.5c0,1,0,2,0,3.1c-1,0-1.9,0-2.9,0c0.9,2.2,1.7,4.3,2.5,6.4c-0.3,0.1-0.4,0.2-0.7,0.2c-0.8-2-1.6-4-2.4-5.9
		c-0.2-0.5-0.4-0.8-1.1-0.8c-3.1,0-6.2,0-9.3,0c-0.2,0-0.5,0-0.7,0c0,0.1,0,0.2,0,0.2c0.9,3.3,1.8,6.6,2.7,9.9
		c0,0.2,0.3,0.3,0.5,0.4c0.8,0.1,1.3,0.6,1.5,1.4C131.7,297.6,131.9,298.2,132.1,299z M145.7,251.8c0-1,0.1-1.9,0.1-2.8
		c0.1-2-0.7-3.2-2.5-3.9c-0.3-0.1-0.7-0.2-1-0.4c0.3-0.5,0.6-1,0.8-1.4c0.3-0.7-0.1-1.2-0.7-1.1c-0.5,0.1-1.2,0.3-1.4,0.7
		c-0.2,0.4-0.1,1.1,0.1,1.6c0.2,0.5,0.7,0.9,1.1,1.3c1.1,1.1,1.5,2.5,1.7,4c0,0.2-0.1,0.5-0.3,0.6c-0.3,0.5-0.9,0.9-1.1,1.4
		c-0.5,1.4-1.5,1.9-2.9,1.7c-0.4,0-0.7-0.1-1.1-0.1c-1.5-0.1-3-0.3-4.4,0.3c-0.4,0.2-1.1,0-1.3-0.3c-0.3-0.3-0.4-1-0.2-1.4
		c0.3-1,1.2-1.5,2.2-1.7c0.5-0.1,0.9-0.1,1.4-0.2c0.3-0.1,0.5-0.3,0.7-0.4c-1-0.2-2-0.5-2.9-0.7c-0.3,0-0.6,0-0.8,0.1
		c-2.8,1.3-5,3.3-6,6.3c-0.9,3.1-0.3,6.1,0.8,9.1c0.7,1.9,2.2,2.8,4.2,3c2.5,0.3,4.7-0.5,6.8-1.9c0.9-0.6,1.8-1.2,2.7-1.7
		c1.3-0.7,2.6-0.6,3.8,0.3c0.2,0.1,0.4,0.3,0.6,0.3c0.8,0,1.6-0.1,2.6-0.3c-0.9-0.8-1.6-1.5-2.3-2.1c-1.2-1.1-2.7-1.5-4.2-1
		c-1.9,0.5-3.9,1-5.8,1.6c-1.8,0.6-3.6,0.9-5.5,0.4c-1.8-0.4-3-1.8-3.1-3.7c-0.1-1.9,0.8-3.4,2.6-4c2.1-0.7,4.1-0.7,5.9,0.8
		c0.3,0.2,0.6,0.4,0.9,0.6c2.5,1.2,5.1,1.9,7.7,0.1c2.1-1.5,4.1-3,6.1-4.6c0.8-0.6,1.3-1.5,1.1-2.5c-0.2-0.9-0.5-1.7-0.8-2.6
		c-0.2,0.1-0.2,0.1-0.2,0.1c0,0.1-0.1,0.3-0.1,0.4c-0.3,1.4-1.1,2.4-2.6,2.7c-0.6,0.1-1.2,0.5-1.8,0.8
		C146.3,251.6,146.1,251.7,145.7,251.8z M126,285c-1.2,0-2.3,0-3.5,0c0.1,0.2,0.2,0.2,0.2,0.3c1.2,1.7,1.7,3.5,1.3,5.6
		c-0.7,3.1-2.5,5.3-5.2,6.8c-0.5,0.3-0.7,0.6-0.6,1.2c0.1,0.9,0.1,1.8,0.1,2.7c0,0.7,0,0.7-0.7,0.5c-0.1-1.2-0.1-2.3-0.2-3.6
		c-3,1.2-6,1.6-9.1,1.5c0,1.6,0,3.1,0,4.7c-0.6,0.2-0.7,0-0.7-0.5c0-1.4,0-2.7,0-3.9c-2.9-0.5-5.6-0.9-8.4-1.4
		c-0.2,1.7-0.4,3.5-0.7,5.4c1.6,0.3,3,0.6,4.4,0.7c3.8,0.4,7.6,0.5,11.2-1.5c1.8-1,3.8-1.4,5.9-1c0.6,0.1,1.2,0,1.9,0
		c-0.1-0.9-0.1-1.5-0.2-2.2c-0.1-2.5,0-2.7,2.5-3.3c1.5-0.4,3.1-0.8,4.7-1.2C127.9,292.1,127,288.5,126,285z M90.5,292.6
		c-0.3,1.3-0.5,2.4-0.7,3.6c-0.1,0.6-0.3,0.6-0.8,0.4c0.3-1.3,0.5-2.6,0.8-3.8c0.1-0.6,0.1-1-0.3-1.5c-1.3-1.9-2.5-3.8-3.7-5.7
		c-0.1-0.2-0.5-0.4-0.8-0.4c-0.2,0-0.4,0.3-0.5,0.5c-0.4,1.2-0.6,2.4-1,3.5c-0.2,0.7-0.1,1.3,0.4,1.9c0.7-0.4,1.4-0.8,2.1-0.3
		c0.7,0.5,0.9,1.2,0.8,2c-0.1,1.2-1.2,1.7-2.2,1.1c-0.7-0.4-1.3-0.9-2-1.4c-0.6,1.9-1.1,3.8-1.7,5.8c-0.3-0.1-0.5-0.2-0.7-0.2
		c0.5-1.9,1.1-3.7,1.6-5.6c0.1-0.2,0-0.6-0.1-0.7c-0.9-0.8-1.9-1.6-2.8-2.4c-0.4,0.9-0.7,1.6-0.3,2.6c0.4,1.3,0.3,2.7,0.4,4.1
		c0,0.2-0.3,0.5-0.4,0.7c-0.2-0.2-0.5-0.5-0.5-0.7c-0.2-2.8-2.5-3.9-4.1-5.6c-0.4,0.9-0.7,1.7-1,2.4c2.8,2.1,5,4.9,8.4,6.2
		c0.5-1.2,0.9-2.3,1.4-3.4c0.3-0.9,1-1.2,1.9-0.8c0.5,0.2,0.9,0.5,1.3,0.9c0.7,0.8,1.6,1.3,2.7,1.5c1.1,0.2,1.5,0.9,1.2,1.9
		c-0.3,1-0.7,1.9-1,2.9c3,0.7,6,1.3,9.1,2c0.2-1.8,0.4-3.4,0.7-5c0.1-0.5-0.1-0.7-0.6-0.9c-2.6-1.1-4.8-2.7-6.7-4.7
		C91,293.1,90.8,292.9,90.5,292.6z M149,254.7c2.4,2.7,4.8,5.3,7.3,8c0.8-4.9,0.9-9.6,0.6-14.1c-0.4-0.2-0.7-0.3-1-0.5
		c-4.7-3.8-9.3-7.7-14-11.5c-0.2-0.1-0.4-0.3-0.6-0.4c0,1.9,0,3.7,0,5.4c2-0.3,3.2,0.6,2.1,2.9c3,1,3.3,3.3,2.9,6
		c0.7-0.2,1.2-0.5,1.7-0.6c1.2-0.2,1.8-1,1.9-2.2c0.1-0.8,0.1-1.6,0.2-2.3c0-0.2,0.2-0.4,0.4-0.6c0.2,0.1,0.5,0.3,0.6,0.5
		c0.4,1.1,0.8,2.2,1.2,3.3c0.8,2.1,0.3,3.6-1.5,4.9C150.3,253.9,149.7,254.3,149,254.7z M106.4,259.7c0.1,0,0.2,0.1,0.3,0.1
		c0.4-0.5,0.8-1,1.3-1.4c0.6-0.6,1.4-1.1,2.3-1.2c2.1,0,4.2,0,6.4,0c0.6,0,0.6,0.3,0.4,0.7c-1.8,0-3.6,0.1-5.4,0
		c-1.8-0.1-3.1,0.6-4.1,2c-0.2,0.3-0.5,0.6-0.7,1c-0.2,0.4-0.3,0.8-0.4,1.2c0.1,0,0.1,0.1,0.2,0.1c0.1-0.1,0.2-0.2,0.3-0.3
		c1.3-1.9,3-2.6,5.3-2.4c0.5,0.1,0.7,0.2,0.5,0.7c-1.4,0.1-2.8-0.3-4,0.8c-1.3,1.2-2.2,2.6-2,3.5c0.4-0.5,0.8-0.9,1.2-1.4
		c0.8-0.8,1.6-1.3,2.8-1.3c2.2,0,4.5,0,6.7,0c0.6,0,0.7,0.2,0.5,0.7c-2.3,0-4.6,0-6.9,0c-0.6,0-1.3,0.1-1.8,0.5
		c-0.9,0.8-1.7,1.8-2.4,2.7c-0.2,0.2-0.1,0.6-0.1,0.9c0.3-0.1,0.5-0.3,0.6-0.5c1.1-1.5,2.5-2.1,4.4-2.1c4.8,0.1,9.5,0,14.3,0
		c0.3,0,0.6,0,1,0c-0.2-0.6-0.3-1.1-0.4-1.6c-2.6,0-5.2,0-7.7,0c-0.2-0.7,0.1-0.7,0.6-0.7c1.9,0,3.8,0,5.7,0c0.4,0,0.8,0,1.3,0
		c-0.1-0.6-0.2-1.1-0.2-1.6c-0.4,0-0.7,0-0.9,0c-0.2,0-0.4-0.2-0.7-0.3c0.2-0.1,0.4-0.3,0.7-0.4c0.2-0.1,0.5,0,0.9,0
		c0-0.6-0.1-1.1-0.1-1.7c-2.2,0-4.3,0-6.4,0c-0.3-0.7,0.1-0.7,0.6-0.7c2,0,3.9,0,5.9,0c0.1-0.6,0.2-1,0.3-1.6c-0.4,0-0.6,0-0.9,0
		c-4.6,0-9.2,0.1-13.8,0c-1.7,0-2.9,0.5-3.8,1.8c-0.3,0.4-0.6,0.7-0.8,1.1C106.7,258.9,106.6,259.3,106.4,259.7z M110.9,271.3
		c0.1,0.5,0.1,0.6-0.4,0.8c-0.7,0.2-1.3,0.5-1.9,0.9c-0.6,0.6-1.2,1.3-1.7,2c-0.2,0.4-0.3,0.8-0.5,1.2c2.7-2.5,3.2-2.7,4.9-2.5
		c0.2,0.5,0,0.7-0.5,0.6c-1.1-0.1-2,0.4-2.7,1.2c-0.5,0.6-1,1.1-1.4,1.7c-0.2,0.3-0.3,0.8-0.4,1.2c0.1,0.1,0.2,0.2,0.2,0.3
		c1.5-2.9,4-3,6.8-2.7c-0.4-0.8-0.3-1.7-1.6-1.8c0.4-0.4,0.6-0.6,0.8-0.8c0-0.4,0-0.9,0-1.3c-0.4,0-0.7-0.1-1-0.1c0-0.2,0-0.4,0-0.7
		c0.4,0,0.7-0.1,1-0.1c0.1-0.5,0.2-1,0.3-1.5c-0.1,0-0.1,0.1-0.2,0.1c-0.2-0.2-0.3-0.5-0.6-0.8c0.7-0.1,1.2,0,1.6-0.2
		c1.1-0.6,2.3-0.8,3.6-0.7c3,0.2,6,0.5,9,0.8c0,0.1-0.1,0.2-0.1,0.2c0.3,0.2,0.6,0.5,0.9,0.7c0.8,0.3,1.6,0.5,2.4,0.7
		c0.7,0.2,1.4,0.3,2.2,0.4c0-1,0-1.8,0-2.5c-0.8-0.3-1.5-0.6-2.2-0.8c-0.5-0.2-1-0.4-1.5-0.4c-2.4,0-4.8,0-7.2,0c-0.5,0-0.9,0-1.4,0
		c-0.2-0.6,0-0.8,0.5-0.8c1.8,0,3.5,0,5.3,0c0.9,0,1.8,0,2.8,0c-0.2-0.3-0.3-0.4-0.4-0.6c-0.3-0.9-1-1-1.8-1c-4.9,0-9.9,0-14.8,0
		c-1.2,0-2.1,0.4-2.9,1.3c-0.5,0.6-1,1.2-1.4,1.8c-0.2,0.3-0.2,0.7-0.3,1.1c0.6-0.4,0.9-0.8,1.3-1.2c0.8-0.8,1.6-1.3,2.8-1.3
		c2,0,4,0,6.1,0c0.6,0,0.6,0.3,0.5,0.8c-1.9,0-3.9,0.1-5.8,0c-1.5-0.1-2.6,0.5-3.5,1.7c-0.3,0.4-0.7,0.8-0.9,1.3
		c-0.2,0.4-0.3,0.8-0.4,1.2c0.1,0.1,0.1,0.1,0.2,0.2c1.3-1.7,2.6-3.1,5-2.7c0.2,0.6-0.1,0.7-0.6,0.7c-1.2-0.1-2.1,0.4-2.9,1.3
		c-0.5,0.5-0.9,1.1-1.3,1.7c-0.2,0.3-0.3,0.8-0.4,1.2c0.1,0,0.1,0.1,0.2,0.1C107.8,272.6,108.9,271.2,110.9,271.3z M106.2,207.3
		c-3.3-1.1-6.4-2.1-9.6-3.1c0.9,0.9,1.7,1.7,2.4,2.5c0.7,0.7,1.8,1.4,2.1,2.3c0.3,0.9-0.2,2-0.4,3.1c-0.2,1.1-0.4,2.2-0.5,3.3
		c0.1,0,0.1,0,0.2,0.1C102.3,212.7,104.2,210.1,106.2,207.3c0,1.1,0.1,2,0,2.8c-0.3,1.8,0.4,2.9,2.1,3.5c1.3,0.5,2.5,1.3,3.7,1.9
		c0,0,0.1-0.1,0.1-0.1C110.2,212.8,108.3,210.1,106.2,207.3c1.6,0.5,3,1,4.4,1.4c0.2,0.1,0.6,0.1,0.7,0c0.7-0.7,1.3-1.4,2.1-2.2
		c-2.2,0.2-4.4,0.5-6.5,0.7c0,0,0-0.1,0-0.1c3-1,5.9-1.9,9-2.9c-0.2-0.1-0.3-0.2-0.4-0.2c-1.9-0.3-3.8-0.6-5.7-0.8
		c-0.3,0-0.6,0.2-0.8,0.4c-0.9,1.2-1.7,2.3-2.6,3.5c0,0-0.1,0-0.1,0c0-3.2,0-6.5,0-9.7c-1,1.7-1.9,3.5-2.8,5.2
		c-0.2,0.4-0.2,0.7,0.1,1.1C104.4,204.8,105.2,205.9,106.2,207.3z M143.8,258.8c0.5,0.7,1,1.6,1.8,2.1c1.8,1.2,3.3,2.7,4.7,4.4
		c0.9,1.1,1.7,2.3,1.9,3.7c0.1,1.2,1,1.8,1.6,2.8c1.2-3,2-5.9,2.5-9.1c-0.5,0.6-0.7,0.2-0.9-0.1c-2.1-2.3-4.2-4.7-6.3-7
		c-0.2-0.2-0.4-0.4-0.5-0.5C146.9,256.4,145.4,257.6,143.8,258.8z M73.2,266.9c0-15.7,0-31.4,0-47.1c-0.5,0-0.9,0-1.4,0
		c0,15.8,0,31.5,0,47.3C72.3,267,72.7,267,73.2,266.9z M75.4,266.5c0-15.6,0-31.1,0-46.7c-0.5,0-0.9,0-1.4,0c0,15.7,0,31.3,0,47
		C74.5,266.7,74.9,266.6,75.4,266.5z M76.2,219.8c0,15.5,0,31,0,46.6c0.5,0,0.9-0.1,1.4-0.1c0-15.5,0-30.9,0-46.4
		C77.1,219.8,76.7,219.8,76.2,219.8z M79.8,266.2c0-15.5,0-31,0-46.4c-0.5,0-0.9,0-1.4,0c0,15.5,0,31,0,46.4
		C78.9,266.2,79.3,266.2,79.8,266.2z M132.6,311.1c-0.2-0.7-0.4-1.3-0.4-1.9c-0.2-2.1-1.1-3.8-2.4-5.4c-0.6-0.7-1.1-1.4-1.6-2.1
		c-0.4-0.6-0.4-1.2,0.2-1.7c0.8-0.7,1.5-1.4,2.2-2.1c0.2-0.2,0.3-0.6,0.2-0.8c-0.1-0.2-0.4-0.5-0.6-0.6c-0.2-0.1-0.6,0-0.8,0.1
		c-1.8,0.4-3.6,0.9-5.4,1.4c-0.3,0.1-0.6,0.2-0.9,0.3c-0.6,0.3-0.7,0.7-0.3,1.1c0.5,0.5,1,1.1,1.6,1.5c0.2,0.2,0.6,0.3,0.9,0.3
		c1.3-0.1,1.9,0.4,2.1,1.7c0.1,1,0.1,1.9,0.2,2.9c0.1,1.3,0.4,2.5,1.4,3.5c0.7,0.7,1.3,1.6,2.1,2.4
		C131.4,311.4,132,311.2,132.6,311.1z M139.2,219.8c0,11,0,22,0,33.1c0.5,0,0.9,0,1.4,0c0-2.5,0-5,0-7.4c0-0.2-0.1-0.3-0.2-0.5
		c-0.4-0.8-0.5-1.6,0-2.5c0.2-0.3,0.2-0.7,0.2-1c0-6.9,0-13.9,0-20.8c0-0.3,0-0.5,0-0.8C140.1,219.8,139.7,219.8,139.2,219.8z
		 M137,219.8c0,0.4,0,0.7,0,1.1c0,8.8,0,17.6,0,26.4c0,0.4,0,0.8,0,1.2c0,0.2,0.1,0.4,0.2,0.4c0.9,0.3,0.7,0.8,0.3,1.3
		c-0.6,0.8-0.6,1.6-0.4,2.5c0.5,0,0.9,0.1,1.4,0.1c0-11,0-22,0-33C137.9,219.8,137.5,219.8,137,219.8z M81.4,311.8
		c1.1-1.9,2.1-3.7,3.2-5.5c0.5-0.8,0.8-1.5,0.3-2.4c-0.4-0.7-0.5-1.6,0.5-2.1c0.1,0,0.1-0.3,0.1-0.4c0.1-1.1,0.5-1.5,1.5-1.7
		c0.5-0.1,1-0.2,1.4-0.4c0.3-0.1,0.4-0.6,0.5-0.9c0-0.1-0.3-0.5-0.6-0.5c-1.3-0.2-2.4-0.8-3.2-1.8c-0.1-0.2-0.3-0.3-0.5-0.4
		c-0.9-0.6-1.4-0.4-1.4,0.7c0,1.1,0,2.3,0.3,3.4c0.4,1.6,0,2.9-1.1,4.1c-0.6,0.6-1.2,1.3-1.4,2c-0.6,1.8-1,3.6-1.4,5.5
		C80.3,311.5,81,311.7,81.4,311.8z M118.2,278.3c-0.6-0.3-1.1-0.5-1.6-0.7c-1.6-1-3.1-0.8-4.4,0.6c-0.1,0.1-0.1,0.2-0.2,0.2
		c-1.4,1.7-1.3,3.3,0.4,4.6c1.2,1,2.5,1.4,4,1.8c1.1,0.3,2.1,0.3,3-0.6C118,282.5,117.1,280.6,118.2,278.3z M78.6,288
		c0.4,0.4,0.8,0.7,1.1,1c1.7,1.4,3.3,2.7,5,4c0.2,0.2,0.8,0.2,1,0.1c0.5-0.4,0.4-1.1,0-1.6c-0.3-0.4-0.7-0.5-1.1-0.2
		c-0.3,0.2-0.6,0.5-1.1,0.8c-0.5-0.9-0.9-1.7-1.3-2.4c-0.3-0.5-0.5-1-1.2-1.1c-0.9-0.1-1.4-0.5-1.6-1.5c-0.1-0.7-0.1-1.4-0.2-2.1
		c-2.2,0-4.5,0-6.7,0c0.1,0.5,0.2,0.9,0.1,1.4c0,1.4,0.5,2.5,1.5,3.4c1.3,1.3,2.6,2.5,3.9,3.7c0,0,0.1,0,0.1,0
		c-0.3-0.9-0.7-1.8-1-2.7C77.7,289.9,78.2,289,78.6,288z M136.2,248.9c0-9.8,0-19.4,0-29.1c-0.5,0-0.9,0-1.4,0c0,0.2,0,0.4,0,0.6
		c0,9.2,0,18.5,0,27.7c0,0.7,0.2,0.8,0.8,0.8C135.8,248.9,136,248.9,136.2,248.9z M132.6,248.7c0.5-0.1,0.9-0.2,1.4-0.3
		c0-9.5,0-19.1,0-28.6c-0.5,0-0.9,0-1.4,0C132.6,229.5,132.6,239,132.6,248.7z M100.2,285c0.1,0.2,0.2,0.2,0.2,0.3
		c0.3,0.2,0.6,0.5,1,0.7c4.3,2.6,9,2.7,13.8,2.1c1.3-0.2,1.8-1.2,2.4-2.2c-1.3-0.3-2.5-0.7-3.7-0.8c-1.3-0.1-2.6,0-3.9,0
		c-0.2,0-0.5,0-0.7,0.1c-1.9,1.3-4.5,1.4-6.3,0c-0.1-0.1-0.3-0.1-0.5-0.1C101.8,285,101.1,285,100.2,285z M71,283.2
		c0-1.3,0-2.5,0-3.7c-0.9,0-1.8,0-2.7,0c-0.9-0.1-1.3-0.4-1.2-1.4c0-1,0.2-2,0.3-3.1c-0.4,0.2-0.8,0.3-1.1,0.5c-1.2,1-1.8,2.4-1.8,4
		c0,2,0.8,3.2,2.8,3.5C68.5,283.1,69.7,283.1,71,283.2z M94.1,276.7c0.5,0.7,0.8,1.3,1.2,1.9c0.2,0.2,0.6,0.5,0.9,0.5
		c1.6,0,3.1,0.1,4.7,0c1.6-0.1,2.8,0.5,3.9,1.6c0.2,0.2,0.6,0.2,0.9,0.2c0-0.3,0.1-0.7,0-0.9c-0.6-0.9-1.3-1.7-2.1-2.5
		c-0.4-0.4-1.1-0.8-1.7-0.8C99.3,276.7,96.8,276.7,94.1,276.7z M143.6,271.7c0.4-0.4,0.7-0.6,1-1c0.9-1.3,1.3-2.7,1.2-4.2
		c-0.1-1.3-1.5-2.4-2.8-2c-0.6,0.1-1.5,0.4-1.6,0.8c-0.2,0.9-0.2,1.9,0.1,2.8C142,269.3,142.9,270.4,143.6,271.7z M105.7,278.9
		c0.1-0.1,0.2-0.1,0.3-0.2c-0.1-0.4-0.1-0.8-0.3-1.1c-0.5-0.7-1-1.4-1.6-2c-0.8-0.9-1.7-1.3-3-1.3c-2.7,0.1-5.5,0-8.3,0
		c-0.3,0-0.5,0-1,0c0.4,0.4,0.8,0.6,1,0.9c0.4,0.6,1,0.7,1.7,0.7c1.6,0,3.3,0.1,4.9,0C102.1,275.8,104.3,276.3,105.7,278.9z
		 M71.8,275.4c0,3,0,5.9,0,8.8c4.5,0,8.9,0,13.4,0c0-0.1,0-0.2,0-0.3c-0.3-0.1-0.6-0.2-0.9-0.2c-3.4,0-6.8,0-10.1,0
		c-0.3,0-0.6,0-1,0c0-0.4,0-0.6,0-0.9c0-2,0-4,0-6.1C73.2,275.4,73.2,275.4,71.8,275.4z M74,282.9c3.6,0,7.1,0,10.6,0
		c0-0.1,0-0.2,0.1-0.3c-0.3-0.1-0.6-0.2-0.9-0.2c-2.5,0-5,0-7.5,0c-0.3,0-0.6,0-0.9,0c0-2.2,0-4.3,0-6.5c-0.5-0.1-1-0.2-1.5-0.3
		C74,278,74,280.4,74,282.9z M131.8,262.8c0-2.3,0-4.5,0-6.9c-0.9,0.4-1.6,0.7-2.4,1c0,0.1,0,0.2,0.1,0.2c0.3,0,0.5,0.1,0.8,0.1
		c0.2,0.5,0,0.7-0.5,0.7c-1.2,0-1.5,0.3-1.2,1.6c0.4,0,0.8,0,1.2,0c0.5,0,0.8,0.1,0.5,0.7c-0.5,0-1,0-1.7,0c0.4,0.8,0.4,1.6,1.5,1.6
		c0.1,0,0.3,0.1,0.3,0.2C130.5,262.9,131.2,262.7,131.8,262.8z M106.3,285.4c0.5-0.1,1.1-0.2,1.7-0.3c0.6-0.1,0.8-0.5,0.7-1.1
		c-0.2-1.3-1.1-2.3-2.4-2.3c-1.3-0.1-2.3,0.7-2.6,2c-0.2,1-0.1,1.3,0.9,1.5C105.2,285.3,105.7,285.3,106.3,285.4z M140.6,284.2
		c0-0.8,0-1.4,0-2.1c-0.5,0-0.9,0-1.4,0c0,0.5,0,1.1-0.1,1.7c-6.4,0-12.7,0-19,0c0,0.1,0,0.2,0,0.3c0.3,0.1,0.6,0.2,1,0.2
		c6.3,0,12.6,0,19,0C140.2,284.2,140.4,284.2,140.6,284.2z M77.6,281.1c0-1.2,0-2.3,0-3.4c0-1.4,0-1.4-1.4-1.6c0,1.8,0,3.7,0,5.5
		c2.6,0,5.2,0,7.8,0c0-0.1,0-0.2,0.1-0.3c-0.3-0.1-0.6-0.2-0.9-0.2C81.4,281.1,79.6,281.1,77.6,281.1z M71,278.7c0-1.2,0-2.3,0-3.5
		c-0.8,0-1.5-0.1-2.2-0.1c-0.2,0-0.5,0.2-0.6,0.3c-0.2,0.9-0.3,1.8-0.4,2.8c0,0.2,0.3,0.5,0.4,0.5C69.1,278.7,70,278.7,71,278.7z
		 M112.4,276.8c-2.3-0.5-5.1,1-5.8,3.3c-0.1,0.2,0.1,0.6,0.2,0.8c0.3-0.1,0.6,0,0.8-0.2c0.8-0.8,1.6-1.5,2.9-1.6
		c0.1,0,0.3-0.1,0.4-0.2C111.3,278.2,111.9,277.5,112.4,276.8z M119.2,282.4c0,0.1,0,0.2-0.1,0.3c0.3,0.1,0.6,0.2,0.9,0.2
		c5.9,0,11.7,0,17.6,0c0.2,0,0.5,0,0.8,0c0-0.4,0-0.6-0.1-0.9c-0.4,0-1-0.2-1.2,0c-0.6,0.6-1.3,0.4-2,0.4c-5,0-10.1,0-15.1,0
		C119.8,282.4,119.5,282.4,119.2,282.4z M80.2,285c0.1,0.7,0.1,1.4,0.2,2.1c0.1,0.3,0.3,0.6,0.6,0.7c0.6,0.3,1.3,0.5,2,0.7
		c0.3-1.1,0.6-2.3,1-3.5C82.6,285,81.5,285,80.2,285z M132.7,256.1c0,2.3,0,4.5,0,6.8c0.5-0.1,0.9-0.1,1.4-0.2c0-1.9,0-3.7,0-5.6
		C134.1,256,134,255.9,132.7,256.1z M140.6,271.7c0-2,0-4,0-6c-1.4,0.6-1.4,0.6-1.4,2c0,1.1,0,2.2,0,3.2c0,0.6,0.2,0.9,0.8,0.8
		C140.1,271.7,140.4,271.7,140.6,271.7z M118.7,281.2c0,0.1-0.1,0.2-0.1,0.3c0.3,0.1,0.6,0.2,0.8,0.2c4.4,0,8.8,0,13.2,0
		c0.2,0,0.3,0,0.7,0C130.8,281.2,121,280.9,118.7,281.2z M134.8,262.6c1.4-0.3,1.4-0.3,1.4-1.6c0-0.9,0-1.8,0-2.7
		c0-1.1-0.2-1.4-1.4-1.8C134.8,258.5,134.8,260.5,134.8,262.6z M78.4,276.8c0,1.2,0,2.3,0,3.5c1.6,0,3.2,0,4.7,0
		c-1-0.9-2.2-0.2-3.3-0.6c0-0.4,0-0.8,0-1.2C79.8,277.2,79.8,277.2,78.4,276.8z M138.4,271.6c0-1.5,0-3,0-4.7
		c-0.6,0.4-1.3,0.7-1.4,1.1c-0.2,1.2-0.1,2.4-0.1,3.7c0.4,0,0.7,0,1,0C138.1,271.6,138.2,271.6,138.4,271.6z M137,261.8
		c1.4-0.3,1.4-0.3,1.4-1.6c0-0.2,0-0.4,0-0.6c0-1.4,0-1.4-1.4-1.8C137,259.2,137,260.5,137,261.8z M141.4,252.3
		c0.5-0.7,0.9-1.4,1.4-2c0.4-0.4,0.4-0.8,0.2-1.2c-0.4-0.6-0.9-1.1-1.5-1.7C141.4,249.1,141.4,250.7,141.4,252.3z M136.2,271.5
		c0-1.2,0-2.4,0-3.5c-0.5,0.1-0.9,0.2-1.4,0.4c0,1.1,0,2,0,3.1C135.3,271.5,135.7,271.5,136.2,271.5z M96.2,279.8
		c0,0.1-0.1,0.2-0.1,0.2c0.3,0.1,0.6,0.3,0.8,0.3c1.2,0,2.3,0,3.5,0c1.4,0,2.7,0,3.8,1c-0.6-1-1.4-1.6-2.4-1.6
		C100,279.8,98.1,279.8,96.2,279.8z M126.2,280.4c-0.3-0.1-0.4-0.2-0.5-0.2c-2.3-0.7-4.6-0.3-6.9-0.4c-0.1,0-0.2,0.2-0.3,0.3
		c0.2,0.1,0.3,0.2,0.5,0.2C121.3,280.4,123.7,280.4,126.2,280.4z M132.6,268.5c0,0.6,0,1.1,0,1.6c0,1.2,0.1,1.3,1.4,1.1
		c0-0.9,0-1.8,0-2.7C133.5,268.5,133.1,268.5,132.6,268.5z M103.5,281.8c-2-1.3-4.3-0.4-6.5-0.5c0.2,0.3,0.5,0.4,0.8,0.4
		C99.8,281.7,101.6,281.7,103.5,281.8z M141.4,259c0,0.5,0,1.1,0,1.6c0.9-0.1,1.8-0.2,2.6-0.3C142.8,258.5,143.2,258.8,141.4,259z
		 M139.2,258.7c0,0.9,0,1.7,0,2.6c0.5-0.1,1-0.3,1.4-0.4c0-0.7,0-1.3,0-2C140.1,258.8,139.7,258.7,139.2,258.7z M88.6,300.2
		c-2.1,0.3-2.3,0.4-2.2,1.4C88,301.9,88,301.9,88.6,300.2z M103.4,282.9c-0.8-0.6-3.8-0.8-5.5-0.4c0.3,0.2,0.4,0.4,0.6,0.4
		C100,282.9,101.6,282.9,103.4,282.9z M136.2,252.7c0-0.5,0-1,0-1.5c-1.5-0.1-1.7,0.1-1.3,1.7C135.3,252.8,135.8,252.7,136.2,252.7z
		 M141.4,271.7c0.5,0,0.9,0,1.3,0c-0.4-0.8-0.8-1.4-1.2-2.1c0,0-0.1,0-0.1,0.1C141.4,270.3,141.4,271,141.4,271.7z M99,283.7
		c0,0.1,0,0.2,0,0.2c1.2,0.5,2.5,0.1,3.7,0.2c0.1,0,0.2-0.2,0.4-0.4C101.6,283.7,100.3,283.7,99,283.7z M112.8,284.1
		c-1.2-0.7-2.3-0.4-3.4-0.4C109.7,284.3,110.7,284.4,112.8,284.1z M134,251.7c-0.1,0-0.2-0.1-0.3-0.1c-0.2,0.4-0.4,0.8-0.6,1.2
		c0,0.1,0.3,0.4,0.4,0.5c0.1-0.2,0.4-0.3,0.4-0.5C134.1,252.4,134,252.1,134,251.7z M80.6,277.8c0,0.5,0,0.8,0,1.2
		c0.5,0,0.9,0,1.6,0C81.6,278.6,81.1,278.2,80.6,277.8z M122.5,300.3c0.1,0.7,0.1,1.2,0.2,1.7c0.4-0.2,0.7-0.4,1.1-0.6
		C123.5,301.1,123.1,300.8,122.5,300.3z M108,281.4c0.9-0.5,1.7-0.9,2.4-1.3c-0.1-0.1-0.1-0.2-0.2-0.2
		C109.3,280,108.7,280.6,108,281.4z M120.5,279.1c-1.5-0.7-1.6-0.7-1.7,0C119.4,279.1,120,279.1,120.5,279.1z M109.2,282.9
		c0.6,0,1.3,0,1.9,0C110.8,282.3,110.1,282.2,109.2,282.9z M82.9,300c-0.1-0.6-0.2-1.2-0.3-1.9C81.9,299.5,81.9,299.5,82.9,300z
		 M129.9,299.1c0,0.1,0,0.1,0,0.2c0.5-0.1,0.9-0.1,1.4-0.2c-0.1-0.3-0.2-0.5-0.3-0.8C130.6,298.6,130.3,298.9,129.9,299.1z
		 M108.7,282c0.7-0.2,1.2-0.3,1.7-0.4C110.2,281,109.8,281.1,108.7,282z"/>
	<path class="st0" d="M106.2,181c-0.9,0-1.5-0.7-1.5-1.5c0-0.8,0.7-1.5,1.6-1.5c0.8,0,1.5,0.7,1.5,1.5
		C107.7,180.3,107,181,106.2,181z"/>
	<path class="st0" d="M44.6,294c-0.9,0-1.5-0.8-1.5-1.6c0.1-0.9,0.8-1.5,1.6-1.4c0.8,0,1.5,0.8,1.4,1.6
		C46.2,293.4,45.5,294,44.6,294z"/>
	<path class="st0" d="M169.3,292.4c0,0.8-0.7,1.5-1.5,1.5c-0.9,0-1.6-0.7-1.6-1.5c0-0.8,0.7-1.5,1.5-1.5
		C168.6,290.9,169.3,291.6,169.3,292.4z"/>
	<path class="st0" d="M44.7,211.4c0.9,0,1.5,0.7,1.5,1.5c0,0.8-0.7,1.5-1.6,1.5c-0.8,0-1.5-0.7-1.5-1.5
		C43.1,212.1,43.8,211.4,44.7,211.4z"/>
	<path class="st0" d="M167.7,214.5c-0.8,0-1.5-0.7-1.5-1.6c0-0.9,0.8-1.5,1.6-1.5c0.8,0,1.5,0.7,1.5,1.5
		C169.3,213.8,168.6,214.5,167.7,214.5z"/>
	<path class="st0" d="M106.2,324.5c0.9,0,1.5,0.7,1.5,1.6c0,0.9-0.7,1.5-1.6,1.5c-0.8,0-1.5-0.7-1.5-1.5
		C104.7,325.1,105.4,324.5,106.2,324.5z"/>
	<path class="st0" d="M180.8,258.2c0,0.8-0.7,1.5-1.6,1.5c-0.8,0-1.5-0.7-1.5-1.5c0-0.8,0.7-1.6,1.5-1.6
		C180.1,256.7,180.8,257.4,180.8,258.2z"/>
	<path class="st0" d="M178.9,242.1c0.8,0,1.6,0.7,1.6,1.5c0,0.8-0.7,1.5-1.5,1.6c-0.8,0-1.6-0.6-1.6-1.5
		C177.3,242.8,178,242.1,178.9,242.1z"/>
	<path class="st0" d="M33.5,245.1c-0.8,0-1.5-0.8-1.5-1.6c0-0.8,0.7-1.5,1.5-1.5c0.8,0,1.5,0.7,1.5,1.6
		C35,244.5,34.3,245.2,33.5,245.1z"/>
	<path class="st0" d="M165,298.4c0,0.8-0.8,1.5-1.6,1.5c-0.8,0-1.5-0.8-1.5-1.6c0-0.8,0.7-1.5,1.6-1.5
		C164.3,296.9,165,297.6,165,298.4z"/>
	<path class="st0" d="M37.2,272.5c0,0.8-0.7,1.6-1.5,1.6c-0.8,0-1.5-0.7-1.5-1.6c0-0.8,0.7-1.5,1.5-1.5
		C36.5,271,37.2,271.7,37.2,272.5z"/>
	<path class="st0" d="M50.5,298.4c0,0.8-0.7,1.5-1.6,1.5c-0.8,0-1.5-0.8-1.5-1.6c0-0.8,0.7-1.5,1.5-1.5
		C49.8,296.9,50.5,297.6,50.5,298.4z"/>
	<path class="st0" d="M88.1,180.2c0.8,0,1.6,0.7,1.5,1.5c0,0.8-0.7,1.5-1.6,1.5c-0.8,0-1.5-0.7-1.5-1.5
		C86.6,180.9,87.3,180.2,88.1,180.2z"/>
	<path class="st0" d="M37.2,232.9c0,0.8-0.7,1.6-1.5,1.6c-0.8,0-1.5-0.7-1.5-1.5c0-0.8,0.7-1.6,1.5-1.6
		C36.5,231.3,37.2,232,37.2,232.9z"/>
	<path class="st0" d="M127.8,184.2c-0.8,0-1.6-0.7-1.6-1.5c0-0.8,0.7-1.5,1.5-1.5c0.8,0,1.6,0.6,1.6,1.5
		C129.4,183.5,128.7,184.2,127.8,184.2z"/>
	<path class="st0" d="M79.3,185.2c0,0.8-0.7,1.6-1.6,1.5c-0.8,0-1.5-0.7-1.5-1.6c0-0.8,0.7-1.5,1.5-1.5
		C78.5,183.7,79.3,184.4,79.3,185.2z"/>
	<path class="st0" d="M180.4,261.9c0,0.8-0.8,1.5-1.6,1.5c-0.8,0-1.5-0.7-1.5-1.5c0-0.8,0.7-1.5,1.6-1.5
		C179.8,260.3,180.5,261,180.4,261.9z"/>
	<path class="st0" d="M127.8,321.2c0.8,0,1.5,0.7,1.5,1.6c0,0.8-0.7,1.5-1.6,1.5c-0.8,0-1.5-0.7-1.5-1.5
		C126.3,321.9,127,321.2,127.8,321.2z"/>
	<path class="st0" d="M125.8,323.7c0,0.8-0.8,1.5-1.6,1.5c-0.8,0-1.5-0.8-1.5-1.6c0-0.8,0.7-1.5,1.5-1.5
		C125.1,322.2,125.8,322.9,125.8,323.7z"/>
	<path class="st0" d="M35,261.8c0,0.8-0.7,1.5-1.6,1.5c-0.8,0-1.5-0.8-1.5-1.6c0-0.8,0.7-1.5,1.5-1.5C34.3,260.3,35.1,261,35,261.8z
		"/>
	<path class="st0" d="M89.7,323.8c0,0.8-0.8,1.5-1.6,1.5c-0.8,0-1.5-0.8-1.5-1.6c0-0.8,0.7-1.6,1.6-1.5
		C89,322.2,89.7,322.9,89.7,323.8z"/>
	<path class="st0" d="M176.7,231.3c0.8,0,1.5,0.7,1.5,1.6c0,0.8-0.7,1.5-1.5,1.5c-0.8,0-1.6-0.7-1.6-1.5
		C175.2,232.1,175.9,231.3,176.7,231.3z"/>
	<path class="st0" d="M84.6,321.2c0.8,0,1.5,0.7,1.5,1.5c0,0.8-0.7,1.5-1.5,1.5c-0.8,0-1.6-0.7-1.6-1.5
		C83.1,321.9,83.8,321.2,84.6,321.2z"/>
	<path class="st0" d="M138,188.2c-0.9,0-1.6-0.7-1.6-1.5c0-0.8,0.7-1.5,1.6-1.5c0.8,0,1.5,0.7,1.5,1.5
		C139.6,187.5,138.9,188.2,138,188.2z"/>
	<path class="st0" d="M74.4,188.2c-0.9,0-1.5-0.7-1.5-1.6c0-0.8,0.7-1.5,1.6-1.4c0.9,0,1.5,0.7,1.5,1.6
		C75.9,187.6,75.2,188.2,74.4,188.2z"/>
	<path class="st0" d="M134.7,318.7c0.8,0,1.5,0.7,1.5,1.6c0,0.8-0.7,1.5-1.5,1.5c-0.8,0-1.6-0.7-1.6-1.5
		C133.1,319.4,133.8,318.7,134.7,318.7z"/>
	<path class="st0" d="M76.2,320.2c0-0.8,0.8-1.5,1.6-1.5c0.8,0,1.5,0.8,1.5,1.6c0,0.8-0.8,1.5-1.6,1.5
		C76.9,321.7,76.2,321,76.2,320.2z"/>
	<path class="st0" d="M175.6,274.5c0.8,0,1.6,0.7,1.6,1.5c0,0.8-0.7,1.5-1.5,1.5c-0.8,0-1.5-0.7-1.5-1.5
		C174.1,275.2,174.8,274.5,175.6,274.5z"/>
	<path class="st0" d="M74.4,317.2c0.9,0,1.6,0.7,1.5,1.5c0,0.8-0.7,1.5-1.6,1.5c-0.8,0-1.5-0.7-1.5-1.5
		C72.9,317.9,73.6,317.2,74.4,317.2z"/>
	<path class="st0" d="M33.1,259.7c-0.8,0-1.5-0.7-1.5-1.6c0-0.8,0.8-1.5,1.6-1.5c0.8,0,1.5,0.7,1.5,1.5
		C34.7,259.1,34,259.7,33.1,259.7z"/>
	<path class="st0" d="M61.9,195.9c-0.8,0-1.5-0.8-1.5-1.6c0-0.8,0.8-1.5,1.6-1.5c0.8,0,1.5,0.8,1.5,1.5
		C63.5,195.2,62.8,195.9,61.9,195.9z"/>
	<path class="st0" d="M150.4,192.8c0.8,0,1.5,0.7,1.5,1.6c0,0.8-0.8,1.5-1.6,1.5c-0.8,0-1.5-0.7-1.5-1.5
		C148.9,193.5,149.6,192.8,150.4,192.8z"/>
	<path class="st0" d="M59.1,195.1c0.9,0,1.5,0.7,1.5,1.5c0,0.9-0.7,1.5-1.6,1.5c-0.8,0-1.5-0.7-1.5-1.5
		C57.6,195.8,58.2,195.1,59.1,195.1z"/>
	<path class="st0" d="M84.6,184.2c-0.8,0-1.5-0.7-1.6-1.5c0-0.8,0.7-1.5,1.6-1.5c0.8,0,1.5,0.7,1.5,1.5
		C86.2,183.5,85.5,184.2,84.6,184.2z"/>
	<path class="st0" d="M125.8,181.7c0,0.8-0.7,1.6-1.5,1.6c-0.8,0-1.5-0.7-1.5-1.5c0-0.8,0.7-1.6,1.5-1.6
		C125.1,180.1,125.8,180.9,125.8,181.7z"/>
	<path class="st0" d="M153.3,195.1c0.9,0,1.5,0.7,1.5,1.5c0,0.8-0.7,1.5-1.5,1.5c-0.9,0-1.6-0.7-1.6-1.5
		C151.8,195.7,152.4,195.1,153.3,195.1z"/>
	<path class="st0" d="M52.8,204.3c0,0.8-0.8,1.5-1.6,1.5c-0.8,0-1.5-0.8-1.5-1.6c0-0.8,0.8-1.5,1.6-1.5
		C52.1,202.7,52.8,203.4,52.8,204.3z"/>
	<path class="st0" d="M161.1,205.8c-0.8,0-1.5-0.8-1.5-1.6c0-0.8,0.8-1.5,1.6-1.5c0.8,0,1.5,0.8,1.5,1.5
		C162.7,205.1,161.9,205.8,161.1,205.8z"/>
	<path class="st0" d="M52.8,301.2c0,0.8-0.7,1.6-1.6,1.5c-0.8,0-1.5-0.7-1.5-1.6c0-0.8,0.7-1.5,1.5-1.5
		C52.1,299.6,52.8,300.4,52.8,301.2z"/>
	<path class="st0" d="M178.3,272.6c0,0.8-0.7,1.5-1.6,1.5c-0.8,0-1.5-0.7-1.5-1.5c0-0.8,0.7-1.6,1.5-1.6
		C177.5,271,178.3,271.7,178.3,272.6z"/>
	<path class="st0" d="M50.5,207.1c0,0.8-0.8,1.5-1.6,1.5c-0.8,0-1.5-0.7-1.5-1.5c0-0.8,0.7-1.5,1.6-1.5
		C49.8,205.5,50.5,206.2,50.5,207.1z"/>
	<path class="st0" d="M150.4,312.7c-0.8,0-1.5-0.8-1.5-1.6c0-0.8,0.7-1.5,1.5-1.5c0.8,0,1.6,0.7,1.6,1.5
		C152,312,151.2,312.7,150.4,312.7z"/>
	<path class="st0" d="M61.9,309.6c0.8,0,1.6,0.7,1.6,1.5c0,0.8-0.7,1.6-1.6,1.5c-0.8,0-1.5-0.7-1.5-1.5
		C60.4,310.3,61.1,309.6,61.9,309.6z"/>
	<path class="st0" d="M162.7,301.2c0,0.8-0.8,1.5-1.6,1.5c-0.8,0-1.5-0.8-1.5-1.6c0-0.8,0.8-1.5,1.5-1.5
		C162,299.7,162.7,300.4,162.7,301.2z"/>
	<path class="st0" d="M179.3,248.8c-0.8,0-1.6-0.7-1.5-1.5c0-0.8,0.7-1.5,1.6-1.5c0.8,0,1.5,0.7,1.5,1.5
		C180.8,248,180.1,248.8,179.3,248.8z"/>
	<path class="st0" d="M153.3,310.4c-0.9,0-1.5-0.7-1.5-1.6c0-0.8,0.7-1.5,1.5-1.5c0.9,0,1.5,0.7,1.5,1.5
		C154.8,309.7,154.1,310.4,153.3,310.4z"/>
	<path class="st0" d="M33.1,248.8c-0.8,0-1.5-0.7-1.5-1.5c0-0.8,0.7-1.5,1.5-1.5c0.9,0,1.6,0.7,1.6,1.5
		C34.7,248.1,34,248.8,33.1,248.8z"/>
	<path class="st0" d="M59.1,310.4c-0.9,0-1.5-0.7-1.5-1.5c0-0.8,0.7-1.5,1.6-1.5c0.8,0,1.5,0.7,1.5,1.5
		C60.7,309.7,60,310.3,59.1,310.4z"/>
	<path class="st0" d="M165.7,294c0.8,0,1.6,0.7,1.6,1.5c0,0.8-0.7,1.5-1.5,1.5c-0.9,0-1.6-0.6-1.6-1.5
		C164.1,294.7,164.8,294,165.7,294z"/>
	<path class="st0" d="M48.3,210c0,0.8-0.7,1.5-1.6,1.5c-0.8,0-1.5-0.8-1.5-1.6c0-0.8,0.7-1.5,1.5-1.5
		C47.6,208.4,48.3,209.1,48.3,210z"/>
	<path class="st0" d="M157.6,306.4c0,0.9-0.7,1.5-1.5,1.5c-0.8,0-1.5-0.7-1.5-1.6c0-0.8,0.7-1.5,1.5-1.5
		C156.9,304.9,157.6,305.6,157.6,306.4z"/>
	<path class="st0" d="M54.9,306.4c0-0.9,0.7-1.5,1.6-1.5c0.8,0,1.5,0.7,1.5,1.5c0,0.9-0.7,1.6-1.5,1.5
		C55.5,308,54.8,307.3,54.9,306.4z"/>
	<path class="st0" d="M41,217.8c0.9,0,1.5,0.7,1.5,1.6c0,0.8-0.7,1.5-1.5,1.5c-0.9,0-1.6-0.7-1.6-1.5
		C39.5,218.5,40.2,217.8,41,217.8z"/>
	<path class="st0" d="M38.3,276c0,0.8-0.7,1.5-1.5,1.5c-0.8,0-1.5-0.7-1.5-1.6c0-0.8,0.7-1.5,1.5-1.5
		C37.6,274.5,38.3,275.2,38.3,276z"/>
	<path class="st0" d="M165,207.1c0,0.8-0.7,1.5-1.6,1.5c-0.8,0-1.5-0.7-1.5-1.5c0-0.8,0.7-1.6,1.5-1.6
		C164.3,205.5,165,206.2,165,207.1z"/>
	<path class="st0" d="M109.9,327.4c-0.8,0-1.5-0.7-1.5-1.6c0-0.8,0.7-1.5,1.5-1.5c0.8,0,1.6,0.7,1.6,1.5
		C111.4,326.7,110.7,327.4,109.9,327.4z"/>
	<path class="st0" d="M104.1,325.9c0,0.9-0.7,1.6-1.5,1.6c-0.8,0-1.5-0.7-1.5-1.5c0-0.8,0.6-1.6,1.5-1.6
		C103.3,324.3,104.1,325,104.1,325.9z"/>
	<path class="st0" d="M142.8,188.4c0,0.9-0.7,1.5-1.6,1.5c-0.9,0-1.5-0.8-1.5-1.6c0-0.8,0.7-1.5,1.5-1.4
		C142.1,186.9,142.8,187.6,142.8,188.4z"/>
	<path class="st0" d="M69.6,188.3c0-0.9,0.8-1.5,1.6-1.5c0.8,0.1,1.4,0.7,1.4,1.6c0,0.9-0.7,1.5-1.6,1.5
		C70.3,189.9,69.6,189.2,69.6,188.3z"/>
	<path class="st0" d="M177.2,229.4c0,0.8-0.7,1.5-1.5,1.5c-0.8,0-1.5-0.6-1.5-1.5c0-0.8,0.7-1.6,1.5-1.6
		C176.5,227.8,177.2,228.5,177.2,229.4z"/>
	<path class="st0" d="M36.8,227.9c0.8,0,1.5,0.7,1.5,1.6c0,0.8-0.7,1.5-1.5,1.5c-0.9,0-1.6-0.7-1.6-1.5
		C35.2,228.5,35.9,227.8,36.8,227.9z"/>
	<path class="st0" d="M35.6,240.1c0,0.9-0.8,1.5-1.6,1.5c-0.8,0-1.4-0.7-1.4-1.6c0-0.9,0.7-1.5,1.6-1.5
		C35,238.5,35.6,239.2,35.6,240.1z"/>
	<path class="st0" d="M82.7,321.5c0,0.8-0.7,1.5-1.5,1.6c-0.9,0-1.5-0.7-1.5-1.5c0-0.8,0.7-1.5,1.5-1.5
		C82,320,82.7,320.7,82.7,321.5z"/>
	<path class="st0" d="M111.4,179.6c0,0.8-0.7,1.5-1.6,1.5c-0.8,0-1.5-0.8-1.5-1.6c0-0.8,0.7-1.5,1.5-1.5
		C110.7,178,111.4,178.7,111.4,179.6z"/>
	<path class="st0" d="M134.7,183.7c0.8,0,1.5,0.8,1.5,1.6c0,0.8-0.8,1.5-1.6,1.5c-0.8,0-1.5-0.8-1.5-1.6
		C133.1,184.4,133.9,183.6,134.7,183.7z"/>
	<path class="st0" d="M138,317.2c0.9,0,1.5,0.8,1.5,1.6c0,0.8-0.7,1.5-1.6,1.4c-0.8,0-1.5-0.7-1.5-1.6
		C136.5,317.8,137.2,317.2,138,317.2z"/>
	<path class="st0" d="M142.8,317.1c0,0.9-0.7,1.5-1.6,1.5c-0.8,0-1.5-0.7-1.5-1.5c0-0.9,0.7-1.5,1.5-1.5
		C142.1,315.5,142.8,316.2,142.8,317.1z"/>
	<path class="st0" d="M69.6,317.1c0-0.9,0.7-1.5,1.5-1.5c0.9,0,1.5,0.7,1.5,1.6c0,0.8-0.7,1.5-1.5,1.5
		C70.3,318.6,69.6,317.9,69.6,317.1z"/>
	<path class="st0" d="M81.1,185.4c-0.9,0-1.5-0.7-1.5-1.5c0-0.9,0.7-1.5,1.6-1.5c0.8,0,1.5,0.7,1.5,1.5
		C82.7,184.7,82,185.4,81.1,185.4z"/>
	<path class="st0" d="M104.1,179.6c0,0.8-0.7,1.5-1.6,1.5c-0.8,0-1.5-0.8-1.5-1.6c0-0.8,0.7-1.5,1.5-1.5
		C103.4,178,104.1,178.7,104.1,179.6z"/>
	<path class="st0" d="M176.8,240c0-0.9,0.7-1.6,1.5-1.5c0.8,0,1.5,0.7,1.5,1.5c0,0.9-0.6,1.6-1.5,1.6
		C177.5,241.6,176.8,240.9,176.8,240z"/>
	<path class="st0" d="M48.3,295.5c0,0.8-0.7,1.5-1.6,1.5c-0.8,0-1.5-0.7-1.5-1.5c0-0.8,0.7-1.5,1.6-1.5
		C47.6,294,48.3,294.7,48.3,295.5z"/>
	<path class="st0" d="M165.7,211.5c-0.8,0-1.6-0.7-1.6-1.5c0-0.8,0.7-1.5,1.5-1.5c0.9,0,1.6,0.6,1.6,1.5
		C167.3,210.7,166.6,211.5,165.7,211.5z"/>
	<path class="st0" d="M177.6,234.9c0.9,0,1.5,0.7,1.5,1.5c0,0.8-0.7,1.5-1.5,1.5c-0.9,0-1.6-0.7-1.6-1.5
		C176.1,235.6,176.8,234.9,177.6,234.9z"/>
	<path class="st0" d="M158.6,302.3c0.8,0,1.5,0.7,1.5,1.6c0,0.8-0.7,1.5-1.6,1.5c-0.8,0-1.5-0.7-1.5-1.5
		C157.1,303.1,157.8,302.3,158.6,302.3z"/>
	<path class="st0" d="M172.9,219.3c0,0.8-0.7,1.5-1.5,1.5c-0.8,0-1.5-0.6-1.5-1.5c0-0.8,0.6-1.6,1.5-1.6
		C172.2,217.7,172.9,218.4,172.9,219.3z"/>
	<path class="st0" d="M53.7,305.4c-0.8,0-1.5-0.8-1.5-1.6c0-0.8,0.8-1.5,1.6-1.5c0.8,0,1.5,0.7,1.5,1.6
		C55.3,304.7,54.5,305.4,53.7,305.4z"/>
	<path class="st0" d="M120.7,179.4c0.8,0,1.6,0.7,1.6,1.5c0,0.8-0.7,1.5-1.5,1.5c-0.8,0-1.5-0.6-1.5-1.5
		C119.2,180.1,119.8,179.4,120.7,179.4z"/>
	<path class="st0" d="M131.3,185.4c-0.9,0-1.6-0.7-1.5-1.5c0-0.8,0.7-1.5,1.5-1.5c0.9,0,1.6,0.6,1.6,1.5
		C132.8,184.7,132.1,185.4,131.3,185.4z"/>
	<path class="st0" d="M115.6,180.2c0-0.9,0.8-1.5,1.6-1.4c0.8,0.1,1.4,0.7,1.4,1.6c0,0.9-0.7,1.5-1.6,1.5
		C116.2,181.8,115.6,181.1,115.6,180.2z"/>
	<path class="st0" d="M118.6,325.2c0,0.9-0.7,1.5-1.6,1.5c-0.8,0-1.5-0.7-1.5-1.6c0-0.8,0.7-1.5,1.5-1.5
		C118,323.6,118.6,324.3,118.6,325.2z"/>
	<path class="st0" d="M39.5,279.5c0,0.9-0.7,1.6-1.5,1.5c-0.8,0-1.5-0.7-1.5-1.6c0-0.8,0.7-1.5,1.5-1.5
		C38.8,277.9,39.5,278.6,39.5,279.5z"/>
	<path class="st0" d="M174.4,277.9c0.8,0,1.6,0.7,1.6,1.5c0,0.8-0.7,1.6-1.5,1.6c-0.8,0-1.5-0.7-1.5-1.5
		C172.9,278.7,173.5,278,174.4,277.9z"/>
	<path class="st0" d="M160.2,201.5c0,0.8-0.7,1.6-1.5,1.6c-0.8,0-1.5-0.7-1.5-1.5c0-0.8,0.7-1.6,1.5-1.6
		C159.4,200,160.2,200.7,160.2,201.5z"/>
	<path class="st0" d="M53.7,200c0.8,0,1.5,0.7,1.5,1.5c0,0.8-0.7,1.6-1.6,1.5c-0.8,0-1.5-0.7-1.5-1.5C52.2,200.8,52.9,200,53.7,200z
		"/>
	<path class="st0" d="M177.6,270.5c-0.9,0-1.5-0.7-1.5-1.6c0-0.9,0.7-1.5,1.6-1.5c0.8,0,1.5,0.7,1.5,1.5
		C179.1,269.9,178.5,270.6,177.6,270.5z"/>
	<path class="st0" d="M132.8,321.5c0,0.8-0.7,1.5-1.5,1.6c-0.9,0-1.6-0.7-1.6-1.5c0-0.8,0.6-1.5,1.5-1.5
		C132.1,320,132.8,320.7,132.8,321.5z"/>
	<path class="st0" d="M34.8,270.5c-0.9,0-1.5-0.7-1.5-1.5c0-0.8,0.7-1.5,1.5-1.5c0.9,0,1.6,0.7,1.6,1.5
		C36.3,269.9,35.6,270.5,34.8,270.5z"/>
	<path class="st0" d="M54.9,199c0-0.9,0.7-1.5,1.6-1.5c0.8,0,1.5,0.8,1.4,1.6c0,0.8-0.7,1.5-1.6,1.4C55.5,200.5,54.8,199.8,54.9,199
		z"/>
	<path class="st0" d="M69.5,190.2c0,0.8-0.7,1.5-1.5,1.5c-0.8,0-1.5-0.7-1.5-1.5c0-0.9,0.6-1.6,1.5-1.6
		C68.8,188.7,69.5,189.4,69.5,190.2z"/>
	<path class="st0" d="M96.8,325.2c0,0.9-0.7,1.5-1.5,1.5c-0.9,0-1.5-0.7-1.5-1.6c0-0.8,0.7-1.5,1.5-1.5
		C96.1,323.6,96.8,324.3,96.8,325.2z"/>
	<path class="st0" d="M38,227.5c-0.8,0-1.5-0.8-1.5-1.6c0-0.8,0.8-1.5,1.6-1.5c0.8,0,1.5,0.7,1.4,1.6
		C39.5,226.8,38.8,227.5,38,227.5z"/>
	<path class="st0" d="M145.9,190.3c0,0.9-0.8,1.5-1.6,1.4c-0.8-0.1-1.4-0.8-1.4-1.6c0-0.8,0.8-1.5,1.6-1.5
		C145.3,188.7,146,189.4,145.9,190.3z"/>
	<path class="st0" d="M120.7,326.1c-0.8,0-1.5-0.7-1.5-1.5c0-0.9,0.7-1.5,1.6-1.5c0.8,0,1.5,0.7,1.5,1.5
		C122.3,325.3,121.6,326.1,120.7,326.1z"/>
	<path class="st0" d="M178.4,263.9c0.9,0,1.5,0.7,1.5,1.6c0,0.9-0.7,1.5-1.6,1.5c-0.8,0-1.5-0.7-1.5-1.5
		C176.8,264.6,177.5,263.9,178.4,263.9z"/>
	<path class="st0" d="M175.9,226c0,0.8-0.8,1.5-1.6,1.5c-0.8,0-1.5-0.8-1.5-1.6c0-0.8,0.7-1.5,1.5-1.5
		C175.3,224.4,176,225.1,175.9,226z"/>
	<path class="st0" d="M35.6,265.4c0,0.9-0.7,1.5-1.5,1.5c-0.8,0-1.5-0.7-1.5-1.6c0-0.8,0.7-1.5,1.5-1.5
		C34.9,263.9,35.6,264.6,35.6,265.4z"/>
	<path class="st0" d="M91.7,326.1c-0.8,0-1.5-0.7-1.5-1.6c0-0.8,0.7-1.5,1.6-1.5c0.8,0,1.5,0.7,1.5,1.5
		C93.2,325.4,92.5,326.1,91.7,326.1z"/>
	<path class="st0" d="M36.3,236.4c0,0.8-0.7,1.5-1.6,1.5c-0.9,0-1.5-0.7-1.5-1.6c0-0.8,0.7-1.5,1.5-1.5
		C35.6,234.9,36.3,235.6,36.3,236.4z"/>
	<path class="st0" d="M91.7,179.4c0.8,0,1.5,0.7,1.5,1.5c0,0.8-0.6,1.5-1.5,1.5c-0.9,0-1.6-0.7-1.6-1.5
		C90.1,180.1,90.8,179.4,91.7,179.4z"/>
	<path class="st0" d="M149,192.2c0,0.9-0.7,1.5-1.6,1.5c-0.9,0-1.5-0.7-1.5-1.6c0-0.8,0.7-1.4,1.5-1.4
		C148.4,190.7,149,191.4,149,192.2z"/>
	<path class="st0" d="M65,190.7c0.9,0,1.5,0.7,1.5,1.6c0,0.8-0.7,1.5-1.5,1.5c-0.9,0-1.5-0.7-1.5-1.5
		C63.4,191.3,64.1,190.7,65,190.7z"/>
	<path class="st0" d="M42.8,214.6c0.9,0,1.5,0.7,1.5,1.6c0,0.8-0.7,1.5-1.5,1.5c-0.8,0-1.6-0.7-1.6-1.5
		C41.2,215.2,41.9,214.6,42.8,214.6z"/>
	<path class="st0" d="M145.9,315.2c0,0.9-0.7,1.6-1.5,1.5c-0.8,0-1.5-0.7-1.5-1.6c0-0.8,0.7-1.5,1.5-1.5
		C145.2,313.7,145.9,314.4,145.9,315.2z"/>
	<path class="st0" d="M171.2,216.1c0,0.8-0.7,1.5-1.6,1.5c-0.8,0-1.5-0.8-1.5-1.6c0-0.8,0.7-1.5,1.5-1.5
		C170.5,214.6,171.2,215.3,171.2,216.1z"/>
	<path class="st0" d="M172.9,286.1c0,0.8-0.7,1.5-1.6,1.5c-0.8,0-1.5-0.7-1.5-1.6c0-0.8,0.7-1.5,1.5-1.5
		C172.2,284.6,172.9,285.3,172.9,286.1z"/>
	<path class="st0" d="M42.5,286.1c0,0.8-0.7,1.5-1.5,1.5c-0.9,0-1.5-0.7-1.5-1.5c0-0.8,0.7-1.5,1.5-1.5
		C41.8,284.6,42.5,285.3,42.5,286.1z"/>
	<path class="st0" d="M32.9,256.1c-0.8,0-1.5-0.7-1.5-1.5c0-0.9,0.7-1.5,1.6-1.5c0.9,0,1.5,0.7,1.5,1.6
		C34.4,255.5,33.8,256.1,32.9,256.1z"/>
	<path class="st0" d="M42.8,290.9c-0.9,0-1.6-0.7-1.5-1.5c0-0.8,0.7-1.5,1.6-1.5c0.8,0,1.5,0.7,1.5,1.5
		C44.3,290.2,43.6,290.9,42.8,290.9z"/>
	<path class="st0" d="M169.6,287.8c0.8,0,1.6,0.7,1.5,1.5c0,0.8-0.7,1.5-1.6,1.5c-0.8,0-1.5-0.7-1.5-1.5
		C168.1,288.5,168.8,287.8,169.6,287.8z"/>
	<path class="st0" d="M179.4,253c0.9,0,1.5,0.7,1.5,1.6c0,0.8-0.7,1.5-1.5,1.5c-0.9,0-1.5-0.7-1.5-1.6
		C177.9,253.7,178.6,253,179.4,253z"/>
	<path class="st0" d="M157.6,199c0,0.9-0.7,1.5-1.5,1.5c-0.8,0-1.5-0.7-1.5-1.5c0-0.9,0.7-1.6,1.5-1.6
		C156.9,197.5,157.6,198.2,157.6,199z"/>
	<path class="st0" d="M173,281.3c0.9,0,1.5,0.7,1.5,1.6c0,0.9-0.7,1.5-1.6,1.5c-0.8,0-1.5-0.7-1.4-1.5
		C171.5,282,172.2,281.3,173,281.3z"/>
	<path class="st0" d="M113.5,178.3c0.8,0,1.5,0.7,1.5,1.6c0,0.8-0.7,1.5-1.6,1.5c-0.8,0-1.5-0.7-1.5-1.5
		C112,179,112.7,178.3,113.5,178.3z"/>
	<path class="st0" d="M68,313.7c0.8,0,1.5,0.7,1.5,1.6c0,0.8-0.7,1.5-1.6,1.5c-0.8,0-1.5-0.7-1.5-1.5
		C66.5,314.4,67.2,313.7,68,313.7z"/>
	<path class="st0" d="M173,224.1c-0.9,0-1.5-0.7-1.5-1.5c0-0.8,0.7-1.5,1.5-1.5c0.9,0,1.6,0.6,1.6,1.5
		C174.5,223.4,173.9,224.1,173,224.1z"/>
	<path class="st0" d="M33,249.4c0.8,0,1.5,0.7,1.5,1.5c0,0.9-0.7,1.5-1.6,1.5c-0.8,0-1.5-0.7-1.5-1.5C31.4,250,32.1,249.4,33,249.4z
		"/>
	<path class="st0" d="M100.4,179.8c0,0.9-0.7,1.5-1.6,1.5c-0.8,0-1.5-0.7-1.5-1.5c0-0.8,0.7-1.6,1.5-1.6
		C99.8,178.3,100.4,179,100.4,179.8z"/>
	<path class="st0" d="M179.5,249.4c0.8,0,1.5,0.7,1.5,1.5c0,0.9-0.7,1.5-1.5,1.5c-0.9,0-1.5-0.7-1.5-1.6
		C178,250,178.6,249.4,179.5,249.4z"/>
	<path class="st0" d="M96.8,180.3c0,0.9-0.7,1.5-1.5,1.5c-0.8,0-1.5-0.7-1.5-1.5c0-0.9,0.6-1.6,1.5-1.6
		C96.1,178.7,96.8,179.4,96.8,180.3z"/>
	<path class="st0" d="M147.4,314.8c-0.9,0-1.5-0.7-1.5-1.6c0-0.8,0.7-1.5,1.5-1.5c0.9,0,1.5,0.7,1.5,1.5
		C149,314.1,148.3,314.8,147.4,314.8z"/>
	<path class="st0" d="M64.9,314.8c-0.9,0-1.5-0.7-1.5-1.5c0-0.8,0.7-1.5,1.6-1.5c0.8,0,1.5,0.7,1.5,1.5
		C66.5,314.1,65.8,314.8,64.9,314.8z"/>
	<path class="st0" d="M98.9,324.1c0.9,0,1.5,0.7,1.5,1.6c0,0.8-0.7,1.5-1.5,1.5c-0.8,0-1.5-0.7-1.5-1.5
		C97.4,324.8,98.1,324.1,98.9,324.1z"/>
	<path class="st0" d="M115,325.6c0,0.8-0.7,1.5-1.6,1.5c-0.8,0-1.5-0.7-1.5-1.6c0-0.8,0.7-1.5,1.5-1.5
		C114.3,324.1,115,324.8,115,325.6z"/>
	<path class="st0" d="M39.5,224.1c-0.9,0-1.6-0.6-1.6-1.5c0-0.9,0.7-1.5,1.5-1.5c0.8,0,1.5,0.6,1.5,1.5
		C41,223.4,40.3,224.1,39.5,224.1z"/>
	<path class="st0" d="M39.5,281.3c0.9,0,1.5,0.7,1.5,1.6c0,0.8-0.7,1.4-1.5,1.4c-0.9,0-1.5-0.7-1.5-1.6
		C37.9,282,38.6,281.3,39.5,281.3z"/>
	<path class="st0" d="M163.5,263.6c-1.1-0.2-2.1-0.7-3.3-0.5c0.2-0.8,0.3-1.5,0.5-2.2c2.8,0.7,5.6,1.3,8.5,2c0,0.2,0,0.4,0,0.5
		c-0.3,1.3-0.6,2.6-0.9,3.8c-0.1,0.5-0.3,0.9-0.6,1.4c-0.7,1.1-1.7,1.7-2.7,1.5c-1-0.2-1.7-1.1-1.9-2.4c0-0.1,0-0.2-0.1-0.4
		c-0.7,0.4-1.4,0.8-2,1.1c-0.7,0.4-1.4,0.3-1.6-0.2c-0.3-0.5,0-1.1,0.7-1.5c0.8-0.5,1.6-1,2.5-1.3
		C163.3,265,163.5,264.4,163.5,263.6z M165.3,268.4c1.4-1.1,1.3-2.6,1.7-4c-0.6-0.1-1-0.2-1.6-0.3
		C165.3,265.5,164.5,266.8,165.3,268.4z"/>
	<path class="st0" d="M69.8,206.8c0.9,0.1,1.6,0.2,2.4,0.4c0.8,0.1,1.2,0.6,1.1,1.2c-0.1,0.6-0.6,0.8-1.4,0.7
		c-1.1-0.2-2.3-0.4-3.4-0.5c-0.5,0-0.9,0.4-1.6,0.6c0.9,1,1.4,2,2.5,2.6c-0.6,0.5-1.2,1-1.8,1.5c-0.2-0.4-0.4-0.7-0.6-1
		c-1.6-2-3.3-3.9-5-6c1.5-1.1,3-2.3,4.5-3.4c0.1-0.1,0.3-0.1,0.5-0.2c1-0.3,2-0.3,2.8,0.5c0.8,0.9,0.7,1.9,0.2,2.9
		C70.1,206.4,70,206.5,69.8,206.8z M68.6,204.5c-1.8,0-2.6,1.3-3.8,2.2c0.4,0.4,0.7,0.8,1,1.2C66.8,206.8,68.3,206.3,68.6,204.5z"/>
	<path class="st0" d="M165.9,275.4c-0.2,0.5-0.4,1.1-0.8,1.7c-0.1,0.2-0.5,0.3-0.7,0.4c-2,0.4-4.1,0.8-6.1,1.1
		c-0.1,0-0.2,0.1-0.5,0.2c1.9,0.9,3.6,1.7,5.4,2.5c-0.3,0.7-0.6,1.3-0.9,2c-0.5-0.7-7.2-3.7-8-3.6c0.3-0.6,0.5-1.2,0.8-1.8
		c0.1-0.2,0.4-0.3,0.6-0.3c2.2-0.4,4.3-0.8,6.5-1.4c-1.7-0.8-3.5-1.6-5.2-2.4c0.3-0.7,0.6-1.3,0.9-1.9c0.3,0.2,0.6,0.5,0.9,0.6
		c2,1,4.1,1.9,6.1,2.8C165.2,275.3,165.5,275.3,165.9,275.4z"/>
	<path class="st0" d="M43.2,241.9c0.1-0.5,0.2-1.1,0.4-1.7c0.1-0.2,0.4-0.4,0.6-0.5c1.8-0.7,3.7-1.5,5.6-2.2
		c0.2-0.1,0.4-0.2,0.7-0.3c-2-0.5-3.8-0.9-5.8-1.4c0.2-0.7,0.3-1.4,0.4-1.9c1.5,0.4,2.9,0.7,4.3,1.1c1.4,0.3,2.8,0.8,4.3,0.9
		c-0.1,0.5-0.2,1.1-0.4,1.7c-0.1,0.2-0.4,0.4-0.6,0.5c-1.8,0.7-3.6,1.4-5.3,2.1c-0.3,0.1-0.5,0.2-0.9,0.4c1.1,0.3,2,0.5,3,0.7
		c0.9,0.2,1.8,0.5,2.8,0.7c-0.2,0.7-0.3,1.4-0.5,2c-1.3-0.7-2.8-0.9-4.2-1.2C46.2,242.5,44.8,242,43.2,241.9z"/>
	<path class="st0" d="M71.8,200.6c0.3-0.6,0.6-1.4,1-1.9c1-1.1,2.3-1.8,3.8-2.1c0.9-0.2,1.6,0.2,1.8,1c0.1,0.3-0.1,0.8-0.3,1
		c-0.2,0.2-0.8,0.3-1,0.2c-0.5-0.4-0.9-0.1-1.3,0.1c-0.5,0.3-1.1,0.7-1.5,1.1c-0.2,0.2-0.2,0.6-0.3,0.9c0.3,0,0.6,0.2,0.9,0.1
		c0.5-0.1,0.9-0.4,1.4-0.5c0.8-0.2,1.6-0.5,2.4-0.4c1.6,0.1,2.5,1.7,1.8,3.2c-0.6,1.4-3.3,3.2-4.9,3.1c-0.7,0-1.2-0.5-1.3-1.1
		c-0.1-0.3,0.1-0.8,0.4-1c0.2-0.2,0.7-0.2,0.9-0.1c0.5,0.3,0.9,0.2,1.2-0.1c0.6-0.4,1.2-0.8,1.8-1.3c0.1-0.1,0.2-0.5,0.2-0.6
		c-0.1-0.2-0.5-0.3-0.7-0.2c-0.5,0.1-1,0.3-1.5,0.6c-0.9,0.4-1.9,0.7-2.9,0.4C72.6,202.5,72,201.7,71.8,200.6z"/>
	<path class="st0" d="M56.2,275.8c0.4,0.7,0.8,1.4,1.1,2c-1,0.5-2,1-3,1.6c0.7,1.3,1.4,2.5,2.1,3.7c1-0.6,2-1,2.9-1.8
		c0.3,0.6,0.7,1.3,1.1,2c-1.5,0.4-2.6,1.3-3.9,2c-1.3,0.7-2.6,1.3-3.8,2.2c-0.3-0.5-0.7-1.2-1-1.8c1-0.5,2-1,3.1-1.6
		c-0.7-1.3-1.4-2.5-2.1-3.7c-0.9,0.7-2.1,0.9-2.9,1.9c-0.4-0.7-0.8-1.3-1.2-2.1C49.4,280.1,55.8,276.5,56.2,275.8z"/>
	<path class="st0" d="M120.9,190.9c2.4,0,4.4,1.9,4.4,4.4c0,2.4-2,4.4-4.4,4.4c-2.4,0-4.4-1.9-4.4-4.3
		C116.6,192.8,118.5,190.9,120.9,190.9z M118.5,195.2c0,1.4,1.1,2.5,2.5,2.5c1.3,0,2.4-1.1,2.5-2.5c0-1.4-1.1-2.5-2.5-2.5
		C119.6,192.7,118.5,193.9,118.5,195.2z"/>
	<path class="st0" d="M165.5,249.6c2.4,0,4.4,2,4.4,4.4c0,2.4-2,4.4-4.4,4.4c-2.4,0-4.4-2-4.4-4.4
		C161.1,251.6,163.1,249.6,165.5,249.6z M165.5,256.5c1.4,0,2.5-1.2,2.5-2.5c0-1.4-1.2-2.5-2.5-2.5c-1.3,0-2.4,1.1-2.5,2.5
		C163,255.3,164.2,256.5,165.5,256.5z"/>
	<path class="st0" d="M61.8,217.2c1-1.2,2-2.4,2.9-3.6c0.4,0.3,0.9,0.8,1.5,1.3c-1.5,1.8-2.9,3.5-4.4,5.2c-0.4-0.8-6-5.5-6.8-5.6
		c1.5-1.8,2.9-3.5,4.4-5.3c0.6,0.5,1.1,0.9,1.5,1.2c-1,1.2-2,2.3-3,3.5c0.4,0.3,0.8,0.7,1.2,1c0.7-0.8,1.4-1.6,2.1-2.4
		c0.5,0.4,1,0.8,1.5,1.2c-0.7,0.8-1.3,1.6-2.1,2.5C61,216.6,61.4,216.9,61.8,217.2z"/>
	<path class="st0" d="M49.3,272.9c-0.3-1-0.6-2-1-3c0.6-0.2,1.1-0.4,1.8-0.6c0.3,1,0.7,2,1,3.1c0.5-0.2,0.9-0.3,1.5-0.5
		c-0.5-1.5-1-2.9-1.5-4.4c0.5-0.2,1.1-0.4,1.8-0.6c0.7,2.2,1.4,4.3,2.1,6.3c-2.8,0.8-5.5,1.8-8.4,2.7c-0.6-1.9-1.3-4.1-2.1-6.3
		c0.7-0.2,1.4-0.4,1.9-0.6c0.5,1.5,0.9,2.9,1.4,4.5C48.4,273.2,48.8,273,49.3,272.9z"/>
	<path class="st0" d="M154.3,225.7c-0.6-0.8-1-1.5-1.3-1.9c0.6-0.6,1-1.2,1.5-1.8c0.1-0.1,0-0.3-0.1-0.4c-0.6-0.9-1.2-1.8-1.8-2.7
		c-0.8,0.3-1.5,0.5-2.3,0.8c-0.3-0.5-0.8-1.1-1.2-1.7c0.7-0.1,1.4-0.2,2.1-0.4c2-0.5,4-1.1,6-1.7c0.3-0.1,0.5-0.2,0.9-0.4
		c0.6,0.9,1.2,1.8,1.9,2.7C159.1,218.5,154.4,224.8,154.3,225.7z M155.8,220.2c0.7-0.9,1.3-1.7,1.9-2.5c0,0-0.1-0.1-0.1-0.1
		c-1,0.3-1.9,0.6-2.9,0.9C155,219.1,155.4,219.6,155.8,220.2z"/>
	<path class="st0" d="M144.4,292.5c0.6-0.7,1.1-1.3,1.5-1.7c0.8,0.4,1.5,0.7,2.2,1.1c0.8-0.9,1.6-1.8,2.4-2.8
		c-0.5-0.7-0.9-1.3-1.4-2.1c0.4-0.4,0.9-1,1.4-1.6c0.2,0.5,0.4,1,0.7,1.5c1.1,1.9,2.2,3.8,3.4,5.8c0.1,0.2,0.4,0.5,0.6,0.7
		c-0.7,0.8-1.4,1.6-2.2,2.5C152.5,295.4,145.4,292.4,144.4,292.5z M151.5,291c-0.5,0.5-0.9,1-1.4,1.6c1,0.4,1.9,0.8,2.8,1.2
		c0,0,0.1-0.1,0.1-0.1C152.5,292.7,152,291.9,151.5,291z"/>
	<path class="st0" d="M42.3,253.9c0-0.8,0.1-1.6,0.1-2.3c0.3,0.1,0.6,0.3,0.9,0.3c1.2,0.1,2.5,0.2,3.7,0.2c1.4,0,2.4-0.8,2.4-2
		c0-1.1-0.7-2-1.9-2.1c-1.4-0.1-2.8-0.2-4.2-0.2c-0.2,0-0.4,0.1-0.6,0.2c0-0.8,0-1.6,0-2.4c0.4,0.1,0.8,0.2,1.1,0.3
		c1.2,0.1,2.4,0.1,3.5,0.2c2.4,0.2,4,1.9,4,4.1c-0.1,2.2-1.8,3.9-4.2,3.9c-1.3,0-2.5-0.1-3.8-0.1C43,253.8,42.7,253.9,42.3,253.9z"
		/>
	<path class="st0" d="M152.4,212.9c-0.7-0.8-1.5-1.3-1.6-2.5c-0.1-1.2-1.4-2-2.6-1.9c-1.2,0.1-2.2,1.1-2.2,2.3
		c-0.1,1.3,0.7,2.6,2,2.6c1.2,0.1,1.6,0.9,2.3,1.5c-1.9,0.9-4.1,0.3-5.4-1.4c-1.2-1.7-1.1-4.1,0.4-5.6c1.5-1.5,3.8-1.8,5.6-0.6
		C152.7,208.6,153.3,210.9,152.4,212.9z"/>
	<path class="st0" d="M136.3,196.4c-0.3,0.7-0.6,1.3-0.8,1.8c-1.4-0.7-2.8-1.4-4.2-2.1c-0.3,0.6-0.5,1.1-0.8,1.7
		c1.2,0.6,2.3,1.1,3.6,1.7c-0.3,0.6-0.5,1.1-0.8,1.7c-1.2-0.6-2.3-1.1-3.6-1.7c-0.4,1-0.8,1.9-1.2,2.8c-0.6-0.3-1.3-0.6-2-0.9
		c0.2-0.3,0.5-0.6,0.6-0.9c1-2,1.9-4,2.8-6c0.1-0.3,0.2-0.7,0.3-1C132.2,194.5,134.2,195.5,136.3,196.4z"/>
	<path class="st0" d="M169.7,246.5c-0.8,0.1-1.4,0.2-2.1,0.3c0.2-1.6-0.3-3.1-0.5-4.7c-0.7,0.1-1.2,0.2-1.9,0.3
		c0.2,1.3,0.4,2.6,0.6,3.9c-0.6,0.1-1.2,0.2-1.8,0.3c-0.2-1.3-0.4-2.6-0.6-3.9c-1,0.2-2,0.4-3,0.5c-0.1-0.6-0.2-1.4-0.3-2
		c2.9-0.3,5.8-0.8,8.7-1.3C169,242,169.4,244.2,169.7,246.5z"/>
	<path class="st0" d="M56.5,224.7c-1.3-1.8-2.4-3.5-3.6-5.1c-0.5-0.7-0.7-1.3-0.1-2c0.1-0.2,0.2-0.3,0.4-0.6
		c0.8,1.2,1.6,2.3,2.4,3.4c1,1.4,1.9,2.8,2.9,4.1c0.5,0.6-0.1,0.9-0.3,1.4c-0.1,0.3-0.3,0.7-0.8,0.7c-3-0.2-6-0.4-8.9-0.6
		c0,0-0.1,0-0.2-0.1c0.2-0.4,0.4-0.9,0.7-1.3c0.1-0.2,0.5-0.2,0.8-0.2c1.9,0.1,3.8,0.3,5.6,0.4C55.8,224.7,56.1,224.7,56.5,224.7z"
		/>
	<path class="st0" d="M92.3,199.6c-0.6,0.2-1.3,0.4-2,0.6c0-0.4,0-0.7-0.1-1c-0.5-1.9-1-3.7-1.6-5.7c-1,0.3-2,0.6-2.9,0.9
		c-0.1-0.5-0.3-1.1-0.5-1.9c2.6-0.7,5.1-1.4,7.8-2.2c0.2,0.7,0.4,1.4,0.5,1.9c-1,0.3-2,0.5-3,0.7C91,195.2,91.6,197.3,92.3,199.6z"
		/>
	<path class="st0" d="M59.3,293c0.8,0.7,1.2,1.7,2.1,2.2c-0.5,0.4-1,0.8-1.6,1.3c-1.7-2.1-3.4-4.1-5.2-6.2c0.6-0.5,1.1-0.9,1.5-1.3
		c0.6,0.8,1.2,1.6,1.9,2.4c1.8-1.5,3.6-2.9,5.3-4.5c0.4,0.5,0.9,1.1,1.3,1.5C62.8,290.1,61.1,291.6,59.3,293z"/>
	<path class="st0" d="M160,233.6c-0.5,0.2-1.1,0.5-1.8,0.8c-1-2.3-2-4.6-3-6.9c0.4-0.1,0.7-0.1,1-0.3c2.1-0.9,4.1-1.7,6.1-2.6
		c0.3-0.1,0.6-0.4,0.9-0.6c0.2,0.6,0.5,1.2,0.8,1.9c-2.1,0.9-4.2,1.8-6.3,2.7C158.5,230.4,159.1,232,160,233.6z"/>
	<path class="st0" d="M95.4,189.8c0.7-0.1,1.4-0.2,2.1-0.2c0.8,1.2,1.6,2.3,2.5,3.6c0.6-1.4,1.1-2.6,1.7-4c0.6-0.1,1.4-0.1,2.1-0.2
		c-0.4,0.8-0.8,1.6-1.2,2.4c-0.3,0.6-0.4,1.2-0.8,1.7c-0.9,1.4-0.6,2.8-0.4,4.3c0,0.2,0.2,0.4,0.4,0.6c-0.8,0.1-1.6,0.2-2.3,0.2
		c0-1.3,0.1-2.6-0.6-3.8c-0.6-0.9-1.3-1.9-1.9-2.8C96.4,191,95.9,190.4,95.4,189.8z"/>
	<path class="st0" d="M159.3,238.5c-0.2-0.8-0.5-1.6-0.6-2.2c2.9-0.6,5.6-1.5,8.4-2.4c0.2,0.6,0.4,1.3,0.6,2.1
		C166.9,235.8,159.8,237.9,159.3,238.5z"/>
	<path class="st0" d="M160.3,286.5c-0.4,0.6-0.8,1.3-1.2,1.8c-2.4-1.7-4.9-3.2-7.3-4.8c0.3-0.5,0.7-1.2,1.2-1.8
		c-0.1,0.1-0.2,0.2-0.3,0.4c0.3,0.1,0.7,0.2,0.9,0.4c1.9,1.2,3.9,2.5,5.8,3.8C159.6,286.3,159.9,286.3,160.3,286.5z"/>
	<path class="st0" d="M85.9,201.6c-0.8,0.3-1.5,0.6-2.1,0.9c-1.1-2.7-2.2-5.4-3.4-8.1c0.5-0.2,1.3-0.5,2-0.9
		C82.4,194.4,85.3,201.2,85.9,201.6z"/>
	<path class="st0" d="M47.5,228c0.3,0.2,0.5,0.4,0.8,0.6c2.1,0.9,4.3,1.7,6.4,2.6c0.3,0.1,0.6,0.1,0.9,0.1c-0.3,0.7-0.6,1.5-0.9,2.2
		c-0.3-0.2-0.5-0.4-0.8-0.6c-2.1-0.9-4.2-1.7-6.3-2.5c-0.3-0.1-0.6-0.1-1-0.2C46.9,229.4,47.2,228.7,47.5,228z"/>
	<path class="st0" d="M47.4,258.9c0.8,0,1.6,0.7,1.5,1.5c0,0.8-0.7,1.5-1.6,1.5c-0.8,0-1.5-0.7-1.5-1.5
		C45.8,259.6,46.5,258.9,47.4,258.9z"/>
	<path class="st0" d="M71.6,299.8c0,0.9-0.7,1.5-1.5,1.5c-0.8,0-1.5-0.7-1.5-1.6c0-0.8,0.7-1.5,1.5-1.5
		C70.9,298.2,71.6,298.9,71.6,299.8z"/>
	<path class="st0" d="M143.8,299.8c0,0.9-0.7,1.6-1.5,1.5c-0.8,0-1.5-0.7-1.5-1.6c0-0.8,0.7-1.5,1.5-1.5
		C143.1,298.2,143.8,298.9,143.8,299.8z"/>
	<path class="st0" d="M109.8,192c0.8,0,1.6,0.7,1.6,1.5c0,0.8-0.7,1.5-1.5,1.5c-0.9,0-1.6-0.6-1.6-1.5
		C108.3,192.7,109,192,109.8,192z"/>
	<path class="st0" d="M140.2,202.6c0.8,0,1.5,0.7,1.5,1.5c0,0.8-0.7,1.5-1.6,1.5c-0.8,0-1.5-0.7-1.5-1.5
		C138.7,203.3,139.4,202.6,140.2,202.6z"/>
	<path class="st0" d="M129.6,208.8c0.2,0.8-0.2,0.7-0.6,0.7c-2.9-0.2-5.9-0.5-8.8-0.7c-1.1-0.1-2.3-0.2-3.5-0.3
		c-0.5,0-0.8-0.1-0.5-0.8C120.7,208,125.1,208.4,129.6,208.8z"/>
	<path class="st0" d="M89.7,232.1c-2.6,0-5.1,0-7.7,0c0-2.6,0-5.1,0-7.7c2.6,0,5.1,0,7.7,0C89.7,227,89.7,229.5,89.7,232.1z
		 M82.8,231.4c2.1,0,4.2,0,6.2,0c0-2.1,0-4.1,0-6.2c-2.1,0-4.1,0-6.2,0C82.8,227.3,82.8,229.3,82.8,231.4z"/>
	<path class="st0" d="M87.9,260.2c-0.2-0.7,0.3-0.7,0.7-0.7c2.9,0,5.9,0,8.8,0c0.8,0,1.6,0,2.4,0c0.2,0,0.4,0.3,0.6,0.4
		c0,0.1-0.1,0.2-0.1,0.2C96.1,260.2,92,260.2,87.9,260.2z"/>
	<path class="st0" d="M86.4,236.8c-0.1-0.5-0.1-0.7,0.4-0.7c3.3,0,6.7,0,10,0c0.2,0,0.3,0.2,0.5,0.3c-0.1,0.1-0.2,0.4-0.4,0.4
		C93.5,236.8,90,236.8,86.4,236.8z"/>
	<path class="st0" d="M82.1,254.9c2.6,0,5.2,0,7.8,0c0.2,0.5,0.1,0.7-0.4,0.7c-2.3,0-4.7,0-7,0c-0.2,0-0.4-0.3-0.6-0.4
		C81.9,255.1,82,255,82.1,254.9z"/>
	<path class="st0" d="M88.6,245.5c1.9,0,3.8,0,5.7,0c0.1,0.5,0.1,0.7-0.5,0.7c-1.6,0-3.1,0-4.7,0C88.6,246.3,88.5,246.1,88.6,245.5z
		"/>
	<path class="st0" d="M93,262.6c-0.1-0.5,0-0.7,0.5-0.7c1.6,0,3.1,0,4.7,0c0.5,0,0.7,0.2,0.5,0.7C96.8,262.6,94.9,262.6,93,262.6z"
		/>
	<path class="st0" d="M86.4,264.9c-0.1-0.5,0-0.7,0.5-0.7c1.6,0,3.1,0,4.7,0c0.5,0,0.7,0.2,0.5,0.7
		C90.3,264.9,88.4,264.9,86.4,264.9z"/>
	<path class="st0" d="M82,257.9c-0.1-0.5-0.1-0.7,0.4-0.7c2.1,0,4.2,0,6.4,0c0.2,0,0.3,0.2,0.5,0.4c-0.2,0.1-0.3,0.3-0.5,0.3
		C86.5,257.9,84.3,257.9,82,257.9z"/>
	<path class="st0" d="M93,252.8c-0.2,0.1-0.4,0.4-0.6,0.4c-1.9,0-3.7,0-5.6,0c-0.2,0-0.4-0.3-0.6-0.4c0-0.1,0.1-0.2,0.1-0.2
		c2.1,0,4.3,0,6.4,0C92.9,252.7,93,252.7,93,252.8z"/>
	<path class="st0" d="M85.7,247.9c1.7,0,3.3,0,5,0c0.2,0.5,0.1,0.7-0.5,0.7c-1.4,0-2.7,0-4.1,0C85.6,248.6,85.5,248.3,85.7,247.9z"
		/>
	<path class="st0" d="M98.8,266.6c0,0.3,0,0.5,0,0.8c-1.6,0-3.1,0-4.7,0c-0.1,0-0.3-0.2-0.4-0.4c0.2-0.1,0.3-0.3,0.5-0.3
		C95.7,266.6,97.2,266.6,98.8,266.6z"/>
	<path class="st0" d="M89.9,238.9c0.2-0.1,0.4-0.4,0.6-0.4c1.4,0,2.7,0,4.1,0c0.5,0,0.7,0.2,0.5,0.7c-1.7,0-3.3,0-5,0
		C90,239.1,90,239,89.9,238.9z"/>
	<path class="st0" d="M95.2,269c1.6,0,3.3,0,5,0c0.1,0.5,0.1,0.7-0.5,0.7c-1.3,0-2.6,0-3.9,0C95.2,269.7,95.1,269.5,95.2,269z"/>
	<path class="st0" d="M93.8,252.6c1.9,0,3.8,0,5.7,0c0.2,0.4,0.1,0.7-0.4,0.7c-1.6,0-3.2,0-4.9,0c-0.2,0-0.4-0.3-0.6-0.4
		C93.6,252.8,93.7,252.7,93.8,252.6z"/>
	<path class="st0" d="M95.7,257.9c-1.9,0-3.8,0-5.6,0c-0.2-0.5,0-0.7,0.5-0.7c1.6,0,3.2,0,4.8,0c0.2,0,0.4,0.3,0.6,0.4
		C95.9,257.7,95.8,257.8,95.7,257.9z"/>
	<path class="st0" d="M93,247.9c1.4,0,2.8,0,4.2,0c0.2,0.5,0.1,0.7-0.5,0.7c-1.1,0-2.1,0-3.2,0C93,248.6,92.8,248.4,93,247.9z"/>
	<path class="st0" d="M82,246.2c0-0.3,0-0.5,0-0.7c1.4,0,2.8,0,4.3,0c0.1,0.4,0.2,0.7-0.4,0.7C84.6,246.2,83.4,246.2,82,246.2z"/>
	<path class="st0" d="M91,224.4c1.4,0,2.7,0,4.1,0c0,0.2,0,0.4,0,0.7c-1.3,0-2.6,0-3.8,0c-0.2,0-0.3-0.3-0.5-0.5
		C90.9,224.6,90.9,224.5,91,224.4z"/>
	<path class="st0" d="M91,229.1c1.4,0,2.8,0,4.1,0c0.1,0.7,0.1,0.7-0.5,0.7c-1,0-2.1,0-3.1,0C91,229.8,90.8,229.7,91,229.1z"/>
	<path class="st0" d="M100.3,234.1c-0.2,0.1-0.4,0.4-0.6,0.4c-1.5,0-3,0-4.5,0c-0.2-0.5-0.2-0.7,0.4-0.7c1.5,0,3,0,4.5,0
		C100.2,233.9,100.3,234,100.3,234.1z"/>
	<path class="st0" d="M95.8,238.9c0.2-0.2,0.4-0.4,0.6-0.4c0.9,0,1.8,0,2.7,0c0.2,0,0.4,0.3,0.6,0.4c0,0.1-0.1,0.1-0.1,0.2
		c-1.2,0-2.3,0-3.5,0C95.9,239.1,95.8,239,95.8,238.9z"/>
	<path class="st0" d="M91.4,267.3c-1.2,0-2.3,0-3.5,0c-0.2-0.5-0.2-0.7,0.5-0.7c0.9,0,1.7,0,2.6,0C91.5,266.6,91.5,266.9,91.4,267.3
		z"/>
	<path class="st0" d="M84.2,261.9c1.1,0,2.1,0,3.1,0c0.2,0,0.4,0.3,0.6,0.5c-0.1,0.1-0.1,0.1-0.2,0.2c-1.2,0-2.3,0-3.5,0
		C84.2,262.4,84.2,262.2,84.2,261.9z"/>
	<path class="st0" d="M93.8,226.8c1.2,0,2.3,0,3.5,0c0.1,0.7,0.1,0.7-0.4,0.7c-0.8,0-1.7,0-2.5,0C93.8,227.5,93.7,227.3,93.8,226.8z
		"/>
	<path class="st0" d="M90.6,269c1.4,0,2.6,0,3.8,0c0,0.2,0,0.4,0,0.7c-1.1,0-2.2,0-3.2,0C91,269.7,90.8,269.3,90.6,269z"/>
	<path class="st0" d="M96.7,245.5c1.2,0,2.3,0,3.5,0c0.1,0.5,0.1,0.8-0.5,0.7c-0.8,0-1.7,0-2.5,0C96.6,246.3,96.5,246.1,96.7,245.5z
		"/>
	<path class="st0" d="M98,265c-1.2,0-2.3,0-3.5,0c0-0.2,0-0.4,0-0.7c1.1,0,2.1,0,3.2,0c0.2,0,0.4,0.3,0.5,0.5
		C98.1,264.8,98,264.9,98,265z"/>
	<path class="st0" d="M98.1,222.8c-1.2,0-2.3,0-3.5,0c-0.2-0.5-0.1-0.7,0.4-0.7c0.9,0,1.7,0,2.6,0C98.2,222,98.2,222.3,98.1,222.8z"
		/>
	<path class="st0" d="M93.7,222c0.2,0.5,0.1,0.8-0.5,0.8c-1,0-2,0-3,0c-0.2-0.5-0.1-0.8,0.4-0.8C91.6,222.1,92.6,222,93.7,222z"/>
	<path class="st0" d="M86.5,222.8c-0.2-0.5-0.1-0.7,0.5-0.7c0.8,0,1.5,0,2.3,0c0,0.2,0,0.5,0.1,0.7
		C88.4,222.8,87.5,222.8,86.5,222.8z"/>
	<path class="st0" d="M84.8,239.2c-0.9,0-1.8,0-2.7,0c-0.1-0.7-0.1-0.7,0.5-0.7c0.6,0,1.2,0,1.8,0C84.9,238.4,85,238.7,84.8,239.2z"
		/>
	<path class="st0" d="M81.9,236.6c0.2-0.1,0.4-0.4,0.6-0.4c0.9,0,1.8,0,2.7,0c0.2,0,0.4,0.3,0.6,0.4c0,0.1-0.1,0.1-0.1,0.2
		c-1.1,0-2.3,0-3.4,0C82,236.7,82,236.7,81.9,236.6z"/>
	<path class="st0" d="M82,252.6c1.1,0,2.3,0,3.5,0c0.2,0.4,0.1,0.7-0.4,0.7c-0.9,0-1.8,0-2.7,0c-0.2,0-0.4-0.3-0.6-0.4
		C81.9,252.7,82,252.7,82,252.6z"/>
	<path class="st0" d="M85.5,260.3c-1.1,0-2.3,0-3.4,0c-0.2-0.5-0.1-0.7,0.4-0.7c0.9,0,1.7,0,2.6,0c0.2,0,0.4,0.3,0.6,0.4
		C85.6,260.1,85.6,260.2,85.5,260.3z"/>
	<path class="st0" d="M96.3,241.5c-0.2-0.5,0-0.7,0.5-0.7c0.6,0,1.2,0,1.7,0c0.5,0,0.7,0.2,0.5,0.7
		C98.2,241.5,97.3,241.5,96.3,241.5z"/>
	<path class="st0" d="M91.5,233.8c0.4,0,0.7,0,1.1,0c0.1,0,0.2,0.2,0.4,0.3c-0.1,0.1-0.2,0.4-0.4,0.4c-0.8,0-1.5,0-2.3,0
		c-0.1,0-0.3-0.2-0.3-0.3c0-0.1,0.2-0.3,0.3-0.3C90.7,233.8,91.1,233.8,91.5,233.8z"/>
	<path class="st0" d="M86.4,233.8c0.8,0,1.6,0,2.3,0c0.2,0,0.3,0.2,0.5,0.3c-0.2,0.1-0.3,0.3-0.5,0.3c-0.7,0-1.3,0-2,0
		C86.3,234.5,86.3,234.3,86.4,233.8z"/>
	<path class="st0" d="M84.1,265c-0.7,0-1.3,0-2,0c-0.1-0.7-0.1-0.7,0.4-0.7c0.4,0,0.7,0,1.1,0C84.1,264.3,84.1,264.3,84.1,265z"/>
	<path class="st0" d="M86.4,241.5c-0.8,0-1.5,0-2.2,0c-0.1-0.5-0.1-0.8,0.5-0.7C85.3,240.9,86.2,240.3,86.4,241.5z"/>
	<path class="st0" d="M84.1,222.8c-0.6,0-1.2,0-1.8,0c-0.1,0-0.3-0.2-0.3-0.3c0-0.2,0.2-0.4,0.3-0.4c0.5,0,1-0.1,1.5,0
		c0.2,0,0.3,0.3,0.5,0.5C84.2,222.7,84.2,222.7,84.1,222.8z"/>
	<path class="st0" d="M90.7,262.6c-0.7,0-1.3,0-2,0c-0.2-0.7-0.2-0.7,0.4-0.7c0.4,0,0.7,0,1.1,0C90.7,261.9,90.8,262.1,90.7,262.6z"
		/>
	<path class="st0" d="M85.6,239.1c-0.1-1,0.6-0.7,1-0.7c0.4,0,1.2-0.4,1.1,0.7C87.1,239.1,86.4,239.1,85.6,239.1z"/>
	<path class="st0" d="M92.6,241.5c-0.8,0-1.4,0-2.2,0c0-0.2,0.1-0.6,0.1-0.6c0.6,0,1.3-0.1,1.9,0C92.5,240.9,92.5,241.2,92.6,241.5z
		"/>
	<path class="st0" d="M93.1,226.8c-0.2,1.2-1.1,0.6-1.6,0.7c-0.5,0.1-0.5-0.3-0.4-0.7C91.6,226.8,92.3,226.8,93.1,226.8z"/>
	<path class="st0" d="M84.1,233.8c0.1,0.8,0.1,0.8-2,0.6C81.7,233.8,81.8,233.7,84.1,233.8z"/>
	<path class="st0" d="M83.4,262.6c-0.5,0-0.9,0-1.3,0c-0.1-0.4-0.2-0.8,0.4-0.7C82.8,261.9,83.6,261.6,83.4,262.6z"/>
	<path class="st0" d="M82,241.5c-0.2-0.8,0.2-0.7,0.7-0.7c0.5,0,0.8,0.1,0.6,0.7C82.9,241.5,82.5,241.5,82,241.5z"/>
	<path class="st0" d="M82,248.5c0-0.2,0-0.4,0-0.6c0.5,0,0.9,0,1.3,0C83.4,248.7,83.4,248.7,82,248.5z"/>
	<path class="st0" d="M89.6,241.5c-0.3,0-0.6,0-1.2,0c0.3-0.3,0.4-0.6,0.6-0.7C89.4,240.7,89.8,240.8,89.6,241.5z"/>
	<path class="st0" d="M118.7,247.9c3.9,0,7.7,0,11.6,0c0.2,0.5,0.1,0.7-0.5,0.7c-3.5,0-7.1,0-10.6,0
		C118.7,248.6,118.6,248.4,118.7,247.9z"/>
	<path class="st0" d="M112.1,224.4c3.1,0,6.3,0,9.4,0c0.2,0.5,0.1,0.7-0.5,0.7c-2.8,0-5.7,0-8.5,0C112,225.2,112,224.9,112.1,224.4z
		"/>
	<path class="st0" d="M121.7,250.5c-0.2,0.2-0.4,0.4-0.6,0.4c-2.7,0-5.4,0-8.2,0c0-0.3,0-0.5,0-0.7c3,0,5.9,0,8.7,0
		C121.6,250.3,121.7,250.4,121.7,250.5z"/>
	<path class="st0" d="M112.1,241.5c-0.2-0.5,0-0.7,0.5-0.7c1.8,0,3.7,0,5.5,0c0.6,0,0.6,0.3,0.5,0.7
		C116.4,241.5,114.3,241.5,112.1,241.5z"/>
	<path class="st0" d="M123.9,241.5c-0.1-0.5-0.1-0.7,0.5-0.7c1.8,0,3.7,0,5.5,0c0.5,0,0.7,0.2,0.5,0.7
		C128.2,241.5,126,241.5,123.9,241.5z"/>
	<path class="st0" d="M123.9,224.4c2.2,0,4.3,0,6.4,0c0.2,0.5,0.1,0.7-0.5,0.7c-1.8,0-3.6,0-5.4,0
		C123.9,225.2,123.7,225,123.9,224.4z"/>
	<path class="st0" d="M123.9,231.4c2,0,4,0,6,0c0.1,0,0.3,0.2,0.4,0.3c-0.1,0.1-0.3,0.4-0.4,0.4c-1.9,0-3.8,0-5.7,0
		c-0.2,0-0.3-0.3-0.5-0.5C123.8,231.6,123.9,231.5,123.9,231.4z"/>
	<path class="st0" d="M118.7,231.7c-0.2,0.2-0.4,0.4-0.6,0.4c-1.9,0-3.7,0-5.6,0c-0.2,0-0.3-0.2-0.5-0.4c0.2-0.1,0.3-0.3,0.5-0.3
		c2,0,4,0,6,0C118.6,231.5,118.7,231.6,118.7,231.7z"/>
	<path class="st0" d="M123.9,227c-0.2,0.2-0.4,0.5-0.6,0.5c-1.5,0-3,0-4.6,0c0-0.3,0-0.5,0-0.7c1.7,0,3.4,0,5.1,0
		C123.8,226.9,123.8,226.9,123.9,227z"/>
	<path class="st0" d="M126.6,222.8c-1.6,0-3.3,0-5,0c0-0.2,0-0.4,0-0.7c1.6,0,3.2,0,4.7,0c0.1,0,0.3,0.3,0.4,0.5
		C126.7,222.6,126.7,222.7,126.6,222.8z"/>
	<path class="st0" d="M121.6,246.2c0-0.3,0-0.5,0-0.8c1.3,0,2.6,0,3.9,0c0.1,0,0.3,0.2,0.4,0.3c-0.1,0.1-0.3,0.4-0.4,0.4
		C124.3,246.3,123,246.2,121.6,246.2z"/>
	<path class="st0" d="M130.3,239.2c-1.4,0-2.8,0-4.2,0c-0.1-0.5-0.1-0.7,0.5-0.7c1.1,0,2.2,0,3.3,0
		C130.3,238.5,130.5,238.7,130.3,239.2z"/>
	<path class="st0" d="M115.7,238.9c0.2-0.1,0.4-0.4,0.6-0.4c1.1,0,2.2,0,3.3,0c0.5,0,0.6,0.2,0.5,0.7c-1.4,0-2.8,0-4.2,0
		C115.8,239.1,115.7,239,115.7,238.9z"/>
	<path class="st0" d="M120.9,233.8c1.6,0,3.1,0,4.7,0c0.1,0,0.2,0.2,0.4,0.4c-0.1,0.1-0.3,0.3-0.4,0.3c-1.4,0-2.9,0-4.3,0
		c-0.2,0-0.3-0.3-0.5-0.5C120.8,233.9,120.9,233.9,120.9,233.8z"/>
	<path class="st0" d="M127.7,236.8c-1.8,0-3.4,0-5,0c-0.1,0-0.2-0.2-0.4-0.4c0.1-0.1,0.2-0.3,0.3-0.3c1.5,0,3,0,4.5,0
		C127.3,236.2,127.4,236.5,127.7,236.8z"/>
	<path class="st0" d="M125.3,252.8c-0.2,0.1-0.4,0.4-0.6,0.4c-1.4,0-2.7,0-4.1,0c-0.2,0-0.4-0.3-0.6-0.4c0-0.1,0.1-0.2,0.1-0.2
		c1.7,0,3.3,0,5,0C125.2,252.7,125.3,252.8,125.3,252.8z"/>
	<path class="st0" d="M115.1,234.5c-0.2-0.5-0.1-0.7,0.4-0.7c1.4,0,2.7,0,4.1,0c0.2,0,0.3,0.2,0.5,0.4c-0.2,0.1-0.3,0.3-0.5,0.3
		C118.1,234.5,116.6,234.5,115.1,234.5z"/>
	<path class="st0" d="M126.8,245.5c1.1,0,2.1,0,3.1,0c0.2,0,0.3,0.2,0.5,0.3c-0.2,0.1-0.3,0.4-0.5,0.4c-0.9,0-1.8,0-2.7,0
		C126.7,246.2,126.7,246.2,126.8,245.5z"/>
	<path class="st0" d="M123,241.5c-1.2,0-2.3,0-3.5,0c-0.1-0.7-0.1-0.7,0.4-0.7c0.8,0,1.7,0,2.5,0C123,240.8,123.1,241,123,241.5z"/>
	<path class="st0" d="M116.4,245.5c0,0.2,0,0.4,0,0.7c-1.2,0-2.3,0-3.5,0c0-0.2,0-0.4-0.1-0.7C114,245.5,115.2,245.5,116.4,245.5z"
		/>
	<path class="st0" d="M130.3,222.8c-0.9,0-1.8,0-2.8,0c0-0.2,0-0.4-0.1-0.7c0.8,0,1.6,0,2.4,0C130.4,222,130.5,222.3,130.3,222.8z"
		/>
	<path class="st0" d="M124.6,226.8c1,0,1.9,0,2.8,0c0.1,0.5,0.1,0.8-0.5,0.7c-0.6,0-1.2,0-1.8,0
		C124.6,227.5,124.4,227.3,124.6,226.8z"/>
	<path class="st0" d="M123.7,239.2c-0.9,0-1.8,0-2.7,0c-0.2-0.7-0.2-0.7,0.4-0.7c0.6,0,1.3,0,1.9,0c0.2,0,0.4,0.3,0.6,0.4
		C123.8,239,123.8,239.1,123.7,239.2z"/>
	<path class="st0" d="M113.5,236.6c0.2-0.1,0.4-0.4,0.6-0.4c0.9,0,1.8,0,2.7,0c0.2,0,0.4,0.3,0.6,0.4c0,0.1-0.1,0.2-0.1,0.2
		c-1.2,0-2.3,0-3.5,0C113.6,236.7,113.5,236.7,113.5,236.6z"/>
	<path class="st0" d="M118,252.8c-0.2,0.2-0.3,0.4-0.5,0.4c-0.9,0-1.8,0-2.7,0c-0.2,0-0.3-0.2-0.5-0.4c0.2-0.1,0.3-0.3,0.5-0.3
		c1,0,2,0,3,0C117.9,252.6,117.9,252.7,118,252.8z"/>
	<path class="st0" d="M123.1,231.7c-0.2,0.1-0.4,0.4-0.6,0.4c-0.9,0-1.7,0-2.6,0c-0.2,0-0.4-0.3-0.6-0.4c0-0.1,0.1-0.2,0.1-0.2
		c1.2,0,2.3,0,3.5,0C123,231.6,123.1,231.7,123.1,231.7z"/>
	<path class="st0" d="M119.3,222.8c-0.7,0-1.4,0-2.1,0c0-0.2,0-0.4,0-0.7c0.6,0,1.1,0,1.7,0C119.5,222,119.5,222.3,119.3,222.8z"/>
	<path class="st0" d="M117.3,245.5c0.7,0,1.3,0,2,0c0.2,0.4,0.2,0.8-0.4,0.7c-0.4,0-0.7,0-1.1,0C117.2,246.3,117.1,246,117.3,245.5z
		"/>
	<path class="st0" d="M114.3,226.8c0.7,0,1.4,0,2.1,0c0.2,0.8-0.2,0.7-0.7,0.7C114.3,227.5,114.3,227.5,114.3,226.8z"/>
	<path class="st0" d="M114.9,243.9c-0.7,0-1.4,0-2.1,0c0-0.2,0-0.4,0-0.6C114.5,242.9,115,243.1,114.9,243.9z"/>
	<path class="st0" d="M120.8,243.9c-0.7,0-1.4,0-2.1,0c-0.1-0.4-0.2-0.7,0.4-0.7C120.7,243,120.8,243.1,120.8,243.9z"/>
	<path class="st0" d="M126.7,243.9c-0.8,0-1.4,0-2.2,0c0-0.2,0.1-0.6,0.1-0.6c0.6,0,1.3-0.1,1.9,0
		C126.6,243.2,126.7,243.6,126.7,243.9z"/>
	<path class="st0" d="M128.2,226.8c0.8,0,1.4,0,2.2,0c0,0.2-0.1,0.6-0.1,0.6c-0.6,0.1-1.3,0.1-1.9,0
		C128.3,227.4,128.2,227,128.2,226.8z"/>
	<path class="st0" d="M129.3,237c-0.4-0.2-1-0.4-1-0.5c0.1-0.7,0.7-0.3,1-0.4c0.4,0,0.7,0.2,1.1,0.3
		C130,236.6,129.7,236.8,129.3,237z"/>
	<path class="st0" d="M117.9,236.8c0.1-1,0.8-0.6,1.3-0.6c0.4,0,1.1-0.3,0.9,0.6C119.4,236.8,118.7,236.8,117.9,236.8z"/>
	<path class="st0" d="M129.1,234.6c-0.3-0.1-0.9-0.3-0.9-0.4c0-0.7,0.6-0.4,1-0.4c0.4,0,1.1,0.2,1.1,0.3
		C130.3,234.9,129.6,234.3,129.1,234.6z"/>
	<path class="st0" d="M130.4,243.9c-0.6,0-1,0-1.5,0c0-0.2,0-0.6,0.1-0.6c0.4-0.1,0.8-0.1,1.2-0.1
		C130.3,243.2,130.3,243.6,130.4,243.9z"/>
	<path class="st0" d="M116.5,222.8c-0.6,0-1,0-1.5,0c0-0.2,0-0.6,0.1-0.6c0.4-0.1,0.8-0.1,1.2,0
		C116.4,222.1,116.4,222.5,116.5,222.8z"/>
	<path class="st0" d="M123,243.7c0.1-0.2,0.3-0.4,0.4-0.6c0.1,0.1,0.3,0.2,0.4,0.3c-0.2,0.2-0.3,0.3-0.5,0.5
		C123.2,243.9,123.1,243.8,123,243.7z"/>
	<path class="st0" d="M114.9,311c-0.9-1.4-0.8-2.4,0-3.4c0.8-0.9,2.3-1.2,3.5-0.6c1.1,0.6,1.6,1.6,1.3,3.2c1,0.6,1.8,1.5,1.4,2.8
		c-0.4,1.4-1.5,2.1-2.9,2.4c-1.3,0.3-2.6,0-3.6-1.1C113.9,313.3,114,312.4,114.9,311z M118,311.5c-0.6,0.3-1.1,0.4-1.5,0.7
		c-0.2,0.1-0.4,0.5-0.3,0.6c0.1,0.2,0.4,0.5,0.6,0.5c0.5,0.1,1.1,0.1,1.5-0.1c0.4-0.2,0.7-0.6,1-1
		C118.8,312.1,118.4,311.8,118,311.5z M117,308.3c-0.4,0.4-0.6,0.7-0.9,0.9c0.2,0.2,0.5,0.6,0.7,0.6c0.4-0.1,0.7-0.4,1-0.7
		C117.6,308.9,117.4,308.7,117,308.3z"/>
	<path class="st0" d="M101.9,311.5c1,1.4,1.1,2.3,0.5,3.3c-0.7,1.1-2.4,1.7-4,1.2c-0.6-0.2-1.3-0.5-1.8-1c-1.2-1.1-1.1-2.6,0.1-3.7
		c0.2-0.2,0.3-0.5,0.3-0.7c-0.2-1.3,0.2-2.3,1.2-2.9c1.1-0.6,2.5-0.4,3.4,0.5c0.8,0.8,1,1.9,0.4,3
		C102.1,311.3,102,311.4,101.9,311.5z M99.4,314.2c0.2,0,0.3,0,0.4,0c0.3-0.2,0.7-0.4,1-0.6c-0.3-0.3-0.5-0.7-0.9-0.9
		c-0.3-0.2-0.7-0.3-1-0.2c-0.5,0.1-0.9,0.4-1.3,0.7c0.4,0.3,0.7,0.7,1.1,1C99,314.2,99.3,314.1,99.4,314.2z M99.7,308.9
		c-0.4,0.4-0.6,0.7-0.9,0.9c0.3,0.2,0.6,0.6,0.9,0.6c0.2,0,0.5-0.3,0.8-0.5C100.3,309.6,100.1,309.4,99.7,308.9z"/>
	<path class="st0" d="M111.8,308.7c-0.4,0.4-0.8,0.8-1,1.1c-1,0-1.8-0.2-2.6,0c-0.4,0.1-0.8,0.7-1.1,1.1c0,0.1,0.1,0.1,0.1,0.2
		c0.7,0,1.4-0.1,2,0c0.6,0.1,1.3,0.4,1.8,0.8c1.2,0.9,1.2,2.5,0.2,3.6c-1.3,1.3-3.9,1.4-5.3,0.2c-0.6-0.5-0.9-1.1-0.9-1.9
		c0-1.3,0.1-2.7,0.7-3.9C106.8,307.4,109.9,306.8,111.8,308.7z M108.4,314.5c0,0,0.1,0,0.2,0c0.6-0.1,1.3-0.2,1.3-0.9
		c0-0.8-0.8-0.7-1.4-0.8c-0.1,0-0.2,0-0.3,0c-0.6,0.1-1.2,0.2-1.4,0.9C106.8,314.1,107.5,314.5,108.4,314.5z"/>
	<path class="st0" d="M92.4,308c0.6-0.4,1.4-0.9,2.4-1.5c-0.3,1.4-0.6,2.7-0.9,3.9c-0.3,1.2-0.6,2.4-0.8,3.7c-0.1,0.3,0,0.6,0,1
		c-0.7-0.2-1.5-0.3-2.2-0.5C91.5,312.5,91.9,310.4,92.4,308z"/>
	<path class="st0" d="M87.9,310.7c-0.9,0-1.5-0.6-1.5-1.4c0-0.9,0.6-1.6,1.5-1.6c0.9,0,1.5,0.7,1.5,1.5
		C89.4,310,88.7,310.7,87.9,310.7z"/>
	<path class="st0" d="M124.5,310.7c-0.9,0-1.5-0.7-1.5-1.5c0-0.8,0.7-1.5,1.5-1.5c0.9,0,1.5,0.7,1.5,1.6
		C126,310,125.4,310.7,124.5,310.7z"/>
	<path class="st0" d="M113.8,296.5c-0.6-1.5-1.2-3-1.8-4.6c1-0.3,2-0.8,3.1-1c1.1-0.2,1.6,0.4,1.6,1.4c0,0.2,0,0.4,0.2,0.5
		c0.8,0.9,0.8,1.8-0.3,2.4C115.6,295.8,114.7,296.1,113.8,296.5z M116.4,294.1c0-0.1-0.1-0.2-0.1-0.4c-0.8-0.1-1.5,0.3-2.2,0.6
		c0.1,0.3,0.2,0.5,0.4,0.8C115.1,294.8,115.7,294.4,116.4,294.1z M115.7,292.3c0-0.1-0.1-0.2-0.1-0.3c-0.8-0.3-1.5,0.3-2.2,0.5
		c0.1,0.3,0.2,0.5,0.4,0.8C114.4,293,115.1,292.7,115.7,292.3z"/>
	<path class="st0" d="M104,294.4c0.2,0.4,0.5,0.8,0.6,1.1c0.1,0.2-0.1,0.5-0.1,0.8c-0.3-0.1-0.6-0.1-0.7-0.3c-0.3-0.4-0.5-1-0.8-1.4
		c-0.2-0.3-0.5-0.5-0.9-0.9c-0.2,0.8-0.4,1.4-0.5,2c-0.3-0.1-0.7-0.2-1-0.3c0.4-1.6,0.8-3.1,1.3-4.7c0.8,0.2,1.6,0.4,2.3,0.6
		c1,0.3,1.6,0.9,1.6,1.6C105.6,294,104.9,294.2,104,294.4z M104.5,293.3c0-0.2,0.1-0.3,0.1-0.5c-0.7-0.3-1.4-0.5-2.1-0.8
		c-0.1,0.4-0.1,0.6-0.2,1C103.1,293.1,103.8,293.2,104.5,293.3z"/>
	<path class="st0" d="M94.5,289.3c-0.5-0.6-1-1.2-1.5-1.8c-0.5,0.4-0.9,0.8-1.4,1.2c-0.2-0.3-0.5-0.6-0.7-0.8
		c1.3-1.1,2.5-2.1,3.7-3.1c0.2,0.3,0.5,0.6,0.7,0.8c-0.5,0.4-0.9,0.8-1.5,1.2c0.5,0.6,1,1.2,1.5,1.8c0.5-0.4,0.9-0.8,1.4-1.2
		c0.2,0.2,0.4,0.5,0.7,0.8c-1.2,1-2.4,2.1-3.7,3.1c-0.2-0.3-0.5-0.5-0.7-0.8C93.5,290.1,93.9,289.7,94.5,289.3z"/>
	<path class="st0" d="M97,292.5c0.8,0.5,1.4,0.9,2.2,1.4c-0.2,0.3-0.4,0.6-0.6,0.9c-1.1-0.7-2.1-1.3-3.1-1.9
		c0.9-1.4,1.7-2.7,2.6-4.1c1,0.6,2,1.3,3.1,1.9c-0.2,0.3-0.4,0.6-0.5,0.9c-0.7-0.5-1.4-0.9-2.2-1.3c-0.2,0.3-0.3,0.4-0.5,0.7
		c0.5,0.3,0.9,0.6,1.5,1c-0.2,0.3-0.3,0.6-0.5,0.9c-0.5-0.3-1-0.6-1.5-0.9C97.3,292.1,97.2,292.2,97,292.5z"/>
	<path class="st0" d="M119.5,292.6c0.7-0.5,1.4-0.9,2.2-1.4c0.1,0.2,0.3,0.5,0.6,0.9c-1.1,0.7-2.1,1.3-3.1,1.9
		c-0.9-1.4-1.7-2.7-2.6-4.1c1-0.6,2-1.3,3.1-1.9c0.2,0.3,0.4,0.6,0.6,0.9c-0.7,0.5-1.4,0.9-2.2,1.3c0.1,0.2,0.3,0.4,0.4,0.7
		c0.5-0.3,1-0.6,1.5-0.9c0.2,0.3,0.3,0.5,0.5,0.8c-0.5,0.3-0.9,0.6-1.5,1C119.2,292.1,119.3,292.3,119.5,292.6z"/>
	<path class="st0" d="M82.9,274.2c-0.2,0.2-0.3,0.4-0.5,0.7c0.7,0.5,1.3,1,2,1.5c-0.2,0.2-0.4,0.5-0.6,0.8c-1-0.7-1.9-1.5-2.9-2.2
		c1-1.3,1.9-2.5,2.9-3.9c0.9,0.7,1.9,1.4,2.9,2.2c-0.2,0.3-0.4,0.6-0.6,0.9c-0.7-0.5-1.3-1-2-1.5c-0.2,0.2-0.3,0.4-0.5,0.6
		c0.5,0.4,0.9,0.7,1.4,1.1c-0.2,0.3-0.4,0.5-0.6,0.8C83.9,274.8,83.4,274.5,82.9,274.2z"/>
	<path class="st0" d="M109.1,294.1c0,0.4,0,0.6-0.1,1c-0.6,0-1.1-0.1-1.7-0.1c0,0.3-0.1,0.5-0.1,0.8c0.9,0.1,1.7,0.1,2.5,0.2
		c0,0.3,0,0.6,0,1c-1.2-0.1-2.4-0.2-3.6-0.3c0.1-1.6,0.3-3.2,0.4-4.8c1.2,0.1,2.4,0.2,3.6,0.3c0,0.4,0,0.7-0.1,1
		c-0.9-0.1-1.7-0.1-2.5-0.2c0,0.3-0.1,0.5-0.1,0.8C107.9,293.9,108.4,294,109.1,294.1z"/>
	<path class="st0" d="M90.4,278c-0.3,0.3-0.6,0.4-0.9,0.6c-0.3-0.5-0.6-0.9-1-1.4c-1,0.7-2,1.5-3.1,2.2c-0.2-0.3-0.4-0.5-0.6-0.8
		c1-0.7,2-1.5,3.1-2.2c-0.3-0.5-0.6-0.9-1-1.4c0.2-0.2,0.5-0.4,0.8-0.6C88.7,275.6,89.5,276.8,90.4,278z"/>
	<path class="st0" d="M94.4,284.3c-0.3,0.2-0.6,0.4-0.9,0.6c-0.3-0.5-0.6-0.9-1-1.4c-1,0.7-2,1.4-3.1,2.2c-0.2-0.2-0.4-0.5-0.6-0.9
		c1-0.7,2-1.4,3.1-2.2c-0.3-0.5-0.6-0.9-0.9-1.4c0.3-0.2,0.5-0.4,0.9-0.6C92.8,281.9,93.6,283.1,94.4,284.3z"/>
	<path class="st0" d="M76.7,273.2c0.6-1.5,1.3-2.9,1.9-4.4c0.3,0.1,0.6,0.3,0.9,0.4c-0.5,1.2-1,2.3-1.4,3.5c0.9,0.4,1.8,0.8,2.7,1.2
		c-0.1,0.3-0.3,0.6-0.4,1C79.1,274.2,77.9,273.7,76.7,273.2z"/>
	<path class="st0" d="M135.7,274.5c0.4,0,0.7,0,1.1,0c0,0.6,0,1.2,0,1.8c0.8,0,1.5,0,2.3,0c0-0.6,0-1.2,0-1.8c0.4,0,0.7,0,1.1,0
		c0,0.8,0,1.6,0,2.4c0,0.8,0,1.6,0,2.4c-0.4,0-0.7,0-1.1,0c0-0.6,0-1.2,0-1.8c-0.8,0-1.5,0-2.3,0c0,0.6,0,1.2,0,1.8
		c-0.3,0-0.7,0-1.1,0C135.7,277.7,135.7,276.1,135.7,274.5z"/>
	<path class="st0" d="M133.7,279c-0.8-0.1-1.5-0.2-2.1-0.3c-0.9-0.2-1.4-0.9-1.4-1.8c-0.1-1.9,1.7-3.4,3.2-2.7
		c0.3,0.1,0.6,0.4,1.1,0.7c-0.4,0.2-0.7,0.4-1,0.6c-0.4-0.3-0.9-0.7-1.6-0.1c-0.5,0.5-0.8,1.1-0.6,1.8c0.2,0.8,1,0.6,1.6,0.7
		c0.1-0.5,0.1-0.9,0.2-1.4c0.4,0.1,0.8,0.1,1.1,0.2C134,277.4,133.8,278.2,133.7,279z"/>
	<path class="st0" d="M143.9,278.9c-0.4,0-0.7,0.1-1,0.1c-0.1-1.3-0.2-2.5-0.3-3.8c-0.6,0.1-1.1,0.1-1.7,0.2c0-0.3,0-0.6-0.1-1
		c1.5-0.1,2.9-0.3,4.4-0.4c0,0.4,0,0.7,0.1,1.1c-0.5,0-1,0.1-1.6,0.1C143.7,276.4,143.8,277.6,143.9,278.9z"/>
	<path class="st0" d="M126.2,277.4c-1.4-0.2-2.7-0.4-4-0.6c0.2-1.6,0.4-3.1,0.7-4.8c0.3,0,0.6,0.1,1,0.1c-0.2,1.3-0.3,2.5-0.5,3.8
		c1,0.1,1.9,0.3,2.9,0.4C126.3,276.6,126.2,276.9,126.2,277.4z"/>
	<path class="st0" d="M128.3,277.7c-0.4-0.1-0.7-0.1-1-0.2c0.3-1.6,0.6-3.2,0.8-4.8c0.3,0.1,0.7,0.1,1,0.2
		C128.8,274.5,128.6,276.1,128.3,277.7z"/>
	<path class="st0" d="M120,260.3c-1.3,0-2.6,0-3.8,0c-0.1,0-0.3-0.2-0.4-0.3c0.1-0.1,0.2-0.4,0.4-0.4c1.2,0,2.4,0,3.6,0
		c0.2,0,0.3,0.3,0.5,0.5C120.1,260.1,120.1,260.2,120,260.3z"/>
	<path class="st0" d="M120.8,260c0.2-0.2,0.4-0.4,0.6-0.4c0.6-0.1,1.3-0.1,2,0c0.2,0,0.4,0.3,0.6,0.4c-0.1,0.1-0.1,0.1-0.2,0.2
		c-0.9,0-1.8,0-2.7,0C120.9,260.2,120.8,260.1,120.8,260z"/>
	<path class="st0" d="M113.6,260.3c-0.2-0.5,0-0.8,0.5-0.7c0.3,0,0.7,0.1,0.9,0.3C115.1,260.3,114.9,260.3,113.6,260.3z"/>
	<path class="st0" d="M85.9,225.3c0.9,1.8,1.7,3.4,2.5,5.1c0.1,0.2-0.1,0.5-0.1,0.7c-0.1,0-0.2,0-0.3,0c-0.3-0.5-0.6-1-0.8-1.6
		c-0.2-0.4-0.5-0.6-0.9-0.6c-1-0.1-1.6,0.2-1.9,1.2c-0.1,0.3-0.3,0.7-0.5,1c-0.2-0.1-0.4-0.2-0.6-0.3
		C84.1,229,84.9,227.3,85.9,225.3z M85.3,228.1c0.4,0,0.7,0,1.2,0c-0.2-0.4-0.4-0.7-0.6-1.1C85.7,227.4,85.5,227.7,85.3,228.1z"/>
</g>
<g>
	<path class="st0" d="M464.8,180.3c3.5,0,6.2,0,9.4,0c0,47.6,0,95,0,142.9c-2,0.1-4.1,0.2-6.2,0.4c-2.6,0.2-3.7-1-3.5-3.6
		c2.2-28.2-7.4-54.7-12.1-81.9c-0.5-2.7-1.2-5.4-2.9-8.2c0,1.6,0,3.3,0,4.9c0,27.1,0,54.1,0,81.2c0,8.4-0.6,8.8-9.5,6.8
		c0-47.3,0-94.7,0-142c7.8-1.9,8.5-1.5,9.9,5.7c4.3,22.1,8.6,44.2,12.9,66.4c0.3,1.4,0.9,2.7,2,4
		C464.8,231.4,464.8,206.1,464.8,180.3z"/>
	<path class="st0" d="M202.8,180.5c1-0.1,1.6-0.3,2.3-0.3c7.2-0.3,7.2-0.3,7.2,6.7c0,41.5,0,83,0,124.5c0,6.2,3.6,9.5,8.8,8.3
		c4.1-0.9,5.5-3.7,5.4-7.7c-0.1-14.8,0-29.6,0-44.3c0-27.2,0-54.5,0-81.7c0-5.3,4-7.9,8.7-5.6c0.9,0.5,1.5,2.4,1.6,3.7
		c0.2,5.3,0.1,10.6,0.1,15.9c0,35.7,0,71.4,0,107.1c0,6.2-0.4,12.4-6.9,15.3c-7.3,3.3-15.2,3.7-21.9-0.9c-2.9-2-5.6-6.8-5.7-10.3
		c-0.4-43-0.2-86-0.2-129C202.3,181.8,202.5,181.3,202.8,180.5z"/>
	<path class="st0" d="M750.7,180.5c2.1-0.1,3.6-0.3,5-0.3c1.5,0,2.9,0.2,4.9,0.3c0.1,2,0.3,3.8,0.3,5.5c0,40.7,0,81.4,0,122
		c0,6.3-1,12.3-7.7,14.8c-7.8,2.9-16.2,3.6-22.6-2.4c-2.8-2.6-4.2-7.9-4.3-12.1c-0.4-19.1-0.2-38.2-0.2-57.3c0-21.6,0-43.2,0-64.8
		c0-3.5-0.2-6.2,5-6.3c5.5-0.1,5.3,2.7,5.3,6.5c-0.1,41.3-0.1,82.7,0,124c0,2.5,0.4,5.9,2,7.2c1.8,1.5,5.5,2.3,7.6,1.4
		c2.1-0.8,4.1-3.8,4.5-6.1c0.7-4.4,0.2-8.9,0.2-13.4c0-37.5,0-75,0-112.6C750.7,185.1,750.7,183.1,750.7,180.5z"/>
	<path class="st0" d="M411,322.8c0-24,0-47.8,0-72c-5,0-9.6,0-14.8,0c0,24.2,0,48.2,0,72.4c-3.5,0-6.4,0-10,0c0-2.1,0-3.8,0-5.6
		c0-40,0-80,0-120c0-15.8,14.4-24.2,28.4-16c2.9,1.7,4.7,5.7,6,9.1c1,2.5,0.5,5.6,0.5,8.4c0,38.8,0,77.7,0,116.5
		C421.1,324.4,420.8,324.7,411,322.8z M411.1,243.4c0-18.1,0.1-35.9-0.1-53.7c0-3.4-2.4-5.3-5.8-5.7c-5.6-0.7-8.8,2.4-8.9,9.1
		c-0.1,11.1,0,22.2,0,33.3c0,5.6,0,11.2,0,17C401.4,243.4,405.9,243.4,411.1,243.4z"/>
	<path class="st0" d="M549.1,323.2c-3.8,0-6.7,0-10,0c0-2.2,0-4,0-5.8c0-39.7,0-79.4,0-119c0-3,0.5-5.9,0.9-8.9
		c0.1-1,0.5-1.9,0.9-2.8c2.8-5.8,10.3-8.5,20.3-7.2c7.6,1,11.4,4.3,12.5,11.3c0.3,2.1,0.4,4.3,0.4,6.4c0,39.5,0,79,0,118.5
		c0,8.5-0.9,9.2-10,6.9c0-23.7,0-47.6,0-71.8c-5.2,0-9.9,0-15,0C549.1,275.1,549.1,299,549.1,323.2z M563.9,243.6
		c0-18.4,0.1-36.1,0-53.8c0-3.4-2.2-5.4-5.7-5.9c-5.8-0.9-9.1,2.4-9.1,9.4c-0.1,15.6,0,31.2,0,46.8c0,1.1,0.3,2.2,0.5,3.6
		c1.9,0,3.6,0,5.2,0C557.6,243.6,560.4,243.6,563.9,243.6z"/>
	<path class="st0" d="M708.8,323.2c-3.4,0-6.3,0-9.8,0c-0.1-1.9-0.3-3.6-0.3-5.4c0-18.4,0-36.8,0-55.3c0-9.5-4.3-13-14.6-11.9
		c0,1.8,0,3.8,0,5.7c0,20.7-0.1,41.5,0.1,62.2c0,4-1.2,5.2-5.1,5.1c-3.5-0.1-5.3-0.5-5.3-4.9c0.2-44.5,0.1-89,0-133.4
		c0-4,1.3-5.3,5.2-5c5.3,0.3,10.7-0.1,16,0.4c9.5,0.8,13.7,5.4,13.8,14.8c0.2,11.5-0.2,22.9,0.1,34.4c0.2,7.2-0.6,13.6-9.3,17.4
		c9.2,4.6,9.4,12.1,9.3,20c-0.2,16.8-0.1,33.5-0.1,50.3C708.8,319.3,708.8,321.1,708.8,323.2z M684.4,244.6
		c9.5,1.5,14.1-1.9,14.2-11c0.2-13.4,0-26.8,0.1-40.2c0-4.9-2.6-7.3-7.2-7.8c-2.3-0.3-4.6,0-7.2,0
		C684.4,205.4,684.4,225.1,684.4,244.6z"/>
	<path class="st0" d="M368.4,223.9c-3.4,0-6.3,0-9.7,0c-0.1-2-0.3-3.8-0.3-5.6c-0.1-9.1,0-18.3-0.1-27.4c0-4.3-2.2-6.8-6.6-7.1
		c-4.6-0.3-7.6,1.7-7.9,6.3c-0.9,14.8-0.8,29.5,6.9,43c3.9,6.8,7.3,13.8,10.8,20.8c4.7,9.7,7.6,19.8,7.2,30.7
		c-0.3,9,0,17.9-0.4,26.9c-0.4,8-4.6,12-12.5,12.9c-2.1,0.2-4.3,0.2-6.5,0.2c-10.6-0.3-15.3-4.7-15.6-15.2c-0.3-9.6,0-19.3-0.2-28.9
		c-0.1-3.7,1.9-3.9,4.7-3.9c2.8,0.1,5.3-0.2,5.2,3.9c-0.2,10.5-0.2,20.9,0.1,31.4c0.2,6.6,3.9,9.6,9.6,8c2-0.6,4.8-3.1,4.8-4.7
		c-0.1-16.8,3.4-34-2.9-50.3c-3.2-8.3-7.4-16.4-12-24c-9.4-15.3-10.3-31.9-9.1-49.1c0.5-6.6,3.8-10.4,10.3-11.7
		c3.5-0.7,7.3-0.8,10.9-0.5c8.5,0.7,12.8,4.9,13.2,13.4C368.7,203.2,368.4,213.4,368.4,223.9z"/>
	<path class="st0" d="M288.9,224c-1.3,0.2-1.9,0.4-2.6,0.4c-7.3,0.3-7.3,0.3-7.3-7.1c0-8.5,0.1-16.9,0-25.4c-0.1-5.6-2.1-7.9-6.7-8
		c-4.9-0.2-7.4,2.2-8,7.5c-0.1,1.1-0.1,2.3-0.1,3.5c0,38.3,0,76.7,0.1,115c0,2.6,0.6,6.2,2.3,7.6c1.8,1.6,5.7,2.3,8,1.5
		c1.9-0.7,4.1-4,4.2-6.3c0.4-10.3,0.4-20.6,0.1-30.9c-0.1-4,1-5.5,5.3-5.5c4.1,0,5,1.5,4.9,5.2c-0.2,9.6,0,19.3-0.1,28.9
		c-0.1,7.7-4.2,12.5-11.8,13.6c-3.4,0.5-7,0.5-10.4,0.1c-8.4-1.1-12.6-6-12.6-14.5c0-38,0-76,0-114c0-6.4,1.2-12.3,7.9-14.6
		c7.9-2.7,16.2-3.4,23.2,2.4c1.9,1.6,3.4,4.8,3.5,7.4C289.2,201.8,288.9,212.7,288.9,224z"/>
	<path class="st0" d="M654.6,277.2c0,12.1,0,24,0,36c0,0.3-0.1,0.7-0.1,1c-1.7,7.6-8.6,11.1-20.2,10.2c-8.6-0.6-13.7-5.1-14.3-12.4
		c-0.2-2-0.2-4-0.2-6c0-35.3,0-70.7,0-106c0-2.5,0-5,0.2-7.5c0.2-1.8,0.5-3.6,1.2-5.3c2.8-6.6,12-9.6,22.4-7.4
		c7.4,1.5,11,5.9,11,13.7c0.1,10.1,0,20.2,0,30.5c-1.4,0.2-2.4,0.4-3.3,0.4c-6.6,0.2-6.6,0.2-6.7-6.3c0-8.8,0.1-17.6-0.1-26.4
		c-0.1-5.7-2.1-7.8-6.8-7.9c-4.8-0.1-7.3,2.3-7.9,7.7c-0.1,0.8-0.1,1.7-0.1,2.5c0,38.8,0,77.7,0,116.5c0,1.8,0.2,3.7,0.9,5.3
		c1.6,3.4,4.7,4.5,8.3,3.9c3.6-0.6,5.5-2.9,5.5-6.6c0-9.6,0-19.2,0.1-28.9C644.6,275.8,644.9,275.6,654.6,277.2z"/>
	<path class="st0" d="M812,323.3c-11.2,0-22.1,0-33.8,0c7-45.7,13.9-90.9,20.9-136.8c-6.6,0-12.7,0-19.1,0c0-2.2,0-4,0-6.4
		c9.8,0,19.5-0.1,29.3,0.2c0.6,0,1.9,2.5,1.7,3.6c-3.6,23.4-7.4,46.7-11.1,70.1c-3,19.3-6,38.6-8.9,58c-0.2,1.3-0.2,2.6-0.3,4.7
		c5.5,0,10.7,0,16,0C812.7,316.6,812.7,316.6,812,323.3z"/>
	<path class="st0" d="M524.6,180.2c0,2.3,0,3.9,0,6.1c-4.1,0-8.2,0-12.9,0c0,2.5,0,4.4,0,6.3c0,41.8,0,83.6-0.1,125.4
		c0,1.8-0.5,4.9-1.4,5.1c-2.4,0.7-5.2,0.3-7.8-0.1c-0.5-0.1-1-1.9-1.1-2.9c-0.2-2.6-0.1-5.3-0.1-8c0-39.7,0-79.3,0-119
		c0-2,0-4,0-6.6c-4.1,0-8,0-11.9,0c-1.5-4.7-0.6-6.6,4.3-6.5C503.7,180.4,513.8,180.2,524.6,180.2z"/>
	<path class="st0" d="M188.7,367.3c-5.4,1.7-8.5-0.1-10.1-5.1c-1.1-3.5-3-6.8-5.4-10c0,5,0,10,0,15.3c-2.7,0-4.9,0-7.5,0
		c0-10.3,0-20.7,0-31c5.4-2,8.4-0.1,10.1,5.1c1.2,3.5,3,6.8,5.4,10c0-5,0-10,0-15.4c2.7,0,4.9,0,7.5,0
		C188.7,346.5,188.7,356.9,188.7,367.3z"/>
	<path class="st0" d="M385.3,367.3c-5.3,1.5-8.5,0.1-10.1-5c-1-3.4-2.9-6.5-5.3-9.6c0,4.8,0,9.7,0,14.8c-2.8,0-5,0-7.8,0
		c0-5.3,0-10.5,0-15.8c0-5.1,0-10.2,0-15.1c5.4-1.8,8.5-0.5,10.1,4.8c1.2,3.7,3.2,7.1,5.7,10.6c0-5.1,0-10.3,0-15.7c2.7,0,5,0,7.5,0
		C385.3,346.6,385.3,356.8,385.3,367.3z"/>
	<path class="st0" d="M535,357c0,3.4,0,6.7,0,10.4c-2.7,0-5,0-7.6,0c0-10.2,0-20.6,0-31.5c4.7,0,9.4-0.4,13.9,0.1
		c6.2,0.6,10.1,9.3,5.9,14.8c-3.2,4.2-1.7,7.1-0.2,10.7c0.7,1.8,1.5,3.7,2.2,5.5c-7.4,1.5-7.4,1.5-10.1-4.8
		c-0.8-1.9-1.9-3.8-2.8-5.6C535.9,356.8,535.5,356.9,535,357z M535,350.8c4,0.1,6.2-1.2,5.9-5.4c-0.2-4.3-3-3.8-5.9-3.4
		C535,345.1,535,347.9,535,350.8z"/>
	<path class="st0" d="M314.8,367.8c0-10.8,0-21.2,0-31.9c7.1,0.6,15.3-2.7,19.5,5.4c3.5,6.7,3.5,14.4,0,21.1
		C330.1,370.5,321.9,367.2,314.8,367.8z M322.4,342.2c0,6.5,0,13,0,19.5c5.7-0.1,6.7-1.9,6.5-11.2
		C328.8,343.2,327.9,342,322.4,342.2z"/>
	<path class="st0" d="M27.1,367.4c0-10.3,0-20.7,0-31.5c6.9,0.7,14.8-2.7,19.2,5c3.9,6.8,3.5,14.5,0.3,21.5
		C44.2,367.8,38.9,368.8,27.1,367.4z M34.7,342.1c0,6.8,0,13.2,0,19.5c5.7-0.1,6.7-1.9,6.6-11.1C41.1,343.2,40.2,342,34.7,342.1z"/>
	<path class="st0" d="M674.3,336.2c2.7,0,4.8,0,7.4,0c0,7-0.1,13.8,0.1,20.5c0.1,1.7,0.9,4.4,2.1,4.9c3.3,1.3,4.8-0.7,4.8-4.1
		c0-6.9,0-13.9,0-21.2c2.6,0,4.8,0,7.4,0c0,8,0.6,16.1-0.2,24c-0.6,6.1-4.6,7.9-12.9,7.5c-5-0.3-8.3-3.1-8.6-8.5
		C674.1,351.7,674.3,344.1,674.3,336.2z"/>
	<path class="st0" d="M289.1,336.1c2.6,0,4.7,0,7.5,0c0,5.7,0,11.3,0,16.9c0,1.5-0.4,3.2,0.1,4.4c0.7,1.6,1.9,3.9,3.3,4.3
		c3.1,0.8,3.2-1.9,3.2-4.2c0-6.9,0-13.9,0-21.2c2.5,0,4.8,0,7.5,0c0,8,0.5,16.2-0.2,24.4c-0.5,5.6-5.4,7.7-13.3,7.1
		c-4.6-0.4-8-3.5-8.1-8.4C288.9,351.8,289.1,344.2,289.1,336.1z"/>
	<path class="st0" d="M162.5,352.3c-0.4,2.6-0.5,5.3-1.2,7.8c-1.8,6.1-5.9,8.3-13.7,7.7c-4.7-0.4-8.6-4.2-9.2-9.6
		c-0.3-2.8-0.4-5.6-0.3-8.4c0.2-9.8,3.9-13.9,12.3-13.9c7.7,0,11.7,4.7,11.8,13.9c0,0.8,0,1.7,0,2.5
		C162.3,352.3,162.4,352.3,162.5,352.3z M154.5,352.6c-0.2-2.7,0.1-5.1-0.6-7.2c-0.5-1.4-2.4-3.3-3.5-3.2c-1.5,0.1-3.9,1.9-4,3.1
		c-0.5,4.5-0.4,9.2,0,13.7c0.1,1.1,2.5,2.6,3.9,2.7c1.1,0.1,3-1.4,3.5-2.6C154.5,356.9,154.3,354.5,154.5,352.6z"/>
	<path class="st0" d="M513.3,367.7c-3.1,0-5.2,0-7.7,0c-0.6-1.7-1.2-3.5-1.9-5.4c-7.4-1.3-7.4-1.3-9.6,5.3c-2.2,0-4.5,0-7.5,0
		c1.7-5.5,3.2-10.8,4.8-16c1-3.3,2.1-6.6,3.1-9.9c1.9-6,1.9-6,9-5.3C506.7,346.5,509.9,356.8,513.3,367.7z"/>
	<path class="st0" d="M421,368.5c3.4-11,6.3-20.8,9.6-30.5c0.4-1,2.8-2,4.3-1.9c1.4,0.1,3.6,1.2,3.9,2.3c3.2,9.5,6.2,19.1,9.3,29.1
		c-2.8,0-5.2,0-7.8,0c-0.5-1.6-1.1-3.3-1.7-5.3c-3.8-0.3-8-2.3-9.3,4.2C429,367.5,424.4,367.7,421,368.5z"/>
	<path class="st0" d="M261.7,345.8c-3.4-0.2-7,1.7-8.6-3.1c-0.1-0.4-2.8,0-4.3,0c0.1,1.3-0.3,3.3,0.4,3.9c1.9,1.5,4.2,2.5,6.4,3.6
		c5.2,2.8,7.2,7,5.6,11.8c-1.7,5-7,7.2-13.8,5.7c-4.7-1-7.5-5-7.1-10.5c1.9,0,3.9,0,6,0c0.1,0.1,0.4,0.3,0.6,0.5
		c1.5,1.4,3,2.9,4.6,4.1c0.2,0.1,2.5-2.1,2.4-2.2c-1.2-1.7-2.5-3.5-4.2-4.8c-1.9-1.5-5-2-6.2-3.9c-1.6-2.5-3.2-6.4-2.3-8.8
		c1-2.6,4.6-5.4,7.4-5.9C257,334.8,260.4,337.6,261.7,345.8z"/>
	<path class="st0" d="M671.1,345.6c-3-0.2-6.5,2.2-8.3-2.7c-0.2-0.6-2.8-0.3-4.2-0.5c0.1,1.5-0.3,3.5,0.4,4.2
		c1.5,1.4,3.6,2.2,5.5,3.1c5.7,2.9,7.9,6.9,6.4,11.9c-1.6,5-5.8,7-13.1,6c-5-0.7-8-4.4-8.1-10.4c3.1-0.3,6.4-2.1,7.9,2.7
		c0.3,0.9,2.3,1.4,3.6,1.6c0.7,0.1,2.1-1,2.1-1.5c0-1.4-0.3-3.1-1.2-4c-1.3-1.2-3.2-1.7-4.8-2.5c-5.7-2.6-8.2-6.6-7.1-11.1
		c1.2-5.1,5.5-7.4,12.7-6.8C667.9,336.3,670.5,339.3,671.1,345.6z"/>
	<path class="st0" d="M122.9,345.7c-3.1,0-6.6,1.8-8.2-2.9c-0.2-0.5-2.6-0.2-3.9-0.3c0.2,1.6-0.2,3.9,0.6,4.6c2.1,1.7,5,2.5,7.3,4
		c5.3,3.4,6.3,10.7,2,14.5c-3.8,3.4-8.4,2.8-12.7,1.6c-4.4-1.3-6.5-4.7-6.6-9.8c3.2,0,6.9-2.7,8.2,2.9c0.2,0.8,2.4,1.3,3.7,1.4
		c0.6,0.1,2-1.1,1.9-1.6c-0.1-1.4-0.3-3.2-1.2-3.9c-1.8-1.4-4.1-2.1-6.1-3.2c-5-2.7-6.9-7-5.3-11.5c1.6-4.5,7.3-6.8,13.5-5.6
		C120.5,336.9,123,340.4,122.9,345.7z"/>
	<path class="st0" d="M772.6,357.3c3.5-0.4,6.8-1.6,8.2,3.2c0.2,0.8,3.1,0.8,4.7,1.1c0.1-1.6,0.7-3.7,0-4.8c-0.9-1.3-2.9-2-4.6-2.7
		c-6.2-2.8-8.8-6.6-7.8-11.2c1.1-5,5-7.2,12.1-6.9c5.3,0.2,7.9,2.9,8.9,9.6c-3-0.1-6.4,2.4-8.2-2.5c-0.3-0.7-2.8-0.5-4.2-0.7
		c0,1.5-0.5,3.4,0.2,4.2c1.3,1.4,3.3,2.1,5,3c6.2,3,8.5,6.9,7,12c-1.5,5.1-5.6,7-13,6.2C775.9,367.2,772.9,363.6,772.6,357.3z"/>
	<path class="st0" d="M796.6,357.3c3.5-0.5,6.8-1.5,8.2,3.2c0.2,0.8,3.1,0.7,4.7,1.1c0-1.6,0.7-3.7,0-4.8c-0.9-1.3-2.9-2-4.6-2.7
		c-6.2-2.8-8.8-6.6-7.7-11.2c1.1-5,5.1-7.2,12.1-6.9c5.3,0.2,7.9,2.9,8.8,9.6c-3-0.1-6.4,2.3-8.2-2.5c-0.3-0.7-2.8-0.5-4.2-0.7
		c0,1.5-0.5,3.4,0.3,4.2c1.3,1.4,3.3,2.1,5,3c6.2,3,8.5,6.9,7,12c-1.5,5.1-5.7,7-13,6.1C799.9,367.2,796.9,363.6,796.6,357.3z"/>
	<path class="st0" d="M572.8,345.8c-3.3-0.2-6.6,1.5-8.2-3c-0.2-0.6-2.5-0.4-3.9-0.6c0,1.5-0.7,3.5,0,4.3c1.2,1.4,3.3,2.1,5.1,2.9
		c6.1,2.9,8.2,6.4,7,12c-0.9,4.1-3.8,6-7.9,6.2c-7.8,0.4-11.6-1.7-13.3-7.4c-0.2-0.8-0.3-1.6-0.5-2.8c3.4-0.5,6.8-2.7,8.4,2.6
		c0.3,0.9,2.3,1.4,3.6,1.6c0.6,0.1,2.1-1,2.1-1.5c0-1.4-0.2-3.2-1.1-4c-1.6-1.3-3.8-1.9-5.7-2.9c-5.3-2.7-7.6-7.1-6-11.6
		c1.6-4.6,6.1-6.7,12.8-5.9C569.9,336.5,572.5,339.7,572.8,345.8z"/>
	<path class="st0" d="M759.1,361.9c3.7,0,7.2,0,11.2,0c0.2,2,0.3,3.6,0.4,5.6c-6.5,0-12.7,0-19.2,0c0-10.4,0-20.8,0-31.3
		c6.4,0,12.5,0,18.9,0c0,1.8,0,3.3,0,5.6c-3.7,0-7.4,0-11.4,0c0,2.6,0,4.5,0,7c3,0,6.1,0,9.4,0c0,2.1,0,3.7,0,5.7
		c-3,0.1-5.9,0.3-9.3,0.4C759.1,357,759.1,359.2,759.1,361.9z"/>
	<path class="st0" d="M348,341.7c0,2.7,0,4.6,0,7.1c3.1,0,6.2,0,9.5,0c1.3,9.4-6.3,4-9.4,6.8c0,1.5,0,3.5,0,6.1c3.5,0,7,0,11,0
		c0.2,2.1,0.3,3.7,0.5,5.7c-6.5,0-12.7,0-19.2,0c0-10.3,0-20.6,0-31.2c6.2,0,12.3,0,18.7,0c0,1.7,0,3.4,0,5.5
		C355.5,341.7,352,341.7,348,341.7z"/>
	<path class="st0" d="M79.3,367.6c-2.8,0-5.3,0-8,0c-3-10.4-5.9-20.7-8.9-31.1c8-1.4,8.1-1.4,9.7,5.6c0.9,3.8,1.7,7.6,3.7,11.4
		c1.4-5.6,2.8-11.3,4.2-17.3c2.5,0,4.9,0,8.2,0C85.3,346.7,82.3,357.2,79.3,367.6z"/>
	<path class="st0" d="M748.3,346.8c-3.2,0.2-6.8,2.7-8.1-3c-0.2-0.9-2.3-1.8-3.5-1.8c-1.1,0.1-3.1,1.4-3.1,2.3
		c-0.3,5-0.4,10.1,0,15.2c0.1,0.9,2.7,2.6,3.5,2.3c1.8-0.6,3.2-2.3,4.2-4.6c2.3,0,4.5,0,6.8,0c-0.3,6.8-3.2,10.3-8.6,10.7
		c-8.4,0.6-12.7-1.9-13.7-8.7c-0.7-4.2-0.8-8.6-0.3-12.8c0.8-7.6,4.6-10.4,12.4-10.4C744.4,336,747.2,338.8,748.3,346.8z"/>
	<path class="st0" d="M717.1,357.1c1,0,3.1,0,5.2,0c-0.1,6.3-3.1,10.2-8.2,10.7c-8.3,0.8-13.3-2-14.3-8.7c-0.6-4.4-0.5-8.9-0.1-13.4
		c0.7-7.2,4.9-10.1,13.3-9.8c5.7,0.2,8.7,3.6,9.3,10.8c-3.1,0.1-6.9,2.6-8-3.1c-0.2-0.8-2.4-1.8-3.5-1.7c-1.1,0.1-3,1.4-3.1,2.3
		c-0.3,5.1-0.3,10.2,0,15.2c0.1,0.9,2.7,2.5,3.5,2.1C713.2,361,714.5,359.3,717.1,357.1z"/>
	<path class="st0" d="M471.5,336.1c6.2,0,12,0,18.1,0c0,1.8,0,3.5,0,5.6c-3.5,0-6.8,0-10.4,0c0,2.5,0,4.5,0,7c3,0.2,6,0.3,9.4,0.5
		c0.1,1.8,0.2,3.4,0.2,5.6c-3.4,0-6.4,0-9.9,0c0,4.4,0,8.4,0,12.6c-2.6,0-4.8,0-7.5,0C471.5,357.2,471.5,346.9,471.5,336.1z"/>
	<path class="st0" d="M450.3,336.1c6.2,0,11.9,0,18.1,0c0,1.8,0,3.5,0,5.5c-3.5,0.2-6.9,0.3-10.5,0.5c0,2.3,0,4.2,0,6
		c2.4,3.3,11-3.3,9.4,6.7c-3.1,0-6.1,0-9.6,0c0,4.5,0,8.4,0,12.6c-2.6,0-4.9,0-7.5,0C450.3,357.2,450.3,346.9,450.3,336.1z"/>
	<path class="st0" d="M410.4,336.2c0,1.9,0,3.4,0,5.3c-2.5,0.2-4.8,0.4-7.6,0.6c0,8.5,0,16.9,0,25.5c-2.8,0-5,0-7.8,0
		c0-8.6,0-17,0-25.3c-8-0.9-8-0.9-7.4-6.1C395.1,336.2,402.5,336.2,410.4,336.2z"/>
	<path class="st0" d="M286.9,336.3c-0.1,1.8-0.1,3.3-0.2,5.2c-2.4,0.2-4.7,0.4-7.5,0.6c0,8.3,0,16.7,0,25.4c-2.8,0-5,0-7.8,0
		c0-8.3,0-16.7,0-25.1c-3.3-1.4-9.8,1.7-7.6-6C271.2,336.3,278.9,336.3,286.9,336.3z"/>
	<path class="st0" d="M522.6,367.6c-2.4,0-4.6,0-7,0c0-10.6,0-20.9,0-31.5c2.4,0,4.5,0,7,0C522.6,346.5,522.6,356.8,522.6,367.6z"/>
	<path class="st0" d="M127,336.1c2.4,0,4.5,0,7,0c0,10.4,0,20.7,0,31.4c-2.3,0-4.5,0-7,0C127,357,127,346.7,127,336.1z"/>
	<path class="st0" d="M90.7,336.2c2.5,0,4.7,0,7.2,0c0,10.6,0,20.9,0,31.3c-2.5,0-4.7,0-7.2,0C90.7,357,90.7,346.7,90.7,336.2z"/>
	<path class="st0" d="M59.9,367.6c-2.5,0-4.7,0-7.2,0c0-10.5,0-20.8,0-31.4c2.4,0,4.7,0,7.2,0C59.9,346.7,59.9,357,59.9,367.6z"/>
	<path class="st0" d="M633.6,349.8c-0.3-2.7-0.6-4.7-0.9-6.7c1.2,0,2.8,0,5.1,0c-1.4,7.3-2.8,14.3-4.2,21.9
		c-4.3-2.2-10.1,2.9-12.5-3.2c-1-2.7,0.1-6.8,1.5-9.7C624.4,348.4,628.3,348.3,633.6,349.8z M622.5,358.5c2.1,2,3.5,4.3,4.5,4.2
		c4.2-0.5,4.7-4.3,4.7-7.6c0-1.4-1.8-2.8-2.7-4.2C627,353.2,625.1,355.5,622.5,358.5z"/>
	<path class="st0" d="M616.7,364.6c-0.7,0-2.2,0-4.1,0c0.4-2.5,0.9-4.7,1.1-7c0.2-2,0-4.1,0-6.2c-0.5-0.3-0.9-0.6-1.4-0.8
		c-1.3,1.5-3.1,2.8-3.9,4.5c-1,2.2-1,4.8-1.8,7.2c-0.4,1.1-1.5,1.9-3.2,2c0.4-4.9,0.9-9.7,1.4-15.4c2.4,0,6.3-0.4,10.1,0.1
		c4.2,0.6,2.7,4.2,2.6,6.8C617.4,358.7,617,361.4,616.7,364.6z"/>
	<path class="st0" d="M599.2,349.4c-0.6,5.1-1.1,10-1.7,15.3c-2.4,0-5.8,0.2-9.1-0.1c-3.4-0.3-4.2-2.8-3.8-5.7
		C585.3,352.8,591,347,599.2,349.4z M596.3,351.1c-5.1,0.3-7.9,3.1-8.1,7.9c-0.1,1.2,1,2.5,1.5,3.7c1.3-0.6,3.3-0.8,3.6-1.8
		C594.6,357.9,595.3,354.6,596.3,351.1z"/>
	<path class="st0" d="M210.9,348.9c4.5,0,6.4,1.9,6.3,6.4c-0.1,5.6-4,9.4-9.3,9.5c-4.2,0.1-6.2-2-6.4-5.9
		C201.2,353.3,205.6,348.9,210.9,348.9z M215.1,355.8c-2.1-2.3-3.3-4.8-4.5-4.8c-4.7,0.2-4.7,4.5-5.1,7.7c-0.2,1.3,1.8,2.8,2.7,4.2
		C210.3,360.8,212.4,358.6,215.1,355.8z"/>
	<path class="st0" d="M232.8,346.4c-3.1-1.9-5.8-2.7-6.4,2c1.1,0.3,2.3,0.6,4.7,1.2c-1.2,0.5-1.6,0.9-2,0.9c-2.7-0.1-3.7,1.2-4,3.8
		c-0.4,3.8-1.2,7.5-2,11.2c-0.7,3.1-2.4,5.4-6.2,5c3.5-6.5,5.5-12.8,4.2-20.3c-0.3-1.9,2.8-5.3,5.1-6.6c1.7-1,4.7,0.2,7.1,0.4
		C233.1,344.6,233,345.1,232.8,346.4z"/>
</g>
</svg>
