<?xml version="1.0" encoding="UTF-8"?>
<svg id="TLC_Primary" xmlns="http://www.w3.org/2000/svg" viewBox="0 0 1290.53 105.25">
  <defs>
    <style>
      .cls-1 {
        font-family: Roboto-Bold, Roboto;
        font-size: 93.44px;
      }

      .cls-1, .cls-2 {
        fill: #fff;
      }

      .cls-3 {
        letter-spacing: -.02em;
      }

      .cls-4 {
        letter-spacing: -.06em;
      }
    </style>
  </defs>
  <text class="cls-1" transform="translate(173.24 79.93)"><tspan class="cls-4" x="0" y="0">T</tspan><tspan class="cls-3" x="51.88" y="0">eaching &amp; Learning Center</tspan></text>
  <g>
    <polygon class="cls-2" points="70.86 1.15 0 1.15 0 24.86 23.49 24.86 23.49 71.91 47.2 71.91 47.2 24.86 70.86 24.86 70.86 1.15"/>
    <polygon class="cls-2" points="117.92 95.61 47.2 95.61 47.2 24.86 70.86 24.86 70.86 71.9 117.92 71.9 117.92 95.61"/>
    <path class="cls-2" d="M141.51,35.37h-23.6c-.64,8.36-5.66,12.96-11.71,12.96-.04,0-.08,0-.12,0-6.5-.06-11.73-5.4-11.67-11.9,.06-6.46,5.34-11.67,11.78-11.67,.03,0,.06,0,1.18,0V1.23c-.8,.02-1.59,.06-2.36,.12V23.08l-3.76-21.32c-.79,.12-1.57,.25-2.32,.41l3.76,21.32-7.42-20.39c-.76,.23-1.5,.49-2.23,.77l7.43,20.42-10.9-18.88c-.7,.36-1.39,.75-2.05,1.15l10.91,18.9-14.04-16.74c-.62,.48-1.22,.98-1.81,1.51l14.05,16.74-16.74-14.04c-.53,.59-1.03,1.19-1.52,1.8l16.74,14.05-18.94-10.93c-.42,.67-.81,1.35-1.18,2.04l18.94,10.94-20.55-7.48c-.29,.73-.56,1.47-.81,2.21l20.55,7.48-21.54-3.8c-.16,.77-.29,1.54-.39,2.32l21.52,3.8h-21.85c0,.28-.03,.56-.03,.84,0,.51,0,1.01,.02,1.52h21.85l-21.53,3.8c.11,.78,.25,1.55,.42,2.32l21.52-3.8-20.54,7.47c.25,.75,.51,1.49,.8,2.21l20.54-7.48-18.93,10.93c.37,.69,.77,1.37,1.19,2.03l18.91-10.92-16.73,14.04c.49,.62,.99,1.22,1.51,1.81l16.73-14.04-14.03,16.72c.58,.53,1.19,1.03,1.8,1.52l14.04-16.73-10.92,18.92c.66,.42,1.35,.8,2.04,1.18l10.92-18.92-7.47,20.53c.73,.29,1.46,.57,2.21,.81l7.48-20.54-3.8,21.53c.76,.16,1.54,.29,2.32,.4l3.79-21.52v21.85c.28,0,.56,.03,.84,.03,.12,0,.23,0,.35,0,.39,0,.78-.02,1.17-.03v-21.85l3.8,21.53c.78-.11,1.55-.25,2.32-.41l-3.8-21.54,7.48,20.55c.75-.24,1.49-.51,2.22-.8l-7.48-20.56,5.89,10.2,5.05,8.74c.69-.37,1.37-.77,2.04-1.19l-5.04-8.73-5.89-10.2,14.05,16.74c.62-.48,1.22-.99,1.81-1.51l-14.05-16.74,16.74,14.04c.53-.59,1.03-1.19,1.51-1.81l-16.74-14.04,18.9,10.91c.41-.67,.79-1.35,1.15-2.05l-18.88-10.9,20.42,7.43c.28-.72,.53-1.47,.76-2.23l-20.37-7.41,21.3,3.76c.16-.76,.29-1.53,.41-2.32l-21.3-3.76h21.72c.06-.77,.1-1.56,.12-2.36Z"/>
  </g>
</svg>