<?xml version="1.0" encoding="utf-8"?>
<!-- Generator: Adobe Illustrator 26.5.0, SVG Export Plug-In . SVG Version: 6.00 Build 0)  -->
<svg version="1.1" id="Layer_1" xmlns="http://www.w3.org/2000/svg" xmlns:xlink="http://www.w3.org/1999/xlink" x="0px" y="0px"
	 viewBox="0 0 841.9 595.3" style="enable-background:new 0 0 841.9 595.3;" xml:space="preserve">
<style type="text/css">
	.st0{fill:#FFFFFF;}
</style>
<g>
	<path class="st0" d="M418,535.9c-12.7-8-25.2-16.4-38.2-23.9c-120.6-69.8-241.3-139.4-362-209.1c-3.1-1.8-6.1-3.7-10.9-6.7
		c6.4-3.7,11.5-6.5,16.5-9.4c129-74.6,258.1-149,386.9-223.9c8.4-4.9,14.1-4.4,22.2,0.3C564.2,139.5,696,215.6,827.8,291.8
		c1.9,1.1,3.8,2.3,7.1,4.3c-4.7,3-8.2,5.6-12,7.7c-129.4,74.8-258.9,149.6-388.3,224.4c-3.9,2.3-7.5,5.1-11.2,7.7
		C421.7,535.9,419.9,535.9,418,535.9z M54.8,296.2c3.2,2.1,4.9,3.3,6.7,4.4c117.1,67.6,234.3,135.1,351.1,203.2
		c8.3,4.8,13.3,2.2,19.8-1.5c109.9-63.6,219.8-127,329.7-190.6c8.1-4.7,16.1-9.6,24.8-14.8c-2.2-1.9-3.1-3-4.2-3.6
		c-117.5-67.9-235-135.7-352.3-203.9c-7.8-4.5-13.2-2.9-20,1.1c-88.7,51.4-177.6,102.7-266.4,154C114.7,261.3,85.4,278.4,54.8,296.2
		z"/>
	<path class="st0" d="M275.2,181c32.6-10.5,55.3,5.9,55.6,41c0.3,50.1-0.2,100.2-0.4,150.2c0,4.1-0.1,8.3,0.3,12.4
		c1.7,17.6,14.7,29.9,31.7,30.1c17.1,0.2,31.8-11.6,32.9-28.9c1.2-17.3,0.3-34.7,0.3-52.7c-10.2,0-19.3,0-31.9,0
		c11.4-11.4,13.6-27.7,32.1-30c0-37-0.3-74.1,0.1-111.2c0.3-27.1,20.1-49.7,46.2-54c27.4-4.5,53.6,10.2,62.6,36.2
		c2.8,8,3.5,17.1,3.6,25.7c0.4,34.3,0.2,68.7,0.2,104.7c6.2,0,11.2,0,16.1,0c51.6,0,103.2,0.1,154.8-0.1c8.6,0,15.1,0.8,11.6,13.5
		c-59.9,2.9-120.4,5.9-181.4,8.9c0,25.3-1.4,49.6,0.5,73.7c1.2,15.9,13.6,24.1,29.7,26.3c-23.2,10.7-50.5-2.2-53.5-26.3
		c-2.2-18.1-1.1-36.7-1.5-55c-0.1-5,0-10,0-15.1c-21.8,0-42.7,0-65.4,0c0,19,0.6,36.3-0.1,53.6c-1.3,28.8-22,51.2-49.1,54.6
		c-27.2,3.3-52.4-12.7-60.7-39.3c-2-6.4-2.3-13.5-2.3-20.3c-0.2-51.5-0.1-102.9-0.1-154.4C307,197.4,300.4,188.3,275.2,181z
		 M484.3,304.1c0-38.8,0.6-76.4-0.3-113.9c-0.4-16.4-15.1-28.7-31.2-29.1c-15.7-0.5-31.7,10.8-32.1,26.1
		c-1.1,38.8-0.4,77.6-0.4,116.9C441.6,304.1,462.1,304.1,484.3,304.1z"/>
</g>
</svg>
