<?xml version="1.0" encoding="UTF-8"?>
<svg id="Layer_2" data-name="Layer 2" xmlns="http://www.w3.org/2000/svg" viewBox="0 0 187.01 152.97">
  <defs>
    <style>
      .cls-1 {
        fill: #fff;
      }
    </style>
  </defs>
  <g id="Layer_1-2" data-name="Layer 1">
    <path class="cls-1" d="M146.49,17.75c0,5.85-1.26,11.48-3.04,16.99-5.06,15.63-12.56,29.95-23.1,42.6-4.81,5.77-10.27,10.85-16.79,14.67-5.07,2.96-10.47,4.87-16.4,4.98-6.66,.13-12.58-2.12-18-5.84-6.13-4.2-10.98-9.67-15.26-15.68-5.5-7.72-9.71-16.13-13.26-24.9-1.92-4.74-3.81-9.49-4.88-14.51-.96-4.55-1.19-9.1,.1-13.63,.7-2.45,1.85-4.67,4.12-6.02,3.02-1.79,6.08-1.55,9.06,.16,2.66,1.52,4.65,3.81,6.69,6.03,3.65,3.97,6.54,8.5,9.69,12.85,2.93,4.05,6.11,7.88,10.15,10.88,2.82,2.1,5.89,3.65,9.46,3.86,4.26,.24,7.79-1.51,10.94-4.2,2.94-2.51,5.26-5.54,7.14-8.89,2.82-5.01,5.52-10.09,8.28-15.13,2.73-4.99,5.71-9.8,9.6-13.99,2.99-3.22,6.32-5.95,10.59-7.32,1.9-.61,3.83-.89,5.8-.52,3.39,.65,5.59,2.78,6.92,5.85,1.62,3.74,2.2,7.69,2.19,11.74Z"/>
    <path class="cls-1" d="M129.16,128.52v-3.49h5.53v27.21h-5.48v-3.82c-2.91,3.21-6.4,4.67-10.51,4.43-4.08-.24-7.52-1.93-10.15-5.09-4.57-5.49-4.2-14.09,.76-19.2,4.48-4.62,13.8-6.4,19.86-.04Zm-8.89,19.32c5.15,0,9.2-4.07,9.2-9.24,0-5.18-4.03-9.2-9.22-9.19-5.2,0-9.25,4.01-9.27,9.17-.02,5.16,4.1,9.27,9.29,9.27Z"/>
    <path class="cls-1" d="M181.5,128.56v-3.52h5.51v27.23h-5.5v-3.8c-2.98,3.24-6.57,4.71-10.8,4.36-4.21-.34-7.68-2.19-10.24-5.58-4.24-5.6-3.56-14.2,1.37-18.92,4.93-4.73,14.01-5.81,19.66,.23Zm-8.91,19.27c5.14,0,9.2-4.05,9.21-9.21,.02-5.18-4-9.21-9.17-9.22-5.24,0-9.33,4.02-9.32,9.18,.01,5.17,4.11,9.25,9.28,9.26Z"/>
    <path class="cls-1" d="M34.86,144.44c2.55,4.06,11.94,5.64,16.07-.86,1.54,.89,3.07,1.77,4.66,2.69-1.67,2.43-3.7,4.31-6.37,5.35-4.95,1.93-9.9,1.86-14.57-.74-5.22-2.91-7.41-7.63-6.91-13.49,.49-5.64,3.51-9.65,8.71-11.85,6.58-2.78,14.35-.63,18.03,4.95,.81,1.22,1.25,2.69,1.86,4.04,.29,.65,.05,.95-.6,1.22-6.69,2.76-13.37,5.54-20.04,8.32-.28,.12-.55,.24-.83,.36Zm-1.87-4.57c5.64-2.35,11.2-4.66,16.77-6.98-1.65-3.11-6.66-4.54-10.67-3.11-4.03,1.44-6.9,6.07-6.1,10.08Z"/>
    <path class="cls-1" d="M87.05,132.79c-1.7,.71-3.34,1.4-5.05,2.12-1.15-2.4-2.86-4.12-5.38-4.92-2.04-.65-4.09-.62-6.11,.09-3.89,1.36-6.2,4.97-5.96,9.26,.22,3.91,3.18,7.29,7.2,8.17,3.72,.82,8.04-.51,10.35-5.35,1.68,.68,3.37,1.37,5.06,2.05-1.97,5.11-7.65,9.59-15.79,8.52-6.8-.89-12.24-6.72-12.44-13.38-.22-7.3,4.52-13.3,11.59-14.66,7.68-1.48,14.24,2.53,16.52,8.11Z"/>
    <path class="cls-1" d="M0,124.97c1.97,0,3.8-.02,5.62,.03,.23,0,.54,.4,.65,.68,2.06,5.18,4.1,10.38,6.15,15.57,.52,1.32,1.05,2.64,1.65,4.17,.67-1.62,1.26-3.04,1.84-4.46,2.07-5.06,4.14-10.12,6.19-15.2,.24-.59,.52-.84,1.2-.82,1.63,.06,3.26,.02,5,.02-.1,.3-.17,.53-.26,.75-3.68,8.61-7.37,17.22-11.03,25.84-.26,.62-.58,.81-1.23,.79-1.27-.05-2.55-.05-3.82,0-.65,.03-.96-.17-1.21-.8-3.36-8.36-6.74-16.7-10.12-25.05-.19-.46-.37-.92-.61-1.52Z"/>
    <path class="cls-1" d="M102.91,146.58c.89,1.53,1.75,3,2.74,4.68-1.14,.44-2.17,.96-3.27,1.24-1.96,.5-3.96,.45-5.92-.02-3.24-.79-4.92-3-5.47-6.17-.17-1-.25-2.03-.25-3.05-.02-7.81,0-15.61-.02-23.42,0-.6,.17-.95,.69-1.26,1.61-.97,3.18-1.98,4.9-3.07v9.44h7.86v4.95h-7.85v1c0,4.15,0,8.3,0,12.46,0,.25,0,.5,.03,.75,.43,3.43,3.33,4.57,6.56,2.48Z"/>
    <path class="cls-1" d="M139.96,125h5.48v4.06c1.26-2.22,2.99-3.76,5.5-4.28,2.39-.5,4.71-.28,7,.8-.75,1.79-1.47,3.52-2.1,5.04-1.42-.18-2.71-.46-4.01-.47-3.82-.03-6.11,2.13-6.18,5.94-.1,5.03-.04,10.07-.05,15.1,0,.33,0,.66,0,1.06h-5.63v-27.25Z"/>
  </g>
</svg>